<svg width="33" height="33" viewBox="0 0 33 33" fill="none" xmlns="http://www.w3.org/2000/svg">
<path d="M9.12822 20.8227C8.56778 19.1687 7.69912 17.6453 7.03951 16.0262C6.60743 14.9657 6.17577 13.7224 5.52142 12.7801C5.0971 12.1691 4.93787 11.45 4.71931 10.7506C4.51519 10.0974 4.2683 9.47139 4.11099 8.80721C3.78736 7.44077 3.44383 6.1047 3.0451 4.75898C2.9454 4.42249 3.73291 4.12367 3.73291 3.8031C3.73291 3.44775 4.67261 3.22789 4.73287 3.30322C5.10728 3.77122 5.80513 4.87547 6.23287 5.30322C7.07723 6.14758 7.41137 6.4426 8.23287 7.30322C9.02477 8.13282 8.66012 9.49237 9.32202 10.433C9.78675 11.0934 10.1191 11.8231 10.5817 12.484C10.9771 13.0488 11.5301 13.5375 11.8629 14.1367C12.2853 14.8969 12.5484 15.7031 12.8858 16.4623C13.0381 16.8049 13.1029 17.2196 13.2034 17.5712C13.2994 17.9074 13.6421 18.3478 13.6825 18.6909C13.7046 18.8786 13.8955 19.0592 13.634 19.1754C13.449 19.2577 13.2313 19.4186 13.0419 19.4607C12.6731 19.5427 12.229 19.6061 11.9598 19.8753C11.7515 20.0836 12.3376 20.0475 12.3797 20.0475C12.9064 20.0475 13.303 20.0435 13.7794 19.8053C14.1683 19.6108 14.5554 19.4004 14.8668 19.1001C15.2657 18.7154 15.4773 18.2764 15.8143 17.8404C16.6267 16.7891 16.8057 15.4914 17.3862 14.3305C17.5178 14.0673 17.4616 13.1938 17.4616 13.9967C17.4616 14.4415 17.5829 14.9617 17.6769 15.3964C17.7871 15.9059 17.7523 16.4252 17.7523 16.9467C17.7523 18.2871 17.3445 19.2483 16.3957 20.1444C15.7068 20.795 14.9515 21.1847 14.0701 21.5764C13.2505 21.9406 11.9584 21.9855 11.0662 21.9855C10.1199 21.9855 9.17044 22.0824 8.2023 22.0824C7.50627 22.0824 6.20857 21.907 5.73136 21.3503C5.43478 21.0043 4.94287 20.8797 4.64932 20.5536C4.25825 20.119 4.13026 19.656 4.19174 20.6397C4.26225 21.7677 5.21014 23.1874 6.36659 23.4444C6.51802 23.478 6.86143 23.7528 6.99644 23.8481C7.32756 24.0819 7.74531 24.2329 8.11616 24.408C8.6848 24.6765 9.47541 24.7956 10.0972 24.7956C10.7696 24.7956 11.4506 24.8925 12.1321 24.8925C12.378 24.8925 12.7351 24.9575 12.9557 24.8387C13.0636 24.7806 13.5318 24.7282 13.5802 24.6556C13.6917 24.4884 13.5856 25.0576 13.5856 25.2585C13.5856 25.5887 13.5856 25.9189 13.5856 26.2491C13.5856 26.6851 13.5856 27.1212 13.5856 27.5572C13.5856 27.9437 13.4973 28.7469 13.8763 28.9838C14.229 29.2042 14.8557 29.3828 15.3244 29.4414C15.7956 29.5003 16.1697 29.6602 16.5679 29.3283C17.0239 28.9483 17.2261 28.9834 17.4723 28.4293C17.637 28.0588 17.8492 27.8455 17.8492 27.4119C17.8492 27.1195 17.9502 26.4462 17.7038 26.2491C17.5734 26.1447 17.4458 25.8117 17.3862 25.6461C17.3249 25.4758 17.0958 25.3575 17.074 25.1832C17.0406 24.9162 16.5857 24.3368 16.3957 24.1657C16.0175 23.8254 15.7646 23.2318 15.3298 22.976C14.7373 22.6275 13.7859 23.468 13.4402 23.9289C13.3412 24.0609 13.0146 24.1337 13.0042 24.3111C12.9802 24.7184 13.0177 25.0928 13.3164 25.3985C13.8859 25.9812 14.9237 26.1361 15.3836 25.4254C15.8308 24.7343 16.105 24.3097 16.105 23.4605C16.105 22.7912 16.105 22.1219 16.105 21.4526C16.105 20.7778 16.2513 20.208 16.4172 19.563C16.5662 18.9834 17.2136 18.6222 17.3647 18.018C17.6186 17.0022 18.5274 16.0989 18.5274 15.0088C18.5274 14.4508 18.9052 13.2646 17.9461 13.2646" stroke="black" stroke-width="5" stroke-linecap="round"/>
<path d="M11.3569 18.497C10.6452 17.2298 9.80031 15.9632 9.2251 14.6211" stroke="black" stroke-width="5" stroke-linecap="round"/>
<path d="M9.73815 19.995C9.85646 19.2235 9.96335 18.4503 10.0917 17.6804C10.1499 17.3309 10.1793 17.1207 10.1927 17.571C10.2124 18.238 10.0409 19.1339 10.2684 19.7762C10.2722 19.7869 10.5546 18.9727 10.5714 18.8756C10.6617 18.3551 10.7168 17.7967 10.7229 17.268C10.7255 17.0458 10.8207 16.5207 10.7061 16.3169C10.6637 16.2415 10.5912 16.449 10.5546 16.5273C10.4384 16.7757 10.2818 17.0019 10.1674 17.2511C9.98843 17.6409 9.68522 18.1643 9.6624 18.5978C9.61822 19.4373 9.98371 18.6 10.0748 18.2106C10.2984 17.2556 10.5394 16.1576 10.4157 15.168C10.404 15.0745 10.0387 15.9256 9.99907 16.0223C9.73091 16.6766 9.51891 17.4216 9.11531 18.0086C9.08444 18.0535 8.72909 18.5846 8.61871 18.4631C8.42012 18.2447 8.85446 17.2123 8.92172 16.9986C9.14599 16.2859 9.37519 15.5719 9.60348 14.8607C9.63808 14.753 9.90623 13.9981 9.73394 14.4862C9.24825 15.8623 8.92218 17.3058 8.60609 18.7283C8.40018 19.6549 8.87277 16.8448 8.90068 15.896C8.91111 15.5413 8.91577 15.1817 8.90068 14.8271C8.89521 14.6987 8.93192 14.3712 8.82913 14.4483C8.75517 14.5038 8.66372 14.7988 8.63134 14.8692C8.45952 15.2427 8.31156 15.6268 8.15158 16.0054C8.01414 16.3307 7.83838 16.8784 7.57923 17.1375C7.28971 17.427 7.71598 16.3269 7.84436 15.9381C8.02959 15.3771 8.19309 14.8052 8.35779 14.2379C8.48506 13.7995 8.45038 13.3173 8.60188 12.8912C8.74062 12.501 8.54193 12.767 8.43354 12.9838C8.01492 13.821 7.69713 14.7099 7.47402 15.6183C7.36055 16.0802 7.36083 16.173 7.42773 15.6646C7.50413 15.0839 7.58997 14.4776 7.6129 13.8928C7.63545 13.3177 7.61711 12.7387 7.61711 12.1632C7.61711 12.025 7.71799 11.3683 7.67603 11.5613C7.49634 12.3879 7.0642 13.1681 6.83434 13.9854C6.79299 14.1324 6.6265 14.9911 6.63234 14.886C6.66005 14.3873 6.9969 13.9475 7.14577 13.4804C7.31179 12.9594 7.49362 12.4394 7.61711 11.9064C7.68683 11.6055 7.73349 11.2913 7.82753 10.9974C7.83881 10.9622 7.51443 11.7035 7.44877 11.8644C7.18264 12.5164 6.96733 13.1874 6.70809 13.8423C6.59358 14.1316 6.55659 14.0818 6.55659 13.7792C6.55659 13.0033 6.4626 12.1662 6.59446 11.4014C6.60892 11.3176 6.77543 10.9341 6.77543 10.9553C6.77543 11.2472 6.3511 11.723 6.19466 11.9485C6.05357 12.152 5.94141 12.4703 5.95058 12.0579C5.95821 11.7142 6.09752 11.387 6.17783 11.0563C6.2401 10.7999 6.35966 10.0176 6.29567 10.2736C6.17458 10.7579 5.79432 11.2364 5.58444 11.6876C5.55943 11.7414 5.36962 12.2992 5.34877 12.2263C5.29299 12.031 5.3494 11.7446 5.38244 11.5529C5.46126 11.0958 5.51686 10.4198 5.41611 9.96636C5.37107 9.76368 4.672 10.4938 4.66701 10.4714C4.57046 10.0369 4.80313 8.69975 4.72172 9.1373C4.63579 9.59915 4.42275 10.0204 4.31771 10.4756C4.3116 10.5021 4.21691 11.0213 4.20829 10.7197C4.19977 10.4212 4.21733 10.138 4.26721 9.84431C4.29958 9.65369 4.48427 9.31415 4.43134 9.12888C4.36426 8.89412 3.75378 9.36506 3.75378 9.04892C3.75378 8.7442 3.79667 8.60083 3.90529 8.32928" stroke="#A5A5A5" stroke-width="0.8" stroke-linecap="round"/>
<path d="M3.98099 3.93571C3.74088 4.79112 3.54173 5.65372 3.31606 6.51126C3.30746 6.54397 3.15429 6.86291 3.14773 6.85635C3.10061 6.80924 3.30285 6.17309 3.31606 6.11567C3.41194 5.69898 3.48976 5.27398 3.60224 4.86156C3.67117 4.60879 3.74786 4.36855 3.75374 4.10405C3.75403 4.0911 3.73937 3.79039 3.81266 3.81788C3.907 3.85325 3.39532 6.68927 3.3834 6.90685C3.3775 7.01445 3.34332 8.62552 3.56436 8.08521C3.76792 7.58762 4.13833 7.04344 4.26717 6.52809C4.39951 5.9987 4.25661 6.8039 4.22508 6.94894C4.0977 7.53489 4.17399 7.30041 4.28821 6.8816C4.32553 6.74474 4.66276 5.80937 4.66276 6.30084C4.66276 6.9863 4.587 7.66833 4.587 8.35455C4.587 8.61427 4.79666 7.87757 4.93209 7.65595C5.19106 7.23219 5.23037 7.64003 5.2856 7.87479C5.30026 7.93707 5.39807 8.27342 5.4371 8.31246C5.5156 8.39096 5.83515 8.2474 5.87057 8.37138C5.94384 8.62781 5.82099 8.93102 5.87899 9.19202C5.90462 9.30737 6.0649 8.8395 6.10203 8.7838" stroke="#A5A5A5" stroke-width="0.8" stroke-linecap="round"/>
<path d="M4.73853 3.70847C5.01337 4.75736 5.22366 5.66328 5.82009 6.56598C5.98893 6.82152 6.10327 7.18849 6.36297 7.374C6.41112 7.40839 6.3728 6.64882 6.36297 6.5786C6.2859 6.0281 6.19909 5.46855 6.06418 4.92891C6.02948 4.79012 5.95055 4.18778 5.95055 4.63853C5.95055 5.23063 5.94229 5.81107 6.06418 6.39343C6.1063 6.5947 6.09993 7.08871 6.28722 7.22249C6.33127 7.25395 6.32931 6.70201 6.32931 6.62911C6.32931 6.3 6.50097 5.57894 6.7249 6.2756C6.76829 6.4106 7.28964 8.29564 7.37299 8.29564C7.44378 8.29564 7.45996 6.63224 7.46558 6.43552C7.48677 5.69392 7.86081 7.86571 8.05476 8.58181C8.12796 8.8521 8.29884 9.51985 8.29884 8.89323C8.29884 8.82992 8.3746 8.66539 8.3746 8.68281C8.3746 9.00145 8.43962 9.32973 8.45456 9.65075C8.48258 10.2532 8.4506 11.1998 8.79123 11.7297C8.93488 11.9532 9.20786 10.2117 9.20786 9.95796C9.20786 9.63391 9.20786 9.30987 9.20786 8.98582C9.20786 8.77958 9.20786 8.80974 9.20786 9.02369C9.20786 9.5776 9.24114 10.1213 9.28361 10.6734C9.31524 11.0845 9.29153 11.6108 9.46878 11.9906C9.58381 12.2371 9.64396 11.9528 9.66237 11.8055C9.70826 11.4384 9.8334 11.1046 9.9275 10.7491C9.97266 10.5785 10.2575 9.12124 10.3862 9.70967C10.6335 10.8403 10.6085 12.05 11.0091 13.1437C11.1518 13.5335 11.1703 13.4524 11.2532 13.1016C11.3587 12.6546 11.4658 12.1816 11.4804 11.7213C11.4898 11.4262 11.5562 11.142 11.5562 10.8459C11.5562 10.7252 11.6309 11.3062 11.6319 11.393C11.6435 12.4093 11.7834 13.4195 11.7834 14.4315C11.7834 14.6517 11.7834 14.872 11.7834 15.0922C11.7834 15.3656 11.8356 14.5464 11.897 14.28C11.9686 13.9699 12.0505 13.6506 12.0822 13.3331C12.1264 12.891 12.0864 13.801 12.0864 13.8844C12.0864 14.3039 12.0864 14.7233 12.0864 15.1427C12.0864 15.2668 12.0091 15.5592 12.1243 15.5131C12.2688 15.4553 12.1622 14.3369 12.1622 14.2C12.1622 13.707 12.0864 12.2299 12.0864 12.7229C12.0864 13.1872 12.0864 13.6515 12.0864 14.1159C12.0864 14.6223 12.0864 15.1287 12.0864 15.6351C12.0864 15.8084 12.0109 16.425 12.1033 15.9634C12.2102 15.4286 12.2759 13.8468 12.4483 14.3642C12.5848 14.7735 12.5409 15.2709 12.5409 15.694C12.5409 15.944 12.4171 16.7104 12.6924 16.8724C12.8219 16.9485 13.2336 15.5421 13.2816 15.3742C13.393 14.9842 13.4271 15.6838 13.4331 15.7698C13.4893 16.5698 13.3444 17.4177 13.5425 18.2022C13.8008 19.2249 14.3145 18.041 14.4515 17.6299C14.5231 17.4152 14.6048 17.2054 14.6451 16.9818C14.6593 16.9032 14.6644 16.6981 14.7209 16.7546C14.8628 16.8964 14.7377 17.6652 14.7377 17.8572C14.7377 18.6777 14.7377 17.8965 14.7377 17.571" stroke="#E8E8E8" stroke-width="0.8" stroke-linecap="round"/>
<path fill-rule="evenodd" clip-rule="evenodd" d="M18.5076 12.3623C18.5131 12.3508 18.5133 12.353 18.5074 12.3628C18.5074 12.3626 18.5075 12.3625 18.5076 12.3623ZM18.1688 12.6972C18.1538 12.7066 18.1387 12.7156 18.1238 12.7245C17.9849 12.8062 17.8181 12.8845 17.6569 12.9527C17.3378 13.0876 16.9911 13.2035 16.8367 13.2398C16.7454 13.2612 16.6592 13.2789 16.5818 13.2944C16.57 13.2968 16.5584 13.2991 16.5472 13.3014C16.4827 13.3144 16.4266 13.3256 16.3742 13.3374C16.2442 13.3666 16.1857 13.3893 16.1581 13.4064C16.1577 13.4067 16.1573 13.4069 16.157 13.4071C16.151 13.4337 16.1449 13.512 16.1854 13.6846C16.195 13.7254 16.2052 13.768 16.2159 13.8122C16.2735 14.052 16.3425 14.3391 16.3748 14.6233C16.4134 14.962 16.4075 15.3477 16.2438 15.7043C16.1874 15.8271 16.1448 15.953 16.0948 16.101C16.0851 16.1298 16.0751 16.1595 16.0646 16.1901C16.0035 16.3691 15.9296 16.5736 15.8153 16.7743C15.7854 16.8267 15.7522 16.9071 15.7119 17.0222C15.6928 17.0768 15.6737 17.1343 15.6531 17.1962L15.652 17.1995C15.6314 17.2616 15.6094 17.3279 15.5862 17.3939C15.5405 17.5241 15.4857 17.6669 15.417 17.7969C15.3499 17.9239 15.2552 18.0666 15.1164 18.1718C15.0766 18.2021 15.0304 18.2555 14.965 18.3531C14.9489 18.3772 14.9286 18.4089 14.9059 18.4444C14.8572 18.5206 14.7972 18.6143 14.7429 18.688C14.6535 18.8093 14.5319 18.9479 14.3596 19.0462C14.1789 19.1493 13.9686 19.1934 13.7295 19.1658C13.2337 19.1086 12.8191 18.8744 12.4723 18.6625C12.4185 18.6296 12.3664 18.5974 12.3159 18.5662C12.0716 18.415 11.8616 18.2851 11.6446 18.1974C11.646 18.2496 11.6473 18.3121 11.6447 18.3754C11.6402 18.4829 11.6242 18.6497 11.5338 18.8034C11.5328 18.8081 11.5317 18.8133 11.5306 18.8189C11.5207 18.8666 11.5089 18.9313 11.4977 18.9991C11.4865 19.0667 11.4766 19.1332 11.4701 19.1841C11.4678 19.2022 11.4662 19.2166 11.4651 19.2275C11.4864 19.4063 11.4476 19.5761 11.4065 19.7048C11.3632 19.8402 11.3034 19.9702 11.2601 20.0645C11.2579 20.0694 11.2557 20.0742 11.2535 20.0788C11.2295 20.1311 11.2021 20.1932 11.175 20.2546C11.1421 20.3292 11.1097 20.4027 11.0843 20.4563C11.0295 20.5723 10.9644 20.6949 10.8719 20.8064C10.6688 21.0515 10.3941 21.1732 10.0103 21.2479C9.53314 21.3408 9.04694 21.2428 8.6446 21.1617C8.63723 21.1602 8.62989 21.1588 8.62257 21.1573C8.18476 21.0691 7.83419 21.0019 7.51 21.0582C7.26886 21.1 7.00732 21.0642 6.76602 20.998C6.51962 20.9303 6.26645 20.8231 6.03021 20.6952C5.57395 20.4481 5.10951 20.0841 4.89462 19.6989C4.89463 19.699 4.89444 19.6986 4.89399 19.6978C4.89373 19.6974 4.8934 19.6968 4.89298 19.6961L4.88833 19.6883C4.88436 19.6818 4.87917 19.6734 4.87277 19.6633C4.85996 19.6431 4.84347 19.6177 4.82424 19.5888C4.78569 19.5309 4.73821 19.4623 4.69035 19.397C4.66872 19.3676 4.64802 19.3402 4.62881 19.3156C4.62354 19.3189 4.61605 19.3236 4.60706 19.3292C4.57642 19.3485 4.52849 19.3786 4.49295 19.3985C4.43169 19.4328 4.35186 19.4711 4.25386 19.4941C4.01724 19.5497 3.7881 19.6634 3.50624 19.8047L3.49933 19.8081C3.28967 19.9132 3.05087 20.0329 2.78819 20.1191C3.03119 20.7998 3.40489 21.4656 3.8637 21.9703C3.95398 22.0697 4.04258 22.1685 4.13019 22.2662C4.76754 22.9772 5.35201 23.6292 6.1462 23.9831C6.33373 24.0667 6.52119 24.1605 6.69819 24.2491C6.78929 24.2947 6.87762 24.3389 6.96176 24.3796C7.22021 24.5047 7.47178 24.6139 7.7493 24.6926C8.16085 24.8094 8.54495 24.7885 9.02393 24.7624C9.07873 24.7594 9.13476 24.7564 9.19223 24.7534C10.186 24.7029 11.1289 24.4814 12.1555 24.2401C12.1881 24.2325 12.2209 24.2248 12.2537 24.2171C12.7445 24.1018 13.2069 23.8929 13.6924 23.653C13.7795 23.61 13.8679 23.5657 13.9573 23.5208C14.3551 23.3213 14.7752 23.1105 15.213 22.9483C15.7015 22.7672 16.0239 22.5008 16.4074 22.1144C16.52 22.001 16.677 21.8228 16.8162 21.6325C16.9618 21.4336 17.0603 21.2585 17.0925 21.145C17.2595 20.5563 17.4998 20.04 17.7418 19.5313C17.8597 19.2836 17.9429 19.0223 18.033 18.7332L18.0424 18.7032C18.1276 18.4298 18.2209 18.1304 18.3548 17.8387C18.4471 17.6377 18.4871 17.4043 18.5188 17.1215C18.5242 17.0733 18.5294 17.0228 18.5348 16.9706C18.5588 16.7376 18.5863 16.4709 18.6509 16.2243C18.6974 16.047 18.7597 15.8042 18.8004 15.5631C18.8435 15.3076 18.8515 15.1117 18.8265 15.0056C18.7719 14.773 18.6969 14.5483 18.6158 14.3075L18.6112 14.2936C18.5332 14.0621 18.4496 13.8136 18.389 13.5555C18.3864 13.5442 18.3821 13.525 18.3765 13.4993C18.3452 13.3572 18.2704 13.0168 18.1777 12.725C18.1747 12.7156 18.1717 12.7063 18.1688 12.6972ZM2.56624 19.3982C2.75951 19.3335 2.95167 19.2389 3.16826 19.1304C3.17664 19.1261 3.18507 19.1219 3.19354 19.1177C3.45254 18.9878 3.75357 18.8368 4.08144 18.7598C4.10078 18.7553 4.10959 18.7498 4.15681 18.7204C4.17673 18.708 4.2035 18.6914 4.24078 18.6688C4.35014 18.6024 4.52009 18.5128 4.75801 18.5242C4.8465 18.5284 4.91214 18.5611 4.94166 18.5774C4.97632 18.5966 5.00418 18.6178 5.0234 18.6337C5.06201 18.6655 5.09703 18.702 5.12502 18.7331C5.18259 18.7972 5.24396 18.8765 5.29849 18.9508C5.40564 19.0969 5.51564 19.2639 5.5533 19.3314C5.66532 19.5322 5.98162 19.8111 6.38938 20.0319C6.58515 20.138 6.78481 20.2209 6.96576 20.2706C7.1518 20.3217 7.29211 20.3305 7.381 20.315C7.8546 20.2328 8.33458 20.3297 8.7325 20.41C8.74557 20.4126 8.75856 20.4153 8.77145 20.4179C9.20803 20.5058 9.55249 20.5686 9.86627 20.5075C10.1656 20.4493 10.2449 20.3809 10.2911 20.3251C10.3234 20.2863 10.3567 20.2307 10.4023 20.1342C10.4299 20.0758 10.4518 20.0256 10.4771 19.9678C10.5016 19.9119 10.5292 19.8488 10.568 19.7641C10.6161 19.6594 10.659 19.5659 10.688 19.4752C10.7181 19.3811 10.7188 19.3317 10.7156 19.3137C10.7054 19.2548 10.7108 19.1943 10.7119 19.1811C10.712 19.1803 10.7121 19.1796 10.7121 19.1792C10.7143 19.1516 10.7179 19.1203 10.7218 19.0891C10.7298 19.026 10.7413 18.9496 10.7536 18.8758C10.7658 18.8021 10.7794 18.727 10.7918 18.6664C10.798 18.6368 10.8047 18.6064 10.8117 18.5798C10.815 18.5671 10.8198 18.5498 10.826 18.5317C10.8291 18.5227 10.8341 18.5089 10.8411 18.4932C10.8455 18.4834 10.8585 18.4548 10.882 18.4223C10.8838 18.4152 10.889 18.3926 10.891 18.3445C10.8926 18.3047 10.8918 18.2606 10.8903 18.2054C10.8902 18.1999 10.89 18.1941 10.8898 18.1882C10.8884 18.1407 10.8868 18.0831 10.8879 18.0283C10.8892 17.9672 10.894 17.8885 10.9139 17.8086C10.9339 17.7282 10.9754 17.621 11.0687 17.5307C11.277 17.3293 11.5519 17.3722 11.7294 17.4273C12.098 17.5418 12.4363 17.7523 12.727 17.9331C12.7745 17.9627 12.8207 17.9915 12.8656 18.0189C13.2072 18.2276 13.4986 18.3799 13.8159 18.4165C13.9054 18.4268 13.953 18.4098 13.9857 18.3911C14.027 18.3676 14.0743 18.3237 14.1358 18.2404C14.1779 18.1833 14.2094 18.1336 14.2467 18.0748C14.2726 18.0339 14.3013 17.9886 14.3383 17.9334C14.4139 17.8205 14.5168 17.6799 14.6606 17.5709C14.674 17.5607 14.7063 17.5273 14.7502 17.4444C14.7923 17.3646 14.8324 17.2639 14.8745 17.144C14.8952 17.085 14.9153 17.0246 14.9362 16.9618L14.9381 16.956C14.9581 16.896 14.9788 16.8334 15.0001 16.7728C15.0425 16.6518 15.094 16.5165 15.1598 16.401C15.2365 16.2663 15.2917 16.1195 15.3508 15.9464C15.3594 15.9213 15.3681 15.8953 15.3771 15.8686C15.4268 15.721 15.4839 15.5516 15.5583 15.3896C15.6395 15.2127 15.657 14.9864 15.6254 14.7086C15.5988 14.4746 15.5426 14.2401 15.485 13.9995C15.4737 13.9523 15.4623 13.9048 15.4511 13.8571C15.3995 13.637 15.3779 13.4256 15.4228 13.2339C15.4731 13.0198 15.5976 12.8663 15.761 12.7651C15.9044 12.6763 16.0712 12.6324 16.2088 12.6015C16.2704 12.5876 16.3362 12.5744 16.4002 12.5616C16.4112 12.5594 16.422 12.5572 16.4328 12.555C16.5089 12.5397 16.5853 12.524 16.6642 12.5054C16.762 12.4825 17.0657 12.3837 17.3631 12.258C17.51 12.1958 17.6428 12.1323 17.741 12.0745C17.7904 12.0455 17.8231 12.0224 17.8421 12.0066C17.8423 12.0064 17.8426 12.0062 17.8428 12.006C17.8924 11.9141 18.0118 11.7435 18.2433 11.7351C18.3686 11.7306 18.4657 11.7802 18.5259 11.8239C18.5848 11.8668 18.6274 11.9173 18.6563 11.9569C18.761 12.1002 18.8402 12.3191 18.8966 12.4966C19.003 12.8318 19.0898 13.2298 19.116 13.3501C19.1196 13.3666 19.1221 13.3779 19.1233 13.383C19.1756 13.6058 19.2493 13.8251 19.3307 14.0669L19.331 14.0677C19.4104 14.3039 19.497 14.5611 19.5609 14.8332C19.6231 15.0983 19.5886 15.4252 19.5441 15.6886C19.4973 15.9663 19.427 16.2381 19.3805 16.4155C19.332 16.6006 19.3118 16.7946 19.2879 17.0229C19.2818 17.0814 19.2755 17.1421 19.2684 17.2056C19.2356 17.4974 19.1865 17.8348 19.0403 18.1534C18.9269 18.4004 18.8462 18.6591 18.7569 18.9456L18.7531 18.9577C18.6647 19.2413 18.5672 19.5523 18.423 19.8554C18.1804 20.3652 17.9659 20.8299 17.8181 21.3508C17.7475 21.5996 17.5811 21.8645 17.4249 22.078C17.2623 22.3002 17.0805 22.5069 16.9428 22.6457C16.5272 23.0645 16.1132 23.419 15.4752 23.6555C15.0801 23.8019 14.7056 23.9896 14.3101 24.1878C14.2169 24.2345 14.1226 24.2818 14.0265 24.3293C13.5337 24.5728 13.0062 24.8152 12.4261 24.9514C12.3855 24.9609 12.345 24.9704 12.3044 24.98C11.2963 25.217 10.2938 25.4527 9.23051 25.5067C9.17521 25.5096 9.11916 25.5127 9.06241 25.516C8.59699 25.5424 8.0839 25.5716 7.54341 25.4182C7.20483 25.3222 6.90826 25.1917 6.63324 25.0586C6.52927 25.0083 6.43203 24.9596 6.33724 24.912C6.17142 24.8289 6.01307 24.7496 5.83916 24.6721C4.88624 24.2474 4.18628 23.463 3.56188 22.7632C3.47513 22.666 3.38984 22.5704 3.30553 22.4777C2.6078 21.71 2.10097 20.6553 1.86885 19.6667C1.82124 19.4639 1.94702 19.261 2.14979 19.2134C2.31815 19.1738 2.48664 19.2538 2.56624 19.3982ZM17.8537 11.996C17.8537 11.996 17.8531 11.9967 17.8517 11.9981C17.8529 11.9967 17.8536 11.996 17.8537 11.996ZM11.4506 18.1347C11.4505 18.1345 11.4526 18.1346 11.4571 18.1353C11.453 18.1352 11.4508 18.1348 11.4506 18.1347Z" fill="white"/>
<path fill-rule="evenodd" clip-rule="evenodd" d="M16.0802 22.5621C16.1282 22.3595 16.3315 22.2342 16.5342 22.2823C16.6528 22.3104 16.7463 22.3796 16.8015 22.4251C16.8653 22.4778 16.9275 22.5413 16.9848 22.606C17.1002 22.7362 17.2209 22.899 17.3309 23.0615C17.4417 23.2251 17.547 23.3964 17.6311 23.5473C17.7094 23.688 17.7861 23.8403 17.82 23.9553C17.8461 24.0443 17.9099 24.1385 18.0248 24.299C18.0285 24.3041 18.0323 24.3094 18.0362 24.3148C18.1311 24.4471 18.2739 24.646 18.328 24.8766C18.3499 24.9699 18.4292 25.1474 18.5459 25.3657C18.6561 25.5719 18.7801 25.7787 18.8651 25.9166C19.0095 26.1509 19.2635 26.6155 19.3756 27.0703C19.4309 27.2947 19.4638 27.5628 19.3924 27.8124C19.3125 28.0921 19.111 28.3119 18.7909 28.406C18.6505 28.4473 18.5126 28.5146 18.3373 28.6001C18.326 28.6057 18.3144 28.6113 18.3027 28.617C18.1234 28.7044 17.9053 28.8087 17.664 28.8653C17.5775 28.8856 17.5063 28.9274 17.3836 29.0061C17.3785 29.0093 17.3733 29.0127 17.368 29.0161C17.2562 29.0881 17.0918 29.1938 16.8794 29.2437C16.2898 29.3821 15.4966 29.6985 14.9049 29.9838C14.7898 30.0394 14.5211 30.1195 14.2896 30.1667C14.1709 30.1909 14.0349 30.2122 13.9146 30.213C13.8567 30.2133 13.7771 30.2095 13.697 30.1849C13.6236 30.1624 13.4683 30.096 13.4013 29.9151C13.381 29.8604 13.3105 29.7354 13.207 29.582C13.1083 29.4356 13.0067 29.3033 12.9487 29.2394C12.6658 28.9281 12.5891 28.5697 12.5261 28.2755C12.5159 28.228 12.5061 28.1822 12.4959 28.1386C12.4355 27.8815 12.3358 27.6823 12.2089 27.4288C12.1734 27.3577 12.1357 27.2824 12.0961 27.2003C12.0322 27.0678 11.9668 26.9369 11.9013 26.806C11.6184 26.24 11.3344 25.6719 11.1665 24.9567C11.1188 24.754 11.2446 24.551 11.4474 24.5034C11.6502 24.4558 11.8532 24.5816 11.9008 24.7843C12.0468 25.4061 12.2839 25.8818 12.5621 26.4398C12.631 26.5779 12.7024 26.7211 12.7755 26.8727C12.804 26.9318 12.8345 26.9923 12.8659 27.0547C12.9986 27.3183 13.1476 27.6144 13.2302 27.9661C13.2453 28.0306 13.2585 28.0891 13.2705 28.1426C13.3369 28.4371 13.3692 28.5806 13.5069 28.7321C13.5995 28.834 13.724 28.9996 13.8324 29.1602C13.8925 29.2494 13.9574 29.3511 14.0119 29.4497C14.0487 29.4446 14.0914 29.4373 14.1391 29.4276C14.2373 29.4076 14.3399 29.381 14.4259 29.3554C14.4687 29.3427 14.5056 29.3307 14.5342 29.3207C14.5616 29.3111 14.5746 29.3056 14.577 29.3046C14.5774 29.3044 14.5775 29.3043 14.5773 29.3044C15.1935 29.0073 16.0422 28.6655 16.707 28.5094C16.7844 28.4912 16.8497 28.4525 16.9764 28.3712C16.9792 28.3694 16.9822 28.3675 16.9851 28.3656C17.1008 28.2913 17.2691 28.1833 17.4916 28.131C17.6407 28.096 17.7892 28.0282 17.9723 27.939C17.987 27.9318 18.0021 27.9244 18.0175 27.9169C18.1794 27.8376 18.3735 27.7426 18.578 27.6824C18.6474 27.662 18.6575 27.639 18.6672 27.605C18.6855 27.541 18.6861 27.4245 18.6433 27.2509C18.5592 26.9097 18.3534 26.524 18.223 26.3124C18.1343 26.1686 18.0013 25.947 17.8807 25.7214C17.7665 25.5079 17.641 25.2504 17.5937 25.049C17.5778 24.9812 17.5266 24.8987 17.4116 24.7381C17.4063 24.7307 17.4008 24.7231 17.3952 24.7152C17.3003 24.5833 17.1618 24.3906 17.0963 24.1682C17.0887 24.1423 17.0507 24.0553 16.9721 23.9144C16.8993 23.7836 16.8055 23.6309 16.7063 23.4843C16.6063 23.3365 16.5059 23.2029 16.4204 23.1064C16.3773 23.0578 16.344 23.0256 16.3215 23.0069C16.3198 23.0056 16.3183 23.0043 16.3169 23.0032C16.14 22.9384 16.0356 22.75 16.0802 22.5621ZM16.3055 22.995C16.3055 22.9949 16.3065 22.9955 16.3086 22.9969C16.3066 22.9958 16.3056 22.9951 16.3055 22.995ZM13.8939 29.4582C13.8939 29.4582 13.8941 29.4583 13.8945 29.4583C13.8941 29.4583 13.8939 29.4582 13.8939 29.4582Z" fill="white"/>
<path fill-rule="evenodd" clip-rule="evenodd" d="M12.1052 19.4513C12.1945 19.3674 12.3228 19.3285 12.4509 19.3589C12.7395 19.4274 13.0236 19.5707 13.2749 19.7086C13.3599 19.7551 13.4405 19.8008 13.5186 19.8449C13.6874 19.9403 13.8441 20.0289 14.0052 20.1056C14.305 20.2482 14.3666 20.5437 14.3644 20.7439C14.3621 20.9442 14.3016 21.1573 14.2366 21.3364C14.1121 21.6793 13.9231 22.0218 13.8467 22.1602C13.8417 22.1694 13.8371 22.1777 13.8331 22.185C13.8028 22.2402 13.7818 22.2847 13.759 22.3329C13.7497 22.3527 13.74 22.3732 13.7293 22.3952L13.7277 22.3985C13.7006 22.4544 13.6459 22.5672 13.5487 22.652C13.4166 22.7675 13.2588 22.7943 13.1142 22.7737C12.9946 22.7567 12.8731 22.7064 12.7605 22.6528C12.7469 22.6463 12.717 22.6371 12.6484 22.63C12.6197 22.627 12.591 22.625 12.5559 22.6225C12.5496 22.622 12.5432 22.6215 12.5365 22.6211C12.4954 22.6181 12.4453 22.6143 12.3944 22.6075C12.2971 22.5946 12.155 22.5666 12.0239 22.4763C11.8792 22.3766 11.7879 22.2297 11.7467 22.0545C11.6914 21.8186 11.6996 21.6095 11.7073 21.445C11.7076 21.4386 11.7079 21.4323 11.7082 21.4261C11.7159 21.2636 11.7213 21.1492 11.6995 21.0238C11.6813 20.919 11.6927 20.8262 11.7068 20.7579C11.7177 20.7045 11.7344 20.649 11.7451 20.6135C11.747 20.6072 11.7487 20.6015 11.7502 20.5966C11.7625 20.5548 11.7676 20.5331 11.7697 20.5169C11.7706 20.5099 11.7706 20.5059 11.7706 20.5041C11.7705 20.5024 11.7704 20.5018 11.7703 20.5015L11.6287 19.8985C11.5811 19.6957 11.7069 19.4927 11.9097 19.4451C11.9767 19.4294 12.0438 19.4326 12.1052 19.4513ZM12.4631 20.1521L12.5046 20.3291C12.5538 20.5383 12.5009 20.7176 12.4736 20.8103C12.47 20.8223 12.4669 20.8326 12.4642 20.8417C12.4541 20.8756 12.4492 20.8921 12.4457 20.9094C12.4456 20.9099 12.4455 20.9104 12.4454 20.9108C12.4787 21.1148 12.4696 21.3008 12.4625 21.4452C12.4619 21.4572 12.4613 21.469 12.4607 21.4804C12.4537 21.6301 12.452 21.7417 12.4756 21.8571C12.4808 21.858 12.4868 21.8589 12.4935 21.8598C12.52 21.8633 12.5504 21.8658 12.591 21.8688C12.5963 21.8691 12.6019 21.8695 12.6076 21.87C12.6423 21.8724 12.6843 21.8754 12.7259 21.8797C12.8218 21.8896 12.9539 21.9095 13.0846 21.9717C13.0876 21.9731 13.0906 21.9745 13.0935 21.9759C13.1152 21.9306 13.1418 21.8768 13.1719 21.822C13.1757 21.815 13.1799 21.8076 13.1842 21.7996C13.2615 21.6593 13.4242 21.3638 13.5276 21.079C13.5795 20.9359 13.6054 20.8246 13.6095 20.7518C13.4456 20.6702 13.2773 20.5751 13.1205 20.4865C13.0481 20.4456 12.9781 20.4061 12.9122 20.3699C12.746 20.2787 12.5977 20.2042 12.4631 20.1521Z" fill="#458FFF"/>
<path fill-rule="evenodd" clip-rule="evenodd" d="M3.99608 2.01473C4.06005 2.05677 4.12241 2.10504 4.17016 2.14251C4.19565 2.16251 4.24121 2.19275 4.31384 2.2389C4.32623 2.24677 4.33926 2.25502 4.35277 2.26357C4.41126 2.30058 4.47892 2.3434 4.54365 2.38695C4.62292 2.44028 4.71078 2.50322 4.78676 2.57122C4.82605 2.60639 4.87821 2.65661 4.92462 2.72067C4.95849 2.7275 5.00001 2.73811 5.04149 2.75481C5.13668 2.79313 5.23806 2.86438 5.30658 2.98719C5.3257 3.02145 5.35432 3.07162 5.38362 3.11346C5.38495 3.11536 5.38624 3.11719 5.3875 3.11894C5.71673 3.24676 5.9612 3.52886 6.13214 3.7334C6.16652 3.77454 6.19832 3.81326 6.22865 3.85018C6.2919 3.9272 6.34874 3.9964 6.4092 4.06348C6.49665 4.16052 6.56539 4.22232 6.62247 4.25769C6.6919 4.30072 6.77416 4.37073 6.84387 4.43359C6.92037 4.50258 7.00567 4.58495 7.08705 4.66839C7.16803 4.75141 7.24903 4.83947 7.31547 4.91975C7.34857 4.95973 7.38101 5.00133 7.40891 5.04181C7.43313 5.07694 7.46883 5.13225 7.49243 5.19593C7.49235 5.19569 7.49297 5.19739 7.49482 5.20113C7.49667 5.20484 7.49946 5.21002 7.50351 5.21671C7.51177 5.23036 7.52367 5.24771 7.54011 5.26888C7.57358 5.31199 7.61804 5.36099 7.67223 5.41622C7.71798 5.46285 7.76545 5.50872 7.81518 5.55676C7.8245 5.56576 7.8339 5.57484 7.84338 5.58401C7.90039 5.63919 7.96267 5.7 8.0154 5.75801C8.1188 5.87178 8.21988 5.99152 8.31586 6.10523C8.33871 6.1323 8.36127 6.15902 8.3835 6.18524C8.50201 6.32501 8.61474 6.45473 8.73171 6.57243C8.84073 6.68212 9.00436 6.86636 9.15243 7.05246C9.28938 7.22459 9.45428 7.44853 9.52288 7.62407C9.58515 7.78343 9.72599 7.97115 9.92288 8.19187C9.9829 8.25917 10.0514 8.3328 10.122 8.40863C10.2561 8.5527 10.3976 8.70472 10.5022 8.83635C10.7097 9.0973 10.8803 9.40024 11.0336 9.67277C11.059 9.71789 11.084 9.76218 11.1085 9.80531C11.2901 10.1244 11.4582 10.3947 11.6695 10.601C12.2033 11.1222 12.6099 11.7818 12.9611 12.438C13.112 12.7199 13.2557 13.0073 13.3949 13.2857C13.4181 13.3321 13.4413 13.3783 13.4643 13.4243C13.6264 13.7478 13.7835 14.0568 13.9466 14.3437C14.1214 14.6515 14.2704 14.976 14.4113 15.2828C14.421 15.3039 14.4307 15.325 14.4403 15.346C14.5926 15.6773 14.7377 15.987 14.9084 16.2708C14.9718 16.3761 15.0316 16.4922 15.0868 16.6005C15.0927 16.6122 15.0987 16.6238 15.1045 16.6353C15.1551 16.7347 15.2033 16.8293 15.2546 16.9209C15.3729 17.1322 15.4802 17.275 15.5899 17.3523C15.7602 17.4722 15.8011 17.7075 15.6812 17.8778C15.5612 18.0481 15.326 18.0889 15.1557 17.969C14.9003 17.7892 14.7251 17.5192 14.5964 17.2894C14.5374 17.1839 14.4823 17.0757 14.4326 16.978C14.4266 16.9662 14.4207 16.9546 14.4148 16.9431C14.3586 16.8328 14.31 16.7392 14.2621 16.6597C14.0669 16.3352 13.9059 15.9894 13.755 15.6611C13.7464 15.6423 13.7378 15.6237 13.7293 15.6051C13.5852 15.2914 13.4489 14.9948 13.2907 14.7164C13.117 14.4106 12.9521 14.0859 12.7899 13.7622C12.7664 13.7153 12.743 13.6685 12.7196 13.6217C12.5801 13.3428 12.4416 13.0659 12.296 12.7939C11.9551 12.1569 11.5922 11.5796 11.1426 11.1407C10.8478 10.8528 10.635 10.4982 10.453 10.1784C10.4252 10.1295 10.3981 10.0816 10.3715 10.0345C10.2161 9.7591 10.0788 9.51576 9.91187 9.30582C9.82289 9.19393 9.72017 9.08395 9.60313 8.95865C9.52803 8.87825 9.44703 8.79154 9.36 8.69397C9.16016 8.46994 8.93619 8.19509 8.82034 7.8986C8.79933 7.84484 8.70786 7.70518 8.56218 7.52208C8.42761 7.35294 8.28234 7.19029 8.1967 7.10412C8.05733 6.96388 7.9284 6.81482 7.80819 6.67305C7.78351 6.64395 7.75931 6.61528 7.73545 6.58702C7.64026 6.47427 7.55041 6.36786 7.45723 6.26534C7.42301 6.2277 7.37736 6.18268 7.31882 6.12602C7.31037 6.11785 7.30167 6.10944 7.29277 6.10084C7.24319 6.05296 7.18731 5.99899 7.13383 5.94448C7.0244 5.83295 6.86784 5.66463 6.79224 5.47637C6.79108 5.4746 6.78963 5.47244 6.78787 5.46988C6.77676 5.45377 6.75918 5.43061 6.73443 5.40071C6.68516 5.34119 6.61911 5.26889 6.54708 5.19505C6.47546 5.12161 6.40178 5.0506 6.33874 4.99375C6.3072 4.9653 6.27989 4.94183 6.25796 4.92405C6.2378 4.90769 6.22748 4.90049 6.22543 4.89906C6.22503 4.89878 6.22494 4.89872 6.22515 4.89885C6.07757 4.80739 5.95246 4.68337 5.84889 4.56844C5.77651 4.48813 5.70154 4.3969 5.63285 4.31331C5.60514 4.27959 5.57845 4.24711 5.55336 4.21709C5.35122 3.97521 5.21418 3.85064 5.09252 3.81453C4.97645 3.78008 4.89909 3.70411 4.86783 3.6719C4.82682 3.62965 4.79203 3.58364 4.76572 3.54605C4.74268 3.51315 4.72125 3.47958 4.70274 3.44919C4.66557 3.44259 4.61338 3.43066 4.56278 3.40896C4.51525 3.38857 4.46037 3.35669 4.40963 3.30617C4.36552 3.26224 4.3318 3.21143 4.30808 3.15677C4.30337 3.15172 4.2956 3.1439 4.28373 3.13327C4.24628 3.09975 4.19197 3.05944 4.12261 3.01278C4.06752 2.97572 4.01113 2.94002 3.95327 2.90339C3.93871 2.89417 3.92406 2.8849 3.90931 2.87553C3.89392 2.86575 3.87794 2.85556 3.86171 2.8451C3.83865 2.89852 3.81374 2.94754 3.79352 2.98688C3.78769 2.99823 3.78217 3.00891 3.77695 3.01903C3.75094 3.06942 3.73212 3.10586 3.71682 3.14152C3.70528 3.16842 3.70185 3.18159 3.70108 3.1843C3.69763 3.23896 3.68366 3.29036 3.67778 3.31196C3.66878 3.34499 3.65737 3.38132 3.64537 3.41733C3.62117 3.48993 3.58991 3.57509 3.55824 3.65688C3.52652 3.73882 3.49285 3.82134 3.46332 3.88886C3.44868 3.92233 3.43383 3.95492 3.41991 3.98308L3.41921 3.98448C3.41037 4.00238 3.38664 4.05043 3.35418 4.0918C3.33471 4.11661 3.29438 4.21113 3.25905 4.39157C3.22823 4.54892 3.21131 4.71339 3.1985 4.83792L3.19747 4.84787C3.11139 5.68375 3.07833 6.63792 3.26276 7.42335C3.36409 7.85492 3.43572 8.26499 3.50553 8.66461L3.50695 8.67276C3.57766 9.07751 3.64676 9.4721 3.74432 9.88761C3.81368 10.183 3.94321 10.4649 4.09267 10.7858L4.10151 10.8048C4.24303 11.1085 4.40257 11.451 4.48943 11.8209C4.52216 11.9603 4.59895 12.0955 4.71399 12.2807C4.72177 12.2932 4.72979 12.3061 4.73802 12.3192C4.83907 12.481 4.9704 12.6913 5.03961 12.9265C5.16742 13.361 5.40787 13.7729 5.69687 14.2012C5.78485 14.3316 5.87972 14.4666 5.97659 14.6045C6.18445 14.9003 6.40152 15.2092 6.5795 15.5136C6.66593 15.6614 6.72598 15.8135 6.77352 15.9339C6.78146 15.954 6.78906 15.9733 6.79637 15.9915C6.85104 16.1275 6.89801 16.229 6.96882 16.3223C7.01531 16.3836 7.07285 16.4551 7.13961 16.538L7.15025 16.5512C7.21989 16.6377 7.29727 16.734 7.37194 16.8322C7.5126 17.017 7.67689 17.2498 7.7536 17.4658C7.83564 17.6968 7.98998 18.0348 8.17737 18.3509C8.37183 18.6789 8.57064 18.9292 8.72653 19.0376C8.84225 19.118 8.91605 19.2268 8.96251 19.306C9.00313 19.3752 9.0398 19.4528 9.06789 19.5122C9.0723 19.5215 9.0765 19.5304 9.08047 19.5387C9.1145 19.6102 9.13786 19.6551 9.15944 19.6866C9.16391 19.6932 9.16744 19.6978 9.17 19.701C9.27826 19.7572 9.36537 19.8464 9.42238 19.911C9.49097 19.9887 9.55685 20.0788 9.61441 20.1665C9.67239 20.255 9.72626 20.3477 9.76971 20.4337C9.80976 20.5129 9.85284 20.6093 9.87386 20.6988C9.92147 20.9016 9.79569 21.1046 9.59292 21.1522C9.39014 21.1998 9.18717 21.074 9.13955 20.8712L9.13954 20.8712C9.13911 20.8698 9.12894 20.838 9.09658 20.774C9.06687 20.7153 9.0274 20.6469 8.98362 20.5801C8.93943 20.5127 8.89514 20.4535 8.85693 20.4102C8.83192 20.3819 8.81745 20.3695 8.81369 20.3661C8.68105 20.2987 8.59358 20.1953 8.53703 20.1127C8.47832 20.027 8.43269 19.9328 8.39954 19.8632C8.39416 19.8519 8.38906 19.8412 8.38421 19.8309C8.35484 19.7691 8.33425 19.7257 8.31188 19.6876C8.29914 19.6658 8.2909 19.6551 8.28773 19.6511C7.994 19.4435 7.73011 19.0755 7.52856 18.7356C7.31801 18.3805 7.14229 17.9983 7.04283 17.7183C7.01014 17.6262 6.91556 17.478 6.77168 17.2889C6.70408 17.2001 6.63276 17.1112 6.56275 17.0243L6.54932 17.0076C6.48536 16.9282 6.42124 16.8486 6.36783 16.7781C6.23337 16.6008 6.1562 16.4212 6.09652 16.2728C6.08661 16.2481 6.07729 16.2247 6.06836 16.2022C6.02019 16.081 5.98338 15.9884 5.92837 15.8943C5.76595 15.6166 5.58073 15.3533 5.38379 15.0733C5.28234 14.9291 5.17778 14.7804 5.07163 14.6231C4.77166 14.1786 4.47754 13.6885 4.316 13.1394C4.27686 13.0064 4.19716 12.8781 4.07871 12.6875L4.07328 12.6787C3.96358 12.5021 3.8199 12.2692 3.75512 11.9933C3.68728 11.7044 3.55883 11.4261 3.40892 11.1043L3.40377 11.0932C3.2609 10.7865 3.09897 10.4389 3.01002 10.06C2.9068 9.62043 2.83429 9.20536 2.76403 8.80313L2.76393 8.80255C2.69319 8.39759 2.62473 8.00582 2.52845 7.59577C2.31415 6.68309 2.35913 5.62546 2.44716 4.7706C2.44771 4.76526 2.44828 4.75975 2.44886 4.75408C2.46132 4.6327 2.48125 4.43851 2.51883 4.24662C2.55301 4.07204 2.61386 3.82764 2.74383 3.64863C2.75051 3.63511 2.76011 3.61436 2.77226 3.58656C2.79643 3.53132 2.82596 3.45916 2.85485 3.38454C2.8838 3.30977 2.91057 3.2365 2.92979 3.17884C2.93945 3.14985 2.94608 3.12817 2.94997 3.11389C2.95979 3.0061 2.99482 2.91129 3.02366 2.84409C3.05066 2.78117 3.08422 2.71637 3.10999 2.66661C3.11448 2.65794 3.11874 2.64972 3.12268 2.64205C3.15376 2.58159 3.17151 2.54388 3.18129 2.51558C3.18154 2.51485 3.18178 2.51415 3.18201 2.51347C3.16648 2.41097 3.15622 2.25616 3.23092 2.11628C3.28265 2.01941 3.36995 1.94005 3.48502 1.90329C3.58751 1.87056 3.6795 1.88199 3.73704 1.89525C3.84581 1.9203 3.94038 1.97812 3.99608 2.01473ZM3.18583 2.50004C3.18585 2.50002 3.18577 2.50056 3.18551 2.50168C3.18568 2.50061 3.18581 2.50005 3.18583 2.50004ZM2.95289 3.10217C2.95293 3.10212 2.95273 3.10315 2.95219 3.10538C2.95259 3.10334 2.95286 3.10222 2.95289 3.10217ZM2.73778 3.66027C2.73779 3.6602 2.73837 3.65911 2.73948 3.6572C2.73833 3.65938 2.73777 3.66034 2.73778 3.66027ZM6.79613 5.4826C6.79612 5.4826 6.79595 5.48231 6.79565 5.48177C6.79599 5.48234 6.79614 5.48261 6.79613 5.4826Z" fill="white"/>
<path fill-rule="evenodd" clip-rule="evenodd" d="M3.67209 2.55078C3.87486 2.50317 4.07784 2.62896 4.12545 2.83173C4.28229 3.49968 4.67735 4.25531 5.05803 4.90273C5.1801 5.11034 5.28958 5.31014 5.39586 5.50411C5.58167 5.8432 5.7577 6.16444 5.97413 6.47836C6.10457 6.66755 6.20455 6.89592 6.28703 7.0843C6.3003 7.11461 6.31312 7.14389 6.32554 7.1718C6.42567 7.39684 6.50803 7.55552 6.60798 7.66051C7.01286 8.08578 7.40757 8.80923 7.65542 9.26631C7.68337 9.31785 7.71543 9.38127 7.74727 9.44423C7.75313 9.45581 7.75898 9.46738 7.76479 9.47886C7.80382 9.55588 7.84436 9.63498 7.88612 9.71062C7.92822 9.78688 7.96837 9.85373 8.00544 9.90679C8.02378 9.93304 8.0395 9.95323 8.0524 9.96804C8.06448 9.98192 8.07105 9.98757 8.07178 9.9882C8.07186 9.98826 8.07187 9.98827 8.07181 9.98823C8.24029 10.1205 8.32713 10.3107 8.37584 10.4175L8.37647 10.4188C8.38232 10.4316 8.38784 10.4438 8.39307 10.4553C8.44463 10.5685 8.46795 10.6197 8.49942 10.6575C8.64918 10.8374 8.7729 11.0315 8.8833 11.2146C8.91932 11.2743 8.95326 11.3316 8.98628 11.3874C9.05892 11.5102 9.12706 11.6253 9.20276 11.741C9.51705 12.2214 9.76473 12.7552 9.99288 13.2677C10.0264 13.343 10.0594 13.4177 10.0922 13.4917C10.2865 13.9311 10.471 14.3481 10.684 14.7298C10.7349 14.821 10.7968 14.9225 10.8669 15.0369L10.8809 15.0597C10.9458 15.1655 11.0164 15.2805 11.0839 15.3972C11.2224 15.6369 11.3689 15.9182 11.4359 16.1927C11.4373 16.1959 11.4427 16.2098 11.4556 16.2385C11.4742 16.2798 11.5007 16.335 11.5336 16.4008C11.5992 16.5319 11.6858 16.6959 11.7754 16.8569C11.8656 17.0188 11.9557 17.172 12.0286 17.2838C12.0619 17.3348 12.0876 17.3711 12.1054 17.3938C12.2278 17.48 12.292 17.6349 12.2553 17.7894C12.2072 17.9921 12.0039 18.1174 11.8013 18.0693C11.6943 18.0439 11.624 17.9795 11.6049 17.962L11.6042 17.9613C11.5734 17.9331 11.5468 17.9025 11.5261 17.8771C11.4839 17.8252 11.4395 17.7612 11.3968 17.6958C11.3102 17.563 11.2104 17.3927 11.1164 17.2239C11.0219 17.0542 10.93 16.8803 10.859 16.7382C10.8236 16.6674 10.7922 16.6022 10.7678 16.5482C10.7492 16.5069 10.7189 16.4384 10.7049 16.3788C10.6667 16.2158 10.5675 16.0111 10.4309 15.7747C10.3685 15.667 10.3029 15.5599 10.2369 15.4524L10.2239 15.4313C10.1551 15.3189 10.085 15.2043 10.0253 15.0973C9.79382 14.6824 9.59342 14.2291 9.40001 13.7916C9.36778 13.7187 9.33575 13.6463 9.3038 13.5745C9.07597 13.0627 8.84939 12.5786 8.57159 12.154C8.48622 12.0235 8.40398 11.8846 8.32739 11.7552C8.29642 11.7029 8.26637 11.6521 8.23741 11.6041C8.132 11.4294 8.03193 11.2749 7.91974 11.1401C7.81726 11.017 7.74853 10.8626 7.70613 10.7674C7.70037 10.7544 7.6951 10.7426 7.69029 10.732C7.66536 10.6774 7.64713 10.641 7.62985 10.6133C7.61324 10.5868 7.60482 10.5806 7.60612 10.5816C7.51585 10.5107 7.44253 10.4181 7.38712 10.3388C7.3287 10.2552 7.27415 10.1628 7.2258 10.0752C7.17711 9.98699 7.13144 9.8977 7.09196 9.81977C7.08536 9.80677 7.07901 9.7942 7.07287 9.78207C7.04076 9.71859 7.01466 9.667 6.99235 9.62586C6.72967 9.14143 6.38312 8.51823 6.06169 8.1806C5.86095 7.96976 5.7337 7.69711 5.63639 7.47842C5.62089 7.44356 5.60606 7.40992 5.59174 7.37742C5.50649 7.18399 5.43923 7.03137 5.35314 6.9065C5.11736 6.56453 4.90575 6.17948 4.70602 5.81607C4.60407 5.63055 4.50521 5.45068 4.40782 5.28505C4.02421 4.63264 3.57618 3.79221 3.39114 3.00415C3.34353 2.80137 3.46931 2.5984 3.67209 2.55078Z" fill="white"/>
<path fill-rule="evenodd" clip-rule="evenodd" d="M2.76003 8.16057C2.73283 7.95406 2.87819 7.76461 3.08469 7.73741C3.29158 7.71016 3.47566 7.76795 3.62183 7.8431C3.76605 7.91726 3.89478 8.01928 4.00195 8.11333C4.0747 8.17717 4.15067 8.24949 4.21757 8.31318C4.24644 8.34066 4.27361 8.36653 4.29811 8.38942C4.39008 8.47533 4.4555 8.53026 4.50565 8.56134C5.00448 8.87046 5.49642 9.12971 6.04466 9.33956C6.11075 9.36486 6.22871 9.42724 6.3387 9.4854C6.35284 9.49288 6.36685 9.50029 6.38061 9.50754C6.51914 9.58059 6.67905 9.6642 6.83173 9.73582C6.87648 9.75681 6.91846 9.77573 6.95733 9.79246C6.95958 9.77999 6.96202 9.76757 6.96468 9.75522C7.00014 9.59059 7.07052 9.43972 7.19452 9.28174C7.2399 9.22391 7.32623 9.11121 7.40045 8.99929C7.43787 8.94285 7.46766 8.89341 7.48704 8.85539C7.49168 8.84628 7.49509 8.83905 7.49753 8.8336C7.51333 8.6401 7.58371 8.42211 7.65207 8.24424C7.72849 8.0454 7.82036 7.85174 7.89315 7.71467C7.96967 7.5706 8.09056 7.40495 8.19326 7.26423C8.21999 7.2276 8.2455 7.19266 8.26866 7.16022C8.40437 6.97022 8.47474 6.84797 8.49155 6.77713C8.53965 6.57447 8.74293 6.44918 8.94559 6.49728C9.14825 6.54537 9.27354 6.74865 9.22545 6.95131C9.169 7.18916 9.00412 7.42828 8.88246 7.59862C8.84584 7.64988 8.8113 7.69734 8.77907 7.74163C8.68347 7.873 8.60818 7.97645 8.55931 8.06846C8.49894 8.18214 8.42026 8.348 8.35614 8.51483C8.28805 8.692 8.25223 8.83028 8.24872 8.90395C8.24285 9.02683 8.18898 9.13922 8.15905 9.19794C8.12126 9.27206 8.07411 9.34823 8.02907 9.41615C7.93835 9.55295 7.83764 9.68401 7.78787 9.74742C7.72845 9.82314 7.71142 9.87056 7.70205 9.91403C7.69058 9.96731 7.68822 10.0204 7.68352 10.126C7.68251 10.1488 7.68139 10.174 7.68004 10.2021C7.67599 10.2871 7.64828 10.3871 7.5739 10.474C7.50139 10.5587 7.41191 10.599 7.34115 10.6172C7.2159 10.6495 7.09364 10.6277 7.02239 10.6115C6.86284 10.5752 6.67494 10.4954 6.51141 10.4187C6.34095 10.3387 6.16689 10.2476 6.02879 10.1747C6.01698 10.1685 6.00549 10.1625 5.99431 10.1566C5.93868 10.1272 5.8908 10.1019 5.85063 10.0813C5.82671 10.069 5.80763 10.0594 5.79291 10.0524C5.77961 10.046 5.77413 10.0437 5.77414 10.0437C5.77414 10.0437 5.77444 10.0438 5.77501 10.044C5.17163 9.81304 4.63657 9.52983 4.10833 9.20249C3.98902 9.12855 3.87636 9.02763 3.78319 8.94059C3.74749 8.90723 3.71443 8.87573 3.68262 8.84542C3.62193 8.7876 3.56578 8.7341 3.50445 8.68028C3.414 8.60091 3.33965 8.54616 3.27692 8.51391C3.21615 8.48266 3.18941 8.48441 3.18319 8.48523C2.97668 8.51243 2.78723 8.36707 2.76003 8.16057ZM7.50232 8.82203C7.50228 8.82213 7.50224 8.82223 7.50221 8.82234C7.50287 8.82014 7.50305 8.81996 7.50232 8.82203ZM7.21287 9.88009C7.21292 9.88014 7.21177 9.88009 7.20933 9.87975C7.21161 9.87987 7.21283 9.88004 7.21287 9.88009Z" fill="white"/>
<path d="M3.00877 20.0661C3.00877 20.452 2.9367 21.4609 3.22428 21.2036C3.54169 20.9196 3.89237 20.5834 4.19411 20.2816C4.49698 19.9788 4.40963 20.227 4.40963 20.6049C4.40963 21.0359 4.42461 21.4067 4.27792 21.8142C4.19106 22.0555 4.2873 20.7594 4.30187 20.4972C4.30877 20.3729 4.62514 19.8778 4.62514 20.2218C4.62514 20.7319 4.40133 21.5091 4.24799 21.9998C4.07774 22.5446 4.24557 21.9804 4.36173 21.7903C4.48936 21.5814 4.71193 21.0743 4.89454 20.9282C5.19232 20.69 4.96886 22.4814 5.06217 22.808C5.12853 23.0403 6.34928 20.9739 6.34928 21.7963C6.34928 22.3492 6.30176 22.8581 6.24751 23.4007C6.20167 23.8591 6.13377 24.0462 6.13377 23.4665C6.13377 22.9305 6.36137 22.6221 6.54085 22.1375C6.66688 21.7972 6.8878 21.8085 6.5648 22.1135C6.16162 22.4943 6.09271 21.1165 5.78654 20.8444C5.67591 20.746 5.70249 21.3421 5.70273 21.3592C5.70915 21.8151 5.74793 22.2818 5.94219 22.7002C6.13215 23.1094 6.22125 23.5724 6.37323 23.0594C6.49732 22.6406 7.31911 20.4595 7.31911 21.9519C7.31911 22.5415 7.10359 23.0775 7.10359 23.6701C7.10359 23.9735 7.10359 23.3691 7.10359 23.2929C7.10359 22.7713 7.27805 22.4308 7.48075 21.9579C7.6228 21.6264 7.75014 21.5229 7.75014 21.904C7.75014 22.306 7.73344 22.6467 7.64837 23.0295C7.52522 23.5837 8.20341 22.5621 8.28295 22.4428C8.47905 22.1487 8.82773 21.1793 8.82773 21.5328C8.82773 22.2155 8.71218 22.759 8.50446 23.4066C8.47223 23.5071 8.18118 24.6521 8.18118 24.2208C8.18118 23.6647 8.51626 23.0299 8.71997 22.5206C8.76405 22.4104 9.14169 21.4575 9.34258 21.5149C9.39017 21.5285 8.9371 22.2285 8.91154 22.2692C8.71038 22.5892 8.42475 22.9328 8.31288 23.2989C8.14255 23.8563 8.05633 23.4653 8.18118 23.0834C8.35264 22.5589 8.62272 21.8875 9.0193 21.4909C9.38231 21.1279 9.59086 21.1976 9.58204 21.6825C9.57354 22.1502 9.48283 22.6079 9.36652 23.0594C9.27805 23.4029 9.33879 23.8216 9.20489 24.143C9.06115 24.488 9.35457 23.3812 9.58803 23.0894C9.92176 22.6722 10.0567 21.9515 10.492 21.6406C11.0304 21.256 9.92549 22.8521 9.80355 23.5024C9.75086 23.7834 9.6132 24.7654 9.69579 23.9395C9.74851 23.4122 9.96782 22.8717 10.1747 22.3889C10.2447 22.2255 10.9929 21.205 11.1864 21.6406C11.3839 22.0848 10.7591 23.1202 10.6117 23.5623C10.4224 24.1303 10.8245 22.5289 10.8751 22.3291C11.1146 21.3845 11.156 20.4034 11.39 19.4675C11.4283 19.3143 11.544 19.2775 11.4978 19.4675C11.3779 19.9603 11.1179 20.4273 10.8991 20.8803C10.7825 21.1217 10.1631 22.7584 10.5519 21.7065C10.8306 20.9523 11.0622 20.1089 11.1745 19.3118C11.2241 18.9594 11.2534 18.002 11.6055 17.7673C11.8513 17.6034 11.6315 18.3621 11.5816 18.6533C11.4646 19.3356 11.2524 20.0217 11.0667 20.6887C10.8689 21.3993 10.473 22.0927 10.4441 22.8439C10.4238 23.3719 10.7817 21.8418 10.9829 21.3532C11.1819 20.8701 11.4799 19.42 11.6235 19.9224C11.7003 20.1913 11.4316 20.6386 11.3601 20.8863C11.1865 21.487 10.9509 22.0857 10.8332 22.7002C10.7745 23.0072 10.7674 24.3668 10.7674 23.3408C10.7674 22.7068 10.8944 22.1415 11.0428 21.5269C11.1772 20.9698 11.451 20.3765 11.6893 19.8566C12.0016 19.1752 12.0607 19.1815 11.9467 19.9224C11.7949 20.9094 11.1662 21.7877 11.0966 22.796C11.0774 23.0745 11.0174 23.1927 11.1625 22.9157C11.3598 22.539 11.7308 22.1719 11.9767 21.8142C12.3265 21.3054 12.635 20.772 12.9585 20.2457C13.0164 20.1514 13.3088 19.3758 13.4374 19.3597C13.4572 19.3572 13.2085 20.0068 13.1979 20.0302C12.9291 20.6277 12.6157 21.2 12.3838 21.8142C12.2171 22.2557 11.976 22.7069 11.8689 23.1672C11.7987 23.4692 11.8379 23.2183 11.845 23.0594C11.8817 22.2336 12.5221 21.3879 12.9465 20.7127C13.0093 20.6128 13.9713 19.1013 14.084 19.228C14.3001 19.4712 13.5331 21.2213 13.4853 21.5987C13.4164 22.143 13.1853 23.7723 13.2458 23.227C13.3346 22.4286 13.7454 21.6529 13.8984 20.8623C13.9317 20.6903 14.3234 19.277 14.3234 19.7608C14.3234 20.7165 13.9939 21.6788 13.8984 22.6344C13.8357 23.2615 14.0976 22.263 14.2157 22.0597C14.6801 21.2598 15.0766 20.4311 15.4549 19.5872C15.8842 18.6294 16.0022 19.1926 15.6644 19.9165C15.2804 20.7393 14.7443 21.8259 14.6527 22.7421C14.6251 23.0177 14.6467 22.8829 14.6467 22.6823C14.6467 22.2213 14.6467 21.7603 14.6467 21.2994C14.6467 20.3452 14.5506 19.3266 14.7784 18.3899C15.0714 17.1855 14.2157 22.0656 14.2157 22.0656C14.2157 22.0656 14.4472 20.978 14.6706 20.4732C14.8365 20.0985 15.3454 19.223 15.7243 19.0125C15.9325 18.8968 15.7078 19.5064 15.7003 19.5273C15.5153 20.0453 15.3653 20.5683 15.2094 21.0958C15.146 21.3104 14.955 22.6444 14.97 21.8501C14.9991 20.3051 15.4067 18.5998 16.2571 17.3243C16.6748 16.6976 15.8477 18.7774 15.7303 19.5213C15.6736 19.8804 15.6165 20.2409 15.6165 20.6049C15.6165 20.7623 15.5864 21.1409 15.6704 20.7546C15.8375 19.9857 16.0076 19.2172 16.2092 18.4557C16.2848 18.17 17.1178 16.3774 17.0054 17.2764C16.892 18.1835 16.3471 19.0156 16.2691 19.9524C16.2115 20.6431 16.486 19.9264 16.6941 19.6291C17.0473 19.1246 17.5233 18.4868 17.658 17.881C17.8284 17.1139 17.3066 19.4192 17.0174 20.1499C16.9632 20.2869 16.8974 20.6771 16.8019 20.7725C16.6779 20.8965 16.8432 20.42 16.9096 20.2577C17.1771 19.6038 17.6351 19.023 17.9633 18.4019C18.5985 17.1994 17.9134 18.7325 17.6879 19.1322C17.5633 19.3531 17.0174 20.3533 17.0174 20.2338C17.0174 19.4745 17.3306 18.861 17.5562 18.1504C17.8063 17.3625 18.1357 16.5566 18.4182 15.7797C18.6956 15.0169 17.8313 16.2766 17.7118 16.4383C17.595 16.5963 17.6113 17.116 17.4724 16.977C17.3425 16.8472 17.7011 16.2936 17.7717 16.1928C17.8144 16.1318 18.2985 15.3047 18.2985 15.5103C18.2985 16.2518 17.6544 16.9517 17.5622 17.6895C17.4823 18.3287 17.662 17.4004 17.7717 17.2045C18.0383 16.7284 18.2498 15.8776 18.3045 15.3307C18.3731 14.6452 18.4022 14.8864 18.095 15.4325C17.813 15.9337 17.0064 17.4247 17.1311 16.8633C17.2884 16.1556 17.8498 15.4746 18.1967 14.8458C18.3437 14.5794 19.0619 13.185 18.6098 14.2232C18.233 15.0884 17.5853 15.8543 17.1251 16.6777C16.953 16.9859 17.1171 15.8944 17.1491 15.7558C17.2877 15.155 17.4112 14.553 17.5322 13.9478C17.718 13.0191 17.5452 13.8007 17.3407 14.2951C17.114 14.8428 16.2252 16.3874 16.5025 15.8635C16.7112 15.4693 16.9251 15.0784 17.1251 14.6782C17.2899 14.3487 17.5 14.0484 17.64 13.7084C17.9112 13.0497 16.7457 14.8326 16.4367 15.4744C16.0535 16.2702 16.7687 14.9496 16.8617 14.7381C17.0809 14.24 17.4454 13.4001 17.8256 13.0199C18.2596 12.5859 17.1148 14.0235 16.8138 14.5585C16.7117 14.7401 16.3708 15.579 16.3708 15.3786C16.3708 15.0231 16.4938 14.7708 16.748 14.5166C17.1161 14.1484 16.4433 15.7067 16.3708 15.8516C16.2755 16.0423 15.5012 17.5236 15.8859 17.6775C15.9923 17.72 16.2259 17.3389 16.2631 17.2644" stroke="#458FFF" stroke-width="0.8" stroke-linecap="round"/>
<path d="M7.9336 0.830566C7.9336 2.72989 8.01501 4.43119 6.18456 5.8273C5.83939 6.09056 5.55872 6.50476 5.26125 6.81415C4.90354 7.1862 5.01837 7.16683 5.36634 7.60114C6.06858 8.47759 7.48205 9.17046 7.9261 10.1557C8.22236 10.8131 8.38736 11.3676 8.48159 12.0732C8.55659 12.6348 8.83828 13.2117 8.87944 13.7596C8.90582 14.1109 9.00344 13.0612 9.11965 12.7228C9.34906 12.0547 9.48133 11.5514 9.89283 10.9427C10.4207 10.1618 11.1856 9.51714 11.777 8.75663C11.997 8.47372 12.1728 8.01702 12.5276 7.82599C12.7118 7.72686 12.8632 7.62982 12.963 7.46373C13.2511 6.98436 12.6866 6.93785 12.4226 6.56432C12.171 6.2085 11.3132 5.61554 10.8387 5.44005C10.2262 5.21356 10.0096 4.43453 9.62259 4.04097C9.23069 3.64242 8.79914 3.13205 8.63922 2.62939C8.47391 2.10974 8.29142 1.38958 7.9336 0.942993" stroke="black" stroke-linecap="round"/>
<path d="M6.77471 6.77346C6.64647 6.7374 6.38164 6.71701 6.28508 6.64536C6.24157 6.61308 6.16215 6.50041 6.09327 6.50041C5.90626 6.50041 6.298 6.9263 6.32042 6.94876C6.53591 7.16462 6.79866 7.34218 7.09272 7.50834C7.39853 7.68116 7.68217 7.87685 7.94578 8.07805C8.11089 8.20406 8.36111 8.37706 8.44551 8.53987C8.45903 8.56598 8.45099 8.70168 8.53636 8.70168C8.60687 8.70168 8.14302 7.97969 8.1174 7.94489C7.79236 7.50325 7.27443 6.96885 7.27443 6.45659C7.27443 6.24937 7.52046 6.14531 7.59497 5.97116C7.65948 5.82037 7.71738 6.01458 7.73125 6.06555C7.82581 6.41285 8.00724 6.75771 8.1174 7.10551C8.12429 7.12726 8.24705 7.41898 8.25117 7.41733C8.32212 7.3889 8.27388 7.1498 8.27388 7.10719C8.27388 6.75035 8.1915 6.40678 8.14769 6.05207C8.11066 5.75224 8.09217 5.45959 8.09217 5.15875C8.09217 5.03177 8.09217 4.65085 8.09217 4.77782C8.09217 5.11191 8.00054 5.45916 7.95588 5.7925C7.86414 6.47719 7.81128 7.18163 7.87511 7.86904C7.87717 7.89115 7.89243 8.16929 7.95588 8.03422C8.04003 7.85508 8.04086 7.64607 8.08207 7.46115C8.22742 6.80887 8.3505 6.14798 8.40008 5.48911C8.42205 5.19706 8.4556 4.32023 8.4556 4.61264C8.4556 4.95296 8.31935 5.26886 8.27136 5.60541C8.2323 5.87928 8.05328 6.69481 8.14264 6.42625C8.2982 5.95876 8.53671 5.50197 8.70294 5.0357C8.76058 4.87402 8.84938 4.72225 8.93009 4.56545C8.9444 4.53764 9.0418 4.40902 9.04618 4.51151C9.09094 5.55758 8.98291 6.59324 8.82913 7.63307C8.8008 7.82468 8.85493 7.59406 8.87456 7.54205C9.00975 7.18394 9.26208 6.84839 9.49038 6.51389C9.69342 6.21642 9.9107 5.92381 10.1163 5.62732C10.2205 5.477 10.3182 5.32153 10.3182 5.15369C10.3182 5.08762 10.2196 5.10639 10.1516 5.12672C9.78979 5.23505 9.60801 5.59105 9.48029 5.81609C9.2107 6.29109 9.08815 6.79491 9.02852 7.29934C9.01328 7.42826 8.95591 7.81196 9.0058 7.68701C9.08858 7.47971 9.26731 7.29156 9.41214 7.10214C9.65472 6.78489 9.89187 6.4661 10.1113 6.1414C10.2543 5.92965 10.3969 5.73083 10.4772 5.50428C10.5139 5.40088 10.5695 5.30335 10.3939 5.43685C9.4687 6.14057 8.91557 7.07883 8.60199 7.98197C8.5849 8.03119 8.46968 8.7219 8.48841 8.71517C8.57416 8.68433 8.67221 8.58006 8.73323 8.5365C8.93435 8.39292 9.14389 8.25441 9.3541 8.11681C10.0783 7.64276 10.7357 7.16441 11.3757 6.64199C11.4868 6.55127 11.117 6.80204 11.0097 6.89482C10.5152 7.32259 10.1515 7.79712 9.83868 8.29379C9.74891 8.43634 9.54591 8.66074 9.54591 8.82304C9.54591 8.85947 9.5795 8.75358 9.60143 8.72022C9.66734 8.61996 9.74796 8.52383 9.82858 8.42863C10.1092 8.09721 10.4271 7.78039 10.7523 7.46789C10.7695 7.45142 11.176 7.03011 11.1713 7.02966C11.097 7.02257 10.727 7.49551 10.7069 7.51846C10.4162 7.84963 10.1535 8.1939 9.8942 8.5365C9.77175 8.69827 9.82463 8.56714 9.87401 8.4792C10.0098 8.23736 10.3654 8.03654 10.616 7.84882C10.6866 7.79597 11.8459 6.97068 11.8527 6.97572C11.9567 7.0521 11.7154 7.43329 11.6811 7.50834C11.5964 7.69394 11.5189 7.88023 11.4287 8.06456C11.3641 8.19651 11.4892 8.00462 11.5095 7.98029C11.6737 7.7829 11.8651 7.60269 12.09 7.43418C12.3675 7.22618 12.9732 6.93654 13.0415 6.64031C13.0624 6.54958 12.8414 6.59493 12.8194 6.51389C12.7799 6.36882 12.7133 6.23944 12.5417 6.13634C12.2529 5.96274 11.8816 5.84269 11.5726 5.68294C11.4698 5.62978 11.0688 5.3235 10.934 5.34921C10.8272 5.3696 10.8663 5.74818 10.8659 5.76721C10.8575 6.13684 10.922 6.54552 10.7271 6.89988C10.7198 6.91311 10.5569 7.11251 10.5479 7.08528C10.514 6.98348 10.5601 6.8545 10.5933 6.75661C10.7186 6.38696 10.7847 6.00336 10.9517 5.6408C10.9774 5.58505 10.9866 5.49461 11.0653 5.45708C11.0965 5.44217 11.0894 5.47872 11.0905 5.48911C11.0998 5.57764 11.1335 5.65134 11.2117 5.72508C11.3368 5.84318 11.6552 5.94465 11.7265 6.07566C11.7334 6.08826 11.7752 6.15548 11.772 6.09926C11.7591 5.87671 11.1541 5.59593 10.8987 5.49922C10.6232 5.39488 10.1486 5.28661 10.0204 5.06773C9.9249 4.90475 9.92297 4.71073 9.83868 4.54185C9.774 4.41228 9.72466 4.26438 9.54338 4.18115C9.39888 4.11481 9.2695 4.1553 9.11433 4.13227C8.89885 4.10029 8.95533 3.94176 8.95533 3.83057" stroke="black" stroke-linecap="round"/>
<path d="M8.3499 2.99899C8.3499 3.79901 8.51842 4.80299 8.01512 5.47885C7.67805 5.93149 7.21256 6.37897 7.03558 6.92956C6.77692 7.73427 7.69381 5.4997 7.39516 6.353C7.25412 6.75597 7.08778 7.13716 7.01698 7.56192C6.98038 7.78155 6.99001 8.15586 6.84959 8.34308C6.46025 8.86219 7.83187 7.3513 7.90353 6.70637C7.94322 6.34918 8.01512 7.61921 8.01512 7.77271C8.01512 8.46853 7.92526 8.47653 8.3561 7.9649C8.77683 7.46529 8.90787 7.32828 8.90787 8.0393C8.90787 8.55027 9.00109 9.68967 8.65988 10.1162C8.4447 10.3852 8.93205 9.61689 8.99467 9.53341C9.21731 9.23655 9.35424 8.67916 9.35424 9.31022C9.35424 9.52003 9.22148 10.3449 9.63943 10.079C9.88106 9.92521 10.2291 9.18556 10.247 9.47141C10.2783 9.97165 10.3705 9.5295 10.6314 9.22343C11.3384 8.394 12.2084 7.74561 12.9748 6.97916C13.1766 6.77742 12.0998 7.79503 11.9271 7.9525C11.5665 8.28128 10.9869 9.12423 10.4268 9.12423C10.3072 9.12423 10.3442 8.53922 10.3834 8.46087C10.5378 8.15195 11.0648 7.88765 11.3629 7.74791C11.4292 7.71686 12.1921 7.30891 11.9581 7.62392C11.3996 8.37573 10.5927 9.23018 9.73862 9.645C9.42143 9.79907 9.66527 8.23502 9.69522 8.07029C9.77101 7.65346 9.93647 7.25277 10.0796 6.85517C10.1694 6.60576 10.348 6.44525 10.0548 6.70018C9.88916 6.84421 8.47083 8.08638 8.4615 7.9091C8.43174 7.34379 8.46677 6.76853 8.62269 6.2228C8.72382 5.86883 8.89354 5.51666 8.90787 5.14407C8.91537 4.94903 8.8426 5.47117 8.78388 5.57184C8.68203 5.74645 8.03905 6.96403 8.13912 6.56378C8.23148 6.19432 9.10017 4.90043 9.55263 4.94568C9.81296 4.97171 9.06337 6.72589 9.01946 6.85517C8.82885 7.41642 8.90787 7.0007 8.90787 6.68158C8.90787 6.417 9.11146 6.35399 9.27985 6.18561C9.29934 6.16612 9.43571 5.89106 9.45964 5.97482C9.54039 6.25746 9.13106 7.08712 9.13106 6.79317" stroke="black" stroke-linecap="round"/>
<path d="M8.44692 5.07214C8.44692 5.45223 8.07662 5.84149 7.80662 6.12395C7.64477 6.29326 6.71591 7.04332 6.77827 7.20343C6.82533 7.32427 7.64694 7.69601 7.81309 7.81237C8.07281 7.99425 8.69995 8.3462 8.7897 8.61507C8.82723 8.72748 8.93937 9.15496 9.00314 9.05793C9.2177 8.73144 9.42324 8.43689 9.72751 8.16113C9.91012 7.99563 10.2673 7.75661 10.4001 7.56326C10.5857 7.29332 10.6263 7.36397 10.1932 7.36397C9.55305 7.36397 9.01887 7.21753 8.50513 6.86575C8.35419 6.7624 8.44692 6.27859 8.44692 6.11841C8.44692 5.98582 8.64562 5.34355 8.67329 5.42644C8.75609 5.67449 8.81794 6.02288 8.93846 6.26788C9.07735 6.55022 9.20601 6.58581 9.46881 6.78825C9.80833 7.0498 10.2922 7.46362 10.7753 7.46362" stroke="white" stroke-linecap="round"/>
<path d="M10.7753 7.07214C10.643 6.1561 9.379 5.76876 8.77527 5.07214" stroke="white" stroke-width="0.7" stroke-linecap="round"/>
<path d="M8.77527 9.07214C8.77527 9.74051 8.77527 10.3769 8.77527 11.0721" stroke="white" stroke-width="0.7" stroke-linecap="round"/>
<path d="M11.4116 7.41183C11.5618 7.41183 11.7753 7.27387 11.7753 7.09428C11.7753 6.87053 11.4449 7.40347 11.2652 7.54084C11.0725 7.68806 10.7932 7.71952 10.6137 7.87824C10.461 8.01322 10.1832 8.22698 10.4571 7.89809C10.6626 7.65126 11.3854 6.98909 11.0682 6.67748C10.8896 6.50198 10.5037 6.51941 10.2803 6.37978C10.1123 6.27476 9.94588 6.15595 9.77527 6.07214" stroke="white" stroke-width="0.7" stroke-linecap="round"/>
<path d="M8.53343 3.07214C8.53343 3.84291 8.74777 4.67744 8.49179 5.42645C8.31619 5.94028 7.8533 6.3563 7.51156 6.72665C7.42488 6.82059 7.355 6.93621 7.25609 7.02197C7.10323 7.1545 7.13008 7.2566 7.26177 7.39931C7.53792 7.69859 7.83123 7.93221 8.00735 8.31397C8.14521 8.61276 8.16849 8.93546 8.30256 9.23682C8.44917 9.56636 8.66038 9.8485 8.82295 10.1617C8.88413 10.2796 8.91983 10.4423 8.99516 10.5473C9.04459 10.6162 9.10878 10.6417 9.11248 10.7421C9.11551 10.8241 9.14655 10.8876 9.14655 10.9718C9.14655 11.0263 9.21467 11.1329 9.21467 11.0272C9.21467 10.6644 9.29947 10.3224 9.37741 9.97511C9.46891 9.56743 9.61995 9.24057 9.89591 8.94151C10.032 8.79403 10.1291 8.61349 10.2384 8.44317C10.3461 8.27535 10.5116 8.19243 10.6453 8.05557C10.7885 7.909 10.9904 7.75667 11.107 7.59414C11.2294 7.42366 11.3911 7.29849 11.565 7.21474C11.6728 7.16281 11.8096 7.0547 11.7674 6.89482C11.7559 6.85101 11.4071 6.83965 11.353 6.8374C11.1822 6.83028 10.9417 6.6645 10.7777 6.5954C10.5282 6.49024 10.2979 6.27315 10.0662 6.12782C9.82546 5.97676 9.62117 5.73034 9.41904 5.52694C9.24856 5.35538 9.00139 5.07734 8.91568 4.83582C8.90454 4.80444 8.83999 4.66114 8.83999 4.69637C8.83999 5.07677 8.84988 5.45274 8.87405 5.83251C8.90982 6.39461 9.00032 6.92725 8.83242 7.47314C8.77361 7.66432 8.75801 7.8523 8.63561 7.6249C8.46895 7.31527 8.26755 7.02812 8.00735 6.80253C7.97146 6.77142 7.68868 6.50374 7.68376 6.52773C7.61852 6.8459 7.93022 7.28447 8.11711 7.49365C8.29882 7.69704 8.48598 7.90072 8.68481 8.08428C8.78856 8.18005 8.88573 8.26903 8.96867 8.38779C8.97825 8.40152 9.06199 8.53837 9.04247 8.44317C8.98307 8.15348 8.54845 7.90237 8.33662 7.76846C8.0907 7.61299 7.80873 7.5225 7.54562 7.41162C7.34102 7.32539 7.09128 7.0958 6.86438 7.0958C6.78672 7.0958 6.72716 7.11173 6.83032 7.16142C7.0025 7.24436 7.21052 7.27853 7.39234 7.33574C7.57068 7.39185 7.72572 7.47832 7.88624 7.57773C8.07538 7.69486 8.28596 7.90628 8.49936 7.94482" stroke="white" stroke-linecap="round"/>
<path d="M9.61479 7.36321C9.62511 7.40809 9.94193 8.31617 9.65612 8.00874C9.55743 7.90259 9.42176 7.81693 9.30847 7.72408C8.96498 7.44257 8.63546 7.13756 8.13668 7.12113C7.80176 7.11011 7.24491 7.19148 6.95517 6.99113C6.90056 6.95337 6.77527 6.83786 6.77527 6.77819C6.77527 6.74847 7.08927 6.61958 7.13021 6.6056C7.22076 6.57468 7.47056 6.4495 7.47056 6.33439C7.47056 6.26554 7.68774 6.15582 7.73312 6.07214" stroke="white" stroke-linecap="round"/>
</svg>
