<svg width="32" height="33" viewBox="0 0 32 33" fill="none" xmlns="http://www.w3.org/2000/svg">
<path d="M15.664 3.07568C13.3724 3.07568 10.6414 3.68255 8.92952 5.30437C8.04288 6.14434 7.0836 6.87303 6.41014 7.92064C5.84345 8.80217 4.99416 9.66795 4.18146 10.3001C3.95075 10.4795 3.8063 10.7667 3.60006 10.973C3.23792 11.3351 3.23312 11.7194 3.11556 12.1896C2.98388 12.7163 3.06711 13.3401 3.06711 13.8799C3.06711 14.1289 2.97021 14.3843 2.97021 14.6551C2.97021 15.5679 3.11356 16.2964 3.40626 17.1745C3.52919 17.5433 3.60618 17.9995 3.79386 18.3373C4.02411 18.7518 4.42799 19.0683 4.76285 19.4032C5.01763 19.658 5.25251 20.033 5.63494 20.033C5.97283 20.033 5.87719 19.7783 5.87719 19.5001C5.87719 18.544 5.102 17.7437 5.102 16.7923C5.102 16.0286 4.88889 15.1493 5.68339 14.752C6.25356 14.467 6.64919 14.316 7.28223 14.316C7.71055 14.316 8.20287 15.2798 8.34812 15.6188C8.71304 16.4702 8.81267 17.3826 9.1287 18.2404C9.30143 18.7093 9.48904 19.5117 9.89851 19.8393C10.4503 20.2807 11.5012 19.6153 11.9818 19.3063C12.6803 18.8573 12.6601 17.9877 12.6601 17.223C12.6601 16.7138 12.711 16.1784 12.6548 15.6726C12.6037 15.2127 12.4663 14.8083 12.4663 14.316C12.4663 13.6782 12.0787 13.034 12.0787 12.4265C12.0787 12.2646 12.0107 11.7676 12.2295 11.7051C12.4264 11.6488 12.7204 12.407 12.757 12.5718C13.0079 13.7007 13.449 15.0049 14.1567 15.9148C14.6862 16.5957 15.0127 16.9323 16.0032 16.9323C16.2866 16.9323 16.9588 17.0618 17.1713 16.83C17.536 16.4321 17.8236 15.9551 17.8873 15.3819C17.9872 14.4833 17.8927 13.52 17.8927 12.6149C17.8927 12.2167 17.9614 11.744 17.7958 11.3713C17.6954 11.1455 17.602 10.8443 17.602 10.5854C17.602 10.2887 17.4115 10.0255 17.5535 10.5369C17.6729 10.9664 17.9597 11.3083 18.2265 11.6513C18.5197 12.0282 18.8026 12.4689 19.2439 12.7172C19.5506 12.8897 19.9158 12.9 20.2667 12.954C21.0739 13.0782 21.1873 12.711 21.1873 11.9904C21.1873 11.1634 20.8966 10.428 20.8966 9.61638C20.8966 8.85484 20.3886 7.74232 19.9814 7.10239C19.685 6.63653 18.8635 5.94857 18.3234 5.79425C18.058 5.71842 17.9101 5.49816 17.6504 5.49816C17.4125 5.49816 17.1457 5.40127 16.8753 5.40127C16.0554 5.40127 15.1686 5.30437 14.3182 5.30437C13.7085 5.30437 13.0974 5.29082 12.4879 5.30437C11.828 5.31903 11.1833 5.61587 10.5499 5.76733C9.12704 6.10757 8.15499 7.16018 7.25531 8.23288C6.55083 9.07283 6.48341 10.5544 6.38322 11.5813C6.34464 11.9767 6.38987 12.3595 6.28632 12.7441C6.22583 12.9688 6.88139 12.9665 7.00768 12.9809C8.14288 13.1103 9.26128 13.1381 10.2377 12.4749C10.8994 12.0254 11.2151 11.3249 11.5189 10.6123C11.7486 10.0734 11.788 9.65444 11.788 9.08344C11.788 8.67902 12.0907 8.52059 12.4663 8.42667C13.1828 8.24757 13.9616 8.28944 14.695 8.30824C15.1745 8.32054 15.5357 8.62572 15.9547 8.81427C16.473 9.04748 17.5494 9.06105 17.5051 9.85863C17.4878 10.1709 16.3365 10.367 16.0731 10.4185C15.2997 10.5698 14.4936 10.9405 13.8445 11.3875C13.1907 11.8376 12.6005 12.2457 11.9818 12.7441C11.3292 13.2698 11.0947 14.1684 10.7437 14.8974C10.439 15.5302 10.2689 16.2934 10.1623 16.9861C10.0614 17.6416 10.1439 18.3527 9.96849 18.9887C9.72377 19.8758 10.0439 20.9845 10.0439 21.8741C10.0439 22.2713 10.0607 22.6422 10.1192 23.0369C10.1667 23.3575 10.0732 24.3101 10.2592 24.5658C10.4858 24.8773 10.4474 25.3058 10.6037 25.6532C10.7156 25.9019 10.9024 26.0962 10.9913 26.353C11.1498 26.8107 11.5229 27.177 11.7665 27.5912C11.8879 27.7975 12.1463 28.0202 12.1756 28.2695C12.218 28.6299 13.1272 29.0629 13.4353 29.2169C14.3261 29.6624 15.6549 29.6261 16.633 29.6261C17.4975 29.6261 18.2951 29.6482 19.1309 29.4538C19.7258 29.3154 20.2829 29.0743 20.875 28.9262C21.4723 28.7769 21.9849 28.168 22.2747 27.6666C22.6448 27.0261 23.0887 26.6021 23.5344 26.0408C24.2516 25.1377 24.125 24.3597 23.8789 23.2523C23.7269 22.5682 23.4384 21.8221 23.1253 21.1958C22.885 20.7154 22.7297 20.1374 22.4254 19.6993C22.1084 19.2428 21.8641 18.7813 21.6179 18.2889C21.4459 17.9448 21.2769 17.2731 20.9719 17.0292C20.6486 16.7705 20.4897 16.3747 20.1967 16.0817C19.9854 15.8703 19.7632 15.6903 19.54 15.4788C19.0822 15.0451 18.9801 15.04 19.2708 15.6941C19.7328 16.7336 20.1998 17.6526 20.509 18.7518C20.9768 20.4151 21.4608 22.1087 21.2088 23.8444C21.1126 24.5075 20.819 25.0388 20.3367 25.4809C19.8471 25.9298 18.7827 25.8878 18.1619 25.9654C17.3831 26.0628 16.1672 26.6764 15.3733 26.2561C14.8415 25.9746 14.3167 26.2501 13.8014 25.7716C13.1547 25.1711 13.1108 24.4191 12.8539 23.6183C12.5768 22.7545 12.7406 21.9713 13.4569 21.4112C14.6904 20.4465 16.8411 19.0811 17.9896 20.9051C18.2958 21.3915 18.7144 22.4534 18.431 23.0369C18.1001 23.7182 17.1874 24.1699 16.633 24.6411C16.0012 25.1782 15.7609 22.8422 15.7609 22.4771C15.7609 22.2956 15.67 21.7596 15.7824 21.605C15.9006 21.4425 16.002 21.1012 15.8578 21.3896" stroke="black" stroke-width="5" stroke-linecap="round"/>
<path fill-rule="evenodd" clip-rule="evenodd" d="M13.1683 22.9657C13.0809 22.7881 12.8698 22.7054 12.6832 22.7806C12.4877 22.8594 12.393 23.0819 12.4718 23.2775C12.5772 23.5388 12.8322 23.6677 13.0067 23.7345C13.2042 23.8101 13.436 23.8569 13.6537 23.8868C14.09 23.9466 14.5501 23.9488 14.7538 23.9338C15.5084 23.8782 16.3501 23.712 17.0641 23.4242C17.228 23.3581 17.4144 23.2958 17.6222 23.2265L17.6339 23.2226C17.8343 23.1559 18.0521 23.0834 18.2649 23.0004C18.6904 22.8345 19.1541 22.606 19.4709 22.2299C19.5339 22.1552 19.6027 22.0619 19.6634 21.9797C19.6869 21.9479 19.7092 21.9177 19.7294 21.8909C19.8136 21.7794 19.8782 21.7037 19.9311 21.6599C20.1027 21.5174 20.1916 21.3254 20.2454 21.2066C20.2542 21.187 20.2624 21.1689 20.2699 21.1521C20.3192 21.0426 20.3434 20.9887 20.3779 20.9457C20.5101 20.7814 20.484 20.5411 20.3197 20.4089C20.1554 20.2768 19.915 20.3029 19.7829 20.4672C19.6808 20.5942 19.6117 20.7511 19.5676 20.8513C19.5611 20.8662 19.5551 20.8798 19.5497 20.8919C19.4945 21.0139 19.4653 21.054 19.4434 21.0723C19.316 21.178 19.2054 21.3175 19.12 21.4307C19.0871 21.4743 19.0578 21.514 19.0308 21.5506C18.9779 21.6224 18.9335 21.6826 18.8868 21.738C18.6991 21.9609 18.3877 22.1329 17.9875 22.289C17.7927 22.3649 17.5906 22.4323 17.3847 22.5008L17.381 22.502C17.178 22.5696 16.9684 22.6394 16.7787 22.7159C16.1533 22.9679 15.3921 23.1211 14.6977 23.1722C14.5475 23.1833 14.1409 23.1828 13.7574 23.1302C13.5653 23.1039 13.3988 23.067 13.2798 23.0214C13.2086 22.9941 13.1782 22.973 13.1683 22.9657Z" fill="white"/>
<path fill-rule="evenodd" clip-rule="evenodd" d="M6.09099 14.3489C6.27763 14.2507 6.49286 14.3297 6.57171 14.5253C6.71824 14.8887 6.71007 15.2565 6.70366 15.5448C6.70328 15.562 6.70291 15.579 6.70257 15.5956C6.69628 15.9064 6.69903 16.1547 6.80407 16.4152C6.91372 16.6872 7.06327 16.9578 7.22165 17.2402C7.22941 17.254 7.2372 17.2679 7.24502 17.2818C7.39116 17.5421 7.54657 17.8189 7.65431 18.0862C7.72026 18.2497 7.86488 18.4574 8.08496 18.6929C8.30046 18.9235 8.56917 19.1608 8.85824 19.3867C9.43903 19.8405 10.0738 20.2265 10.4699 20.4065C10.8063 20.5593 11.0467 20.4311 11.517 20.1805C11.5668 20.154 11.6192 20.1261 11.6746 20.0969C11.6745 20.097 11.6761 20.0961 11.6795 20.0939C11.6828 20.0916 11.6875 20.0883 11.6935 20.0834C11.7057 20.0736 11.7214 20.0594 11.7406 20.0399C11.7798 19.9999 11.8239 19.9476 11.875 19.8826C11.8973 19.8544 11.9227 19.8209 11.9503 19.7848C12.0303 19.6797 12.1279 19.5517 12.2139 19.4612C12.3875 19.2788 12.599 19.188 12.7339 19.1301C12.7387 19.128 12.7434 19.126 12.748 19.124C12.9092 19.0547 12.9783 19.0204 13.026 18.9724C13.1388 18.8587 13.3201 18.6026 13.507 18.2935C13.6898 17.9913 13.8504 17.6846 13.9287 17.4949C13.9848 17.3589 14.0496 17.2496 14.1048 17.1621C14.1236 17.1321 14.1398 17.1069 14.1542 17.0845C14.1864 17.0345 14.2094 16.9987 14.2325 16.9561C14.2765 16.8746 14.3121 16.7863 14.2889 16.5875C14.0683 14.701 13.4295 13.5141 12.4719 11.9127C12.3654 11.7345 12.4187 11.4871 12.591 11.3601C12.7634 11.2331 12.9895 11.2747 13.096 11.4529C14.0634 13.0707 14.7757 14.3745 15.017 16.4381C15.0615 16.8194 14.986 17.0886 14.8599 17.3217C14.8199 17.3958 14.7709 17.4719 14.7329 17.531C14.7219 17.5481 14.7117 17.5639 14.703 17.5777C14.6586 17.6483 14.624 17.709 14.5958 17.7771C14.4935 18.0251 14.3077 18.3747 14.1135 18.6957C13.9235 19.0098 13.6974 19.3436 13.5075 19.535C13.3396 19.7043 13.1346 19.7918 13.004 19.8476C12.9958 19.8511 12.9879 19.8544 12.9803 19.8577C12.8246 19.9247 12.7552 19.9613 12.7078 20.0112C12.6554 20.0663 12.6046 20.133 12.5386 20.2198C12.5043 20.2648 12.466 20.3152 12.4211 20.3723C12.3179 20.5035 12.1557 20.7023 11.9601 20.8052C11.9111 20.831 11.86 20.8591 11.807 20.8882C11.3716 21.1277 10.8062 21.4387 10.1487 21.14C9.69455 20.9337 9.01514 20.5172 8.40319 20.039C8.09589 19.7989 7.79858 19.5378 7.55159 19.2735C7.30916 19.014 7.09478 18.7301 6.97841 18.4415C6.88938 18.2207 6.7554 17.9819 6.59945 17.7039C6.59543 17.6967 6.5914 17.6896 6.58735 17.6823C6.43187 17.4052 6.25872 17.0944 6.12816 16.7706C5.95666 16.3452 5.96263 15.9446 5.969 15.63C5.97568 15.2998 5.97934 15.0878 5.89581 14.8806C5.81696 14.6851 5.90434 14.447 6.09099 14.3489Z" fill="white"/>
<path fill-rule="evenodd" clip-rule="evenodd" d="M8.80061 4.54264C8.43456 4.71996 8.09681 4.90169 7.80594 5.12045C7.62789 5.25437 7.42721 5.37848 7.23121 5.49573C7.17687 5.52824 7.12307 5.56012 7.06968 5.59176C6.92475 5.67765 6.78293 5.76168 6.64208 5.8513C6.25198 6.09951 5.94854 6.34351 5.77634 6.62777C5.53491 7.0263 5.27735 7.37893 5.02813 7.71222C4.98948 7.7639 4.95114 7.81499 4.91311 7.86566C4.70284 8.14582 4.50199 8.41343 4.31099 8.70026C3.88514 9.33973 3.5149 9.91026 3.27287 10.6118C3.10351 11.1028 2.8287 11.4913 2.59444 11.8225L2.58944 11.8296C2.34426 12.1762 2.14583 12.4594 2.02926 12.7973C1.79462 13.4774 1.95904 14.2308 2.33174 15.041C2.51503 15.4394 2.73935 15.8319 2.9678 16.215C3.02529 16.3115 3.08349 16.408 3.14138 16.504C3.30943 16.7827 3.47487 17.0571 3.6128 17.3118C3.63093 17.3453 3.67538 17.4369 3.7368 17.5635C3.78658 17.666 3.8475 17.7916 3.91459 17.9277C4.07061 18.2444 4.2727 18.6455 4.48778 19.0407C4.70399 19.4381 4.92833 19.8204 5.12874 20.1038C5.22947 20.2462 5.31709 20.3535 5.38839 20.4236C5.4286 20.4632 5.45308 20.4803 5.46274 20.4867C5.555 20.4928 5.67056 20.4734 5.81811 20.4309C5.89499 20.4088 5.9723 20.383 6.05577 20.3551L6.05977 20.3538C6.1416 20.3265 6.23161 20.2965 6.31882 20.2725C7.05095 20.0707 7.47953 19.8065 8.14699 19.3073C8.31854 19.179 8.54501 19.2187 8.65284 19.396C8.76066 19.5732 8.70901 19.8209 8.53746 19.9492C7.82976 20.4785 7.31297 20.8034 6.45601 21.0395C6.39044 21.0576 6.31879 21.0813 6.23379 21.1097L6.2244 21.1128C6.14485 21.1393 6.05491 21.1693 5.96327 21.1957C5.77629 21.2496 5.54619 21.2998 5.31406 21.2724C5.12638 21.2504 4.97438 21.1225 4.87535 21.0251C4.76207 20.9137 4.64687 20.7684 4.53493 20.6101C4.30999 20.292 4.06959 19.8802 3.84886 19.4746C3.62698 19.0668 3.41991 18.6557 3.26176 18.3347C3.17781 18.1643 3.11062 18.0256 3.06176 17.9247C3.01498 17.8281 2.98499 17.7662 2.97316 17.7443C2.84406 17.5059 2.69169 17.2532 2.52663 16.9794C2.467 16.8805 2.40571 16.7788 2.34326 16.6741C2.112 16.2863 1.87094 15.866 1.67029 15.4298C1.27511 14.5708 0.997439 13.5675 1.3436 12.5641C1.50331 12.1011 1.76846 11.7265 1.99686 11.4037C2.00364 11.3942 2.01038 11.3846 2.01708 11.3752C2.25973 11.0321 2.4635 10.7372 2.58722 10.3786C2.87083 9.55652 3.3025 8.90015 3.72482 8.26597C3.93057 7.95701 4.14804 7.66734 4.35803 7.38763C4.39537 7.33789 4.43247 7.28847 4.46923 7.23931C4.71582 6.90955 4.95198 6.58513 5.17014 6.22502C5.45088 5.7616 5.89594 5.43301 6.301 5.17528C6.45325 5.07841 6.61093 4.98497 6.75903 4.89722C6.8102 4.8669 6.86023 4.83725 6.9085 4.80838C7.10229 4.69244 7.27197 4.58647 7.41372 4.47987C7.76721 4.21401 8.15951 4.00619 8.53751 3.82308C8.68169 3.75323 8.8206 3.68836 8.95576 3.62525C9.18823 3.51669 9.40958 3.41333 9.62752 3.29875C10.0972 3.05183 10.5631 2.98308 10.9624 2.92415L10.9738 2.92248C11.3911 2.86089 11.7348 2.80805 12.0669 2.63344C12.6169 2.3443 13.1059 2.19974 13.6047 2.25653C14.0967 2.31256 14.5477 2.55928 15.0385 2.93716C15.2605 3.1081 15.5999 3.27988 15.9729 3.43578C16.3405 3.58939 16.7184 3.71854 17.0037 3.81011C17.6508 4.01781 18.0868 4.29432 18.5829 4.60891C18.6904 4.67706 18.8007 4.74699 18.9166 4.8184C20.4195 5.74468 21.0453 7.30148 21.7083 8.95098C21.7365 9.02108 21.7647 9.09135 21.7931 9.16175C22.1362 10.0128 22.2835 10.9735 22.14 11.8434C21.9946 12.7256 21.544 13.528 20.6999 13.9719C20.225 14.2215 19.7719 14.1957 19.3744 13.9986C18.9928 13.8094 18.6688 13.4672 18.398 13.0899C17.8562 12.3354 17.4435 11.3183 17.1789 10.6619C17.1 10.4663 17.1874 10.2282 17.374 10.1301C17.5607 10.032 17.7759 10.111 17.8548 10.3065C18.1251 10.977 18.5069 11.9082 18.9888 12.5794C19.2298 12.915 19.4748 13.1552 19.7158 13.2746C19.9407 13.3862 20.1636 13.3954 20.4143 13.2636C20.9864 12.9629 21.3072 12.4256 21.4179 11.7544C21.5306 11.0711 21.4187 10.2649 21.1172 9.51711C21.0996 9.4734 21.0821 9.42993 21.0647 9.38669C20.3722 7.6676 19.8285 6.31807 18.5222 5.51298C18.3926 5.43306 18.2737 5.3579 18.1617 5.28705C17.673 4.97794 17.3144 4.75111 16.7531 4.57094C16.4594 4.47665 16.0618 4.34105 15.67 4.17731C15.2837 4.01587 14.8798 3.81772 14.5873 3.59247C14.1333 3.24299 13.7971 3.08062 13.481 3.04462C13.1715 3.00939 12.8314 3.08989 12.3525 3.34167C11.9022 3.57841 11.4482 3.64529 11.0561 3.70304C11.0461 3.70452 11.0361 3.70599 11.0261 3.70746C10.6119 3.7686 10.2595 3.82485 9.91306 4.00698C9.68144 4.12875 9.42899 4.24678 9.1839 4.36137C9.05258 4.42276 8.92337 4.48317 8.80061 4.54264Z" fill="white"/>
<path fill-rule="evenodd" clip-rule="evenodd" d="M18.9758 13.2028C19.1779 13.1744 19.3525 13.3272 19.3657 13.5441C19.4385 14.7427 19.2551 15.6423 18.7819 16.3662C18.317 17.0773 17.6104 17.5575 16.7657 18.0016C16.3194 18.2362 15.7031 18.5202 15.1075 18.5461C14.8024 18.5594 14.4883 18.5059 14.2042 18.331C13.9178 18.1547 13.6881 17.871 13.5277 17.4733C13.4489 17.2777 13.5363 17.0396 13.7229 16.9415C13.9096 16.8434 14.1248 16.9224 14.2037 17.1179C14.3146 17.3931 14.4548 17.5479 14.5983 17.6363C14.7441 17.726 14.9198 17.7634 15.1259 17.7544C15.5526 17.7358 16.0436 17.5229 16.4802 17.2933C17.2978 16.8635 17.849 16.4621 18.1916 15.938C18.526 15.4266 18.6997 14.7373 18.6335 13.6472C18.6203 13.4302 18.7736 13.2313 18.9758 13.2028Z" fill="white"/>
<path fill-rule="evenodd" clip-rule="evenodd" d="M18.7712 14.3448C18.8666 14.1528 19.0987 14.075 19.2895 14.171C19.9714 14.5141 20.4619 15.1074 20.8784 15.6812C20.9925 15.8385 21.1004 15.9929 21.2054 16.1431C21.5012 16.5664 21.7734 16.9559 22.0944 17.2789C22.4628 17.6496 22.7303 18.0713 22.9782 18.4621C23.0474 18.5711 23.115 18.6777 23.1829 18.7802C23.3295 19.0015 23.4357 19.2333 23.5277 19.4343L23.5277 19.4343C23.6236 19.6437 23.7044 19.8199 23.8089 19.9808C24.549 21.1197 24.9121 22.1351 24.9121 23.5194C24.9121 24.6478 24.8829 25.3771 24.2904 26.4369C23.7682 27.371 23.1247 28.2179 22.268 28.8952C21.7225 29.3265 21.2301 29.7035 20.5268 29.9757C20.1557 30.1193 19.7415 30.3324 19.4034 30.5465C18.9233 30.8507 18.3803 30.9643 17.8644 31.0072C17.488 31.0384 17.0962 31.0331 16.7421 31.0282C16.6191 31.0266 16.5007 31.0249 16.389 31.0249C15.9533 31.0249 15.5106 31.0504 15.0528 31.0766C14.5989 31.1027 14.1304 31.1296 13.6614 31.1296C13.6343 31.1296 13.6061 31.1297 13.5771 31.1297C13.3359 31.1303 13.032 31.131 12.7385 31.0951C12.4139 31.0554 12.0415 30.9651 11.7499 30.7305C11.5659 30.5823 11.3451 30.3539 11.1672 30.0963C10.9966 29.8491 10.8248 29.5169 10.8248 29.1711C10.8248 29.0633 10.7562 28.8926 10.6003 28.6319C10.5652 28.5732 10.5241 28.5078 10.4807 28.4387C10.365 28.2546 10.2328 28.0441 10.1531 27.8637C9.61358 26.6423 9.27247 25.4047 8.95972 24.1645C8.90436 23.945 8.84994 23.7256 8.79551 23.5062C8.54062 22.4788 8.2855 21.4505 7.93253 20.3993C7.86426 20.196 7.97274 19.9754 8.17485 19.9067C8.37695 19.838 8.59614 19.9472 8.66442 20.1505C9.02838 21.2345 9.29238 22.299 9.54745 23.3275C9.60125 23.5444 9.65466 23.7598 9.70852 23.9733C10.0196 25.2068 10.3477 26.3905 10.859 27.548C10.9149 27.6745 10.9967 27.8045 11.0967 27.9632C11.1475 28.044 11.2031 28.1322 11.2623 28.2313C11.4104 28.4791 11.5973 28.8214 11.5973 29.1711C11.5973 29.2772 11.6601 29.4477 11.8017 29.6529C11.9362 29.8477 12.1055 30.0212 12.2325 30.1235C12.3562 30.2231 12.5563 30.2898 12.8318 30.3235C13.0747 30.3533 13.3293 30.3528 13.576 30.3524C13.6046 30.3524 13.633 30.3523 13.6614 30.3523C14.1047 30.3523 14.5513 30.3269 15.0088 30.3006L15.0197 30.3C15.4699 30.2742 15.9311 30.2477 16.389 30.2477C16.5228 30.2477 16.655 30.2495 16.7861 30.2513C17.129 30.2559 17.4645 30.2605 17.8009 30.2325C18.2572 30.1946 18.6602 30.0989 18.9918 29.8888C19.3683 29.6503 19.8273 29.4136 20.2494 29.2502C20.8347 29.0237 21.248 28.7131 21.7907 28.284C22.547 27.6861 23.1298 26.9275 23.6171 26.0559C24.1097 25.1747 24.1396 24.6111 24.1396 23.5194C24.1396 22.3108 23.8348 21.4409 23.1623 20.4062C23.026 20.1963 22.9244 19.9744 22.8357 19.7805L22.8261 19.7595C22.7312 19.5524 22.6483 19.3745 22.5401 19.2113C22.454 19.0813 22.375 18.9571 22.2991 18.8377C22.0596 18.4612 21.8514 18.1336 21.5482 17.8286C21.1754 17.4535 20.8473 16.9835 20.5411 16.5449C20.4436 16.4053 20.3483 16.2688 20.2545 16.1396C19.8469 15.5781 19.4483 15.1199 18.944 14.8662C18.7532 14.7702 18.6758 14.5368 18.7712 14.3448Z" fill="white"/>
<path d="M10.886 19.696C11.0599 19.7178 11.0812 20.4632 11.1301 20.6219C11.2623 21.0517 11.4436 21.2861 11.7193 21.6487C11.9596 21.965 12.3834 22.2974 12.704 22.4399C12.8446 22.5024 13.1186 22.6525 13.0996 22.6335C12.9783 22.5122 12.8464 22.2778 12.7629 22.1201C12.5586 21.734 12.4231 21.3266 12.2116 20.9459C12.1249 20.7899 11.9802 20.4307 11.9507 20.2684C11.911 20.05 11.7057 19.8569 11.6477 19.6539C11.5569 19.3361 11.492 19.1525 11.492 19.5824C11.492 19.8097 11.492 20.0369 11.492 20.2642C11.492 20.5733 11.7586 20.9401 11.9086 21.2069C11.9651 21.3072 12.1998 21.7639 12.1696 21.6277C12.1003 21.3162 11.7193 21.0892 11.6435 20.7481C11.5292 20.2336 11.2647 19.6955 11.2647 19.1658" stroke="#A5A5A5" stroke-width="0.8" stroke-linecap="round"/>
<path d="M16.7189 16.666C16.7189 16.9777 16.9074 17.221 17.0387 17.4993C17.2477 17.9422 17.4117 18.3829 17.4722 18.867C17.4923 19.0279 17.5521 19.5089 17.5521 19.3468C17.5521 19.0292 17.7036 18.7217 17.7036 18.3914C17.7036 17.9985 17.7897 17.4846 17.6279 17.1205C17.5782 17.0088 17.5234 16.6582 17.4385 16.5902C17.1755 16.3799 17.0235 16.1391 16.8704 15.8327" stroke="#A5A5A5" stroke-width="0.8" stroke-linecap="round"/>
<path d="M19.9762 12.8784C20.2476 12.8784 20.1695 13.4271 20.2834 13.6359C20.4983 14.0299 20.6603 14.5416 20.7505 14.9826C20.7676 15.0661 20.8095 15.5941 20.8095 15.4161C20.8095 15.2015 20.8095 14.9868 20.8095 14.7722C20.8095 14.3105 20.8947 13.7767 20.7169 13.3498C20.5965 13.0609 20.3884 12.7516 20.2792 12.4239" stroke="#A5A5A5" stroke-width="0.8" stroke-linecap="round"/>
<path d="M6.26507 20.3778C6.67554 20.7427 7.12493 21.2715 7.66647 21.4425C8.01166 21.5515 8.3342 21.7719 8.67228 21.9097C8.71862 21.9286 8.84678 22.0744 8.89954 22.0275C8.97942 21.9565 8.86051 21.8428 8.80274 21.8171C8.59658 21.7255 8.54317 21.5047 8.31457 21.4047C7.8596 21.2056 7.39086 21.0884 6.93 20.9081C6.72773 20.8289 5.61514 20.2384 5.73481 19.9991" stroke="#A5A5A5" stroke-width="0.8" stroke-linecap="round"/>
<path d="M17.7036 19.4688C17.7036 19.034 17.7794 18.601 17.7794 18.181" stroke="white" stroke-width="0.8" stroke-linecap="round"/>
<path d="M20.8094 15.5297C20.8094 15.2739 20.8475 14.9999 20.7336 14.7722" stroke="white" stroke-width="0.8" stroke-linecap="round"/>
<path d="M12.1737 22.6504C11.8902 22.3314 11.5275 22.0396 11.3405 21.6656" stroke="white" stroke-width="0.8" stroke-linecap="round"/>
</svg>
