<svg width="33" height="33" viewBox="0 0 33 33" fill="none" xmlns="http://www.w3.org/2000/svg">
<path d="M2.65808 4.72623C4.17347 4.55821 5.69883 4.68585 7.21789 4.56334C8.52202 4.45815 9.88396 4.6296 11.1855 4.74862C12.2316 4.84428 13.2617 4.99321 14.3139 4.96368C14.6612 4.95394 15.0594 4.99659 15.3984 5.07994C15.7908 5.1764 16.2135 5.13435 16.587 5.2519C17.2987 5.4759 18.0836 5.43312 18.7922 5.61961C19.6297 5.84003 20.7741 5.60633 21.5385 6.09313C22.1797 6.50144 23.2258 6.7275 23.9764 6.7886C24.195 6.8064 24.6589 6.71511 24.7319 6.98744C24.8205 7.31818 24.9761 7.68379 25.004 8.0236C25.0621 8.73126 25.0867 9.91229 24.6255 10.5215C23.8632 11.5285 23.5724 12.8755 22.8219 13.9195C22.0122 15.0458 21.6967 16.2576 20.4217 16.9424C19.9869 17.1759 19.6473 17.5572 19.2299 17.8191C18.8964 18.0283 18.4654 18.0971 18.1472 18.3544C17.9224 18.5362 17.68 18.9425 17.4246 19.0273C17.12 19.1285 16.7988 19.195 16.4887 19.2781C16.1389 19.3718 15.8334 19.5403 15.505 19.642C15.2492 19.7212 14.7977 19.738 14.6405 19.9517C14.3863 20.2972 14.9635 21.1775 15.5534 20.6545C15.9672 20.2876 16.4669 20.1411 16.9187 19.8428C17.3877 19.5331 16.6479 19.4344 16.4146 19.376C15.7393 19.2069 15.111 19.0425 14.5433 18.6736C14.2501 18.4831 13.9774 18.1329 13.7101 17.8937C13.4413 17.6531 13.1893 17.4078 12.9817 17.1303C12.6777 16.724 12.222 16.4352 11.8707 16.0625C11.5001 15.6692 11.1439 15.2589 10.8366 14.8237C10.2105 13.937 9.50226 13.0589 8.74354 12.2747C7.5681 11.0598 6.36671 9.58166 5.92013 7.91502C5.80663 7.49142 5.37389 6.20551 5.87735 6.07061C6.14437 5.99906 6.46132 6.36692 6.65015 6.52118C7.2354 6.99928 7.85408 7.49858 8.36052 8.05809C9.12067 8.89791 9.84447 9.70724 10.4235 10.682C11.2983 12.1549 11.9391 13.8991 13.1162 15.1157C13.7838 15.8057 14.8606 16.188 15.5447 16.8782C15.8208 17.1568 16.0867 16.9782 16.4484 16.8813C16.9952 16.7348 16.9706 16.5841 16.8288 16.0548C16.5375 14.9678 16.0877 14.1658 15.5583 13.1851C14.9236 12.0093 13.9293 11.1949 13.1592 10.1385C12.6972 9.50481 12.3845 8.74231 12.1621 7.99805C12.0406 7.59159 11.6932 7.21584 11.5552 6.85653C11.5216 6.76887 11.2377 6.31613 11.3778 6.40247C11.9057 6.72766 12.4209 7.21024 12.9127 7.59629C14.1785 8.58987 15.5077 9.59291 16.6504 10.7301C17.2834 11.3599 18.1609 11.9612 18.6606 12.6994C18.9818 13.1739 19.4714 13.7054 19.9854 13.9829C20.3537 14.1818 20.6738 13.1386 20.7532 12.8966C21.0093 12.1167 21.3774 11.4856 21.7223 10.7309C22.0544 10.0041 22.8017 8.31148 21.5103 8.06801C20.7482 7.92432 19.9821 8.09803 19.221 8.13525C18.9912 8.14649 17.4194 8.07344 17.4053 8.09789" stroke="black" stroke-width="5" stroke-linecap="round"/>
<path d="M4.94886 5.03723C4.41963 5.30386 3.94276 5.73416 4.26736 6.31905C4.49964 6.73757 5.42827 5.57147 5.50688 5.41304C5.57327 5.27926 5.80498 4.36572 5.98125 4.69141C6.15738 5.01684 6.35866 5.363 6.48767 5.70992C6.62632 6.08276 6.5366 6.21663 6.70181 5.69588C6.82898 5.29507 7.08778 4.07478 7.08906 4.49528C7.09043 4.94736 6.97385 5.39942 6.93252 5.84779C6.91555 6.03191 6.62008 6.85678 6.72187 7.01305C6.78136 7.10438 7.24575 6.19823 7.26542 6.14931C7.42632 5.74935 7.70936 5.05727 7.62488 4.61413C7.61557 4.56532 7.56761 4.86688 7.5641 4.87937C7.44587 5.30118 7.30657 5.70675 7.24934 6.14401C7.24363 6.18762 7.16393 7.3285 7.31948 7.20133C7.90306 6.72423 8.48062 5.15093 8.62025 4.42103C8.63431 4.34749 8.82104 3.95157 8.92173 4.07474C9.20728 4.42402 9.14435 4.95156 9.0943 5.362C9.0231 5.94606 8.77527 6.33803 8.53124 6.85228C8.37994 7.17112 8.24231 7.24984 8.33571 6.82342C8.52265 5.96995 9.26075 5.00095 9.89464 4.42251C9.95306 4.36921 10.5319 3.9076 10.5044 4.19577C10.4236 5.04134 10.0736 5.88753 9.81584 6.68775C9.76861 6.83438 9.34668 7.90632 9.75404 7.49648C10.1212 7.12713 10.366 6.66184 10.5693 6.18748C10.7778 5.7011 10.8115 5.15013 10.9073 4.6363C10.9227 4.55365 11.1708 3.93793 11.1365 4.27953C11.0243 5.39662 10.6047 6.43478 10.3887 7.53204C10.3044 7.96036 11.0057 6.91022 11.2665 6.56019C11.7019 5.97599 11.9766 5.31854 12.3586 4.70954C12.6901 4.18124 12.4667 5.66515 12.4396 5.80164C12.2856 6.57697 12.0822 7.34675 12.0906 8.14265C12.093 8.36499 12.2569 9.005 12.1569 8.80642C11.938 8.37201 12.3417 7.96959 12.4181 7.54194C12.4743 7.22754 13.0945 5.12222 13.1158 6.30559C13.1306 7.12829 12.9626 8.63739 12.3725 9.28768C12.2443 9.42891 12.0294 9.66079 11.9577 9.34248C11.8607 8.91232 12.4754 8.09114 12.7159 7.76058C12.8989 7.50918 13.4359 6.72021 13.8105 6.73988C13.9984 6.74975 13.6079 8.38989 13.5884 8.52096C13.4883 9.19199 13.1849 9.74371 12.9755 10.3782C12.8939 10.6257 12.6642 11.1652 13.0737 10.9589C13.8276 10.579 14.9187 9.4877 15.1925 8.65799C15.306 8.31409 14.8622 9.30455 14.7377 9.64462C14.4535 10.4207 13.9007 11.0019 13.499 11.7099C13.4655 11.7689 13.0449 12.5244 13.0353 12.4128C12.9971 11.9711 13.5142 11.3444 13.6385 10.9223C14.0779 9.43055 12.9864 11.5551 12.8196 11.9315C12.7753 12.0315 12.2217 13.4488 12.0959 13.4223C11.8836 13.3774 12.317 12.2399 12.3328 12.0829C12.385 11.5629 12.6853 10.4509 12.6422 11.6857C12.6214 12.2795 12.6502 12.8772 12.6288 13.4688C12.6248 13.581 12.5768 14.3063 12.5978 13.8464C12.6109 13.5619 13.7456 11.3088 14.0658 11.4512C14.3904 11.5955 14.2039 12.5303 14.2251 12.792C14.2817 13.4905 14.2193 14.2453 14.0388 14.9237C14.0197 14.9957 13.7998 15.5863 13.8314 15.3768C13.8972 14.9398 14.1762 14.4938 14.3147 14.0741C14.3312 14.0242 14.4802 13.3357 14.5535 13.3773C14.6921 13.456 14.5407 14.7818 14.5315 14.957C14.5077 15.4107 14.567 15.8649 14.549 16.309C14.5361 16.6301 14.5886 15.9506 14.6199 15.8509C14.7261 15.5132 14.8782 15.1506 14.8095 14.7902C14.7169 14.3046 15.1462 15.3688 15.1651 15.5227C15.237 16.1091 15.1506 16.7061 15.2508 17.2894C15.318 17.6809 15.1882 17.0813 15.2014 16.8853C15.2355 16.3762 15.3953 15.9099 15.5611 15.4304C15.6254 15.2444 15.7406 14.7642 15.8227 15.178C15.8999 15.5675 15.9004 17.3875 15.6807 16.0405C15.5605 15.3037 15.5237 14.5823 15.4759 13.8377C15.4419 13.3067 14.9668 11.8012 15.2862 11.3189C15.3378 11.241 15.7782 12.3511 15.7931 12.4847C15.8229 12.752 15.8939 13.7688 15.6718 13.9737C15.5516 14.0844 15.2753 13.0933 15.27 13.0164C15.2185 12.2781 15.3449 11.4467 15.4665 10.7187C15.5764 10.0601 15.774 9.42492 15.8782 8.76836C15.8812 8.74963 16.0924 7.76279 15.8385 8.02419C15.5129 8.35931 15.6246 9.28004 15.6936 9.69259C15.7211 9.85682 15.8708 10.5464 15.9145 10.131C15.9616 9.68179 16.395 9.08601 16.6169 8.69115C16.9497 8.09893 17.3279 7.5269 17.5726 6.88911C17.6206 6.76386 17.9242 6.28883 17.8095 6.4279C17.4408 6.87496 17.5025 7.87807 17.4247 8.43168C17.4102 8.5342 17.4415 9.58576 17.5242 9.4675C17.9216 8.8991 18.1083 8.0276 18.2835 7.36887C18.4813 6.62516 18.68 5.92354 18.7587 5.15866C18.8477 4.29505 18.9138 5.46694 18.8703 5.75268C18.7197 6.74178 18.5795 7.73597 18.4161 8.72318C18.3784 8.95136 18.2238 9.75967 18.0266 9.17415C17.8056 8.51781 18.0427 7.7858 18.0632 7.11787C18.0854 6.39373 18.2727 5.70907 18.4209 5.00708C18.5534 4.37975 18.4411 5.25321 18.4195 5.43009C18.3732 5.81038 18.4138 6.37317 18.319 6.72086C18.2451 6.99205 18.4448 6.17088 18.5468 5.90894C18.6043 5.76127 18.8312 5.07112 18.8443 5.11556C19.0239 5.72446 18.67 6.6654 18.6635 7.29811C18.6611 7.52974 18.7354 8.61423 18.7503 8.56153C18.9261 7.93913 19.1972 7.32878 19.4006 6.71222C19.5386 6.29397 19.8699 5.76545 19.9159 5.33988C20.0302 4.28147 19.7367 9.43649 20.2682 8.51409C20.7454 7.68581 21.0876 6.28686 20.9065 5.33688C20.8703 5.14733 20.8745 6.04279 20.8557 6.24731C20.793 6.92711 20.6725 7.63992 20.6746 8.32277C20.6757 8.68502 20.8498 8.64509 21.0174 8.37795C21.3255 7.8869 21.3036 7.48446 21.3826 6.94716C21.43 6.62431 21.3921 5.02773 21.5892 6.21296C21.6994 6.87608 21.6065 7.62852 21.5607 8.29866C21.554 8.3961 21.4392 9.24174 21.7288 9.00496C22.321 8.52083 21.9587 6.93034 21.9241 6.29226C21.8938 5.7346 22.0901 7.39698 22.1567 7.95148C22.216 8.4462 22.2297 8.91121 22.2467 9.40766C22.2474 9.4257 22.3094 10.1134 22.3613 10.0873C22.5901 9.97204 22.672 8.6522 22.6935 8.41838C22.7549 7.75301 22.7432 7.12931 22.7412 6.46381C22.7385 5.58468 22.8256 7.56476 22.8845 7.82612" stroke="#FFE100" stroke-width="0.8" stroke-linecap="round"/>
<path fill-rule="evenodd" clip-rule="evenodd" d="M3.28619 4.54685C3.15614 4.4866 2.99696 4.5192 2.90203 4.63529C2.78954 4.77285 2.80986 4.97557 2.94743 5.08807C3.03923 5.16314 3.14437 5.18108 3.20404 5.18697C3.27195 5.19368 3.34129 5.1899 3.40302 5.18299C3.48251 5.17409 3.56833 5.1577 3.65365 5.13774C3.53011 5.22427 3.48097 5.38881 3.54452 5.53182C3.70836 5.9005 3.94059 6.22101 4.16959 6.51355C4.23286 6.59437 4.29516 6.67225 4.35618 6.74852C4.52319 6.95729 4.68056 7.15401 4.82177 7.36616C4.97187 7.59168 5.12082 7.81882 5.27013 8.04652C5.8438 8.92134 6.42286 9.80439 7.09332 10.635C7.40361 11.0194 7.71379 11.3834 8.02073 11.7435C8.45866 12.2574 8.89 12.7635 9.30564 13.3102C9.47251 13.5297 9.66328 13.7276 9.84517 13.911C9.87683 13.9429 9.90812 13.9743 9.93902 14.0053C10.09 14.1567 10.2318 14.2989 10.3624 14.449C10.452 14.5519 10.5288 14.6621 10.6166 14.7881C10.6383 14.8192 10.6607 14.8513 10.6841 14.8845C10.7965 15.0437 10.9286 15.2216 11.1009 15.3762C11.2008 15.4658 11.2853 15.5944 11.379 15.7657C11.4012 15.8063 11.4248 15.8513 11.4497 15.8986C11.5193 16.031 11.5989 16.1823 11.6852 16.3107C11.7655 16.4302 11.8468 16.5451 11.9262 16.6573C12.1357 16.9535 12.332 17.2311 12.4623 17.5242C12.5738 17.7752 12.7205 18.0146 12.8579 18.2333C12.8748 18.2602 12.8915 18.2867 12.908 18.3129C13.0301 18.5067 13.1415 18.6834 13.2311 18.8594C13.3029 19.0003 13.3722 19.1245 13.4458 19.2146C13.5209 19.3065 13.6512 19.4236 13.8466 19.4159C14.0028 19.4098 14.1254 19.3198 14.1834 19.2772C14.216 19.2532 14.251 19.2255 14.2842 19.1994C14.2883 19.196 14.2925 19.1928 14.2966 19.1895C14.3351 19.1592 14.3751 19.1279 14.4197 19.0951C14.6346 18.9367 14.8773 18.8111 15.1439 18.6899C15.2429 18.6449 15.352 18.5977 15.4644 18.549C15.6359 18.4748 15.8151 18.3972 15.9786 18.3188C16.209 18.2083 16.4075 18.0497 16.5743 17.9166C16.5831 17.9095 16.5918 17.9026 16.6004 17.8957C16.7834 17.7498 16.9338 17.6342 17.0998 17.5604C17.3911 17.431 17.6436 17.2332 17.8645 17.042C17.9506 16.9675 18.0293 16.8966 18.1047 16.8286C18.2357 16.7105 18.3565 16.6016 18.4878 16.4994C18.6507 16.3727 18.7888 16.2174 18.907 16.0721C18.9622 16.0042 19.0157 15.9351 19.0658 15.8705L19.0775 15.8554C19.132 15.7851 19.1823 15.7204 19.2321 15.6604C19.3615 15.5043 19.5102 15.3589 19.6735 15.1996L19.6787 15.1945C19.8364 15.0407 20.0081 14.8732 20.1616 14.6882C20.3101 14.5091 20.4697 14.3437 20.6393 14.168C20.6615 14.145 20.6838 14.1219 20.7063 14.0985C20.8975 13.8999 21.0981 13.6873 21.2812 13.4461C21.4653 13.2036 21.6806 12.9868 21.9138 12.752L21.9148 12.7509C22.1427 12.5215 22.3881 12.2744 22.6008 11.9911C22.9174 11.5694 23.0752 10.915 23.126 10.4565C23.1485 10.2538 23.1766 10.0498 23.2054 9.84096C23.2095 9.81124 23.2137 9.78142 23.2178 9.75148C23.2505 9.51329 23.2831 9.26934 23.3056 9.02633C23.3157 8.91777 23.3168 8.78814 23.3178 8.67544C23.3183 8.62417 23.3187 8.5764 23.3199 8.53571C23.3245 8.38224 23.3388 8.26896 23.3724 8.18283C23.4108 8.08412 23.4242 7.96455 23.4299 7.86781C23.4362 7.76178 23.4351 7.64425 23.4291 7.53044C23.4178 7.31715 23.3864 7.0624 23.3291 6.91121C23.315 6.87383 23.3021 6.81875 23.2838 6.72926C23.2822 6.72142 23.2806 6.71332 23.2789 6.70499C23.2634 6.62873 23.244 6.53322 23.2169 6.44184C23.1594 6.24861 23.0313 5.94952 22.6856 5.8604C22.6503 5.85129 22.6027 5.82903 22.5357 5.78365C22.478 5.74448 22.4211 5.69914 22.3525 5.64437C22.3398 5.63431 22.3268 5.62394 22.3134 5.61323L22.3097 5.6103C22.1603 5.49158 21.9273 5.3065 21.64 5.27484C21.5307 5.2628 21.3795 5.21459 21.1992 5.14116C21.0845 5.09444 20.9777 5.04615 20.8726 4.99864C20.8107 4.97065 20.7494 4.94294 20.6875 4.91597C20.1093 4.66436 19.4358 4.48871 18.81 4.39464C18.6454 4.36989 18.4792 4.32753 18.2965 4.27938C18.284 4.27609 18.2714 4.27276 18.2588 4.26942C18.0915 4.22524 17.9092 4.1771 17.724 4.14454C17.5571 4.11521 17.38 4.10694 17.2275 4.09982C17.1964 4.09836 17.1663 4.09695 17.1375 4.09543C16.9542 4.0857 16.8071 4.07106 16.6803 4.0304C16.3767 3.93307 16.0624 3.88157 15.7686 3.83925C15.7116 3.83104 15.6556 3.8232 15.6005 3.81549C15.3635 3.78231 15.1432 3.75146 14.9304 3.70361C14.4496 3.59551 13.968 3.55915 13.4933 3.54926C13.4561 3.54848 13.4216 3.54817 13.3887 3.54787C13.3164 3.54721 13.2518 3.54663 13.1829 3.54136C13.0864 3.53399 13.0219 3.51908 12.9801 3.49942C12.7996 3.41454 12.6225 3.44568 12.5402 3.46014C12.5368 3.46075 12.5335 3.46133 12.5303 3.46187C12.4637 3.4734 12.4403 3.47498 12.4352 3.47559C12.14 3.36533 11.827 3.37462 11.5716 3.39007C11.5221 3.39307 11.4748 3.39626 11.4292 3.39932C11.2159 3.41369 11.0427 3.42535 10.879 3.40152C10.4352 3.33689 9.98428 3.35295 9.55522 3.38949C9.36085 3.40604 9.16709 3.4272 8.97972 3.44766C8.96004 3.44981 8.94043 3.45195 8.92089 3.45408C8.71364 3.47665 8.51452 3.49773 8.32127 3.51171C7.99403 3.53537 7.67457 3.58322 7.36681 3.63274C7.31051 3.6418 7.25474 3.65089 7.19938 3.65991C6.94829 3.70083 6.70569 3.74038 6.46094 3.76933C6.44524 3.77119 6.42907 3.77304 6.41247 3.77494C6.24159 3.79448 6.02546 3.8192 5.81413 3.9109C5.80714 3.91059 5.79087 3.90956 5.75969 3.90516C5.75659 3.90473 5.75312 3.90423 5.74934 3.90368C5.7192 3.89932 5.66876 3.89202 5.61831 3.8904C5.55658 3.88842 5.47694 3.89356 5.39155 3.92569C5.23085 3.98617 5.0662 4.02659 4.88031 4.07222C4.86139 4.07686 4.84226 4.08156 4.82289 4.08633C4.62058 4.13623 4.39486 4.19448 4.17283 4.29314C4.09303 4.3286 3.85763 4.41693 3.62586 4.48073C3.50975 4.51269 3.40699 4.53498 3.33139 4.54345C3.31166 4.54566 3.29677 4.54656 3.28619 4.54685ZM3.86868 5.08073C3.98061 5.09136 4.08371 5.16042 4.13261 5.27048C4.26294 5.56377 4.45431 5.83323 4.67634 6.11687C4.73009 6.18554 4.78642 6.25593 4.84397 6.32786C5.01615 6.54302 5.1993 6.77192 5.35749 7.00959C5.51311 7.24339 5.6657 7.47604 5.81726 7.7071C6.38881 8.57851 6.94558 9.42738 7.59408 10.2308C7.87919 10.584 8.18178 10.9395 8.48752 11.2987C8.93951 11.8298 9.3984 12.3689 9.81794 12.9208C9.95718 13.1039 10.1219 13.2762 10.3021 13.4578C10.331 13.4869 10.3604 13.5165 10.3902 13.5463C10.5414 13.6979 10.7016 13.8584 10.8478 14.0265C10.9624 14.1582 11.0636 14.3036 11.1528 14.4317C11.1724 14.4599 11.1915 14.4873 11.21 14.5135C11.3183 14.667 11.4157 14.7941 11.5306 14.8971C11.7163 15.0637 11.8437 15.2742 11.9437 15.457C11.9778 15.5194 12.0082 15.5772 12.0367 15.6315C12.0996 15.7512 12.1536 15.8539 12.2193 15.9517C12.2796 16.0414 12.3476 16.1375 12.419 16.2384C12.6393 16.5495 12.8919 16.9062 13.0503 17.2629C13.1411 17.4672 13.2651 17.6716 13.4029 17.891C13.419 17.9167 13.4354 17.9427 13.4519 17.9689C13.5721 18.1595 13.7005 18.3631 13.8045 18.5672C13.8318 18.6208 13.8554 18.665 13.8761 18.7015C13.8794 18.699 13.8828 18.6963 13.8862 18.6936L13.8982 18.6841C13.9377 18.653 13.9845 18.6164 14.0379 18.577C14.3062 18.3793 14.596 18.2321 14.8776 18.1041C15.0027 18.0472 15.1193 17.9969 15.2329 17.9479C15.3898 17.8802 15.5408 17.8151 15.7002 17.7386C15.8633 17.6603 16.0109 17.5427 16.196 17.3951L16.1992 17.3925C16.3748 17.2525 16.586 17.0845 16.8385 16.9723C17.04 16.8828 17.234 16.7366 17.4434 16.5554C17.508 16.4995 17.5769 16.4375 17.6481 16.3734C17.7916 16.2443 17.9448 16.1065 18.0927 15.9915C18.1978 15.9098 18.2995 15.7991 18.4077 15.666C18.4579 15.6044 18.5069 15.5411 18.5579 15.4753L18.5688 15.4612C18.6227 15.3916 18.6793 15.3189 18.7368 15.2495C18.8897 15.0652 19.0609 14.8982 19.2183 14.7446L19.2242 14.7389C19.3875 14.5796 19.5364 14.4339 19.6663 14.2773C19.8314 14.0783 20.0087 13.8946 20.1766 13.7208C20.1988 13.6977 20.2209 13.6749 20.2427 13.6522C20.433 13.4545 20.6104 13.2655 20.7686 13.057C20.979 12.7798 21.2204 12.5368 21.4446 12.3111L21.4572 12.2985C21.6899 12.0641 21.9041 11.8472 22.0861 11.6048C22.2991 11.321 22.4399 10.8048 22.4864 10.3855C22.5099 10.1736 22.5393 9.96045 22.568 9.75235C22.5721 9.72273 22.5762 9.69322 22.5802 9.66383C22.613 9.42582 22.6437 9.19431 22.6648 8.96679C22.6726 8.88326 22.6731 8.80447 22.6737 8.71131C22.674 8.65345 22.6744 8.59004 22.6766 8.51652C22.6817 8.34794 22.6974 8.14262 22.7728 7.94916C22.7727 7.94919 22.7728 7.94911 22.7728 7.94892C22.7736 7.94565 22.7827 7.91041 22.7875 7.82973C22.792 7.75365 22.7915 7.66103 22.7864 7.56439C22.7755 7.35678 22.7464 7.18943 22.7273 7.13923C22.6918 7.04549 22.6699 6.93942 22.6533 6.85818C22.6518 6.85078 22.6503 6.8435 22.6489 6.83633C22.6323 6.75512 22.6186 6.68769 22.6 6.62512C22.5798 6.55721 22.5605 6.51937 22.5455 6.49952C22.5355 6.48627 22.5315 6.48523 22.5253 6.48364L22.525 6.48356C22.3882 6.44829 22.2704 6.38124 22.1747 6.31636C22.0942 6.26182 22.0147 6.19831 21.9469 6.14411C21.9353 6.1348 21.924 6.12577 21.913 6.11711C21.7396 5.97931 21.6459 5.92292 21.5696 5.91451C21.3662 5.8921 21.1454 5.81412 20.9564 5.73716C20.8328 5.68683 20.7017 5.62765 20.5881 5.5764C20.5299 5.55011 20.4763 5.52591 20.4307 5.50606C19.9138 5.28114 19.2964 5.11853 18.7144 5.03103C18.5107 5.00041 18.3131 4.94926 18.1325 4.90167C18.1218 4.89886 18.1112 4.89606 18.1007 4.89328C17.9274 4.84756 17.77 4.80604 17.6126 4.77836C17.4898 4.75679 17.3626 4.75069 17.2117 4.74345C17.1769 4.74178 17.1409 4.74005 17.1034 4.73806C16.9164 4.72814 16.6964 4.71138 16.4838 4.6432C16.2353 4.56355 15.9669 4.518 15.6768 4.47622C15.6259 4.46889 15.5741 4.46165 15.5216 4.45431C15.2831 4.42101 15.0304 4.38571 14.7892 4.33148C14.3668 4.23651 13.9326 4.20209 13.4799 4.19266C13.458 4.1922 13.4326 4.19197 13.405 4.19171C13.3249 4.19097 13.2256 4.19005 13.1338 4.18303C13.0092 4.1735 12.8581 4.15112 12.7154 4.08605C12.7077 4.08648 12.6862 4.08801 12.64 4.09599C12.6351 4.09684 12.6296 4.09787 12.6234 4.09901C12.5486 4.11278 12.3815 4.14354 12.2131 4.07961C12.0576 4.02057 11.8669 4.01692 11.6105 4.03244C11.5735 4.03468 11.5346 4.0374 11.4941 4.04022C11.2806 4.05516 11.0246 4.07306 10.7863 4.03834C10.4149 3.98426 10.0213 3.99566 9.60983 4.03071C9.42354 4.04657 9.23746 4.06689 9.04891 4.08747C9.02949 4.08959 9.01005 4.09171 8.99057 4.09383C8.78375 4.11636 8.57398 4.13865 8.36769 4.15357C8.07031 4.17508 7.7743 4.21899 7.46904 4.2681C7.4157 4.27669 7.36192 4.28546 7.30779 4.29429C7.05611 4.33533 6.79668 4.37764 6.53655 4.40842C6.52643 4.40961 6.51649 4.41078 6.50673 4.41193C6.3117 4.43491 6.18628 4.44969 6.0654 4.5034C5.90299 4.57557 5.748 4.55352 5.676 4.54328C5.67386 4.54297 5.6718 4.54268 5.66982 4.5424C5.63042 4.53684 5.61022 4.53497 5.60182 4.53411C5.40819 4.60557 5.21183 4.65364 5.03632 4.6966C5.01625 4.70151 4.99646 4.70635 4.97698 4.71116C4.7748 4.76102 4.59887 4.80804 4.43416 4.88123C4.33212 4.92657 4.10362 5.01203 3.86868 5.08073ZM3.2684 4.54664C3.26799 4.54661 3.26762 4.54658 3.2673 4.54655C3.26346 4.54617 3.2642 4.54591 3.2684 4.54664Z" fill="white"/>
<path fill-rule="evenodd" clip-rule="evenodd" d="M23.0553 6.16518C23.0634 5.98766 23.2139 5.85028 23.3914 5.85835C23.5499 5.86555 23.6695 5.92148 23.7394 5.95414C23.7438 5.95621 23.748 5.95818 23.752 5.96005C23.8196 5.99134 23.8479 6.00169 23.891 6.00365C24.088 6.0126 24.3096 6.06611 24.4523 6.10354C24.4817 6.11124 24.5368 6.11661 24.6291 6.11851C24.6502 6.11894 24.6748 6.11917 24.7012 6.11942C24.7678 6.12005 24.8459 6.12079 24.9095 6.12516C25.0668 6.13598 25.1752 6.22428 25.238 6.29533C25.3002 6.36571 25.343 6.44673 25.3721 6.51025C25.4024 6.57625 25.4271 6.64399 25.4458 6.69614C25.4486 6.70393 25.4512 6.71123 25.4537 6.71809C25.4701 6.76401 25.4793 6.79 25.4873 6.80794C25.6856 7.25425 25.7821 7.72345 25.8511 8.17204C25.877 8.34117 25.8987 8.5031 25.9197 8.66068C25.9566 8.93671 25.9918 9.19936 26.0453 9.46395C26.287 10.6598 25.8722 11.7229 25.4839 12.7179C25.4502 12.8043 25.4167 12.8901 25.3839 12.9755C25.1332 13.6269 24.7761 14.2096 24.4301 14.7743C24.3893 14.8407 24.3488 14.9069 24.3085 14.9729C24.221 15.1166 24.1579 15.2582 24.0866 15.4182C24.0512 15.4976 24.0138 15.5816 23.9704 15.6726C23.8483 15.9284 23.6905 16.2068 23.4215 16.4352C23.3581 16.4891 23.2583 16.61 23.1544 16.7649C23.0531 16.9158 22.9693 17.0668 22.9296 17.1617C22.8484 17.3559 22.7194 17.4951 22.6262 17.5943L22.6167 17.6043C22.5189 17.7083 22.4631 17.7676 22.4258 17.8395C22.3116 18.06 22.0919 18.21 21.9488 18.3077L21.9368 18.3159C21.7626 18.4348 21.6582 18.5062 21.6001 18.5853C21.4719 18.7598 21.2932 18.875 21.1631 18.9572C21.15 18.9654 21.1374 18.9734 21.1251 18.9811C20.9978 19.0613 20.9115 19.1156 20.8455 19.1835C20.6265 19.4083 20.3177 19.6236 20.0654 19.7995C19.9991 19.8458 19.9366 19.8893 19.8808 19.9295C19.8584 19.9457 19.8356 19.9621 19.8124 19.9789C19.4696 20.2264 19.0344 20.5406 18.6295 20.7346C18.4171 20.8363 18.2344 20.9897 18.015 21.1745L18.0114 21.1776C17.8041 21.3522 17.5597 21.5582 17.2606 21.691L15.9526 22.2723C15.6453 22.4088 15.3449 22.3725 15.1324 22.3469C15.094 22.3422 15.0585 22.3379 15.0264 22.3351C15.007 22.3334 14.9962 22.3338 14.9694 22.3351C14.9596 22.3355 14.9477 22.3361 14.9324 22.3366C14.8761 22.3387 14.8008 22.3383 14.7069 22.3137C14.6029 22.2864 14.5289 22.2263 14.48 22.1631C14.4607 22.1382 14.4453 22.1123 14.4338 22.0906C14.3016 22.029 14.205 21.9277 14.1369 21.8335C14.0506 21.7141 13.9869 21.5744 13.9393 21.4453C13.849 21.2007 13.7959 20.9371 13.7674 20.7951C13.7658 20.7872 13.7642 20.7795 13.7628 20.7724C13.7312 20.616 13.6568 20.4407 13.5577 20.2416C13.5268 20.1797 13.4919 20.1124 13.4558 20.043C13.386 19.9086 13.3121 19.7661 13.2554 19.6387C13.1833 19.4763 13.2564 19.2861 13.4188 19.214C13.5812 19.1418 13.7714 19.2149 13.8435 19.3773C13.8932 19.4891 13.9499 19.598 14.0126 19.7184C14.0508 19.7918 14.0913 19.8695 14.1337 19.9548C14.2373 20.1627 14.3443 20.4011 14.3936 20.6448L14.3968 20.6609C14.4261 20.8061 14.4706 21.0263 14.5429 21.2224C14.5805 21.3241 14.62 21.4034 14.6584 21.4565C14.6846 21.4926 14.701 21.5042 14.705 21.5067C14.8067 21.5345 14.8793 21.5939 14.9275 21.6562C14.9366 21.6679 14.9448 21.6799 14.9522 21.6915C14.9861 21.6902 15.0333 21.6896 15.0835 21.6941C15.148 21.6998 15.2044 21.7058 15.2546 21.7112C15.4556 21.7327 15.5576 21.7436 15.6913 21.6842L16.9993 21.1029C17.2036 21.0121 17.3825 20.866 17.6004 20.6824C17.6078 20.6761 17.6154 20.6698 17.6229 20.6634C17.8247 20.4932 18.0629 20.2925 18.3515 20.1542C18.7021 19.9862 19.0935 19.7039 19.4498 19.4469C19.4681 19.4337 19.4864 19.4205 19.5045 19.4074C19.5797 19.3533 19.6558 19.3001 19.731 19.2475C19.9761 19.0762 20.2128 18.9108 20.3844 18.7345C20.508 18.6076 20.6629 18.5109 20.7785 18.4387C20.7928 18.4298 20.8065 18.4212 20.8194 18.4131C20.9556 18.3271 21.0341 18.2686 21.0814 18.2043C21.2082 18.0317 21.4028 17.9001 21.5399 17.8075C21.5536 17.7982 21.5667 17.7894 21.5791 17.7809C21.7503 17.664 21.826 17.5985 21.8544 17.5435C21.9351 17.3877 22.0516 17.265 22.134 17.178C22.1422 17.1695 22.15 17.1612 22.1574 17.1534C22.2504 17.0544 22.3041 16.9895 22.3358 16.9136C22.3975 16.766 22.5056 16.5767 22.62 16.4062C22.7318 16.2397 22.8716 16.058 23.0049 15.9448C23.1703 15.8042 23.2809 15.6232 23.3896 15.3954C23.4179 15.3362 23.4475 15.2699 23.4789 15.1996C23.5585 15.0215 23.6495 14.8178 23.759 14.6381C23.7995 14.5715 23.8399 14.5056 23.8799 14.4402C24.2298 13.8687 24.5551 13.3375 24.7833 12.7444C24.8133 12.6663 24.8432 12.5891 24.8729 12.5127C25.2723 11.4831 25.6171 10.594 25.4145 9.59147C25.3573 9.30844 25.3166 9.00564 25.2774 8.71383C25.2569 8.56134 25.2368 8.41185 25.215 8.26975C25.1488 7.83889 25.0626 7.43683 24.8992 7.06927C24.8804 7.027 24.8615 6.97376 24.8466 6.9319C24.8443 6.92529 24.842 6.91897 24.8399 6.91302C24.8215 6.86159 24.8049 6.81706 24.7873 6.77878C24.7849 6.77349 24.7825 6.76855 24.7803 6.76394C24.7615 6.76363 24.7418 6.76346 24.7206 6.76328C24.6895 6.76301 24.6552 6.76272 24.6159 6.76191C24.5243 6.76003 24.4001 6.75513 24.2891 6.72603C24.1471 6.6888 23.9841 6.65208 23.8618 6.64653C23.6856 6.63852 23.5607 6.58064 23.4815 6.54397C23.4024 6.50729 23.3868 6.50234 23.3622 6.50123C23.1846 6.49316 23.0473 6.34271 23.0553 6.16518Z" fill="white"/>
<path fill-rule="evenodd" clip-rule="evenodd" d="M7.05243 8.15412C7.05723 8.15161 7.06243 8.14896 7.06807 8.14618C7.12238 8.11944 7.18915 8.09397 7.26489 8.0668C7.27654 8.06262 7.28893 8.05822 7.30179 8.05366C7.36164 8.03243 7.43166 8.0076 7.48516 7.98383C7.63689 7.9164 7.78002 7.91289 7.94631 7.9482C8.08117 7.97683 8.20876 8.02437 8.36361 8.08208C8.4223 8.10395 8.48491 8.12728 8.55332 8.1516C8.74233 8.21878 8.93585 8.25351 9.1009 8.28297L9.10537 8.28376C9.27707 8.31441 9.41919 8.33977 9.55167 8.38407C9.63598 8.41226 9.7184 8.45966 9.83468 8.52767C9.83717 8.52912 9.83967 8.53059 9.8422 8.53207C9.94566 8.5926 10.0841 8.6736 10.2386 8.71957C10.2386 8.71957 10.2386 8.71957 10.2387 8.71958C10.2392 8.71977 10.2498 8.72342 10.2704 8.739C10.2918 8.75517 10.3185 8.78006 10.3496 8.81599C10.4127 8.8888 10.4788 8.98892 10.5446 9.10671C10.6517 9.29831 10.7405 9.50286 10.8094 9.66166C10.826 9.69981 10.8414 9.73532 10.8556 9.76738C11.0373 10.1761 11.1515 10.4963 11.1788 10.8026C11.2051 11.0969 11.1527 11.3991 10.9583 11.7697C10.7774 12.1145 10.5381 12.3817 10.2695 12.6814C10.1856 12.7751 10.0988 12.8719 10.01 12.9753C9.89431 13.1102 9.90981 13.3133 10.0447 13.4291C10.1795 13.5448 10.3827 13.5293 10.4984 13.3945C10.5672 13.3143 10.6409 13.2323 10.717 13.1476C10.9955 12.8376 11.3064 12.4916 11.5282 12.0686C11.7736 11.6008 11.8583 11.1757 11.8198 10.7453C11.7824 10.327 11.63 9.92511 11.4437 9.50604C11.4327 9.48112 11.4197 9.45118 11.405 9.41726C11.3367 9.2596 11.2312 9.01611 11.1063 8.79267C11.0298 8.65587 10.9393 8.5138 10.8359 8.39452C10.7371 8.2805 10.5997 8.15555 10.4221 8.10275C10.3506 8.08148 10.2754 8.03989 10.1596 7.97216C10.1547 7.96934 10.1498 7.96647 10.1449 7.96355C10.0427 7.90368 9.90741 7.82446 9.75575 7.77375C9.57765 7.7142 9.39427 7.68154 9.23685 7.65352C9.22916 7.65215 9.22153 7.65079 9.21397 7.64944C9.04294 7.61891 8.90036 7.59196 8.76885 7.54522C8.72364 7.52915 8.67542 7.51114 8.625 7.49231C8.45744 7.42974 8.26568 7.35812 8.07998 7.31869C7.81872 7.26322 7.53072 7.25936 7.22382 7.39574C7.19523 7.40844 7.15653 7.42222 7.0991 7.44266C7.08338 7.44826 7.06626 7.45436 7.04756 7.46107C6.97039 7.48875 6.87358 7.52462 6.78377 7.56884C6.70066 7.60977 6.58606 7.67532 6.50319 7.77841C6.45845 7.83409 6.41644 7.90873 6.40084 8.00184C6.38481 8.09747 6.4005 8.18978 6.43682 8.27152C6.50899 8.43391 6.69914 8.50706 6.86153 8.43489C6.97709 8.38354 7.04746 8.27245 7.05243 8.15412Z" fill="#FF0000"/>
<path fill-rule="evenodd" clip-rule="evenodd" d="M12.5821 3.34767C12.7445 3.2755 12.9347 3.34865 13.0068 3.51104L14.1289 6.03603C14.2739 6.36231 14.4379 6.5926 14.6203 6.71372C14.7807 6.82027 14.9899 6.86606 15.3099 6.74387C15.4786 6.67942 15.6403 6.62104 15.7983 6.56404C16.1006 6.4549 16.389 6.35078 16.6861 6.21877C16.8742 6.13517 16.9625 6.06766 17.0356 5.99224C17.0924 5.93366 17.1363 5.87683 17.1986 5.79596C17.241 5.74101 17.2919 5.67495 17.3613 5.58971C17.4858 5.43679 17.5161 5.35068 17.5303 5.27267C17.5391 5.22461 17.5433 5.17025 17.5469 5.08917C17.5476 5.0743 17.5483 5.05853 17.549 5.04193C17.5519 4.97251 17.5554 4.88851 17.5632 4.79482C17.5825 4.56252 17.6715 4.36239 17.737 4.21525C17.7409 4.20663 17.7446 4.19819 17.7483 4.18994C17.8211 4.02548 17.8633 3.91801 17.8679 3.80346C17.8749 3.6259 18.0246 3.48767 18.2022 3.49473C18.3797 3.5018 18.518 3.65147 18.5109 3.82904C18.5009 4.07991 18.4074 4.29106 18.3388 4.44567L18.3367 4.45063C18.2612 4.62101 18.2143 4.72969 18.2045 4.84807C18.1979 4.9273 18.1951 4.99521 18.1922 5.06354C18.1914 5.0817 18.1907 5.09989 18.1898 5.11833C18.186 5.20212 18.1806 5.29417 18.1634 5.38859C18.1255 5.59555 18.0372 5.77875 17.8604 5.99596C17.8196 6.04608 17.7793 6.09805 17.7392 6.1496C17.6575 6.25477 17.5772 6.35816 17.4976 6.44028C17.3566 6.58561 17.1956 6.69656 16.9474 6.80686C16.6302 6.9478 16.3034 7.06594 15.9875 7.18013C15.8349 7.23532 15.6847 7.28959 15.5395 7.34506C15.0508 7.5317 14.6194 7.48574 14.2642 7.24977C13.9309 7.02836 13.7043 6.66535 13.5408 6.29737L12.4188 3.77238C12.3466 3.60998 12.4197 3.41983 12.5821 3.34767Z" fill="#FF0000"/>
<path fill-rule="evenodd" clip-rule="evenodd" d="M18.0324 11.0195C17.4276 11.2883 16.9499 11.6386 16.5684 12.1471C16.2234 12.6069 16.0925 13.3714 16.2527 13.9436C16.3342 14.2347 16.4968 14.483 16.6991 14.7602C16.7249 14.7955 16.7515 14.8315 16.7787 14.8683C16.9556 15.1076 17.1566 15.3796 17.2946 15.6901C17.3668 15.8525 17.2936 16.0426 17.1312 16.1148C16.9688 16.1869 16.7787 16.1138 16.7065 15.9514C16.5994 15.7103 16.4447 15.5003 16.2654 15.2568C16.2373 15.2186 16.2085 15.1797 16.1793 15.1396C15.9727 14.8565 15.748 14.5282 15.633 14.117C15.4222 13.3641 15.5813 12.3905 16.0536 11.7609C16.5123 11.1496 17.0846 10.7365 17.7711 10.4314C17.9743 10.3411 18.267 10.2377 18.5656 10.1818C18.8477 10.1289 19.2082 10.1037 19.4953 10.2482C19.967 10.4856 20.3612 10.837 20.7154 11.1834C20.8157 11.2815 20.912 11.3782 21.006 11.4726C21.2551 11.7228 21.4887 11.9575 21.7421 12.1622C21.8803 12.2738 21.9019 12.4764 21.7902 12.6147C21.6786 12.7529 21.476 12.7745 21.3377 12.6628C21.0549 12.4344 20.7846 12.1628 20.5275 11.9045C20.4386 11.8151 20.3512 11.7274 20.2655 11.6436C19.9202 11.3059 19.5846 11.0136 19.206 10.823C19.1186 10.779 18.9401 10.7663 18.6841 10.8143C18.4446 10.8592 18.2002 10.945 18.0324 11.0195Z" fill="#FF0000"/>
<path d="M13.219 4.50592C13.49 4.70532 13.5294 5.1601 13.7426 5.41924C13.7535 5.43249 14.1027 6.12813 14.1086 5.76741C14.1132 5.48641 13.9416 5.26158 13.9877 4.9693C14.0472 4.59225 14.4208 5.51967 14.5293 5.74145C14.5732 5.8312 14.8965 6.91591 14.8816 6.57052C14.8664 6.21792 14.6528 5.87797 14.6143 5.52656C14.5333 4.78735 14.6888 4.99518 14.843 5.57063C15.0173 6.22119 15.082 5.66681 15.1686 5.32845C15.2388 5.05395 15.2722 4.25798 15.4198 4.80871C15.5406 5.25975 15.6615 5.71079 15.7823 6.16183C15.8299 6.33951 15.8398 5.79475 15.9113 5.62527C16.0846 5.21433 16.0342 5.78849 16.3033 5.79293C16.6202 5.79816 16.4972 4.24979 16.8157 5.4387C16.8428 5.53954 17.3751 4.84976 17.4627 4.70754C17.6015 4.48227 17.4215 4.78504 17.4886 5.03529" stroke="#FF0000" stroke-width="0.8" stroke-linecap="round"/>
<path d="M17.1361 12.0464C17.3108 12.3767 17.423 12.7007 17.5191 13.0594C17.5316 13.106 17.6696 13.5765 17.5895 13.5302C17.3254 13.3777 17.2436 12.4477 17.1656 12.1563C16.9547 11.3692 17.3879 12.3604 17.3768 12.7133C17.373 12.8353 17.2333 14.4487 17.1142 14.3703C16.8203 14.1767 17.053 10.5991 17.3475 13.0434C17.3781 13.2975 17.728 14.1247 17.2459 13.9135C16.9393 13.7792 16.919 13.2101 16.9289 12.9386C16.9413 12.6035 17.1567 11.799 17.0612 12.5995C17.0134 13.0005 16.9551 13.4864 16.8182 13.867C16.7694 14.0027 16.7558 14.3963 16.7231 14.252C16.5523 13.5003 16.7542 12.5697 16.8505 11.8131C17.026 10.4332 17.2799 12.4617 17.3299 12.8622C17.3777 13.2451 17.3842 13.6409 17.4481 14.0205C17.4611 14.0972 17.5347 14.5183 17.5024 14.2229C17.4628 13.8618 17.6574 13.4809 17.7031 13.1217C17.7541 12.7211 17.7913 12.3138 17.8251 11.9114C17.9369 10.5793 18.0477 11.8377 17.9661 12.4376C17.91 12.8496 17.922 13.2852 17.855 13.6884C17.8277 13.8526 17.8311 14.0258 17.8747 13.7389C17.988 12.9923 18.0536 12.2327 18.2422 11.5021C18.2707 11.3919 18.4177 10.6175 18.5022 10.8995C18.6608 11.4288 18.656 11.9154 18.636 12.4627C18.6205 12.8831 18.4193 13.3277 18.489 13.7416C18.5406 14.0481 18.4348 14.2133 18.4551 13.8002C18.5072 12.7423 18.9201 11.5934 19.2449 10.5951C19.3405 10.3015 19.339 10.2233 19.4235 10.5906C19.5797 11.2697 19.4724 11.9836 19.3974 12.6677C19.3765 12.8587 19.0888 13.8386 19.3265 13.9758C19.4146 14.0267 19.348 13.7715 19.3824 13.6757C19.452 13.4824 19.5083 13.3053 19.5383 13.101C19.5964 12.7052 19.5438 11.6146 19.8486 11.3444C20.0337 11.1802 19.938 12.9585 19.9171 13.173C19.8851 13.5019 20.141 12.5266 20.3757 12.294C20.6107 12.061 20.7374 12.2548 20.732 12.5828C20.7288 12.7762 20.2322 12.6671 20.0488 12.7163C19.3101 12.9142 18.8432 13.6144 18.5904 14.328C18.4067 14.8464 18.4039 14.0495 18.1382 14.1207C17.9384 14.1742 17.4347 15.123 17.3408 14.8921C17.1909 14.5234 17.3657 15.6956 17.4788 15.4997C17.6144 15.2649 17.4068 14.8836 17.4932 14.6282" stroke="#FF0000" stroke-width="0.8" stroke-linecap="round"/>
<path d="M6.82349 8.11612C7.12356 8.90981 7.66772 9.77471 8.08505 10.5113C8.13003 10.5907 8.48625 11.3397 8.52141 11.3302C8.62595 11.3022 8.28916 10.2553 8.26356 10.1598C8.12269 9.63402 7.95081 9.14982 7.72419 8.6557C7.66638 8.52963 7.38504 7.7138 7.52238 8.22634C7.77882 9.18339 8.24274 10.0354 8.68866 10.9136C8.74079 11.0162 9.20373 12.0031 9.10291 11.6269C8.90485 10.8877 8.50611 10.0042 8.57327 9.2339C8.59415 8.99448 8.47802 8.48451 8.59642 8.27943C8.65006 8.18653 8.70282 8.46834 8.73059 8.57197C8.84318 8.99217 8.95577 9.41237 9.06837 9.83257C9.20795 10.3535 9.27649 11.0624 9.62489 11.4932C9.91994 11.858 9.48824 10.9401 9.4529 10.8513C9.11926 10.0133 8.32988 7.43929 8.74677 8.23915C8.96036 8.64893 9.01866 9.23071 9.13682 9.67168C9.37182 10.5487 9.60682 11.4257 9.84181 12.3028C9.93673 12.657 9.90883 12.5529 9.83562 12.2796C9.69472 11.7538 9.69305 11.3453 9.71199 10.8005C9.72157 10.5249 9.55194 8.30653 9.85768 9.44754C10.0483 10.1589 10.1828 10.8592 10.3234 11.5787C10.3341 11.6338 10.5501 12.3876 10.3854 12.1571C10.0553 11.6953 9.78359 10.8882 9.8244 10.3179C9.83191 10.213 10.1249 9.32115 10.1375 9.33537C10.3834 9.61269 10.4865 10.4247 10.5469 10.7937C10.5588 10.8666 10.538 11.3706 10.5256 11.0845C10.5149 10.8363 10.6994 10.5404 10.7549 10.2979C10.9544 9.42653 10.9996 9.96215 11.1508 10.5265" stroke="#FF0000" stroke-width="0.8" stroke-linecap="round"/>
<path d="M12.6075 3.88885C13.5291 3.6419 14.7802 4.13914 15.7231 4.27499C16.1206 4.33226 16.7732 4.8923 17.1448 4.79274C17.3911 4.72672 16.8273 4.80921 16.7063 4.79866C16.3634 4.76876 16.295 4.69806 16.0165 4.53726C15.3725 4.16545 14.903 4.16989 14.1497 4.23176C13.5546 4.28063 12.9716 4.38303 12.3783 4.4213C12.1094 4.43864 13.178 4.42382 13.357 4.41935C14.1167 4.40039 14.8576 4.45837 15.6191 4.39582C16.0016 4.36441 16.3486 4.28654 16.7112 4.40068C17.2267 4.56292 17.3226 4.63353 17.8975 4.47947C18.2462 4.38604 17.1546 4.62296 16.8845 4.86246" stroke="#FF0000" stroke-width="0.8" stroke-linecap="round"/>
<path d="M2.73805 7.57343C2.85859 7.76487 2.94442 7.93861 2.98976 8.16075C3.25608 9.46574 3.56731 10.7581 3.9966 12.0203C4.53201 13.5946 5.19901 15.12 5.85131 16.6482C5.94385 16.8651 6.19376 17.5205 6.15159 17.2886C6.11278 17.0751 6.02789 16.9053 5.92638 16.7145C5.52793 15.9654 5.20794 15.1816 4.85771 14.4093C4.22861 13.0222 3.68739 11.5876 2.97651 10.2407C2.66441 9.64931 2.65856 9.01435 2.65856 8.33297C2.65856 8.00804 2.68013 7.55675 2.49075 8.15192C2.24217 8.93319 2.06999 9.69396 1.95201 10.51C1.95143 10.514 1.69342 12.6417 1.82836 11.6008C1.95845 10.5972 1.99291 9.57966 2.11981 8.58027C2.14779 8.35992 2.16341 8.17551 2.1993 8.51844C2.25882 9.08717 2.34852 9.64793 2.54375 10.1877C2.661 10.5119 2.71783 10.4212 2.77779 10.1347C2.8764 9.66355 2.92867 9.18227 2.97651 8.70391C2.983 8.63898 3.06629 7.85731 3.26796 8.07243C3.95568 8.80599 4.20243 9.48869 4.50444 10.435C4.62037 10.7982 4.77043 11.3049 5.04318 11.592C5.13752 11.6913 5.11568 11.4867 5.10501 11.4506C4.89215 10.7322 4.74341 10.0038 4.31013 9.35748C4.0618 8.98702 3.78014 8.73 3.6919 8.28881" stroke="#FFE100" stroke-linecap="round"/>
<path d="M3.21497 10.594C3.34353 11.8314 3.53664 13.2287 3.35628 14.4712C3.32687 14.6738 3.21497 14.8658 3.21497 15.0718C3.21497 15.2737 3.29114 14.6731 3.29445 14.4712C3.31525 13.2026 3.21497 11.9408 3.21497 10.6735" stroke="#FFE100" stroke-linecap="round"/>
<path d="M3.69189 2.9965C4.61941 2.53274 5.7615 2.09197 6.79191 1.96317" stroke="#FFE100" stroke-linecap="round"/>
<path d="M4.00989 2.9965C4.36405 2.9965 4.65385 2.88631 4.99906 2.79337C5.87978 2.55625 6.78496 2.43666 7.66631 2.20163" stroke="#FFE100" stroke-linecap="round"/>
<path d="M5.28162 2.75805C6.12568 2.4365 7.13054 2.38752 8.01952 2.2458C8.67423 2.14142 9.3861 2.04266 10.0509 2.04266" stroke="#FFE100" stroke-linecap="round"/>
<path d="M10.4484 1.96317C12.3558 1.83275 14.2601 1.8042 16.1715 1.8042" stroke="#FFE100" stroke-linecap="round"/>
<path d="M9.57397 1.96316C10.2687 1.65336 10.971 1.15914 11.7201 1.00931" stroke="#FFE100" stroke-linecap="round"/>
<path d="M15.9756 19.9584C15.4847 19.9584 14.8814 20.2195 14.6073 20.6581C14.452 20.9065 15.5125 19.8949 15.618 19.6085C16.3075 17.7369 14.8357 20.9895 14.996 20.7669C15.4898 20.0811 16.1307 19.4277 16.7064 18.8077C16.7928 18.7147 17.218 18.2135 17.2118 18.248C17.0898 18.9186 16.6163 19.5035 16.411 20.145C16.2646 20.6023 16.2292 20.3825 16.4265 20.0983C16.7238 19.6703 17.071 19.2464 17.3439 18.8077C17.6033 18.3908 18.5899 17.164 17.7793 18.1547C17.2097 18.8508 16.4627 19.7241 16.1233 20.5726C15.9854 20.9173 16.6158 20.0162 16.8464 19.7251C17.4253 18.9944 18.0709 18.3204 18.6345 17.5793C19.0258 17.0648 20.4616 14.87 20.0339 16.7708C19.8428 17.6203 19.5455 18.4287 19.2643 19.2509C19.1856 19.4809 18.7053 20.7566 18.9999 19.8728C19.4645 18.479 20.4583 17.2891 20.9358 15.9C21.0984 15.4271 21.3035 15.0703 21.5422 14.6406C21.6247 14.4921 21.308 15.4915 21.2623 15.6046C20.8766 16.5597 20.6116 17.596 20.1195 18.5045C19.8039 19.087 20.0765 17.9603 20.1117 17.8515C20.5195 16.5909 21.2084 15.4006 21.7443 14.1896C21.7993 14.0655 22.2575 13.3119 22.2575 13.3422C22.2575 13.8616 21.8407 14.439 21.6355 14.8893C21.3826 15.4443 21.1005 15.9774 20.8114 16.5142C20.5818 16.9407 20.842 16.0599 20.8891 15.9622C21.4221 14.8582 22.0285 13.7884 22.5529 12.6814C22.8737 12.0041 23.0247 11.9405 22.9416 12.7436C22.8356 13.7685 22.5625 14.7312 22.3352 15.729C22.2656 16.0343 22.1331 16.9595 22.1331 16.6464C22.1331 16.1859 22.4737 15.7548 22.6928 15.3714C23.3159 14.281 24.0844 13.295 24.7142 12.2071C25.0214 11.6766 24.7529 12.4123 24.6831 12.5725C24.359 13.3168 23.9065 14.0046 23.5947 14.7494C23.4034 15.2063 23.5563 14.6469 23.6102 14.4928C23.8135 13.9122 24.0195 13.3711 24.2944 12.8213C24.5334 12.3432 24.7487 11.8456 24.9319 11.3441C24.9668 11.2488 25.2743 10.6178 24.9941 11.0254C24.6442 11.5343 24.3167 12.0912 23.8901 12.5414C23.663 12.7812 23.5325 13.0584 23.5325 12.6503C23.5325 11.8533 23.642 11.0548 23.7813 10.2713C23.9656 9.23439 23.8124 10.6917 23.8124 11.0565C23.8124 11.269 23.8869 10.6316 23.9834 10.4423C24.2275 9.96356 24.6336 9.56029 24.9319 9.11284C25.2159 8.68681 25.5189 8.31592 25.8804 7.95443C26.1448 7.69004 25.3439 8.64081 25.2429 8.76298C24.6449 9.48614 24.7107 9.29026 24.5121 8.5453C24.3444 7.91653 24.2985 7.28254 24.0923 6.66385" stroke="#946C50" stroke-width="0.8" stroke-linecap="round"/>
</svg>
