<svg viewBox="0 0 800 388" fill="none" xmlns="http://www.w3.org/2000/svg">
    <path
        d="M399.984 16.4072C399.984 16.2579 399.984 16.1097 399.978 15.9604C399.978 15.9217 399.978 15.8831 399.978 15.8444C399.978 15.737 399.969 15.6296 399.964 15.5222L399.954 15.3728C399.948 15.2762 399.941 15.1795 399.934 15.0828C399.934 15.0302 399.924 14.9754 399.92 14.9249C399.911 14.8315 399.902 14.738 399.892 14.6457C399.886 14.592 399.88 14.5382 399.874 14.4867C399.862 14.3932 399.85 14.2987 399.837 14.2053C399.831 14.1559 399.824 14.1064 399.817 14.057C399.802 13.9571 399.786 13.8572 399.77 13.7584C399.762 13.7165 399.756 13.6736 399.748 13.6317C399.728 13.5135 399.706 13.3965 399.683 13.2804L399.67 13.2106C399.612 12.9242 399.546 12.6413 399.473 12.3621C399.467 12.3363 399.459 12.3105 399.453 12.2847C399.423 12.1773 399.392 12.0613 399.36 11.9507C399.35 11.9142 399.338 11.8776 399.327 11.8433C399.297 11.7434 399.267 11.6435 399.236 11.5446L399.197 11.4243C399.165 11.3287 399.133 11.2331 399.099 11.1375C399.086 11.0978 399.072 11.0581 399.059 11.0194C399.023 10.9217 398.988 10.8261 398.951 10.7294C398.937 10.6939 398.924 10.6574 398.91 10.622C398.871 10.5146 398.829 10.4157 398.787 10.3137C398.775 10.2858 398.764 10.2578 398.753 10.231C398.701 10.1053 398.646 9.97964 398.59 9.85612C398.591 9.85291 398.591 9.84967 398.59 9.84646C397.324 7.02963 395.27 4.63887 392.676 2.9619C390.083 1.28494 387.06 0.393238 383.971 0.394115H333.547L383.969 0.0117188H136.122C130.894 0.011715 125.847 1.9316 121.941 5.40687C118.035 8.88214 115.54 13.6708 114.932 18.8638L111.011 52.5001C106.524 52.4733 103.242 52.5818 101.53 52.7472C99.878 52.8213 95.8253 53.7386 94.6695 60.7838C94.669 60.7885 94.669 60.7932 94.6695 60.7978C94.6631 60.8354 94.6577 60.8741 94.6512 60.9127C94.6362 61.0115 94.6201 61.1114 94.6061 61.2135C94.5986 61.264 94.5922 61.3209 94.5857 61.3671C94.5718 61.467 94.5578 61.5679 94.546 61.6711C94.5395 61.7248 94.5331 61.7785 94.5277 61.8354C94.5159 61.9428 94.5041 62.0406 94.4933 62.1447L94.4772 62.3231C94.4676 62.4305 94.4579 62.5293 94.4493 62.6346C94.4493 62.6979 94.4396 62.7645 94.4353 62.829C94.4278 62.9364 94.4203 63.0363 94.4139 63.1415C94.4139 63.2103 94.4063 63.2801 94.4031 63.3489C94.3967 63.4563 94.3913 63.5637 94.387 63.6711C94.387 63.7431 94.387 63.8172 94.3795 63.8859C94.3795 63.9933 94.3709 64.1007 94.3687 64.2082C94.3687 64.2844 94.3687 64.3639 94.3687 64.4412C94.3687 64.5486 94.3687 64.6561 94.3687 64.7635C94.3687 64.844 94.3687 64.9267 94.3687 65.0084C94.3687 65.1158 94.3687 65.2232 94.3687 65.3414C94.3687 65.4262 94.3687 65.5132 94.3687 65.5991C94.3687 65.7066 94.3687 65.8226 94.3752 65.9364C94.3752 66.0245 94.3816 66.1147 94.3838 66.2039C94.3838 66.3199 94.3913 66.4337 94.3967 66.5519C94.3967 66.6421 94.4053 66.7345 94.4096 66.8269C94.416 66.9461 94.4203 67.0632 94.4278 67.1846C94.4278 67.278 94.4396 67.3736 94.4461 67.4681C94.4536 67.5906 94.4611 67.712 94.4697 67.8376C94.4762 67.9279 94.4847 68.0213 94.4912 68.1126C94.5019 68.2447 94.5116 68.3758 94.5234 68.509C94.5299 68.5863 94.5374 68.6658 94.5449 68.7431C94.5793 69.1234 94.6179 69.5101 94.663 69.9086C95.1496 74.1879 96.0873 82.5264 97.618 93.0023C95.4451 92.4772 93.2438 92.0773 91.025 91.8047H91.0153C90.4374 91.7331 89.8506 91.6636 89.2548 91.5963H89.2183C88.629 91.534 88.0307 91.476 87.4234 91.4223L87.3633 91.4169C86.7618 91.3654 86.1513 91.3181 85.5319 91.2751L85.4545 91.2698C84.8394 91.2268 84.2164 91.1889 83.5855 91.1559H83.4932L82.5576 91.1097H82.5522L81.5855 91.07H81.4781L80.5834 91.0399H80.4996C80.1795 91.0306 79.8572 91.022 79.5329 91.0141H79.4136L78.5479 90.9959H78.3975L77.4308 90.9819H77.3073L76.448 90.9733H76.2396H75.2729H75.1364C74.8582 90.9733 74.579 90.9733 74.2986 90.9733H74.0301H73.0784H72.9452L72.1042 90.983H71.7819L70.9946 90.9948H70.7035L69.8711 91.0109L69.4779 91.0195L68.827 91.0356L68.4113 91.0453L67.5928 91.0678L67.1224 91.0818L66.5853 91.099L66.0418 91.1162L65.2695 91.143L64.7045 91.1634L64.2963 91.1785C63.6096 91.2043 62.9186 91.2322 62.2233 91.2623L61.959 91.2741C61.1942 91.3077 60.4245 91.3435 59.6496 91.3815H59.5938C52.1554 91.7424 44.267 92.287 36.1606 92.8316C1.91195 95.127 0.00644478 118.65 0 123.769C0 124.398 0.0268532 124.748 0.0268532 124.748C0.0182602 125.144 0.0139642 125.542 0.0139642 125.947V307.76C0.0139642 310.722 1.1909 313.564 3.28586 315.659C5.38082 317.754 8.22219 318.93 11.1849 318.93H21.6663C21.2603 318.93 20.8582 319.01 20.4831 319.165C20.108 319.321 19.7671 319.549 19.48 319.836C19.193 320.123 18.9653 320.464 18.8099 320.839C18.6546 321.214 18.5748 321.616 18.5749 322.022V328.096C18.5749 328.916 18.9006 329.702 19.4804 330.282C20.0601 330.862 20.8464 331.187 21.6663 331.187H69.1632L74.6907 379.898C74.8361 381.274 75.3678 382.58 76.2245 383.666C76.2997 383.761 76.3771 383.853 76.4576 383.943C76.6821 384.195 76.9335 384.452 77.2095 384.711C77.2815 384.778 77.3556 384.846 77.4319 384.913L77.4813 384.955C77.9248 385.344 78.3989 385.697 78.8991 386.01C79.0549 386.108 79.2149 386.202 79.3814 386.295C80.8036 387.084 82.6038 387.655 84.8122 387.655H86.1087C90.2763 387.655 92.9573 385.63 94.4686 383.941C95.4626 382.808 96.08 381.395 96.2356 379.896L101.766 331.184H127.598L131.221 363.122C131.296 363.808 131.498 364.474 131.818 365.085C132.01 365.451 132.246 365.792 132.521 366.1C133.634 367.343 135.607 368.833 138.674 368.833H139.633C142.697 368.833 144.67 367.343 145.782 366.1C146.513 365.266 146.968 364.226 147.083 363.122L150.706 331.19H649.293L652.917 363.122C653.032 364.226 653.486 365.266 654.218 366.1C655.33 367.343 657.304 368.833 660.371 368.833H661.326C664.392 368.833 666.366 367.343 667.478 366.1C668.21 365.266 668.664 364.226 668.779 363.122L672.402 331.19H698.231L703.758 379.9C703.914 381.399 704.531 382.812 705.524 383.945C707.035 385.634 709.713 387.66 713.885 387.66H715.18C719.348 387.66 722.03 385.634 723.54 383.945C724.534 382.813 725.152 381.399 725.307 379.9L730.835 331.19H778.333C779.152 331.189 779.939 330.863 780.518 330.284C781.098 329.704 781.424 328.918 781.424 328.098V322.024C781.424 321.204 781.098 320.418 780.519 319.838C779.939 319.258 779.153 318.933 778.333 318.933H788.814C791.777 318.933 794.618 317.756 796.713 315.661C798.808 313.566 799.985 310.724 799.985 307.762V125.947C799.985 125.542 799.985 125.144 799.973 124.749C799.973 124.749 802.293 95.4073 763.829 92.824C750.907 91.9561 738.535 91.0882 727.662 90.9604L726.91 90.9529C725.907 90.9443 724.916 90.9443 723.936 90.9529H723.204C716.05 91.0163 709.664 91.4771 704.346 92.5716C705.073 72.9827 704.063 63.598 700.427 60.018H700.422C700.367 59.9643 700.314 59.9106 700.256 59.8612V59.8558C700.085 59.7028 699.906 59.5594 699.719 59.4261L699.708 59.4186C699.653 59.3789 699.601 59.3391 699.54 59.3015L699.518 59.2865L699.345 59.1791L699.335 59.1726C699.208 59.0953 699.079 59.0233 698.947 58.9578L698.936 58.9524L698.757 58.8644L698.721 58.8482L698.557 58.7752L698.521 58.7602L698.329 58.6839H698.323C698.186 58.6323 698.048 58.5851 697.906 58.5432L697.86 58.5292C697.806 58.5142 697.753 58.4981 697.697 58.4841L697.642 58.4691L697.473 58.4283L697.428 58.4175C697.284 58.3853 697.137 58.3574 696.989 58.3327L696.936 58.3251L696.766 58.3004L696.697 58.2918C696.643 58.2843 696.589 58.279 696.536 58.2725L696.466 58.265L696.282 58.25H696.236C696.159 58.25 696.08 58.2392 696.002 58.236H695.951C695.89 58.236 695.828 58.236 695.765 58.2295H695.685H695.577C695.335 58.2295 695.088 58.2295 694.834 58.2403C694.753 58.2406 694.673 58.2477 694.594 58.2618L694.47 58.2682H694.385L694.216 58.2768L694.088 58.2833L693.943 58.2908L693.813 58.2972L693.656 58.3047L693.512 58.3112L693.354 58.3187L693.194 58.3262L693.041 58.3337L692.885 58.3402L692.699 58.3488H692.569L692.354 58.3584L692.19 58.366L692.007 58.3735L691.818 58.381L691.631 58.3896L691.456 58.396L691.241 58.4057L691.079 58.4121L690.843 58.4218L690.663 58.4283L690.448 58.4369L690.256 58.4444L690.022 58.454L689.825 58.4616L689.649 58.468L685.08 19.2623C684.476 14.0644 681.984 9.2697 678.076 5.78986C674.168 2.31002 669.117 0.387798 663.884 0.388739H416.021C411.772 0.388739 407.697 2.07674 404.692 5.0814C401.687 8.08605 399.999 12.1612 399.999 16.4105"
        fill="#59229E" />
    <path
        d="M28.833 104.665C28.5709 100.647 28.6955 87.4558 40.512 79.5244C51.0654 72.4351 62.6735 71.2429 72.2805 72.8057C77.8155 73.5146 83.1829 75.4771 87.7845 78.65C92.6965 82.0368 96.3979 86.8242 99.6171 91.7856C99.6279 91.7996 99.6373 91.8147 99.645 91.8307C103.58 97.906 106.815 105.226 108.071 113.788C108.104 114.203 108.142 114.614 108.168 115.036C108.184 115.286 108.148 115.536 108.062 115.771C107.976 116.006 107.842 116.221 107.669 116.401C107.495 116.581 107.286 116.723 107.054 116.818C106.823 116.913 106.574 116.958 106.324 116.951L95.5472 116.629C95.1042 116.617 94.6817 116.44 94.362 116.133C94.0424 115.826 93.8484 115.411 93.8179 114.969L92.3689 110.068C90.3108 104.053 86.807 98.167 82.3419 92.8823C82.3419 92.8823 72.1924 81.4073 55.1997 85.0089C38.207 88.6105 33.8524 101.474 33.8524 101.474L33.7321 101.582L30.7847 103.341C30.1092 103.745 29.4576 104.187 28.833 104.665Z"
        fill="#008236" />
    <path
        d="M29.8062 103.966C29.789 97.2569 38.845 81.8818 63.0559 81.7733C88.6341 81.6584 96.1885 110.677 96.6761 113.738C97.1187 116.504 95.8415 116.629 95.5891 116.627H95.5429C95.101 116.613 94.6798 116.436 94.3611 116.13C94.0424 115.823 93.8488 115.409 93.8179 114.968L92.3689 110.068C90.3108 104.053 86.807 98.1667 82.3419 92.8819C82.3419 92.8819 72.1924 81.407 55.1997 85.0086C38.2069 88.6101 33.8524 101.474 33.8524 101.474L33.7321 101.581L30.7847 103.341C30.4528 103.539 30.1284 103.75 29.8062 103.966Z"
        fill="#00A743" />
    <path
        d="M48.9321 86.9463C43.1114 90.188 40.585 94.9776 39.5066 98.1366L31.021 103.201C35.1371 90.8078 48.9321 86.9463 48.9321 86.9463Z"
        fill="black" />
    <path
        d="M668.779 363.123H132.521L83.6759 380.942C80.3589 382.648 81.5716 387.66 85.3021 387.66H716.676C720.826 387.66 722.234 382.122 718.589 380.141L668.779 363.123Z"
        fill="black" />
    <path
        d="M685.075 19.2493C684.468 14.0547 681.975 9.26384 678.068 5.78676C674.162 2.30969 669.114 0.38868 663.884 0.388672H416.037C411.788 0.388672 407.713 2.07664 404.708 5.08126C401.703 8.08589 400.015 12.1611 400.014 16.4104V16.4963L399.984 16.4104C399.984 12.1612 398.296 8.08598 395.292 5.08133C392.287 2.07667 388.212 0.388672 383.963 0.388672H136.116C130.885 0.388538 125.837 2.30992 121.931 5.78769C118.024 9.26547 115.531 14.0573 114.925 19.2525L95.1475 188.905L400.014 193.671L704.852 188.905L685.075 19.2493Z"
        fill="#4127AD" />
    <path
        d="M685.059 19.2493C684.452 14.0546 681.959 9.26361 678.052 5.78649C674.146 2.30937 669.098 0.388446 663.868 0.388672H416.021C411.837 0.388655 407.819 2.02563 404.826 4.94959C401.833 7.87356 400.103 11.8524 400.005 16.0355H399.964C399.866 11.8524 398.136 7.87356 395.143 4.94959C392.15 2.02563 388.132 0.388655 383.948 0.388672H136.101C130.87 0.388538 125.822 2.30992 121.916 5.78769C118.009 9.26547 115.516 14.0573 114.91 19.2525L112.553 39.4763H687.416L685.059 19.2493Z"
        fill="#400D9C" />
    <path
        d="M114.932 18.8639C115.538 13.6688 118.031 8.87725 121.938 5.39956C125.844 1.92187 130.892 0.000334904 136.122 0H383.969L139.209 1.85287C133.979 1.85274 128.931 3.77412 125.024 7.2519C121.117 10.7297 118.625 15.5215 118.019 20.7167L98.4022 188.998L95.1541 188.524L114.932 18.8639Z"
        fill="#FF00D9" />
    <path
        d="M150.563 185.904C161.338 191.047 172.56 193.281 184.5 193.803C218.162 193.649 272.133 183.111 284.678 180.568C287.167 180.064 289.532 179.015 291.473 177.377C297.79 172.042 296.142 164.756 294.302 154.987C288.755 132.875 277.238 114.422 273.926 109.408C273.642 108.975 273.452 108.489 273.367 107.979C273.282 107.468 273.304 106.946 273.433 106.445C279.053 84.0852 276.641 68.8981 273.283 59.7046C271.565 55.6068 270.051 52.5595 268.482 50.3425C268.403 50.2351 268.325 50.1277 268.251 50.0278C268.131 49.8634 268.008 49.7056 267.887 49.5487C267.796 49.4327 267.711 49.3285 267.632 49.2265C267.442 48.9966 267.251 48.7721 267.057 48.5637L267.049 48.5562C262.925 44.1394 257.929 44.582 247.798 46.1394C229.778 48.9118 227.966 53.2674 183.745 45.641C150.907 39.9782 120.538 39.7548 113.877 40.3982C113.159 40.468 114.598 40.366 113.877 40.3982C113.387 40.4225 112.901 40.5058 112.43 40.6463L108.768 72.07C113.112 105.003 124.745 173.597 150.563 185.904Z"
        fill="black" />
    <path
        d="M685.075 19.2493C684.468 14.0547 681.975 9.26384 678.068 5.78676C674.162 2.30969 669.114 0.38868 663.884 0.388672H660.447C665.677 0.388772 670.725 2.31024 674.632 5.78797C678.539 9.2657 681.032 14.0574 681.637 19.2525L701.414 188.905H704.852L685.075 19.2493Z"
        fill="#B44AFF" />
    <path
        d="M692.078 79.3373L688.134 45.5344H620.389L581.328 33.5793C577.139 32.299 572.606 32.6825 568.74 34.7373C562.969 37.8039 555.662 44.9544 550.543 61.4831C540.824 92.8595 538.733 99.5707 538.733 99.5707C538.733 99.5707 529.32 100.588 523.044 111.715C516.768 122.842 504.05 155.128 504.05 155.128L495.155 177.626L539.1 179.834L692.078 79.3373Z"
        fill="black" />
    <path d="M393.477 195.499H399.984V16.4071C399.988 13.9969 399.445 11.6172 398.397 9.44678L393.477 195.499Z"
        fill="black" />
    <path
        d="M85.4632 328.083L68.5425 325.743L74.6876 379.896C74.8436 381.395 75.461 382.808 76.4545 383.941C77.9658 385.63 80.6436 387.656 84.8145 387.656H86.111C90.2786 387.656 92.9596 385.63 94.4709 383.941C95.4649 382.808 96.0823 381.395 96.2379 379.896L102.383 325.743L85.4632 328.083Z"
        fill="#250070" />
    <path
        d="M79.5416 383.94C78.5476 382.807 77.9302 381.394 77.7746 379.895L71.6789 326.172L68.5425 325.743L74.6876 379.896C74.8431 381.395 75.4606 382.808 76.4545 383.941C77.9658 385.63 80.6436 387.656 84.8145 387.656H86.111C86.4182 387.656 86.7146 387.642 87.0057 387.62C83.3472 387.355 80.9412 385.504 79.5416 383.94Z"
        fill="#EE00BE" />
    <path
        d="M139.151 324.982L126.698 323.258L131.221 363.122C131.336 364.226 131.79 365.266 132.521 366.1C133.634 367.343 135.607 368.834 138.675 368.834H139.628C142.696 368.834 144.669 367.343 145.782 366.1C146.513 365.266 146.968 364.226 147.083 363.122L151.605 323.264L139.151 324.982Z"
        fill="black" />
    <path
        d="M134.373 366.095C133.642 365.261 133.188 364.22 133.073 363.117L128.58 323.519L126.698 323.258L131.221 363.122C131.336 364.226 131.79 365.266 132.521 366.1C133.634 367.343 135.607 368.834 138.675 368.834H139.628C139.785 368.834 139.927 368.814 140.077 368.807C138.993 368.762 137.928 368.499 136.948 368.033C135.968 367.567 135.092 366.908 134.373 366.095Z"
        fill="#EE00BE" />
    <path
        d="M714.537 328.083L731.457 325.742L725.311 379.895C725.156 381.394 724.539 382.807 723.546 383.94C722.034 385.629 719.356 387.655 715.185 387.655H713.889C709.722 387.655 707.039 385.629 705.528 383.94C704.535 382.807 703.918 381.394 703.762 379.895L697.617 325.743L714.537 328.083Z"
        fill="#250070" />
    <path
        d="M723.46 379.884C723.304 381.383 722.686 382.797 721.693 383.93C720.216 385.58 717.617 387.547 713.611 387.635C713.704 387.635 713.793 387.644 713.889 387.644H715.184C719.352 387.644 722.034 385.618 723.545 383.93C724.539 382.797 725.156 381.383 725.311 379.884L731.456 325.732L729.576 325.992"
        fill="#B44AFF" />
    <path
        d="M660.851 324.982L673.305 323.258L668.779 363.122C668.664 364.226 668.21 365.266 667.478 366.1C666.366 367.343 664.392 368.834 661.326 368.834H660.371C657.304 368.834 655.33 367.343 654.218 366.1C653.486 365.266 653.032 364.226 652.917 363.122L648.391 323.258L660.851 324.982Z"
        fill="black" />
    <path
        d="M666.927 363.106C666.812 364.21 666.357 365.25 665.626 366.085C664.907 366.897 664.03 367.555 663.05 368.02C662.07 368.485 661.006 368.747 659.922 368.791C660.073 368.798 660.214 368.818 660.371 368.818H661.325C664.392 368.818 666.366 367.327 667.478 366.085C668.21 365.251 668.664 364.21 668.779 363.106L673.302 323.249L671.42 323.508L666.927 363.106Z"
        fill="#B44AFF" />
    <path
        d="M0.0269203 124.748C0.0269203 124.748 -2.29428 95.4062 36.1714 92.8229C74.637 90.2396 108.221 87.6564 111.953 104.592C115.686 121.528 126.306 181.236 126.306 181.236L72.0527 233.414"
        fill="black" />
    <path
        d="M98.2464 97.2325C101.953 99.2228 103.195 97.863 103.037 94.8232C89.9165 89.0379 64.3544 90.9306 36.1714 92.8232C-2.29428 95.4065 0.0269203 124.748 0.0269203 124.748L16.6759 149.865H31.4162V97.4129C31.4162 97.4129 84.5394 89.8736 98.2464 97.2325Z"
        fill="#A30086" />
    <path
        d="M799.973 124.748C799.973 124.748 802.293 95.4062 763.829 92.8229C725.364 90.2396 691.778 87.6564 688.047 104.592C684.315 121.528 673.694 181.236 673.694 181.236L727.948 233.414"
        fill="black" />
    <path
        d="M674.123 177.554H107.931C91.7339 177.554 78.6069 190.683 78.6069 206.877V233.408H721.398V224.826C721.395 198.717 700.23 177.554 674.123 177.554Z"
        fill="#59229E" />
    <path d="M157.654 233.413L131.602 205.483L308.461 177.4H640.886L678.795 203.869L642.346 233.413" fill="#3C51DD" />
    <path
        d="M291.473 177.376C291.473 177.376 305.314 191.136 280.188 195.514C255.062 199.892 200.653 209.655 200.653 209.655C200.653 209.655 146.818 220.256 131.602 205.483C116.386 190.711 272.456 161.938 272.456 161.938"
        fill="black" />
    <path
        d="M684.824 120.61L701.522 129.921L739.359 132.705L736.846 114.175L686.28 113.146C685.825 115.434 685.341 117.943 684.824 120.61Z"
        fill="black" />
    <path
        d="M763.829 92.823C725.363 90.2451 691.778 87.6564 688.047 104.592C687.362 107.7 686.445 112.25 685.404 117.603L734.659 120.561L788.392 142.221L799.973 124.748C799.973 124.748 802.293 95.4063 763.829 92.823Z"
        fill="black" />
    <path d="M736.846 258.073H63.1523V325.055H736.846V258.073Z" fill="#59229E" />
    <path
        d="M400.014 245.761H721.394V273.856C721.394 277.963 719.762 281.903 716.857 284.807C713.952 287.712 710.013 289.344 705.905 289.344H94.0927C89.985 289.344 86.0455 287.712 83.1408 284.807C80.236 281.903 78.604 277.963 78.6038 273.856V245.761H399.983"
        fill="black" />
    <path
        d="M40.8384 100.158C22.3547 91.0917 0.456457 104.166 0.026805 124.748C0.018212 125.144 0.013916 125.542 0.013916 125.947V307.76C0.013916 310.722 1.19085 313.564 3.28581 315.659C5.38077 317.754 8.22215 318.931 11.1849 318.931H67.437C70.3998 318.931 73.2411 317.754 75.3361 315.659C77.431 313.564 78.608 310.722 78.608 307.76V160.72C78.6037 134.126 63.205 111.132 40.8384 100.158Z"
        fill="#59229E" />
    <path
        d="M78.6036 233.432V179.525V160.738C78.6036 134.144 63.2049 111.148 40.8383 100.177C37.881 98.7209 34.6924 97.7922 31.416 97.4321C31.416 97.4321 57.9653 101.816 57.9653 175.87C57.9653 180.388 58.0394 184.758 58.1876 188.98C58.2703 190.667 60.5496 233.432 78.6036 233.432Z"
        fill="#3C51DD" />
    <path
        d="M759.162 100.158C777.644 91.0917 799.543 104.166 799.973 124.748C799.981 125.144 799.985 125.542 799.985 125.947V307.76C799.985 310.722 798.808 313.564 796.713 315.659C794.618 317.754 791.777 318.931 788.814 318.931H732.563C729.6 318.931 726.759 317.754 724.664 315.659C722.569 313.564 721.392 310.722 721.392 307.76V160.72C721.395 134.126 736.792 111.132 759.162 100.158Z"
        fill="#59229E" />
    <path
        d="M706.007 276.996L93.9928 276.996C89.9113 276.996 85.9971 275.375 83.1111 272.489C80.225 269.603 78.6037 265.689 78.6037 261.607V233.414L721.396 233.414V261.609C721.396 265.69 719.775 269.604 716.889 272.49C714.003 275.376 710.089 276.998 706.007 276.998V276.996Z"
        fill="#9037DB" />
    <path
        d="M174.557 206.121H109.429C104.417 206.121 99.4301 207.057 94.8296 209.046C87.258 212.32 78.6038 219.175 78.6038 233.414V162.179L136.974 163.429"
        fill="black" />
    <path
        d="M721.395 224.826C721.395 224.826 707.146 204.5 671.138 204.5C635.13 204.5 597.847 212.615 597.847 212.615L599.183 180.843L706.811 158.014L721.391 160.716"
        fill="black" />
    <path d="M524.442 193.489L600.749 202.521L592.14 172.895L530.455 165.735" fill="black" />
    <path
        d="M260.936 72.0513C259.218 67.9535 257.704 64.9062 256.135 62.6892C256.055 62.5818 255.978 62.4744 255.904 62.3745C255.782 62.2098 255.661 62.0501 255.54 61.8954C255.449 61.7794 255.364 61.6806 255.285 61.5796C255.095 61.3487 254.903 61.1242 254.71 60.9158C254.707 60.9136 254.704 60.9111 254.702 60.9083C250.577 56.4925 245.582 56.934 235.449 58.4915C217.431 61.2638 215.619 65.6194 171.398 57.9931C138.56 52.3303 108.191 52.1069 101.53 52.7503C100.812 52.8201 102.25 52.718 101.53 52.7503C99.3346 52.8491 92.8984 54.4356 94.6557 69.9159C96.7685 88.4919 107.369 183.548 138.214 198.252C148.988 203.388 160.211 205.628 172.156 206.15C205.818 205.995 259.788 195.458 272.334 192.915C274.823 192.411 277.188 191.362 279.129 189.723C285.445 184.389 283.798 177.102 281.958 167.334C276.411 145.222 264.895 126.769 261.582 121.755C261.298 121.322 261.108 120.835 261.023 120.325C260.938 119.815 260.96 119.293 261.089 118.792C266.706 96.4319 264.293 81.2448 260.936 72.0513Z"
        fill="#4F6BFF" />
    <path
        d="M279.126 189.723C285.442 184.389 283.795 177.102 281.955 167.334C276.407 145.222 264.891 126.769 261.579 121.755C261.295 121.322 261.105 120.836 261.02 120.325C260.935 119.815 260.957 119.293 261.086 118.792C263.449 109.408 264.384 101.29 264.437 94.345C261.78 124.773 241.958 118.447 241.958 118.447L216.761 118.587C141.532 127.559 128.957 82.9131 128.957 82.9131L117.689 172.439C123.249 184.757 130.016 194.343 138.216 198.252C148.991 203.389 160.213 205.628 172.159 206.15C205.821 205.995 259.79 195.458 272.336 192.915C274.82 192.411 277.185 191.362 279.126 189.723Z"
        fill="#3C51DD" />
    <path
        d="M279.857 159.988C280.609 169.564 274.049 183.655 234.054 191.056C169.839 202.939 152.066 152.863 152.066 152.863L128.361 175.977L132.201 194.181C134.115 195.875 136.118 197.252 138.216 198.252C148.991 203.388 160.213 205.628 172.158 206.15C205.821 205.995 259.79 195.458 272.336 192.914C274.825 192.411 277.19 191.361 279.131 189.723C285.447 184.389 283.8 177.102 281.96 167.334C281.328 164.838 280.62 162.382 279.857 159.988Z"
        fill="#131B94" />
    <path
        d="M138.216 198.252C141.981 200.044 145.887 201.527 149.893 202.686C164.013 163.513 137.942 87.8818 118.352 67.801C111.18 60.4475 105.745 57.281 101.735 56.2208C100.968 56.0174 100.168 55.9767 99.3842 56.1014C98.6008 56.2261 97.8522 56.5134 97.1865 56.9448C96.5208 57.3762 95.9527 57.9421 95.5189 58.6063C95.085 59.2704 94.795 60.0179 94.6674 60.8009C94.2893 63.1156 94.2238 66.092 94.6578 69.9159C96.7706 88.4919 107.371 183.548 138.216 198.252Z"
        fill="#000070" />
    <path
        d="M216.021 71.0375C234.603 68.8538 235.698 61.3596 245.022 58.1941C245.458 58.0459 245.353 57.3992 244.893 57.4121C242.315 57.4841 239.245 57.9084 235.452 58.4863C217.433 61.2586 215.621 65.6142 171.4 57.9879C165.45 56.9621 159.585 56.1156 153.922 55.4196C153.112 55.3208 152.834 56.4637 153.6 56.7429C166.497 61.4713 199.942 72.9269 216.021 71.0375Z"
        fill="#7589FF" />
    <path d="M101.53 52.7501C100.811 52.82 102.25 52.7179 101.53 52.7501V52.7501Z" fill="#FF8EE8" />
    <path
        d="M255.285 61.5796C255.364 61.6752 255.449 61.7794 255.54 61.8954C255.455 61.789 255.367 61.6816 255.285 61.5796Z"
        fill="#FF8EE8" />
    <mask id="mask0_701_18314" style="mask-type:luminance" maskUnits="userSpaceOnUse" x="255" y="61" width="1"
        height="1">
        <path
            d="M255.285 61.5796C255.364 61.6752 255.449 61.7794 255.54 61.8954C255.455 61.789 255.367 61.6816 255.285 61.5796Z"
            fill="white" />
    </mask>
    <g mask="url(#mask0_701_18314)">
        <path d="M255.534 61.5786L255.54 61.5808V61.8955H255.285V61.5786H255.534Z" fill="#4C0F92" />
        <path d="M255.54 61.5808L255.533 61.5786H255.54V61.5808Z" fill="#4A0E91" />
    </g>
    <path
        d="M255.904 62.3745C255.978 62.4744 256.055 62.5786 256.135 62.6892C256.058 62.5808 255.981 62.4787 255.904 62.3745Z"
        fill="#FF8EE8" />
    <mask id="mask1_701_18314" style="mask-type:luminance" maskUnits="userSpaceOnUse" x="255" y="62" width="2"
        height="1">
        <path
            d="M255.904 62.3745C255.978 62.4744 256.055 62.5786 256.135 62.6892C256.058 62.5808 255.981 62.4787 255.904 62.3745Z"
            fill="white" />
    </mask>
    <g mask="url(#mask1_701_18314)">
        <path d="M255.904 62.5732L256.135 62.6431V62.6892H255.904V62.5732Z" fill="#4F1295" />
        <path d="M256.135 62.6431L255.904 62.5733V62.3735H256.135V62.6431Z" fill="#4E1194" />
    </g>
    <path
        d="M260.624 120.648C260.624 120.648 222.477 107.343 160.788 123.735C160.788 123.735 226.67 117.492 260.624 120.648Z"
        fill="#2835B9" />
    <path
        d="M260.624 120.648L260.987 120.033C260.951 119.617 260.985 119.197 261.086 118.792C266.705 96.4319 264.293 81.2448 260.936 72.0514C259.218 67.9536 257.704 64.9062 256.135 62.6892C256.055 62.5818 255.978 62.4744 255.904 62.3745C255.904 62.3745 266.415 83.3738 260.624 120.648Z"
        fill="#7589FF" />
    <path
        d="M694.938 58.2157C685.486 58.7624 631.317 60.1835 631.317 60.1835L631.531 60.0761C631.531 60.0761 604.765 52.3123 588.833 48.1532C572.9 43.9942 563.449 41.5914 557.819 57.1201C557.819 57.1201 549.827 89.4771 549.86 109.694C549.869 111.164 549.536 112.615 548.888 113.934C546.53 118.681 540.714 131.221 538.576 143.372C538.039 147.002 537.641 150.168 537.426 152.693C535.728 172.705 533.921 192.06 546.349 193.591C558.776 195.123 605.934 199.277 642.789 202.667C679.541 206.059 685.804 205.404 689.1 195.015C692.397 184.626 701.103 148.431 703.545 108.299C705.988 68.1675 704.391 57.7785 694.938 58.2157Z"
        fill="#EE00BE" />
    <path
        d="M675.352 128.318C675.352 128.318 668.486 156.063 628.331 165.228C609.529 169.278 555.842 166.195 540.575 165.21C539.211 165.096 537.846 164.995 536.475 164.934C535.585 179.979 536.496 192.377 546.337 193.592C578.378 197.548 610.638 199.703 642.781 202.668C679.541 206.059 685.804 205.404 689.1 195.015C689.76 192.934 690.637 189.815 691.639 185.839L675.352 128.318Z"
        fill="#A10088" />
    <path
        d="M576.194 48.7066C574.494 47.1749 575.238 46.191 576.725 45.5347C580.23 46.0814 584.266 47.0664 588.727 48.2683C599.561 51.1115 615.28 55.595 624.309 58.1106C626.751 58.8754 629.193 59.5316 631.425 60.1879C613.263 62.1568 604.233 62.594 597.011 63.2503C589.789 63.9066 579.38 51.5498 576.3 48.7066H576.194Z"
        fill="#FF00D9" />
    <path
        d="M703.435 108.297C700.992 148.429 692.284 184.624 688.993 195.013C687.401 200.043 685.065 202.778 678.797 203.87C662.863 205.947 667.217 183.313 670.828 157.286C674.44 131.151 686.547 58.2138 694.832 58.2138C704.285 57.7766 705.878 68.1667 703.435 108.297Z"
        fill="#60006A" />
    <path
        d="M575.243 46.8473C575.35 46.3005 575.986 45.8634 576.729 45.5347C580.234 46.0814 584.271 47.0664 588.732 48.2683C599.565 51.1115 615.284 55.595 624.313 58.1106C626.756 58.8754 629.197 59.5316 631.429 60.1879C626.437 60.7347 622.084 61.1718 618.258 61.5005L575.243 46.8473Z"
        fill="#FF82EE" />
    <path
        d="M626.271 106.298C619.308 110.991 605.697 121.291 595.003 136.317C594.211 137.43 593.578 136.776 594.251 135.544C599.767 125.425 610.998 108.684 626.77 104.257C627.52 104.042 627.111 105.73 626.271 106.298Z"
        fill="#C800A3" />
    <path
        d="M692.31 60.1878C692.31 60.1878 703.035 59.1706 704.109 72.261C704.146 72.8118 704.222 73.3593 704.337 73.8991C703.561 61.7335 700.72 57.9483 694.938 58.2168C685.758 58.7474 634.397 60.1041 631.457 60.1814L631.428 60.1889L692.31 60.1878Z"
        fill="#FF82EE" />
    <path
        d="M573.846 113.561C574.988 113.669 575.435 112.07 574.412 111.538C554.763 101.283 553.187 79.3374 553.187 79.3374C551.428 89.2398 549.845 100.679 549.857 109.701C549.866 111.17 549.533 112.622 548.885 113.94C548.522 114.671 548.077 115.587 547.576 116.656C551.323 112.619 562.998 112.575 573.846 113.561Z"
        fill="#C800A3" />
    <path
        d="M778.337 318.927H21.6631C21.2571 318.927 20.8551 319.007 20.48 319.162C20.1048 319.318 19.764 319.545 19.4769 319.832C19.1898 320.119 18.9621 320.46 18.8068 320.835C18.6515 321.211 18.5716 321.613 18.5718 322.019V328.093C18.5718 328.913 18.8975 329.699 19.4772 330.279C20.057 330.858 20.8433 331.184 21.6631 331.184H778.337C779.157 331.184 779.943 330.858 780.523 330.278C781.102 329.699 781.428 328.913 781.428 328.093V322.019C781.428 321.199 781.103 320.412 780.523 319.833C779.943 319.253 779.157 318.927 778.337 318.927Z"
        fill="#250070" />
    <path
        d="M592.395 167.248C571.772 167.092 549.548 165.789 540.583 165.207C539.22 165.093 537.853 164.992 536.483 164.931C535.592 179.976 536.503 192.374 546.344 193.588C562.802 195.621 579.32 197.177 595.844 198.612C594.239 188.206 592.92 177.768 592.395 167.248Z"
        fill="black" />
    <path
        d="M74.0281 136.266C74.0281 136.266 66.1236 141.048 65.2514 156.911C64.3792 172.774 71.9196 177.83 81.1356 179.747C90.3517 181.664 79.3773 127.544 79.3773 127.544"
        fill="black" />
    <path
        d="M495.155 177.626C495.155 177.626 489.598 200.585 517.999 200.117C546.4 199.648 515.276 153.392 515.276 153.392"
        fill="black" />
    <path
        d="M564.647 138.509C579.985 139.175 579.096 132.729 589.338 132.507C592.096 132.447 594.623 133.493 596.885 135.514C594.308 132.641 591.338 131.136 588.038 131.207C577.795 131.433 578.68 137.877 563.347 137.208C558.932 137.016 556.53 136.27 555.113 135.275C556.216 136.884 558.457 138.239 564.647 138.509Z"
        fill="#BDC4FF" />
    <path
        d="M583.595 132.937C582.878 129.929 577.719 130.372 577.719 130.372H552.124L547.906 136.807L566.972 146.269C566.972 146.269 584.312 135.949 583.595 132.937Z"
        fill="#B878F7" />
    <path
        d="M583.595 132.937C582.878 129.929 577.719 130.372 577.719 130.372H553.831L579.146 131.781C579.146 131.781 582.138 131.988 583.048 134.422C583.477 133.835 583.686 133.326 583.595 132.937Z"
        fill="white" />
    <path
        d="M575.128 190.78C575.128 190.78 584.151 214.494 596.535 212.862C608.92 211.231 609.36 194.337 607.36 170.112C605.36 145.887 598.28 130.989 588.038 131.211C577.796 131.434 578.68 137.877 563.347 137.208C548.014 136.539 556.902 129.206 547.342 127.872C537.783 126.538 528.008 143.876 521.334 156.103C514.661 168.33 506.442 195.004 518.005 200.116C529.568 205.228 542.678 180.996 542.678 180.996L566.476 184.312C570.221 184.834 573.484 187.192 575.069 190.628L575.128 190.78Z"
        fill="#2835B9" />
    <path
        d="M572.271 167.319C573.379 164.452 572.438 161.417 570.169 160.54C567.899 159.663 565.162 161.276 564.053 164.144C562.945 167.011 563.886 170.046 566.156 170.923C568.425 171.8 571.163 170.187 572.271 167.319Z"
        fill="black" />
    <path
        d="M549.5 166.033C551.082 163.292 550.607 160.055 548.438 158.803C546.27 157.551 543.229 158.758 541.647 161.499C540.064 164.24 540.539 167.476 542.708 168.728C544.876 169.98 547.917 168.773 549.5 166.033Z"
        fill="black" />
    <path
        d="M568.595 166.647C570.639 163.106 570.025 158.924 567.223 157.306C564.421 155.689 560.492 157.248 558.448 160.789C556.403 164.33 557.017 168.513 559.819 170.13C562.621 171.748 566.55 170.189 568.595 166.647Z"
        fill="#91A8FF" />
    <path
        d="M546.765 162.424C548.821 158.846 548.193 154.627 545.363 153C542.532 151.373 538.57 152.955 536.514 156.532C534.458 160.11 535.086 164.329 537.917 165.956C540.748 167.583 544.709 166.002 546.765 162.424Z"
        fill="#91A8FF" />
    <path
        d="M590.736 143.425C591.116 141.378 590.108 139.474 588.483 139.171C586.858 138.869 585.232 140.283 584.852 142.331C584.471 144.378 585.479 146.282 587.104 146.585C588.729 146.887 590.355 145.472 590.736 143.425Z"
        fill="black" />
    <path
        d="M589.538 143.063C589.918 141.016 588.91 139.111 587.285 138.809C585.66 138.507 584.034 139.921 583.654 141.968C583.273 144.015 584.281 145.92 585.906 146.222C587.531 146.525 589.157 145.11 589.538 143.063Z"
        fill="#00F789" />
    <path
        d="M581.068 149.789C581.449 147.742 580.44 145.837 578.815 145.535C577.191 145.232 575.565 146.647 575.184 148.694C574.803 150.741 575.811 152.645 577.436 152.948C579.061 153.25 580.687 151.836 581.068 149.789Z"
        fill="black" />
    <path
        d="M579.87 149.427C580.251 147.38 579.242 145.475 577.617 145.173C575.993 144.87 574.367 146.285 573.986 148.332C573.605 150.379 574.613 152.284 576.238 152.586C577.863 152.888 579.489 151.474 579.87 149.427Z"
        fill="#FF00D9" />
    <path
        d="M586.516 158.558C586.897 156.511 585.888 154.606 584.263 154.304C582.639 154.001 581.013 155.416 580.632 157.463C580.251 159.51 581.259 161.415 582.884 161.717C584.509 162.019 586.135 160.605 586.516 158.558Z"
        fill="black" />
    <path
        d="M585.318 158.195C585.699 156.148 584.691 154.244 583.066 153.941C581.441 153.639 579.815 155.053 579.434 157.101C579.053 159.148 580.062 161.052 581.686 161.355C583.311 161.657 584.937 160.242 585.318 158.195Z"
        fill="#B878F7" />
    <path
        d="M596.08 152.513C596.461 150.466 595.452 148.562 593.827 148.259C592.203 147.957 590.577 149.371 590.196 151.418C589.815 153.466 590.823 155.37 592.448 155.672C594.073 155.975 595.699 154.56 596.08 152.513Z"
        fill="black" />
    <path
        d="M594.882 152.151C595.263 150.104 594.255 148.199 592.63 147.897C591.005 147.595 589.379 149.009 588.998 151.056C588.617 153.103 589.626 155.008 591.25 155.31C592.875 155.612 594.501 154.198 594.882 152.151Z"
        fill="#BDC4FF" />
    <path
        d="M576.361 191.932C575.69 190.478 574.707 189.19 573.482 188.16C574.118 188.908 574.648 189.739 575.06 190.63L575.128 190.779C575.128 190.779 579.539 202.368 586.425 208.785C580.291 202.223 576.424 192.08 576.424 192.08C576.406 192.031 576.383 191.981 576.361 191.932Z"
        fill="#FF59E4" />
    <path
        d="M522.634 157.403C529.302 145.182 539.083 127.839 548.642 129.177C550.227 129.398 551.298 129.786 552.063 130.28C551.357 129.176 550.145 128.267 547.337 127.876C537.777 126.542 528.003 143.881 521.329 156.108C515.037 167.643 507.365 192.033 516.231 199.046C509.506 190.704 516.684 168.31 522.634 157.403Z"
        fill="#FF59E4" />
    <path d="M545.57 138.051L546.216 138.751L544.556 139.365" fill="black" />
    <path d="M547.569 142.767L548.192 143.443L546.829 143.978" fill="black" />
    <path d="M533.378 152.415L534.052 153.197L534.845 151.748" fill="black" />
    <path d="M532.147 146.746L532.843 147.543L533.474 146.493" fill="black" />
    <path
        d="M547.887 143.322H544.523C544.475 143.322 544.428 143.31 544.386 143.286C544.344 143.262 544.31 143.228 544.285 143.187C544.261 143.145 544.248 143.098 544.247 143.05C544.246 143.002 544.258 142.955 544.281 142.913L546.288 139.298C546.327 139.226 546.347 139.146 546.346 139.064C546.345 138.983 546.322 138.903 546.281 138.833C546.24 138.763 546.181 138.705 546.11 138.664C546.04 138.623 545.96 138.602 545.878 138.602H542.393C542.225 138.602 542.06 138.647 541.916 138.732C541.771 138.817 541.652 138.939 541.57 139.086L539.488 142.838C539.407 142.985 539.288 143.107 539.144 143.192C538.999 143.278 538.834 143.323 538.667 143.322H535.485C535.318 143.323 535.154 143.367 535.01 143.451C534.866 143.535 534.747 143.656 534.665 143.801L532.824 147.072C532.786 147.14 532.766 147.218 532.766 147.296C532.767 147.375 532.788 147.452 532.827 147.52C532.867 147.587 532.923 147.644 532.992 147.683C533.06 147.722 533.137 147.742 533.215 147.742H536.252C536.304 147.742 536.355 147.756 536.4 147.782C536.445 147.808 536.483 147.845 536.509 147.89C536.536 147.934 536.55 147.985 536.551 148.037C536.551 148.089 536.538 148.141 536.513 148.186L534.011 152.697C533.972 152.768 533.952 152.848 533.953 152.929C533.954 153.01 533.976 153.09 534.018 153.159C534.059 153.229 534.117 153.287 534.188 153.327C534.258 153.368 534.337 153.389 534.418 153.389H537.908C538.076 153.389 538.241 153.344 538.385 153.259C538.53 153.174 538.649 153.051 538.73 152.905L541.325 148.229C541.406 148.082 541.525 147.959 541.67 147.874C541.815 147.789 541.98 147.744 542.148 147.745H545.613C545.78 147.744 545.944 147.7 546.088 147.616C546.232 147.532 546.351 147.411 546.433 147.265L548.282 143.993C548.321 143.924 548.341 143.846 548.341 143.767C548.34 143.689 548.318 143.611 548.278 143.543C548.238 143.475 548.181 143.419 548.112 143.38C548.044 143.342 547.966 143.322 547.887 143.322Z"
        fill="black" />
    <path
        d="M547.148 142.469H543.78C543.732 142.469 543.685 142.456 543.643 142.433C543.602 142.409 543.567 142.374 543.543 142.333C543.518 142.292 543.505 142.245 543.505 142.197C543.504 142.149 543.516 142.102 543.539 142.06L545.544 138.445C545.584 138.373 545.604 138.293 545.603 138.211C545.602 138.13 545.58 138.05 545.539 137.979C545.497 137.909 545.438 137.851 545.368 137.81C545.297 137.77 545.217 137.749 545.135 137.749H541.651C541.483 137.748 541.318 137.793 541.173 137.878C541.028 137.964 540.909 138.086 540.828 138.233L538.746 141.985C538.665 142.132 538.545 142.254 538.401 142.339C538.256 142.424 538.091 142.469 537.923 142.469H534.742C534.575 142.469 534.411 142.514 534.267 142.598C534.123 142.682 534.004 142.803 533.922 142.948L532.081 146.219C532.043 146.287 532.023 146.365 532.023 146.443C532.024 146.522 532.045 146.599 532.085 146.666C532.125 146.734 532.181 146.79 532.25 146.829C532.318 146.868 532.395 146.888 532.473 146.888H535.518C535.57 146.889 535.621 146.902 535.666 146.928C535.711 146.954 535.749 146.991 535.775 147.036C535.801 147.081 535.815 147.131 535.816 147.183C535.817 147.235 535.804 147.286 535.779 147.332L533.277 151.843C533.237 151.914 533.217 151.994 533.218 152.075C533.22 152.156 533.242 152.236 533.283 152.306C533.324 152.376 533.383 152.433 533.454 152.474C533.524 152.514 533.604 152.535 533.685 152.535H537.174C537.341 152.535 537.506 152.49 537.651 152.405C537.795 152.32 537.915 152.198 537.996 152.052L540.59 147.375C540.672 147.228 540.791 147.106 540.936 147.021C541.081 146.936 541.245 146.891 541.413 146.89H544.878C545.045 146.891 545.209 146.846 545.354 146.762C545.498 146.678 545.617 146.557 545.699 146.411L547.54 143.141C547.579 143.072 547.599 142.995 547.598 142.916C547.598 142.837 547.576 142.76 547.537 142.692C547.497 142.625 547.44 142.568 547.372 142.529C547.304 142.49 547.227 142.469 547.148 142.469Z"
        fill="#B878F7" />
    <path
        d="M532 179.254C531.979 179.24 531.957 179.229 531.933 179.221C529.579 178.854 527.583 179.045 526.669 181.047L520.53 194.553C520.217 195.273 519.738 195.909 519.133 196.409C518.174 197.177 516.6 197.826 514.337 196.923C515.231 198.32 516.424 199.424 517.989 200.119C529.548 205.231 542.663 180.999 542.663 180.999"
        fill="black" />
    <path
        d="M607.359 170.107C605.358 145.878 598.278 130.984 588.037 131.206C585.364 131.264 583.452 131.743 581.807 132.417C583.208 132.063 584.646 131.877 586.091 131.862C596.333 131.64 603.413 146.533 605.414 170.763C607.221 192.65 607.025 208.548 597.851 212.621C608.94 209.974 609.293 193.447 607.359 170.107Z"
        fill="white" />
    <path
        d="M541.745 180.843C539.797 184.269 527.923 204.143 517.347 199.466C516.592 199.134 515.892 198.686 515.274 198.139C516.032 198.984 516.96 199.658 517.997 200.117C529.556 205.229 542.671 180.997 542.671 180.997L541.745 180.843Z"
        fill="#3C50DD" />
    <path
        d="M0.026805 124.748C0.018212 125.144 0.013916 125.542 0.013916 125.947V307.76C0.013916 310.722 1.19085 313.564 3.28581 315.659C5.38077 317.754 8.22215 318.931 11.1849 318.931H17.3579C14.3952 318.931 11.5538 317.754 9.45884 315.659C7.36388 313.564 6.18694 310.722 6.18694 307.76V125.947C6.18694 125.542 6.18694 125.144 6.19876 124.748C6.51025 109.86 18.0561 98.907 31.415 97.414C15.6446 95.6771 0.38449 107.601 0.026805 124.748Z"
        fill="#A30086" />
    <path
        d="M24.7446 328.093V322.019C24.7446 321.199 25.0703 320.412 25.65 319.833C26.2297 319.253 27.016 318.927 27.8359 318.927H21.6629C21.2569 318.927 20.8548 319.007 20.4797 319.162C20.1046 319.318 19.7637 319.545 19.4767 319.832C19.1896 320.119 18.9619 320.46 18.8066 320.835C18.6513 321.211 18.5714 321.613 18.5715 322.019V328.093C18.5715 328.913 18.8972 329.699 19.477 330.279C20.0567 330.858 20.843 331.184 21.6629 331.184H27.8359C27.0161 331.184 26.23 330.858 25.6503 330.278C25.0706 329.699 24.7448 328.913 24.7446 328.093Z"
        fill="#A30086" />
    <path
        d="M96.5192 62.6529C96.6463 61.8691 96.9362 61.1206 97.3702 60.4556C97.8042 59.7907 98.3728 59.2241 99.0391 58.7923C99.7055 58.3604 100.455 58.0731 101.239 57.9486C102.023 57.8241 102.825 57.8653 103.592 58.0696C107.277 59.0438 112.168 61.8065 118.501 67.9516C118.454 67.9021 118.406 67.8441 118.357 67.798C111.185 60.4455 105.75 57.279 101.741 56.2188C100.974 56.0154 100.173 55.9748 99.3896 56.0995C98.6062 56.2242 97.8576 56.5114 97.1919 56.9428C96.5261 57.3742 95.9581 57.9402 95.5243 58.6043C95.0904 59.2684 94.8004 60.016 94.6728 60.7989C94.2947 63.1137 94.2292 66.0901 94.6631 69.914C96.617 87.1001 105.834 169.683 131.613 193.632C107.248 167.552 98.4226 88.5287 96.5214 71.7658C96.0735 67.944 96.1411 64.9676 96.5192 62.6529Z"
        fill="#FF00D9" />
    <path
        d="M97.6557 125.583C90.7705 124.997 74.6897 128.063 73.2279 153.156C71.7993 177.704 92.6556 178.998 93.5611 179.043L100.668 126.056C99.6773 125.821 98.6703 125.663 97.6557 125.583Z"
        fill="#008236" />
    <path
        d="M86.4202 133.969L80.0313 132.963C78.3771 134.926 76.9045 137.38 75.7466 140.424L83.4363 141.4L86.4202 133.969Z"
        fill="#00CD51" />
    <path d="M86.4202 133.969L89.0808 126.721C85.553 127.941 82.4244 130.099 80.0312 132.964L86.4202 133.969Z"
        fill="#00A743" />
    <path d="M84.1644 170.784L76.4167 168.92C78.9528 173.184 82.5747 175.657 85.839 177.083H85.8487L84.1644 170.784Z"
        fill="#00A743" />
    <path d="M83.0679 166.679L84.1656 170.782L84.4782 170.858L83.0679 166.679Z" fill="#00F15E" />
    <path
        d="M84.1645 170.783L83.0679 166.679L74.5908 164.926C75.06 166.317 75.6719 167.655 76.4168 168.92L84.1645 170.783Z"
        fill="#00CD51" />
    <path
        d="M84.5117 176.454C88.9865 178.765 93.167 179.023 93.5612 179.042L100.668 126.056C99.6788 125.821 98.6733 125.663 97.6601 125.583C95.4753 125.397 92.3625 125.583 89.0853 126.721C87.6359 128.01 86.3764 129.632 85.3065 131.587C82.8199 136.136 81.3967 142.294 80.6942 151.556C80.0025 160.606 80.0605 170.239 84.5117 176.454Z"
        fill="#005E4E" />
    <path
        d="M119.429 152.346C117.192 172.325 109.454 180.628 96.8597 179.668C84.2656 178.707 82.7253 166.563 83.8467 151.795C84.9681 137.027 88.3247 125.251 100.92 126.207C113.515 127.163 121.309 135.555 119.429 152.346Z"
        fill="#00CD51" />
    <path
        d="M96.8598 179.668C109.454 180.628 117.191 172.325 119.428 152.346C119.932 147.85 119.737 143.961 118.946 140.651C119.427 145.311 119.708 164.282 107.204 162.179C91.1175 159.468 105.204 133.599 105.204 133.599L96.6568 126.421C87.5267 128.216 84.8317 138.86 83.8489 151.795C82.7253 166.557 84.2646 178.711 96.8598 179.668Z"
        fill="#008236" />
    <path
        d="M117.964 153.345C119.611 138.647 113.837 130.393 103.925 127.922C104.106 127.522 104.166 127.077 104.098 126.644C114.795 128.708 121.146 137.026 119.429 152.351C117.943 165.618 114.03 173.726 107.881 177.405C113.189 173.354 116.6 165.522 117.964 153.345Z"
        fill="#00F789" />
    <path
        d="M97.2176 114.687L97.1606 134.44L102.072 135.121C102.522 135.184 102.981 135.147 103.416 135.014C103.851 134.881 104.251 134.655 104.59 134.351C104.929 134.048 105.197 133.674 105.376 133.256C105.556 132.838 105.642 132.386 105.629 131.931L105.121 114.341"
        fill="#00A743" />
    <path
        d="M97.1938 122.824C97.1938 122.824 91.0949 124.557 89.0809 126.721C87.0669 128.884 96.0488 126.061 96.0488 126.061"
        fill="#005E4E" />
    <path
        d="M98.6911 134.647L92.9896 133.969C92.9896 133.969 90.9348 133.578 90.9348 131.678C90.9348 129.778 91.4096 124.075 91.4096 124.075L95.6384 122.464L95.734 132.014C95.734 132.014 95.995 134.48 98.6911 134.647Z"
        fill="black" />
    <path
        d="M95.2914 132.496C95.2549 130.408 95.3613 127.961 95.3613 127.961L95.271 123.283L95.1282 115.812L97.2464 116.038L97.2163 121.479L97.1787 127.981L97.1647 132.852C97.1281 133.203 97.1997 133.556 97.3699 133.865C97.4409 133.988 97.5308 134.099 97.6363 134.195C97.933 134.452 98.303 134.61 98.6943 134.647L97.3366 134.458L96.9295 134.402C96.9295 134.402 95.329 134.585 95.2914 132.496Z"
        fill="#008236" />
    <path
        d="M108.068 113.788C106.815 105.224 103.577 97.9057 99.6428 91.8304C99.6351 91.8145 99.6257 91.7994 99.6149 91.7853C96.3925 86.8239 92.6943 82.0365 87.7823 78.6498C83.1807 75.4768 77.8133 73.5144 72.2783 72.8055C62.6702 71.2426 51.0632 72.4402 40.5098 79.5241C38.2014 81.0617 36.157 82.9628 34.4561 85.1536C39.8052 85.1536 45.1522 85.2997 50.408 86.3717C51.9718 85.8078 53.5729 85.3531 55.1996 85.0108C72.1924 81.4092 82.3418 92.8842 82.3418 92.8842C86.807 98.1667 90.3108 104.055 92.3688 110.07L93.8178 114.968C93.8491 115.409 94.0431 115.823 94.3622 116.13C94.6814 116.436 95.1029 116.613 95.545 116.626L106.322 116.948C106.572 116.955 106.821 116.909 107.052 116.814C107.284 116.72 107.493 116.578 107.667 116.397C107.84 116.217 107.974 116.003 108.06 115.768C108.146 115.533 108.182 115.282 108.166 115.033C108.14 114.614 108.104 114.202 108.068 113.788Z"
        fill="#008236" />
    <path
        d="M96.6793 113.738C96.1895 110.677 88.6341 81.6584 63.059 81.7733C55.5809 81.8066 49.5615 83.3039 44.7988 85.5456C46.6832 85.7222 48.5569 85.9979 50.4122 86.3716C51.9761 85.8077 53.5771 85.353 55.2039 85.0107C72.1967 81.4092 82.3461 92.8841 82.3461 92.8841C86.8113 98.1667 90.3151 104.055 92.3731 110.07L93.8178 114.968C93.849 115.409 94.0431 115.823 94.3622 116.13C94.6814 116.436 95.1029 116.613 95.545 116.626H95.5912C95.8436 116.629 97.1218 116.502 96.6793 113.738Z"
        fill="#00A743" />
    <path
        d="M104.989 115.282C104.962 114.859 104.924 114.448 104.891 114.034C103.635 105.472 100.399 98.1516 96.4655 92.0763C96.4578 92.0604 96.4484 92.0453 96.4376 92.0312C93.2152 87.0687 89.517 82.2824 84.605 78.8957C80.0034 75.7227 74.6349 73.7603 69.0999 73.0514C66.031 72.5525 62.9198 72.3628 59.813 72.4853C63.9639 72.0289 68.1575 72.1373 72.2793 72.8075C77.8143 73.5165 83.1817 75.4789 87.7833 78.6519C92.6953 82.0386 96.3968 86.826 99.6159 91.7874C99.6268 91.8014 99.6361 91.8166 99.6439 91.8325C103.578 97.9078 106.814 105.228 108.069 113.79C108.103 114.204 108.141 114.616 108.167 115.038C108.183 115.288 108.147 115.538 108.061 115.773C107.975 116.008 107.841 116.222 107.668 116.403C107.494 116.583 107.285 116.725 107.053 116.82C106.822 116.915 106.573 116.96 106.323 116.953L104.204 116.89C104.463 116.713 104.671 116.472 104.809 116.19C104.947 115.908 105.009 115.595 104.989 115.282Z"
        fill="#00F789" />
    <path
        d="M410.458 197.205C410.544 197.068 410.63 196.927 410.717 196.789C410.824 196.615 410.932 196.441 411.039 196.263C411.135 196.106 411.229 195.94 411.325 195.786C411.421 195.631 411.519 195.463 411.617 195.294C411.715 195.124 411.823 194.935 411.927 194.757C412.012 194.606 412.098 194.456 412.183 194.303C412.291 194.106 412.398 193.906 412.512 193.706C412.587 193.567 412.663 193.427 412.739 193.286C412.853 193.071 412.967 192.854 413.08 192.633C413.146 192.509 413.21 192.383 413.273 192.257C413.394 192.021 413.512 191.783 413.629 191.545C413.683 191.438 413.736 191.33 413.788 191.223C413.912 190.965 414.034 190.707 414.153 190.448C414.195 190.359 414.235 190.27 414.276 190.181C414.403 189.901 414.528 189.62 414.651 189.338C414.677 189.273 414.704 189.21 414.732 189.145C414.863 188.837 414.992 188.53 415.116 188.221L415.151 188.133C415.801 186.532 416.33 184.885 416.735 183.205C416.879 182.603 416.995 182.009 417.084 181.422C417.092 181.372 417.097 181.324 417.105 181.274C417.152 180.952 417.193 180.635 417.223 180.32C417.234 180.213 417.242 180.106 417.25 179.998C417.269 179.75 417.284 179.505 417.292 179.263C417.297 179.132 417.299 179.002 417.3 178.874C417.3 178.666 417.3 178.461 417.292 178.258C417.286 178.107 417.278 177.956 417.267 177.807C417.256 177.658 417.242 177.499 417.226 177.346C417.205 177.159 417.179 176.974 417.15 176.792C417.132 176.684 417.116 176.577 417.095 176.47C417.052 176.255 417.001 176.04 416.944 175.825C416.919 175.733 416.893 175.641 416.866 175.551C416.801 175.336 416.728 175.124 416.645 174.914C416.615 174.839 416.583 174.764 416.552 174.69C416.459 174.475 416.359 174.26 416.249 174.061C416.218 174.004 416.183 173.954 416.151 173.893C416.029 173.678 415.895 173.471 415.75 173.271C415.726 173.236 415.698 173.204 415.672 173.171C415.523 172.975 415.365 172.786 415.196 172.607C415.172 172.58 415.149 172.553 415.124 172.528C414.934 172.334 414.734 172.151 414.523 171.981C414.486 171.951 414.452 171.92 414.415 171.89C414.196 171.719 413.967 171.559 413.731 171.413L413.595 171.328C413.342 171.177 413.083 171.039 412.816 170.915L412.664 170.847C412.382 170.72 412.086 170.603 411.774 170.497C411.726 170.48 411.675 170.465 411.627 170.45C411.305 170.343 410.96 170.247 410.601 170.164L410.494 170.142C410.111 170.057 409.715 169.983 409.295 169.927C403.37 169.106 397.447 168.475 392.538 168.017V165.675L395.64 166.033C395.78 166.05 395.923 166.032 396.055 165.982C396.188 165.932 396.307 165.851 396.402 165.746C396.497 165.641 396.565 165.515 396.602 165.378C396.638 165.241 396.642 165.098 396.612 164.959L396.2 163.081C396.161 162.9 396.066 162.737 395.929 162.612C395.792 162.488 395.62 162.41 395.436 162.388L382.179 160.796C381.996 160.774 381.812 160.809 381.65 160.896C381.489 160.983 381.358 161.118 381.276 161.282L380.384 163.068C380.32 163.196 380.288 163.337 380.29 163.48C380.292 163.623 380.329 163.764 380.397 163.889C380.465 164.015 380.562 164.123 380.681 164.203C380.799 164.283 380.935 164.334 381.078 164.35L384.497 164.745L384.174 167.313C381.995 167.149 380.706 167.07 380.706 167.07V167.102L354.509 163.964V161.211L357.425 161.351C357.567 161.358 357.708 161.331 357.837 161.272C357.966 161.213 358.079 161.125 358.167 161.014C358.255 160.902 358.315 160.772 358.342 160.633C358.369 160.493 358.363 160.35 358.323 160.214L357.786 158.367C357.735 158.189 357.63 158.031 357.485 157.916C357.341 157.8 357.163 157.733 356.978 157.723L343.643 157.025C343.46 157.015 343.278 157.062 343.123 157.16C342.967 157.258 342.846 157.401 342.775 157.57L342.004 159.411C341.949 159.543 341.926 159.687 341.938 159.829C341.95 159.972 341.996 160.11 342.073 160.231C342.149 160.351 342.253 160.452 342.377 160.524C342.501 160.596 342.64 160.638 342.783 160.644L346.327 160.814L345.921 162.87C345.407 162.787 344.892 162.708 344.381 162.608C343.541 162.45 342.69 162.354 341.836 162.323C341.318 162.301 340.745 162.295 340.118 162.317H340.086C339.785 162.327 339.472 162.344 339.149 162.366L339.041 162.375C338.397 162.423 337.715 162.498 336.983 162.607L336.794 162.636C336.434 162.692 336.066 162.754 335.685 162.828L335.585 162.848C335.232 162.917 334.867 162.995 334.496 163.081C334.422 163.098 334.35 163.113 334.275 163.131C333.883 163.223 333.481 163.326 333.069 163.438C332.988 163.46 332.906 163.483 332.824 163.507C332.439 163.614 332.048 163.729 331.643 163.856L331.48 163.906C331.05 164.044 330.601 164.196 330.149 164.357L329.833 164.471C329.371 164.638 328.904 164.815 328.424 165.008L328.306 165.057C327.854 165.24 327.393 165.437 326.924 165.643L326.593 165.791C326.1 166.012 325.599 166.247 325.09 166.496C324.992 166.544 324.893 166.595 324.795 166.643C324.327 166.875 323.852 167.119 323.369 167.375C323.281 167.422 323.193 167.466 323.104 167.515C322.566 167.802 322.023 168.108 321.472 168.425L321.096 168.64C320.527 168.973 319.952 169.318 319.365 169.685H319.358C316.78 171.297 314.417 172.887 312.277 174.452C311.418 175.078 310.6 175.699 309.823 176.318C308.652 177.249 307.568 178.169 306.572 179.078C306.241 179.383 305.919 179.686 305.605 179.988C305.273 180.311 304.953 180.633 304.646 180.955C303.893 181.74 303.182 182.562 302.515 183.42C302.407 183.559 302.3 183.696 302.199 183.835C301.889 184.247 301.601 184.659 301.334 185.071C301.136 185.376 300.949 185.681 300.775 185.984C300.714 186.092 300.65 186.199 300.593 186.299C299.66 188.003 299.111 189.686 298.972 191.355C298.945 191.677 298.93 191.999 298.935 192.322C298.962 194.324 299.598 196.306 300.897 198.278C300.903 198.288 300.912 198.297 300.918 198.307C301.007 198.439 301.099 198.567 301.197 198.688C301.231 198.73 301.27 198.769 301.304 198.809C301.378 198.896 301.452 198.983 301.532 199.065C301.574 199.107 301.619 199.144 301.662 199.185C301.741 199.262 301.82 199.338 301.903 199.408C301.949 199.446 301.997 199.481 302.043 199.515C302.13 199.584 302.217 199.653 302.308 199.717C302.355 199.749 302.405 199.779 302.452 199.81C302.549 199.874 302.646 199.938 302.747 199.997L302.888 200.074C302.996 200.133 303.103 200.192 303.217 200.245C303.261 200.267 303.307 200.285 303.351 200.306C303.472 200.36 303.593 200.413 303.719 200.465L303.845 200.511C303.978 200.56 304.112 200.61 304.25 200.654L304.366 200.688C304.511 200.732 304.66 200.775 304.81 200.814L304.912 200.837C305.072 200.877 305.234 200.914 305.398 200.945L305.487 200.961L305.545 200.972C305.697 201 305.853 201.026 306.011 201.049L306.085 201.06C306.27 201.085 306.459 201.108 306.65 201.127L306.707 201.133C306.906 201.152 307.108 201.168 307.313 201.18H307.354C307.568 201.192 307.783 201.2 307.998 201.205H308.023C308.248 201.209 308.475 201.209 308.704 201.205H308.716C308.95 201.205 309.187 201.198 309.428 201.184C316.565 200.878 326.298 197.401 333.54 194.366L369.996 196.273C369.996 196.273 374.952 195.998 376.605 200.677C376.523 201.268 376.461 201.851 376.424 202.423C376.391 202.948 376.378 203.463 376.386 203.969C376.41 205.581 376.653 207.084 377.138 208.428C377.259 208.771 377.399 209.108 377.555 209.437C378.716 211.826 380.788 213.626 384 214.537C384.329 214.629 384.661 214.7 384.995 214.76C385.089 214.777 385.184 214.791 385.28 214.806C385.536 214.845 385.795 214.876 386.055 214.898C386.142 214.905 386.229 214.915 386.317 214.919C386.654 214.94 386.994 214.947 387.335 214.938C387.383 214.938 387.43 214.932 387.478 214.93C387.776 214.919 388.076 214.896 388.375 214.863C388.473 214.853 388.57 214.841 388.667 214.828C388.95 214.79 389.232 214.745 389.516 214.69C389.585 214.676 389.652 214.667 389.72 214.653C390.072 214.581 390.424 214.495 390.776 214.394L390.966 214.336C391.26 214.25 391.555 214.155 391.851 214.05L392.114 213.956C392.444 213.834 392.773 213.705 393.102 213.563L393.169 213.536C393.532 213.378 393.895 213.208 394.257 213.025L394.442 212.93C394.748 212.774 395.054 212.61 395.358 212.438C395.424 212.4 395.49 212.365 395.556 212.331C396.279 211.916 396.995 211.46 397.704 210.963L397.855 210.856C398.181 210.627 398.503 210.391 398.822 210.148L398.924 210.072C399.64 209.524 400.347 208.943 401.045 208.329L401.159 208.227C403.378 206.242 405.416 204.063 407.249 201.717C407.348 201.592 407.444 201.467 407.541 201.342C407.87 200.917 408.19 200.489 408.502 200.059C408.766 199.693 409.027 199.328 409.28 198.961C409.473 198.68 409.668 198.39 409.863 198.095C409.929 197.996 409.994 197.892 410.06 197.791C410.2 197.604 410.329 197.408 410.458 197.205Z"
        fill="black" />
    <path d="M313.752 207.374C313.752 207.374 287.581 208.912 300.593 186.301L313.752 207.374Z" fill="black" />
    <path
        d="M337.86 200.551L374.319 202.459C374.319 202.459 381.214 202.073 381.452 209.892C381.691 217.711 398.721 196.838 398.721 196.838L356.527 179.381L328.565 195.514"
        fill="black" />
    <path d="M388.956 169.787L388.274 175.296L396.86 176.117V171.094" fill="#FD00BD" />
    <path d="M350.929 165.602L349.955 170.521L358.832 171.116V166.909" fill="#FD00BD" />
    <path
        d="M384.704 169.231L385.596 167.446C385.678 167.281 385.809 167.147 385.971 167.06C386.132 166.973 386.316 166.938 386.499 166.96L399.757 168.551C399.94 168.573 400.113 168.651 400.25 168.776C400.386 168.9 400.481 169.064 400.52 169.245L400.932 171.123C400.962 171.261 400.958 171.404 400.922 171.541C400.886 171.677 400.818 171.803 400.723 171.908C400.629 172.013 400.511 172.094 400.379 172.144C400.247 172.195 400.105 172.213 399.965 172.197L385.403 170.513C385.26 170.498 385.124 170.448 385.005 170.368C384.885 170.288 384.787 170.18 384.719 170.054C384.65 169.928 384.613 169.788 384.61 169.644C384.608 169.501 384.64 169.359 384.704 169.231Z"
        fill="#FFBDF0" />
    <path
        d="M346.328 165.59L347.1 163.749C347.17 163.579 347.292 163.436 347.447 163.338C347.602 163.241 347.784 163.194 347.967 163.204L361.303 163.902C361.488 163.912 361.665 163.98 361.81 164.095C361.955 164.211 362.061 164.368 362.112 164.547L362.649 166.393C362.688 166.529 362.695 166.673 362.668 166.812C362.641 166.951 362.581 167.082 362.493 167.193C362.406 167.304 362.292 167.393 362.163 167.452C362.034 167.51 361.893 167.537 361.752 167.531L347.109 166.826C346.966 166.82 346.826 166.779 346.702 166.707C346.577 166.634 346.472 166.533 346.396 166.412C346.319 166.29 346.273 166.152 346.261 166.009C346.249 165.866 346.272 165.722 346.328 165.59Z"
        fill="#FFBDF0" />
    <path
        d="M353.239 169.469C351.722 169.288 350.206 169.078 348.707 168.784C345.783 168.211 336.972 167.548 323.688 175.873C307.198 186.206 299.283 195.441 305.218 204.456C311.154 213.471 341.497 199.128 346.993 196.4C352.49 193.672 379.094 196.942 379.094 196.942C379.094 196.942 383.272 197.996 382.612 200.233L395.804 174.552L353.239 169.469Z"
        fill="#FF57E5" />
    <path
        d="M382.612 200.238C383.272 198 379.094 196.947 379.094 196.947C379.094 196.947 352.49 193.681 346.993 196.404C342.394 198.683 320.404 209.092 309.867 207.151C309.017 205.908 305.664 200.016 313.799 194.175C322.955 187.602 338.215 182.202 338.215 182.202C338.215 182.202 344.084 188.54 362.162 189.48C373.027 190.044 379.012 189.542 382.832 189.723L390.175 194.167"
        fill="#EE00BE" />
    <path
        d="M382.832 189.723C382.832 189.723 385.91 190.965 382.617 200.238C379.324 209.511 379.751 218.306 388.329 220.725C396.907 223.144 407.234 214.411 413.613 205.15C419.992 195.889 427.904 178.074 413.613 176.096C399.322 174.117 385.03 173.237 385.03 173.237L382.832 189.723Z"
        fill="#FF57E5" />
    <path
        d="M418.765 188.386L421.056 189.377C422.575 182.886 421.357 177.163 413.613 176.091C413.613 176.091 422.256 179.711 418.769 188.386"
        fill="#FF67DD" />
    <path
        d="M413.613 205.145C416.598 200.807 419.917 194.6 421.132 189.019C421.463 187.506 419.256 186.917 418.761 188.386C417.377 192.488 414.539 197.709 408.879 203.566C395.262 217.653 378.643 214.987 382.61 200.237C379.312 209.511 379.752 218.305 388.327 220.723C396.901 223.142 407.237 214.411 413.613 205.145Z"
        fill="#FFBDF0" />
    <path
        d="M406.505 205.825C393.42 217.299 378.873 214.138 382.612 200.24C379.314 209.514 379.754 218.308 388.329 220.727C394.174 222.375 400.836 218.84 406.505 213.488V205.825Z"
        fill="#EE00BE" />
    <path
        d="M307.14 204.455C301.203 195.44 309.118 186.206 325.608 175.871C334.716 170.165 341.72 168.683 346.167 168.5C341.969 168.32 334.244 169.26 323.693 175.871C307.203 186.206 299.288 195.44 305.224 204.455C306.743 206.762 309.865 207.537 313.758 207.37C310.761 207.228 308.396 206.37 307.14 204.455Z"
        fill="#FF59E4" />
    <path
        d="M382.612 200.238C379.314 209.512 379.754 218.306 388.329 220.725C396.904 223.144 407.234 214.411 413.613 205.15C407.237 214.415 397.542 221.871 388.967 219.452C380.392 217.033 379.984 207.454 383.282 198.184"
        fill="#FF59E4" />
    <path
        d="M338.216 182.202C338.216 182.202 339.365 176.767 347.384 176.925C355.404 177.083 378.677 179.562 378.677 179.562C378.677 179.562 390.17 179.741 383.635 196.838L370.596 192.669H352.551"
        fill="#EE00BE" />
    <path
        d="M309.867 207.151C320.404 209.092 342.394 198.682 346.993 196.404C348.109 195.851 350.096 195.545 352.554 195.408C338.789 195.086 341.139 178.409 341.139 178.409C341.139 178.409 322.955 187.602 313.799 194.175C305.664 200.015 309.017 205.908 309.867 207.151Z"
        fill="#A30086" />
    <path
        d="M42.367 79.5241C49.9933 74.4059 58.1653 72.3704 65.739 72.22C57.6583 72.0557 48.7677 73.9859 40.5152 79.5241C34.6354 83.4705 31.6515 88.7187 30.1692 93.4878C30.8015 93.3883 31.446 93.2966 32.1026 93.2128C33.6128 88.5189 36.5936 83.3953 42.367 79.5241Z"
        fill="#A30086" />
    <path
        d="M291.183 144.532L301.169 177.4H308.461L298.935 198.176L305.614 206.528L267.435 197.753L279.559 193.803L290.224 186.298"
        fill="black" />
    <path d="M604.694 319.194H195.306L180.168 289.344H619.832L604.694 319.194Z" fill="#3C51DD" />
    <path
        d="M629.591 276.997L170.406 276.997C167.024 276.997 163.78 275.653 161.388 273.261C158.996 270.869 157.652 267.625 157.652 264.242V233.415L642.346 233.415V264.242C642.346 265.917 642.016 267.576 641.375 269.123C640.734 270.671 639.794 272.077 638.61 273.261C637.426 274.445 636.02 275.385 634.472 276.026C632.925 276.667 631.266 276.997 629.591 276.997Z"
        fill="#B44AFF" />
    <path
        d="M721.395 233.432V179.525V160.738C721.395 134.144 736.794 111.148 759.162 100.177C762.12 98.7205 765.309 97.7918 768.586 97.4321C768.586 97.4321 742.034 101.816 742.034 175.87C742.034 180.388 741.96 184.758 741.812 188.98C741.733 190.667 739.449 233.432 721.395 233.432Z"
        fill="#3C51DD" />
    <path
        d="M778.337 318.917H772.163C772.569 318.916 772.971 318.996 773.346 319.152C773.721 319.307 774.062 319.535 774.349 319.822C774.636 320.109 774.864 320.45 775.019 320.825C775.175 321.2 775.254 321.602 775.254 322.008V328.082C775.254 328.488 775.175 328.89 775.019 329.265C774.864 329.64 774.636 329.981 774.349 330.268C774.062 330.555 773.721 330.783 773.346 330.938C772.971 331.094 772.569 331.174 772.163 331.173H778.337C779.157 331.173 779.943 330.848 780.523 330.268C781.103 329.688 781.428 328.902 781.428 328.082V322.008C781.428 321.188 781.103 320.402 780.523 319.822C779.943 319.242 779.157 318.917 778.337 318.917Z"
        fill="#B44AFF" />
    <path
        d="M799.973 124.739C799.629 108.174 785.376 96.4826 770.191 97.2753C784.167 98.0938 796.564 109.306 796.886 124.743C796.895 125.137 796.898 125.537 796.898 125.941V307.75C796.898 310.713 795.721 313.554 793.626 315.649C791.531 317.744 788.69 318.921 785.727 318.921H788.814C791.777 318.921 794.618 317.744 796.713 315.649C798.808 313.554 799.985 310.713 799.985 307.75V125.936C799.985 125.532 799.981 125.133 799.973 124.739Z"
        fill="#B44AFF" />
</svg>
