<svg width="248" height="153" viewBox="0 0 852 413" fill="none" xmlns="http://www.w3.org/2000/svg">
    <g clip-path="url(#clip0_850_2054)">
        <path
            d="M119.878 105.003C135.933 119.188 154.588 130.123 174.81 137.199C187.238 141.766 190.793 146.072 187.858 153.509C182.802 165.774 160.587 164.893 138.275 151.519C115.963 138.145 101.97 117.431 107.058 105.166C109.635 98.5768 113.811 99.4904 119.878 105.003Z"
            fill="#E6E8FF" />
        <path
            d="M85.138 270.19C67.1318 281.444 80.2449 282.26 173.701 313.444L188.608 284.086C103.144 258.904 103.144 258.904 85.138 270.19Z"
            fill="black" />
        <path
            d="M826.881 337.453C838.396 320.719 832.622 306.757 793.967 306.464C755.313 306.17 748.3 306.203 748.3 306.203L826.881 337.453Z"
            fill="black" />
        <path
            d="M791.064 311.422C843.256 315.858 860.316 336.474 847.594 367.137C834.546 398.321 805.188 415.512 765.033 408.401C763.603 408.147 762.195 407.776 760.826 407.292H760.532H760.108C732.87 397.016 686.061 367.854 672.034 352.849C666.554 346.978 670.24 335.137 680.45 324.6C690.236 314.814 703.056 308.649 712.189 308.91C734.86 308.551 751.398 307.149 791.064 311.422Z"
            fill="black" />
        <path
            d="M810.473 348.184C809.331 381.946 743.896 410.162 660.422 412.804C572.772 415.446 493.604 388.861 487.536 351.838C481.273 313.085 557.245 281.02 652.56 281.868C742.983 282.716 811.712 312.955 810.473 348.184Z"
            fill="black" />
        <path
            d="M581.09 343.846C576.164 382.044 487.862 407.846 375.03 401.877C251.303 395.353 141.015 353.436 139.906 307.605C138.797 260.274 253.717 233.884 384.033 248.628C502.28 262.003 586.146 304.571 581.09 343.846Z"
            fill="black" />
        <path
            d="M643.883 402.138C730.646 402.138 800.981 372.052 800.981 334.941C800.981 297.829 730.646 267.744 643.883 267.744C557.121 267.744 486.786 297.829 486.786 334.941C486.786 372.052 557.121 402.138 643.883 402.138Z"
            fill="#5F2BAC" />
        <path d="M533.204 382.631C559.855 393.95 595.899 401.192 635.924 402.203V350.011H533.204V382.631Z"
            fill="#7F41CF" />
        <path
            d="M728.858 391.438C772.242 379.467 800.981 358.655 800.981 334.941C800.963 331.517 800.367 328.12 799.219 324.894L728.858 384.849V391.438Z"
            fill="black" />
        <path
            d="M786.302 335.919V363.287C795.696 354.676 800.981 345.053 800.981 334.941C800.963 331.517 800.367 328.12 799.219 324.894L786.302 335.919Z"
            fill="#FF4CD2" />
        <path
            d="M778.832 204.82C766.338 254.957 730.783 247.617 730.783 247.617L728.728 231.307C766.925 204.07 759.586 165.513 756.487 155.792L736.556 183.617L722.269 180.062L718.224 148.127C733.197 125.293 747.386 126.239 762.065 130.219C776.744 134.198 791.325 154.683 778.832 204.82Z"
            fill="#B0B7FF" />
        <path
            d="M772.275 135.927C769.436 133.1 765.921 131.045 762.065 129.957C747.386 125.978 733.197 124.869 718.224 147.866L721.16 171.091L743.015 153.574C756.944 137.101 766.403 131.229 772.275 135.927Z"
            fill="#C3C8FC" />
        <path
            d="M774.069 195.067C771.264 208.865 763.924 231.144 741.808 237.473L743.472 217.901C750.571 209.437 755.476 199.354 757.751 188.544C760.027 177.735 759.604 166.531 756.52 155.923C763.305 147.018 769.894 143.984 772.667 150.899C776.646 160.555 776.842 181.301 774.069 195.067Z"
            fill="#7C89F7" />
        <path
            d="M643.883 394.961C730.646 394.961 800.981 366.483 800.981 331.352C800.981 296.222 730.646 267.744 643.883 267.744C557.121 267.744 486.786 296.222 486.786 331.352C486.786 366.483 557.121 394.961 643.883 394.961Z"
            fill="#A056F2" />
        <path
            d="M800.785 334.582C796.577 368.246 727.945 394.961 643.883 394.961C559.822 394.961 491.157 368.246 486.949 334.582C491.32 366.843 559.92 392.515 643.883 392.515C727.847 392.515 796.414 366.843 800.785 334.582Z"
            fill="#B57AF5" />
        <path
            d="M799.447 322.447C785.095 292.339 718.355 270.256 639.121 270.973C582.689 271.528 533.433 283.63 505.119 301.473C531.541 281.411 583.765 267.744 643.883 267.744C723.182 267.744 788.879 291.524 799.447 322.447Z"
            fill="#FE72DD" />
        <path
            d="M487.047 327.634C523.81 335.985 555.027 328.188 612.568 350.631L625.421 339.149C592.409 316.315 554.733 305.974 509.555 298.341C496.572 306.953 488.58 316.935 487.047 327.634Z"
            fill="#2D35AD" />
        <path
            d="M752.703 304.245L691.932 365.212C703.894 372.37 716.219 378.902 728.858 384.784C772.242 373.465 800.981 353.73 800.981 331.287C800.981 321.795 795.794 312.759 786.563 304.669C765.588 304.376 752.703 304.245 752.703 304.245Z"
            fill="#2D35AD" />
        <path
            d="M643.884 369.42C708.649 369.42 761.152 348.156 761.152 321.925C761.152 295.695 708.649 274.431 643.884 274.431C579.118 274.431 526.615 295.695 526.615 321.925C526.615 348.156 579.118 369.42 643.884 369.42Z"
            fill="#B57AF5" />
        <path
            d="M526.615 321.86C526.715 325.717 527.841 329.478 529.877 332.755C558.286 334.151 586.274 340.189 612.731 350.631L625.584 339.149C599.194 320.914 569.836 310.639 536.075 303.267C533.295 305.541 531.019 308.368 529.39 311.569C527.762 314.77 526.816 318.274 526.615 321.86Z"
            fill="#1D0066" />
        <path
            d="M643.883 360.352C695.408 360.352 737.176 345.908 737.176 328.091C737.176 310.273 695.408 295.829 643.883 295.829C592.359 295.829 550.591 310.273 550.591 328.091C550.591 345.908 592.359 360.352 643.883 360.352Z"
            fill="#C48CFF" />
        <path
            d="M550.754 328.058C550.805 330.56 551.575 332.994 552.972 335.071C573.464 337.74 593.54 342.967 612.732 350.631L625.584 339.148C607.07 326.597 586.693 317.042 565.204 310.834C555.908 315.825 550.754 321.86 550.754 328.058Z"
            fill="#3E1689" />
        <path
            d="M626.301 334.386C626.301 348.902 642.155 360.319 691.932 365.212C732.707 357.775 761.119 341.204 761.119 321.925C760.962 318.567 760.137 315.273 758.692 312.237C757.247 309.202 755.211 306.485 752.703 304.245C741.714 302.813 730.643 302.105 719.561 302.125C668.185 302.288 626.301 316.576 626.301 334.386Z"
            fill="black" />
        <path
            d="M737.144 328.058C737.144 317.783 723.248 308.649 701.621 302.745C658.693 305.615 599.064 318.696 599.064 334.386C599.064 344.988 613.547 357.905 658.791 359.927C703.219 357.448 737.144 344.14 737.144 328.058Z"
            fill="#000066" />
        <path
            d="M750.387 160.947L534.444 218.064C541.359 246.313 580.438 311.781 610.089 340.356C623.137 352.784 656.703 356.47 691.639 348.543C726.575 340.617 750.844 323.197 751.561 307.931C755.672 271.886 757.857 210.627 750.387 160.947Z"
            fill="#C3C8FC" />
        <path
            d="M751.398 307.931C755.574 272.376 757.727 212.225 750.583 162.904L746.864 175.169C751.072 206.19 751.888 271.397 750.746 311.454C751.09 310.307 751.309 309.126 751.398 307.931Z"
            fill="#FD99E9" />
        <path
            d="M661.433 352.588C671.549 352.157 681.606 350.803 691.476 348.543C701.941 346.219 712.115 342.74 721.812 338.17L697.935 174.81L605.914 199.177L661.433 352.588Z"
            fill="#B0B7FF" />
        <path
            d="M635.924 191.381L534.444 218.064C541.359 246.313 580.438 311.781 610.089 340.356C622.68 352.425 654.746 356.209 688.377 349.163L635.924 191.381Z"
            fill="#96A0FF" />
        <path
            d="M610.057 340.355C615.769 345.18 622.618 348.47 629.955 349.913C600.858 315.662 569.314 253.587 557.865 218.488C557.208 216.437 556.368 214.45 555.353 212.551L534.411 218.064C541.327 246.312 580.405 311.78 610.057 340.355Z"
            fill="#ABB2FF" />
        <path
            d="M750.713 163.817C750.713 144.245 710.199 136.025 655.072 146.626C593.094 158.532 535.52 189.228 534.117 214.051C532.715 238.875 589.571 244.062 653.18 226.708C709.612 211.344 750.778 183.78 750.713 163.817Z"
            fill="white" />
        <path
            d="M743.504 163.947C745.103 147.05 710.265 140.396 659.769 150.018C601.249 161.207 543.577 189.652 539.956 212.159C536.336 234.667 590.354 237.603 651.125 220.412C703.349 205.603 741.906 181.04 743.504 163.947Z"
            fill="#A0A9FA" />
        <path
            d="M683.517 209.322C718.583 195.1 742.232 177.256 743.505 163.947C744.94 148.747 716.919 141.831 674.513 147.638L683.517 209.322Z"
            fill="#C3C8FC" />
        <path
            d="M566.052 184.302C551.178 193.566 541.392 203.32 539.957 212.159C537.804 225.631 555.745 232.058 583.243 231.536L566.052 184.302Z"
            fill="#7C89F7" />
        <path
            d="M651.125 220.412C667.342 215.883 683.144 209.979 698.359 202.765C687.566 200.981 676.671 199.891 665.739 199.503C616.581 197.774 567.879 208.082 545.632 224.294C560.54 235.189 603.826 233.787 651.125 220.412Z"
            fill="#5F2BAC" />
        <path
            d="M772.569 150.639C769.796 143.723 763.207 146.757 756.422 155.662C757.78 160.172 758.612 164.824 758.901 169.526L775.863 173.407C776.043 165.687 774.929 157.991 772.569 150.639Z"
            fill="black" />
        <path
            d="M381.066 304.05C381.634 274.78 330.798 250.059 267.521 248.833C204.245 247.607 152.489 270.34 151.922 299.61C151.355 328.88 202.191 353.601 265.468 354.827C328.744 356.053 380.499 333.319 381.066 304.05Z"
            fill="#7F41CF" />
        <path
            d="M381.066 304.05C381.634 274.78 330.798 250.059 267.521 248.833C204.245 247.607 152.489 270.34 151.922 299.61C151.355 328.88 202.191 353.601 265.468 354.827C328.744 356.053 380.499 333.319 381.066 304.05Z"
            fill="#191D9C" />
        <path
            d="M381.13 304.082C381.359 291.654 372.29 280.041 356.992 270.712L222.924 301.179L223.12 350.272C237.084 353.101 251.279 354.641 265.526 354.871C328.71 356.111 380.478 333.375 381.13 304.082Z"
            fill="#000066" />
        <path
            d="M326.851 340.878V347.956C359.079 339.149 380.674 323.034 381.065 304.18C381.088 302.195 380.88 300.213 380.445 298.276L340.225 306.17L326.851 340.878Z"
            fill="black" />
        <path
            d="M372.421 323.654C377.589 318.4 380.662 311.441 381.065 304.082C381.424 285.261 376.955 287.316 369.224 279.976L372.421 323.654Z"
            fill="#FF4CD2" />
        <path
            d="M380.601 297.23C381.168 267.961 330.332 243.239 267.056 242.013C203.78 240.787 152.024 263.521 151.457 292.791C150.89 322.06 201.726 346.782 265.002 348.008C328.279 349.234 380.034 326.5 380.601 297.23Z"
            fill="#434FD1" />
        <path
            d="M326.851 340.878C358.786 332.07 380.184 316.021 380.543 297.265C381.13 267.907 330.276 243.246 266.993 242.007C222.891 241.159 184.4 251.956 164.926 268.494C162.121 297.2 211.05 327.895 276.551 337.909C293.186 340.484 310.028 341.478 326.851 340.878Z"
            fill="black" />
        <path
            d="M199.242 250.912C170.536 260.013 151.715 275.214 151.389 292.828C151.318 296.328 151.973 299.804 153.313 303.038L241.811 268.983L199.242 250.912Z"
            fill="#A0A9FA" />
        <path
            d="M34.3814 55.5845C33.5007 43.4825 37.4151 32.3919 49.3214 32.9138C61.2276 33.4357 74.3734 53.7577 91.7272 87.3888L123.271 55.2583C106.145 18.0391 77.1787 -2.02221 47.6577 0.130702C33.8922 1.14192 25.2804 6.65474 13.3089 18.1369C1.33745 29.6191 -1.8919 47.9187 0.685068 68.5344C4.37111 98.5447 33.0766 150.802 99.3601 171.059L98.1532 130.61C44.9502 105.428 35.8493 75.5152 34.3814 55.5845Z"
            fill="#B57AF5" />
        <path
            d="M123.433 55.2581L102.1 76.983C80.9625 32.9136 62.0103 21.5292 49.2886 18.5607C34.0877 14.8421 8.67682 17.8758 2.5769 36.567C4.5224 29.5714 8.28068 23.2136 13.4718 18.1367C25.4433 6.68711 34.055 1.1417 47.788 0.163103C77.309 -2.02243 106.275 18.0388 123.433 55.2581Z"
            fill="#CA9EF9" />
        <path
            d="M34.3815 55.5842C33.5007 43.4823 37.4152 32.3917 49.3214 32.9136C51.4626 33.0682 53.5391 33.7156 55.3887 34.8054C35.0012 22.051 18.7239 31.3152 12.9828 42.7322C8.12249 52.5182 8.80736 71.0786 22.2141 97.9574C35.6209 124.836 63.6741 144.8 99.0014 158.826L98.1532 130.643C44.9503 105.427 35.8494 75.515 34.3815 55.5842Z"
            fill="#5F2BAC" />
        <path
            d="M45.7003 89.313L24.1387 101.252C31.2473 113.582 40.779 124.345 52.1592 132.893L76.2327 118.41C64.1328 110.953 53.7314 101.04 45.7003 89.313Z"
            fill="#7F41CF" />
        <path
            d="M34.9033 60.314C36.5017 79.8859 42.0471 104.122 90.3571 132.078L93.6191 128.392C48.4079 105.623 37.415 79.4292 34.9033 60.314Z"
            fill="#FF4CD2" />
        <path
            d="M468.421 165.285L456.906 109.603C451.361 63.0869 401.453 18.104 274.235 15.6249C160.685 13.4393 107.385 47.3968 91.988 87.5518C91.988 87.5518 84.9747 96.5221 78.3529 142.386L72.3834 183.813C71.9247 186.921 72.25 190.094 73.3295 193.044C78.1899 206.092 95.8046 243.279 147.931 279.03C155.781 285.033 164.205 290.245 173.081 294.59C197.448 306.529 228.535 314.162 268.331 314.912C404.388 317.522 450.676 240.669 461.343 177.909L468.421 165.285Z"
            fill="#8C98FF" />
        <path
            d="M324.209 280.302L324.6 278.052C324.6 278.052 325.155 232.384 324.339 211.051C323.74 197.753 321.393 184.592 317.359 171.907L265.167 172.755L219.173 169.493C210.823 204.076 209.119 239.93 214.149 275.148C222.957 277.073 232.188 278.704 241.909 279.878C269.225 283.339 296.859 283.481 324.209 280.302Z"
            fill="#8C98FF" />
        <path
            d="M449.958 85.8227C431.919 48.7339 379.63 17.5492 274.137 15.4941C170.047 13.4717 116.616 41.851 96.5547 77.4718C108.983 87.2578 113.941 104.253 111.429 119.878L259.426 173.048C416.295 168.155 465.942 119.389 449.958 85.8227Z"
            fill="#A0A9FA" />
        <path
            d="M158.859 43.515C158.859 43.515 160.946 43.9061 160.425 45.2762C159.903 46.6462 250.586 24.2692 250.586 24.2692C249.32 21.0376 247.334 18.1371 244.779 15.7881C199.992 17.5822 166.296 25.5739 141.766 37.6759L158.859 43.515Z"
            fill="white" />
        <path
            d="M91.8574 87.3884L85.8879 103.079C82.5487 115.961 79.9889 129.032 78.2223 142.223L72.2528 183.65C71.7942 186.757 72.1193 189.931 73.1987 192.881C78.0591 205.929 95.6738 243.116 147.8 278.867C141.118 269.118 135.342 258.778 130.545 247.976C126.667 239.397 125.168 229.933 126.206 220.575C127.804 189.097 138.96 142.287 138.96 142.287L148.192 125.978C157.456 109.668 164.828 105.427 164.828 105.427L149.529 73.949C137.936 73.4509 126.322 74.1947 114.887 76.1673C106.32 77.5884 98.3711 81.5289 92.0531 87.4863"
            fill="#8C98FF" />
        <path
            d="M72.1226 187.173L81.6802 200.221L93.7496 128.457C93.7496 128.457 99.8821 111.266 95.9677 106.178C92.0533 101.089 91.8576 87.4539 91.8576 87.4539C91.8576 87.4539 84.8443 96.4241 78.2225 142.288L72.253 183.715C72.0998 184.861 72.0562 186.018 72.1226 187.173Z"
            fill="white" />
        <path d="M96.033 107.743L81.1909 196.991L88.5956 207.201L100.6 216.368L114.626 129.697" fill="#C3C8FC" />
        <path
            d="M226.121 310.965C222.533 304.441 214.052 275.279 214.052 275.279C209.001 240.05 210.706 204.181 219.075 169.59L240.898 123.727L172.657 89.5742L161.697 98.9034L164.959 105.427C164.959 105.427 157.587 109.733 148.323 125.978L139.091 142.288C139.091 142.288 127.935 189.228 126.337 220.575C125.299 229.933 126.798 239.397 130.675 247.976C135.473 258.778 141.249 269.118 147.931 278.867C155.781 284.87 164.205 290.082 173.081 294.427C189.876 302.449 207.74 308.008 226.121 310.933V310.965Z"
            fill="#7C89F7" />
        <path
            d="M147.801 278.867C145.452 277.269 143.169 275.605 140.95 274.007C143.169 275.638 145.452 277.269 147.801 278.867Z"
            fill="#6F7CF2" />
        <path
            d="M133.219 268.2C135.307 269.831 137.427 271.462 139.743 273.093C137.525 271.462 135.372 269.831 133.219 268.2Z"
            fill="#6F7CF2" />
        <path
            d="M72.2531 188.869L73.7537 190.989C79.2664 205.081 97.4029 241.028 147.801 275.605C155.65 281.608 164.075 286.82 172.951 291.165C197.318 303.104 228.404 310.737 268.201 311.487C330.374 312.661 373.726 297.265 403.573 274.203L428.005 247.748C428.005 247.748 361.722 291.263 241.681 276.682C121.64 262.101 72.351 185.998 72.0574 185.346C71.9477 186.496 71.9477 187.654 72.0574 188.804"
            fill="#A0A9FA" />
        <path
            d="M430.223 244.551C430.223 244.551 361.722 294.557 241.811 279.976C121.9 265.395 72.6444 189.456 72.1877 188.869C72.3595 190.236 72.6767 191.581 73.1338 192.881C77.9942 205.929 95.6089 243.116 147.735 278.867C155.585 284.87 164.009 290.082 172.885 294.427C197.252 306.366 228.339 313.999 268.135 314.749C330.309 315.923 373.66 300.527 403.508 277.465L430.223 244.551Z"
            fill="#6F7CF2" />
        <path
            d="M138.961 142.157L148.192 125.847C157.456 109.538 164.828 105.297 164.828 105.297L149.529 73.9492L152.596 49.6802C146.214 46.3795 139.358 44.0903 132.273 42.895C111.234 55.2906 98.3162 70.883 91.8901 87.5192C91.8901 87.3887 89.574 120.106 138.961 142.157Z"
            fill="#A0A9FA" />
        <path
            d="M91.8901 87.552C91.9377 93.3796 93.2979 99.1212 95.8697 104.351L96.5548 105.558C96.5548 105.558 97.9248 99.8167 110.027 92.5098C122.129 85.203 140.233 82.7239 140.233 82.7239L141.472 73.7534C99.5232 74.1122 91.9228 87.5193 91.8901 87.552Z"
            fill="white" />
        <path d="M99.2623 73.0684C99.1985 73.2056 99.122 73.3366 99.0339 73.4598L99.2948 73.0684H99.2623Z"
            fill="white" />
        <path d="M91.8901 87.3885V87.5518L95.7393 79.0703C94.2838 81.7599 92.9982 84.5382 91.8901 87.3885Z"
            fill="white" />
        <path d="M95.8696 78.7769V79.0704L96.4241 78.092L95.8696 78.7769Z" fill="white" />
        <path
            d="M91.8901 87.5518C91.8901 87.5518 100.6 72.4487 149.529 73.9492L152.204 52.7789C152.329 51.8452 152.148 50.8961 151.69 50.0732C151.231 49.2503 150.519 48.5975 149.66 48.2121C144.079 45.8018 138.248 44.0185 132.274 42.895C117.076 51.2885 104.482 63.7023 95.8697 78.7769L91.8901 87.5518Z"
            fill="#C3C8FC" />
        <path
            d="M306.529 128.653L240.865 123.727L200.906 165.611C219.042 167.633 233.852 173.766 259.393 172.983C292.404 171.972 304.376 174.908 329.167 169.526L306.529 128.653Z"
            fill="#7C89F7" />
        <path opacity="0.5"
            d="M280.302 314.782H284.315C286.826 314.782 289.338 314.782 291.817 314.521L296.482 314.194C298.602 314.194 300.722 313.933 302.81 313.738L307.703 313.216L313.314 312.563L318.337 311.846H318.957L324.209 280.531C296.83 283.75 269.163 283.64 241.811 280.204C232.025 279.03 222.859 277.399 214.052 275.475C214.052 275.475 222.533 304.832 226.121 311.161C222.859 310.639 219.858 310.019 216.824 309.367C233.781 312.829 251.025 314.697 268.331 314.945C272.408 314.847 276.388 314.847 280.302 314.782Z"
            fill="#434FD1" />
        <path
            d="M151.976 96.979C148.319 98.8899 144.884 101.198 141.733 103.862C133.546 111.103 115.637 127.25 115.637 127.25L124.641 135.34L138.928 142.157L164.796 105.362"
            fill="#8C98FF" />
        <path
            d="M240.865 123.727L172.624 89.5742L161.664 98.9035L164.926 105.427C162.02 108.261 159.338 111.315 156.902 114.561C151.889 120.897 147.364 127.603 143.364 134.622L140.624 139.45C139.579 141.311 138.799 143.309 138.308 145.387C137.134 150.573 134.72 161.696 132.371 174.549C151.323 181.725 178.039 186.781 215.389 187.597C217.313 176.245 219.173 169.493 219.173 169.493L240.865 123.727Z"
            fill="#6F7CF2" />
        <path
            d="M412.217 135.014L375.161 96.1958L306.659 128.816L317.359 171.221C317.359 171.221 317.881 174.777 318.631 180.681C362.211 173.016 394.635 160.098 416.653 145.582L415.414 140.689C414.863 138.55 413.761 136.593 412.217 135.014Z"
            fill="#8C98FF" />
        <path d="M315.271 134.166L329.2 169.558L317.261 171.059L304.572 134.166" fill="#A0A9FA" />
        <path
            d="M419.234 82.2594C419.833 51.3867 357.18 25.136 279.296 23.627C201.411 22.1179 137.789 45.9219 137.191 76.7946C136.593 107.667 199.245 133.918 277.129 135.427C355.014 136.936 418.636 113.132 419.234 82.2594Z"
            fill="#434FD1" />
        <path
            d="M418.323 78.7138C418.893 49.3001 356.67 24.2412 279.344 22.7429C202.018 21.2447 138.871 43.8745 138.301 73.2882C137.732 102.702 199.955 127.761 277.28 129.259C354.606 130.758 417.753 108.128 418.323 78.7138Z"
            fill="white" />
        <path
            d="M414.867 77.1493C415.397 49.789 354.704 26.4248 279.306 24.9639C203.907 23.503 142.355 44.4986 141.825 71.859C141.294 99.2193 201.988 122.583 277.386 124.044C352.785 125.505 414.337 104.51 414.867 77.1493Z"
            fill="#CA9EF9" />
        <path
            d="M324.6 278.052C324.6 278.052 325.155 232.384 324.339 211.051C323.74 197.753 321.393 184.592 317.359 171.907L329.2 169.493C333.082 183.012 335.273 196.96 335.724 211.018C336.343 233.297 334.223 276.943 334.223 276.943"
            fill="#A0A9FA" />
        <path opacity="0.5"
            d="M430.223 244.551C430.223 244.551 361.722 294.557 241.811 279.976C121.9 265.395 72.6444 189.456 72.1877 188.869C72.3595 190.236 72.6767 191.581 73.1338 192.881C77.9942 205.929 95.6089 243.116 147.735 278.867C155.585 284.87 164.009 290.082 172.885 294.427C197.252 306.366 228.339 313.999 268.135 314.749C330.309 315.923 373.66 300.527 403.508 277.465L430.223 244.551Z"
            fill="#434FD1" />
        <path
            d="M407.006 78.7612C407.467 54.9673 350.208 34.5619 279.114 33.1844C208.021 31.8069 150.014 49.979 149.553 73.7729C149.092 97.5668 206.351 117.972 277.445 119.35C348.538 120.727 406.545 102.555 407.006 78.7612Z"
            fill="#DEC2FC" />
        <path
            d="M298.928 87.2578C266.308 77.4719 248.792 72.2202 262.785 64.946C278.019 57.052 297.819 62.2058 335.658 72.1875C348.706 75.4495 349.815 81.9737 338.496 86.2795C325.656 90.2892 311.951 90.6279 298.928 87.2578Z"
            fill="#A056F2" />
        <path
            d="M416.523 145.419L421.155 202.602L462.55 166.72L451.72 101.187C451.72 101.187 449.241 116.91 441.249 124.021C433.257 131.132 415.968 143.234 415.968 143.234"
            fill="#7C89F7" />
        <path
            d="M299.777 66.7917C299.867 62.2698 290.725 58.4198 279.357 58.1924C267.989 57.9651 258.701 61.4465 258.61 65.9684C258.52 70.4903 267.662 74.3403 279.029 74.5677C290.397 74.795 299.686 71.3136 299.777 66.7917Z"
            fill="#2D35AD" />
        <path
            d="M456.906 109.44C455.919 101.207 453.548 93.2001 449.893 85.7576L451.72 100.991L462.55 166.524L464.996 167.112L468.258 165.317V165.089L456.906 109.44Z"
            fill="#FE72DD" />
        <path
            d="M298.961 69.3823C298.961 73.9165 289.599 77.4068 278.247 77.1785C266.896 76.9502 257.729 73.1336 257.827 68.5995C257.849 68.0562 257.982 67.5232 258.219 67.0338C262.905 69.5527 268.166 70.8116 273.485 70.6872C283.271 70.6872 291.556 67.8167 291.621 63.8371C291.626 63.4902 291.559 63.1459 291.426 62.8257C296.025 64.3914 298.994 66.8053 298.961 69.3823Z"
            fill="black" />
        <path
            d="M414.827 77.2113C414.804 78.0972 414.717 78.9805 414.566 79.8537C411.304 53.7578 352.099 31.7066 279.128 30.3039C206.157 28.9012 146.137 48.5056 141.896 74.5689C141.83 73.6785 141.83 72.7846 141.896 71.8942C142.418 44.5588 203.874 23.5516 279.389 25.0195C354.904 26.4874 415.349 49.8106 414.827 77.2113Z"
            fill="#A056F2" />
        <path
            d="M377.64 291.523C406.639 275.67 411.63 243.572 417.306 217.639C424.156 186.52 435.606 158.924 464.996 167.144C495.822 133.35 517.025 126.075 539.206 132.958C574.729 143.984 584.32 157.619 575.284 166.1C570.228 170.83 562.823 170.797 552.45 170.438C542.077 170.08 526.354 168.742 513.73 186.748C462.419 260.893 433.746 287.413 377.64 291.523Z"
            fill="#6F7CF2" />
        <path
            d="M515.916 156.314C539.989 164.436 551.798 171.156 566.052 170.145C569.476 169.792 572.704 168.378 575.284 166.1C584.32 157.619 574.729 143.984 539.206 132.958C517.025 126.075 495.822 133.35 464.996 167.144C440.499 160.424 428.429 178.398 421.155 202.602C421.155 202.602 444.348 205.864 467.182 177.093C490.016 148.322 511.61 154.814 515.916 156.314Z"
            fill="#A0A9FA" />
        <path
            d="M539.206 132.958C517.025 126.075 495.822 133.35 464.996 167.144C459.646 172.526 454.558 178.202 451.23 180.91C447.903 183.617 458.015 176.897 467.54 167.535C477.065 158.173 492.788 148.551 502.574 148.29C518.558 147.833 524.886 154.814 543.479 163.001C558.158 169.525 565.563 173.081 575.251 166.263C584.319 157.619 574.729 143.984 539.206 132.958Z"
            fill="#C3C8FC" />
        <path
            d="M49.3214 32.9136C51.4626 33.0682 53.539 33.7156 55.3886 34.8054C35.0012 22.051 18.7239 31.3152 12.9828 42.7322C10.6431 48.1182 9.73301 54.0169 10.3406 59.8576L34.5772 46.8097C36.0124 38.6221 40.4162 32.5221 49.3214 32.9136Z"
            fill="black" />
        <path
            d="M299.189 21.4965C297.297 54.1164 296.221 71.046 278.345 70.6871C260.47 70.3283 260.078 53.5619 259.426 20.7137C259.342 18.0082 259.807 15.3137 260.792 12.7925C261.777 10.2712 263.262 7.97531 265.157 6.04312C267.053 4.11093 269.32 2.58249 271.822 1.54953C274.324 0.516568 277.009 0.000309564 279.715 0.0324166C282.422 0.104979 285.087 0.725119 287.548 1.85494C290.009 2.98476 292.216 4.60102 294.035 6.60656C295.855 8.6121 297.25 10.9653 298.135 13.5243C299.021 16.0833 299.38 18.7952 299.189 21.4965Z"
            fill="#2D35AD" />
        <path
            d="M266.341 34.2834C265.894 45.1676 266.243 56.0699 267.385 66.9033C270.398 69.5708 274.324 70.9732 278.345 70.8179C296.221 71.1767 297.297 54.2467 299.189 21.6269C299.511 16.5003 297.879 11.4422 294.622 7.46997C301.407 16.4404 290.61 21.6597 277.856 22.6709C274.847 22.8585 272.012 24.1448 269.889 26.2857C267.766 28.4266 266.503 31.2728 266.341 34.2834Z"
            fill="black" />
        <path
            d="M299.222 21.4967C297.591 49.4519 296.547 65.8595 285.032 69.7739C294.394 64.0328 295.862 47.201 298.08 20.518C298.457 16.409 297.618 12.2798 295.666 8.64429C298.238 12.4183 299.488 16.9376 299.222 21.4967Z"
            fill="#FF4CD2" />
        <path
            d="M284.673 5.80624C285.358 8.51369 280.531 11.2539 275.54 11.6127C271.789 11.8736 269.244 10.6339 269.016 8.93762C268.788 7.24139 271.038 5.31697 274.398 4.2079C278.867 2.77263 283.988 3.22927 284.673 5.80624Z"
            fill="#8C98FF" />
        <path
            d="M58.1939 0.326416L22.9319 19.0502C31.5536 16.7143 40.6191 16.5461 49.3214 18.5608C56.7292 20.4817 63.5582 24.1759 69.2195 29.3251L94.2715 16.0164C84.0529 7.34806 71.5024 1.89003 58.1939 0.326416Z"
            fill="#DEC2FC" />
        <path
            d="M541.163 170.471C501.335 170.83 490.472 187.629 475.467 213.693C460.462 239.756 429.212 279.878 387.035 285.163C384.113 287.553 380.98 289.671 377.673 291.491C433.779 287.381 462.484 260.861 513.795 186.781C516.75 182.092 520.774 178.17 525.537 175.335C530.299 172.5 535.665 170.833 541.196 170.471H541.163Z"
            fill="#7C89F7" />
        <path
            d="M572.935 162.251C566.411 169.395 552.939 163.654 541.75 158.663C530.562 153.672 530.986 148.355 537.869 144.343C544.751 140.33 550.917 140.135 560.181 144.832C569.445 149.529 577.273 157.619 572.935 162.251Z"
            fill="#5F2BAC" />
        <path
            d="M560.181 144.832C550.819 140.135 544.523 140.493 537.869 144.342C533.922 146.658 532.128 149.399 533.465 152.269C544.197 145.941 549.775 146.398 555.157 147.67C562.464 149.464 577.306 157.912 572.935 162.251C577.274 157.619 569.608 149.562 560.181 144.832Z"
            fill="black" />
        <path
            d="M614.754 212.91L586.016 220.217C582.264 183.715 573.751 171.482 555.19 164.013L564.976 151.878C589.18 161.273 597.857 170.308 614.754 212.91Z"
            fill="#5F2BAC" />
        <path
            d="M495.463 202.7C484.731 220.673 457.233 261.187 430.223 277.008C457.526 261.905 481.045 234.047 513.763 186.814C516.718 182.125 520.741 178.203 525.504 175.368C530.267 172.533 535.633 170.866 541.163 170.504C512.947 172.526 506.945 183.421 495.463 202.7Z"
            fill="#FE72DD" />
        <path
            d="M449.958 85.8229C434.594 54.1816 394.244 26.8463 317.228 18.2346C377.281 25.15 442.88 54.8994 451.72 101.024H452.079C452.912 95.8589 452.173 90.5627 449.958 85.8229Z"
            fill="#FD99E9" />
        <path
            d="M610.448 202.374C596.584 169.754 587.614 160.881 566.802 152.563C579.687 158.281 590.246 168.207 596.747 180.714C600.852 188.331 604.501 196.184 607.675 204.233C607.859 204.738 608.215 205.162 608.68 205.43C609.145 205.699 609.69 205.795 610.22 205.701C616.026 204.657 633.053 201.95 644.862 203.842C659.215 206.125 637.359 217.64 605.914 222.696C605.914 222.696 646.101 219.434 653.93 207.919C661.759 196.404 610.448 202.374 610.448 202.374Z"
            fill="#FE72DD" />
        <path
            d="M584.352 210.594C584.352 210.594 581.351 220.38 601.086 217.509C601.086 217.509 589.8 220.771 582.949 219.597C573.587 217.803 584.352 210.594 584.352 210.594Z"
            fill="#A056F2" />
        <path
            d="M576.132 212.551C576.132 212.551 567.586 216.27 568.271 222.696C568.956 229.122 601.119 223.739 601.119 223.739C601.119 223.739 573.327 231.568 560.442 225.86C547.557 220.151 576.132 212.551 576.132 212.551Z"
            fill="#A056F2" />
        <path
            d="M659.704 204.429C660.008 204.809 660.202 205.266 660.265 205.749C660.328 206.232 660.258 206.723 660.063 207.169C658.281 210.988 655.089 213.969 651.158 215.487C651.158 215.487 661.661 213.464 663.847 207.919C666.032 202.374 656.181 202.732 656.181 202.732C657.498 202.936 658.724 203.526 659.704 204.429Z"
            fill="#A056F2" />
        <path
            d="M127.805 240.017C89.6067 215.421 72.3508 189.195 72.3508 188.869C72.4229 189.54 72.5427 190.205 72.7096 190.859C72.8707 191.542 73.0667 192.218 73.2967 192.881C78.1571 205.929 95.7718 243.116 147.898 278.867C141.216 269.118 135.44 258.778 130.643 247.976C129.504 245.396 128.555 242.736 127.805 240.017Z"
            fill="#6F7CF2" />
        <path
            d="M132.274 174.483C151.226 181.66 177.941 186.716 215.291 187.531C216.824 178.561 218.292 172.527 218.847 170.374C190.767 166.392 163.541 157.783 138.276 144.897C137.134 150.084 134.688 161.24 132.274 174.483Z"
            fill="#7C89F7" />
        <path
            d="M271.952 171.189C191.87 171.189 133.317 145.452 107.124 119.78C97.9911 111.469 92.5152 99.8843 91.8903 87.5519C91.7174 94.2213 92.9893 100.849 95.6188 106.981C98.2482 113.112 102.173 118.603 107.124 123.075C133.22 148.747 191.935 174.581 271.952 174.483C351.968 174.386 447.479 150.182 452.079 100.861H451.72C443.271 148.159 350.24 171.059 271.952 171.189Z"
            fill="#C3C8FC" />
    </g>
    <defs>
        <clipPath id="clip0_850_2054">
            <rect width="851.639" height="413" fill="white" />
        </clipPath>
    </defs>
</svg>
