<svg width="197" height="200" viewBox="0 0 197 200" fill="none" xmlns="http://www.w3.org/2000/svg">
<g clip-path="url(#clip0_8262_389)">
<path d="M113.056 11.6256C110.462 15.6547 107.657 19.5448 104.798 23.3935C102.566 26.4037 100.266 29.4383 97.3268 31.7977C94.2955 34.2351 90.9363 36.5068 88.1285 39.1928C85.4882 41.718 77.5457 46.761 76.4964 47.3241C75.0026 48.1211 64.9105 55.3213 61.7723 58.5362C58.2091 62.1923 55.1802 66.6333 53.7787 71.5813C53.1521 73.7896 52.2922 75.8712 52.0396 78.1891C51.6899 81.4139 52.3457 84.8823 54.4686 87.3222C56.3752 89.5012 59.2875 90.6395 62.1731 90.7638C69.9723 91.1026 77.3514 86.4154 83.6423 82.3596L91.1525 77.5359C93.3652 76.1076 95.5901 74.6744 97.5818 72.9463C99.6998 71.1084 101.393 68.9099 103.38 66.9599C105.477 64.9042 107.425 62.7009 109.209 60.3667C113.059 55.3414 116.126 49.7587 118.305 43.8093C120.669 37.338 124.115 31.32 126.335 24.7487C127.839 20.298 128.235 15.9935 129.007 11.4111C129.311 9.57818 129.614 7.69893 129.267 5.8733C128.92 4.04767 127.781 2.25617 126.024 1.66631C123.268 0.742527 120.1 2.26348 118.184 4.20123C116.673 5.72949 115.578 7.61362 114.448 9.44168C113.987 10.1762 113.523 10.9041 113.056 11.6256Z" stroke="#9DB4F9" stroke-width="3" stroke-linecap="round" stroke-linejoin="round"/>
<path d="M155.522 43.0811C155.939 51.829 150.11 59.8432 142.947 64.8472C135.784 69.8513 127.319 72.5373 119.285 75.9546C113.68 78.3386 108.243 81.1017 103.011 84.2247C99.846 86.104 96.7273 88.1514 94.0797 90.7351C89.1078 95.5709 85.5008 102.449 78.9185 104.602" stroke="#9DB4F9" stroke-width="3" stroke-linecap="round" stroke-linejoin="round"/>
<path d="M0 92.5168C24.0463 97.7086 48.5783 103.427 69.3359 116.686C72.8262 118.917 76.3214 121.498 78.1698 125.217C80.538 129.978 79.7219 135.859 77.1983 140.539C72.5833 149.124 63.521 154.647 55.4813 159.58C46.8144 164.895 37.7321 169.496 28.3236 173.337C21.932 175.946 15.4012 178.198 8.7611 180.081C9.57236 179.85 10.7237 178.375 11.3819 177.812C12.4215 176.925 13.4675 176.048 14.5201 175.182C16.5409 173.515 18.5885 171.881 20.6628 170.28C24.8114 167.078 29.049 163.99 33.3757 161.018C37.7025 158.046 42.0915 155.174 46.5429 152.402C50.6939 149.801 84.9684 131.07 95.3641 124.255C105.76 117.439 115.524 107.078 121.596 96.2242C114.249 107.358 108.466 122.363 104.108 134.979C101.04 143.861 99.214 152.504 96.19 161.403" stroke="#9DB4F9" stroke-width="3" stroke-linecap="round" stroke-linejoin="round"/>
<path d="M109.136 121.223C110.737 121.593 112.372 121.978 113.751 122.871C115.131 123.763 117.273 125.042 117.212 126.687C117.149 128.416 115.252 131.05 114.055 132.294C111.043 135.418 107.254 137.656 102.964 138.292C109.48 139.82 116.331 138.773 122.097 135.367C127.025 132.425 130.868 127.879 133.659 122.853C136.449 117.827 138.249 112.309 139.753 106.766C140.724 103.203 141.815 99.2519 144.941 97.3019C148.295 95.2082 153.054 94.7402 156.804 95.9809C164.984 98.6864 172.592 103.573 179.742 108.412C186.213 112.799 193.276 116.494 200.762 118.707C203.733 119.587 207.019 120.238 209.859 118.988C211.714 118.171 213.152 116.626 214.381 115.007C217.809 110.503 219.912 105.077 220.806 99.4834C222.142 91.1109 220.199 84.0424 212.183 77.7051C200.009 99.2275 178.664 113.779 166.519 123.772C163.189 126.512 148.366 138.765 144.433 142.17C141.781 144.466 138.796 146.445 136.175 148.792C125.473 158.418 113.448 166.505 103.023 176.433C99.9453 179.358 96.9942 182.473 94.6867 186.044C92.3792 189.614 90.7276 193.692 90.4482 197.941" stroke="#9DB4F9" stroke-width="3" stroke-linecap="round" stroke-linejoin="round"/>
</g>
<defs>
<clipPath id="clip0_8262_389">
<rect width="197" height="200" fill="white"/>
</clipPath>
</defs>
</svg>
