<svg width="142" height="278" viewBox="0 0 142 278" fill="none" xmlns="http://www.w3.org/2000/svg">
<path d="M28.1882 277.578C38.5541 277.367 47.1251 258.594 50.7229 231.634C55.6829 245.485 62.2497 253.958 69.2985 253.814C79.6644 253.603 88.2353 234.83 91.8331 207.87C96.7932 221.721 103.36 230.194 110.409 230.05C120.775 229.839 129.346 211.066 132.943 184.106C137.903 197.957 144.47 206.43 151.519 206.286C161.885 206.075 170.456 187.302 174.054 160.342C179.014 174.193 185.58 182.666 192.629 182.522C202.995 182.311 211.566 163.538 215.164 136.578C220.124 150.429 226.691 158.902 233.74 158.758C248.052 158.466 258.939 122.814 258.047 79.1146C257.155 35.4147 244.822 0.236983 230.51 0.529098C220.144 0.740669 211.573 19.5133 207.975 46.473C203.015 32.622 196.449 24.1492 189.4 24.2931C179.034 24.5047 170.463 43.2773 166.865 70.237C161.905 56.386 155.338 47.9133 148.289 48.0571C137.924 48.2687 129.353 67.0413 125.755 94.001C120.795 80.15 114.228 71.6773 107.179 71.8212C96.8133 72.0327 88.2423 90.8053 84.6445 117.765C79.6844 103.914 73.1178 95.4413 66.069 95.5852C55.7031 95.7967 47.1321 114.569 43.5342 141.529C38.5742 127.678 32.0075 119.205 24.9586 119.349C10.6465 119.641 -0.240403 155.293 0.651527 198.993C1.54346 242.693 13.8618 277.871 28.1882 277.578Z" fill="#9C2D3A"/>
</svg>
