<svg width="32" height="32" viewBox="0 0 32 32" fill="none" xmlns="http://www.w3.org/2000/svg">
<g clip-path="url(#clip0_7538_21969)">
<path d="M21 21.9495L24.5347 31.1428L26.656 27.6068L30.192 25.4855L21 21.9495Z" stroke="#0042FF" stroke-width="1.75" stroke-linecap="round" stroke-linejoin="round"/>
<path d="M30.192 31.1428L26.656 27.6068" stroke="#0042FF" stroke-width="1.75" stroke-linecap="round" stroke-linejoin="round"/>
<path d="M23 18.1429H27L25.452 12.5629C25.3448 12.1541 25.1046 11.7927 24.7693 11.5356C24.4339 11.2785 24.0226 11.1403 23.6 11.1429H19.364C19.364 11.9031 19.062 12.6323 18.5244 13.1699C17.9868 13.7075 17.2576 14.0095 16.4973 14.0095C15.737 14.0095 15.0079 13.7075 14.4703 13.1699C13.9327 12.6323 13.6307 11.9031 13.6307 11.1429H9.4C8.97745 11.1403 8.56606 11.2785 8.23073 11.5356C7.89539 11.7927 7.65519 12.1541 7.548 12.5629L6 18.1429H10V26.1429H17" stroke="#0042FF" stroke-width="1.75" stroke-linecap="round" stroke-linejoin="round"/>
<path d="M31 20.1428V3.29616C31.0007 3.01408 30.9458 2.73462 30.8385 2.47374C30.7312 2.21287 30.5736 1.97568 30.3746 1.77573C30.1757 1.57577 29.9393 1.41696 29.6789 1.30837C29.4186 1.19977 29.1394 1.14352 28.8573 1.14282H3.14268C2.8606 1.14352 2.58142 1.19977 2.32108 1.30837C2.06074 1.41696 1.82434 1.57577 1.62537 1.77573C1.42641 1.97568 1.26877 2.21287 1.16147 2.47374C1.05417 2.73462 0.999309 3.01408 1.00001 3.29616V28.9882C0.999134 29.2703 1.05387 29.5499 1.16109 29.811C1.26831 30.072 1.42592 30.3094 1.6249 30.5094C1.82388 30.7095 2.06034 30.8685 2.32077 30.9772C2.5812 31.0858 2.86048 31.1421 3.14268 31.1428H19" stroke="#0042FF" stroke-width="1.75" stroke-linecap="round" stroke-linejoin="round"/>
<path d="M1 7.14282H31" stroke="#0042FF" stroke-width="1.75" stroke-linecap="round" stroke-linejoin="round"/>
</g>
<defs>
<clipPath id="clip0_7538_21969">
<rect width="32" height="32" fill="white"/>
</clipPath>
</defs>
</svg>
