<svg width="305" height="283" viewBox="0 0 305 283" fill="none" xmlns="http://www.w3.org/2000/svg">
<path d="M302.789 81.5649C301.345 78.0614 299.109 74.9412 296.259 72.4486C294.694 71.1456 292.883 70.1723 290.935 69.5876C288.986 69.003 286.939 68.819 284.917 69.0461C274.033 65.8401 261.907 68.501 250.653 71.8378C238.397 75.4801 226.163 80.2999 215.997 88.0641C208.407 91.0493 201.118 94.752 194.228 99.1218C188.322 102.64 182.553 106.377 176.922 110.332L173.33 111.858C173.1 111.942 172.892 112.076 172.721 112.251C168.83 113.884 165.234 116.145 162.076 118.947C157.047 122.894 152.019 126.885 147.143 131.029C142.637 134.868 138.261 138.859 134.081 143.003C131.424 144.842 128.866 146.823 126.419 148.935C126.062 149.229 125.778 149.602 125.591 150.025L124.59 150.767C121.469 153.166 118.393 155.601 115.36 158.073C118.125 153.471 121.347 149.066 123.828 144.312C127.699 137.059 130.694 129.372 132.753 121.411C134.494 114.28 133.472 106.558 125.875 103.571C119.934 101.632 113.586 101.309 107.48 102.633C108.437 101.172 109.526 99.7978 110.571 98.4238C114.358 93.4075 116.775 87.5187 120.215 82.4152C123.886 77.2573 127.279 71.9066 130.38 66.3854C132.405 62.4597 134.473 58.5554 136.367 54.5642C136.934 54.4481 137.461 54.1863 137.896 53.8038C138.332 53.4214 138.66 52.9314 138.849 52.3832C141.918 44.7062 145.38 37.1164 147.23 28.9159C148.07 24.8936 148.457 20.7898 148.383 16.681C148.383 13.0605 148.557 9.20003 146.381 6.12486C142.027 0.0181334 132.317 -0.548728 125.591 0.323661C121.649 1.0876 117.88 2.56579 114.467 4.68561C111.507 6.27772 108.568 7.91338 105.629 9.5273L103.039 10.9447C95.8823 14.7067 89.2388 19.3763 83.2725 24.8378C81.7051 26.2336 80.1821 27.6512 78.6583 29.1997C78.2377 29.3367 77.8458 29.5513 77.504 29.8323C72.1862 34.4219 67.3433 39.5367 63.0492 45.0991C46.4396 56.113 37.9723 74.455 26.1954 89.8745C23.0655 93.6861 20.2755 97.7653 17.8578 102.066C15.4197 106.755 13.5043 111.706 11.5886 116.591C9.60821 121.344 7.92856 126.217 6.5599 131.182C5.96195 133.683 5.51103 136.218 5.20998 138.772C3.35964 145.097 0.704231 151.116 0.160012 157.812C-0.510226 164.998 0.934502 172.224 4.31712 178.596C7.8872 184.812 15.3983 186.753 22.0595 187.429C32.9439 190.286 43.8281 185.248 53.4063 179.512C52.7315 181.257 52.0781 183.002 51.425 184.725C50.3584 186.47 49.2481 188.171 48.1597 189.894C45.967 193.47 44.0391 197.202 42.3912 201.06C40.998 204.31 39.779 207.603 38.6688 210.962C34.4892 217.657 30.6576 225.095 31.2453 233.142C31.9202 242.281 38.9296 247.253 47.4847 248.3C57.1936 249.5 65.9879 245.792 74.8913 242.412C77.9607 241.256 81.0311 240.034 84.1005 238.791C84.5452 238.986 85.0295 239.073 85.5142 239.042C85.9989 239.012 86.4694 238.866 86.8864 238.617C105.455 228.432 125.243 220.405 143.986 210.526C150.299 207.888 156.411 204.79 162.271 201.256C163.948 200.21 165.581 199.075 167.192 197.985C161.728 204.004 155.806 209.523 149.929 215.106L148.144 216.807C147.73 216.807 147.322 216.897 146.946 217.071C146.57 217.244 146.237 217.496 145.967 217.81C138.065 226.534 128.377 233.404 121.411 242.935C119.544 245.505 117.933 248.251 116.601 251.135C116.47 251.135 116.383 251.375 116.252 251.462C115.778 251.773 115.423 252.235 115.245 252.774C115.067 253.313 115.077 253.896 115.273 254.429C113.096 260.383 112.725 266.773 116.339 271.877C119.539 276.239 125.809 278.136 130.794 279.641C136.236 281.289 141.843 282.335 147.513 282.76C159.388 283.584 171.314 282.284 182.734 278.921C185.629 278.092 188.481 277.154 191.289 276.151C207.748 271.617 223.24 264.108 237.004 253.993C243.992 249.086 251.632 243.088 253.395 234.167C255.289 224.571 247.235 218.268 239.072 215.52C234.096 213.994 228.998 212.9 223.834 212.249C220.743 211.791 217.673 211.42 214.582 211.18C229.407 198.094 244.34 185.008 258.12 170.788C263.801 164.878 270.441 158.008 276.754 150.483C282.659 144.706 288.117 138.487 293.081 131.88C298.501 124.203 300.33 114.825 302.833 105.948C305.162 97.6603 306.251 89.6563 302.789 81.5649Z" fill="#FAE5A7"/>
</svg>
