<svg width="141" height="141" viewBox="0 0 141 141" fill="none" xmlns="http://www.w3.org/2000/svg">
<g id="Vector">
<path d="M70.9425 3.05657C84.3456 3.05391 97.4482 7.02683 108.593 14.4726C119.737 21.9184 128.423 32.5025 133.551 44.8859C138.679 57.2692 140.019 70.8953 137.401 84.0402C134.783 97.1851 128.324 109.258 118.843 118.732C109.362 128.205 97.2838 134.654 84.1369 137.262C70.9899 139.869 57.3649 138.519 44.9857 133.381C32.6064 128.243 22.0291 119.549 14.5922 108.398C7.15528 97.2479 3.19283 84.142 3.20616 70.739C3.22756 52.7807 10.3709 35.5642 23.0693 22.8658C35.7677 10.1674 52.9843 3.0241 70.9425 3.0027V3.05657ZM70.9425 0.752443C57.0966 0.749778 43.561 4.85327 32.0475 12.5439C20.534 20.2346 11.5598 31.167 6.25996 43.9584C0.960157 56.7497 -0.427163 70.8255 2.27337 84.4054C4.97391 97.9854 11.641 110.459 21.4315 120.25C31.222 130.04 43.696 136.708 57.276 139.408C70.8559 142.109 84.9317 140.721 97.7231 135.421C110.514 130.122 121.447 121.147 129.137 109.634C136.828 98.1204 140.932 84.5848 140.929 70.739C140.925 52.1785 133.551 34.3792 120.426 21.2549C107.302 8.1307 89.503 0.756015 70.9425 0.752443Z" fill="black"/>
<path d="M85.495 99.8438C85.495 88.9565 78.9734 80.1307 70.9426 80.1307C62.9118 80.1307 56.4036 88.9565 56.4036 99.8438C56.4036 110.731 62.9118 119.544 70.9426 119.544C78.9734 119.544 85.495 110.718 85.495 99.8438Z" fill="black"/>
<path d="M42.5114 51.969C42.5114 52.7099 42.2916 53.4341 41.88 54.0501C41.4684 54.6661 40.8834 55.1463 40.1989 55.4298C39.5144 55.7133 38.7612 55.7874 38.0346 55.6429C37.308 55.4984 36.6405 55.1416 36.1166 54.6178C35.5928 54.0939 35.236 53.4264 35.0915 52.6998C34.947 51.9732 35.0212 51.22 35.3047 50.5355C35.5882 49.851 36.0683 49.266 36.6843 48.8544C37.3003 48.4428 38.0245 48.2231 38.7654 48.2231C39.7589 48.2231 40.7117 48.6177 41.4142 49.3202C42.1167 50.0227 42.5114 50.9755 42.5114 51.969Z" fill="black"/>
<path d="M111.662 55.7149C111.665 56.459 111.447 57.1871 111.035 57.8071C110.624 58.4271 110.038 58.9111 109.351 59.1977C108.664 59.4843 107.908 59.5606 107.178 59.4171C106.448 59.2736 105.777 58.9166 105.25 58.3914C104.723 57.8662 104.363 57.1963 104.217 56.4667C104.071 55.7371 104.144 54.9805 104.429 54.2928C104.713 53.6051 105.195 53.0171 105.813 52.6035C106.432 52.1898 107.159 51.969 107.903 51.969C108.396 51.9672 108.885 52.0628 109.341 52.2502C109.797 52.4377 110.211 52.7133 110.561 53.0613C110.91 53.4094 111.187 53.8229 111.376 54.2782C111.565 54.7336 111.662 55.2218 111.662 55.7149Z" fill="black"/>
<path d="M111.245 32.2963C111.011 32.2993 110.783 32.2233 110.598 32.0807L103.861 27.3107C103.618 27.132 103.456 26.8641 103.41 26.5659C103.365 26.2678 103.44 25.9637 103.618 25.7207C103.797 25.4777 104.065 25.3156 104.363 25.2701C104.661 25.2247 104.965 25.2995 105.208 25.4782L111.945 30.2482C112.188 30.4237 112.351 30.6881 112.399 30.9835C112.447 31.279 112.376 31.5814 112.201 31.8246C112.098 31.971 111.96 32.0902 111.801 32.1723C111.641 32.2544 111.465 32.2969 111.285 32.2963" fill="black"/>
<path d="M35.6528 32.2962C35.4913 32.2971 35.3317 32.2625 35.185 32.195C35.0383 32.1275 34.9082 32.0287 34.8039 31.9055C34.6086 31.6798 34.5103 31.3861 34.5305 31.0883C34.5507 30.7905 34.6877 30.5127 34.9117 30.3155L41.1504 24.9257C41.3756 24.7328 41.6681 24.6372 41.9638 24.66C42.2594 24.6827 42.5339 24.8219 42.7269 25.0469C42.9206 25.2743 43.0165 25.5691 42.9938 25.8669C42.971 26.1648 42.8315 26.4415 42.6056 26.6369L36.3804 32.0267C36.176 32.1975 35.9191 32.2927 35.6528 32.2962Z" fill="black"/>
</g>
</svg>
