<svg width="32" height="32" viewBox="0 0 32 32" fill="none" xmlns="http://www.w3.org/2000/svg">
<path d="M14.688 15.812L20.244 10.256" stroke="#0042FF" stroke-width="1.75" stroke-linecap="round" stroke-linejoin="round"/>
<path d="M20.244 10.256L21.0014 5.256L25.332 1L26.0014 4.49867L29.5 5.168L25.244 9.49867L20.244 10.256Z" stroke="#0042FF" stroke-width="1.75" stroke-linecap="round" stroke-linejoin="round"/>
<path d="M28.0733 12.684C28.78 15.3627 28.6124 18.1972 27.595 20.774C26.5777 23.3508 24.7637 25.5352 22.4176 27.0087C20.0716 28.4822 17.3162 29.1677 14.5532 28.9652C11.7902 28.7627 9.16419 27.6828 7.05803 25.8831C4.95187 24.0833 3.47574 21.6578 2.84489 18.9602C2.21404 16.2626 2.46147 13.434 3.5511 10.8869C4.64073 8.33978 6.51557 6.20738 8.90222 4.80063C11.2889 3.39388 14.0625 2.78636 16.8187 3.06666" stroke="#0042FF" stroke-width="1.75" stroke-linecap="round" stroke-linejoin="round"/>
<path d="M22.296 14.316C22.6468 15.7303 22.5475 17.2187 22.0121 18.5739C21.4767 19.9291 20.5319 21.0834 19.3092 21.8761C18.0866 22.6687 16.6471 23.0602 15.1914 22.9958C13.7357 22.9315 12.3364 22.4146 11.1884 21.5172C10.0405 20.6198 9.20116 19.3865 8.7874 17.9894C8.37365 16.5923 8.40611 15.1009 8.88025 13.7231C9.35439 12.3453 10.2466 11.1497 11.4325 10.3031C12.6184 9.45648 14.0389 9.00094 15.496 9" stroke="#0042FF" stroke-width="1.75" stroke-linecap="round" stroke-linejoin="round"/>
<path d="M8.68799 27L7.68799 31" stroke="#0042FF" stroke-width="1.75" stroke-linecap="round" stroke-linejoin="round"/>
<path d="M22.688 27L23.688 31" stroke="#0042FF" stroke-width="1.75" stroke-linecap="round" stroke-linejoin="round"/>
</svg>
