<svg width="32" height="32" viewBox="0 0 32 32" fill="none" xmlns="http://www.w3.org/2000/svg">
<g clip-path="url(#clip0_7538_22149)">
<path d="M6.83467 9.66667C6.47931 8.83628 6.30907 7.93846 6.33578 7.03562C6.36249 6.13278 6.58551 5.2466 6.98933 4.43867V4.43867C7.43015 3.55722 8.07411 2.79314 8.86815 2.20939C9.66219 1.62563 10.5836 1.23891 11.5564 1.0811C12.5292 0.923282 13.5256 0.998885 14.4634 1.30168C15.4013 1.60447 16.2538 2.12579 16.9507 2.82267L18.6667 4.53333L20.384 2.81733C21.0807 2.12045 21.9331 1.59912 22.8709 1.29632C23.8086 0.993522 24.8049 0.917917 25.7777 1.07574C26.7504 1.23356 27.6717 1.62029 28.4656 2.20406C29.2595 2.78782 29.9033 3.55191 30.344 4.43333V4.43333C30.9271 5.60095 31.1283 6.92236 30.9192 8.21063C30.7101 9.49889 30.1012 10.6888 29.1787 11.612L18.6667 22.584L17.788 21.6667" stroke="#0042FF" stroke-width="1.75" stroke-linecap="round" stroke-linejoin="round"/>
<path d="M7.93333 20.6C11.7625 20.6 14.8667 19.0479 14.8667 17.1333C14.8667 15.2187 11.7625 13.6667 7.93333 13.6667C4.10416 13.6667 1 15.2187 1 17.1333C1 19.0479 4.10416 20.6 7.93333 20.6Z" stroke="#0042FF" stroke-width="1.75" stroke-linecap="round" stroke-linejoin="round"/>
<path d="M1 17.1333V27.5333C1 29.448 4.104 31 7.93333 31C11.7627 31 14.8667 29.448 14.8667 27.5333V17.1333" stroke="#0042FF" stroke-width="1.75" stroke-linecap="round" stroke-linejoin="round"/>
<path d="M14.8667 20.6C14.8667 22.5147 11.7627 24.0667 7.93333 24.0667C4.104 24.0667 1 22.5147 1 20.6" stroke="#0042FF" stroke-width="1.75" stroke-linecap="round" stroke-linejoin="round"/>
<path d="M14.8667 24.0667C14.8667 25.9813 11.7627 27.5333 7.93333 27.5333C4.104 27.5333 1 25.9813 1 24.0667" stroke="#0042FF" stroke-width="1.75" stroke-linecap="round" stroke-linejoin="round"/>
</g>
<defs>
<clipPath id="clip0_7538_22149">
<rect width="32" height="32" fill="white"/>
</clipPath>
</defs>
</svg>
