<svg width="32" height="32" viewBox="0 0 32 32" fill="none" xmlns="http://www.w3.org/2000/svg">
<g clip-path="url(#clip0_7538_22116)">
<path d="M17 28H19V31L23 28H29C29.5304 28 30.0391 27.7893 30.4142 27.4142C30.7893 27.0391 31 26.5304 31 26V20C31 19.4696 30.7893 18.9609 30.4142 18.5858C30.0391 18.2107 29.5304 18 29 18H17C16.4696 18 15.9609 18.2107 15.5858 18.5858C15.2107 18.9609 15 19.4696 15 20V26C15 26.5304 15.2107 27.0391 15.5858 27.4142C15.9609 27.7893 16.4696 28 17 28Z" stroke="#0042FF" stroke-width="1.75" stroke-linecap="round" stroke-linejoin="round"/>
<path d="M6.62666 25.9867C8.55598 25.9867 10.12 24.4226 10.12 22.4933C10.12 20.564 8.55598 19 6.62666 19C4.69735 19 3.13333 20.564 3.13333 22.4933C3.13333 24.4226 4.69735 25.9867 6.62666 25.9867Z" stroke="#0042FF" stroke-width="1.75" stroke-linecap="round" stroke-linejoin="round"/>
<path d="M12.2667 31C11.8556 29.8343 11.093 28.8248 10.084 28.1107C9.07506 27.3967 7.86942 27.0132 6.63333 27.0132C5.39725 27.0132 4.19161 27.3967 3.18264 28.1107C2.17367 28.8248 1.41108 29.8343 1 31" stroke="#0042FF" stroke-width="1.75" stroke-linecap="round" stroke-linejoin="round"/>
<path d="M25.3733 9C27.3027 9 28.8667 7.43598 28.8667 5.50667C28.8667 3.57735 27.3027 2.01334 25.3733 2.01334C23.444 2.01334 21.88 3.57735 21.88 5.50667C21.88 7.43598 23.444 9 25.3733 9Z" stroke="#0042FF" stroke-width="1.75" stroke-linecap="round" stroke-linejoin="round"/>
<path d="M31 14C30.5889 12.8343 29.8263 11.8248 28.8174 11.1107C27.8084 10.3967 26.6028 10.0132 25.3667 10.0132C24.1306 10.0132 22.9249 10.3967 21.916 11.1107C20.907 11.8248 20.1444 12.8343 19.7333 14" stroke="#0042FF" stroke-width="1.75" stroke-linecap="round" stroke-linejoin="round"/>
<path d="M19.6667 23H25" stroke="#0042FF" stroke-width="1.75" stroke-linecap="round" stroke-linejoin="round"/>
<path d="M15 11H13V14L9 11H3C2.46957 11 1.96086 10.7893 1.58579 10.4142C1.21071 10.0391 1 9.53043 1 9V3C1 2.46957 1.21071 1.96086 1.58579 1.58579C1.96086 1.21071 2.46957 1 3 1H15C15.5304 1 16.0391 1.21071 16.4142 1.58579C16.7893 1.96086 17 2.46957 17 3V9C17 9.53043 16.7893 10.0391 16.4142 10.4142C16.0391 10.7893 15.5304 11 15 11Z" stroke="#0042FF" stroke-width="1.75" stroke-linecap="round" stroke-linejoin="round"/>
<path d="M11 5.66667H5.66666" stroke="#0042FF" stroke-width="1.75" stroke-linecap="round" stroke-linejoin="round"/>
</g>
<defs>
<clipPath id="clip0_7538_22116">
<rect width="32" height="32" fill="white"/>
</clipPath>
</defs>
</svg>
