<svg width="32" height="32" viewBox="0 0 32 32" fill="none" xmlns="http://www.w3.org/2000/svg">
<path d="M29 29.0147C29 29.5451 28.7893 30.0538 28.4142 30.4289C28.0391 30.804 27.5304 31.0147 27 31.0147H5C4.46957 31.0147 3.96086 30.804 3.58579 30.4289C3.21071 30.0538 3 29.5451 3 29.0147V3.01466C3 2.48423 3.21071 1.97552 3.58579 1.60045C3.96086 1.22538 4.46957 1.01466 5 1.01466H19.172C19.7021 1.01478 20.2104 1.22531 20.5853 1.6L28.4147 9.42933C28.7894 9.80426 28.9999 10.3126 29 10.8427V29.0147Z" stroke="#0042FF" stroke-width="1.75" stroke-linecap="round" stroke-linejoin="round"/>
<path d="M29 11.0147H21C20.4696 11.0147 19.9609 10.8039 19.5858 10.4289C19.2107 10.0538 19 9.5451 19 9.01466V1.01466" stroke="#0042FF" stroke-width="1.75" stroke-linecap="round" stroke-linejoin="round"/>
<path d="M12.892 12.8253L10.0493 16.6147C9.96333 16.7292 9.85374 16.8239 9.72797 16.8924C9.6022 16.9609 9.46318 17.0016 9.32033 17.0117C9.17748 17.0218 9.03412 17.0011 8.89995 16.951C8.76578 16.9009 8.64394 16.8226 8.54267 16.7213L7 15.18" stroke="#0042FF" stroke-width="1.75" stroke-linecap="round" stroke-linejoin="round"/>
<path d="M12.892 21.8253L10.0493 25.6147C9.96333 25.7292 9.85374 25.8239 9.72797 25.8924C9.6022 25.9609 9.46318 26.0016 9.32033 26.0117C9.17748 26.0218 9.03412 26.0011 8.89995 25.951C8.76578 25.9009 8.64394 25.8226 8.54267 25.7213L7 24.1787" stroke="#0042FF" stroke-width="1.75" stroke-linecap="round" stroke-linejoin="round"/>
<path d="M17 17.0147H23" stroke="#0042FF" stroke-width="1.75" stroke-linecap="round" stroke-linejoin="round"/>
<path d="M17 25.0147H23" stroke="#0042FF" stroke-width="1.75" stroke-linecap="round" stroke-linejoin="round"/>
</svg>
