<svg width="32" height="32" viewBox="0 0 32 32" fill="none" xmlns="http://www.w3.org/2000/svg">
<path d="M29 3H3C1.89543 3 1 3.9402 1 5.1V21.9C1 23.0598 1.89543 24 3 24H29C30.1046 24 31 23.0598 31 21.9V5.1C31 3.9402 30.1046 3 29 3Z" stroke="#0042FF" stroke-width="2" stroke-linecap="round" stroke-linejoin="round"/>
<path d="M21 30H11L12 24H20L21 30Z" stroke="#0042FF" stroke-width="2" stroke-linecap="round" stroke-linejoin="round"/>
<path d="M8 30H24" stroke="#0042FF" stroke-width="2" stroke-linecap="round" stroke-linejoin="round"/>
<path d="M10.8373 16C12.2488 17.2869 14.09 18.0002 16 18.0002C17.91 18.0002 19.7512 17.2869 21.1627 16" stroke="#0042FF" stroke-width="2" stroke-linecap="round" stroke-linejoin="round"/>
<path d="M13 10V12" stroke="#0042FF" stroke-width="2" stroke-linecap="round" stroke-linejoin="round"/>
<path d="M19 10V12" stroke="#0042FF" stroke-width="2" stroke-linecap="round" stroke-linejoin="round"/>
</svg>
