<svg width="32" height="32" viewBox="0 0 32 32" fill="none" xmlns="http://www.w3.org/2000/svg">
<g clip-path="url(#clip0_7538_22162)">
<path d="M9.17333 6.82666L3.82666 12.1733" stroke="#0042FF" stroke-width="1.75" stroke-linecap="round" stroke-linejoin="round"/>
<path d="M19.08 8.42666L12.8533 6.77333" stroke="#0042FF" stroke-width="1.75" stroke-linecap="round" stroke-linejoin="round"/>
<path d="M27.1867 3.85333L22.4133 7.58667" stroke="#0042FF" stroke-width="1.75" stroke-linecap="round" stroke-linejoin="round"/>
<path d="M11 8C12.1046 8 13 7.10457 13 6C13 4.89543 12.1046 4 11 4C9.89543 4 9 4.89543 9 6C9 7.10457 9.89543 8 11 8Z" stroke="#0042FF" stroke-width="1.75" stroke-linecap="round" stroke-linejoin="round"/>
<path d="M29 5C30.1046 5 31 4.10457 31 3C31 1.89543 30.1046 1 29 1C27.8954 1 27 1.89543 27 3C27 4.10457 27.8954 5 29 5Z" stroke="#0042FF" stroke-width="1.75" stroke-linecap="round" stroke-linejoin="round"/>
<path d="M21 11C22.1046 11 23 10.1046 23 9C23 7.89543 22.1046 7 21 7C19.8954 7 19 7.89543 19 9C19 10.1046 19.8954 11 21 11Z" stroke="#0042FF" stroke-width="1.75" stroke-linecap="round" stroke-linejoin="round"/>
<path d="M3 16C4.10457 16 5 15.1046 5 14C5 12.8954 4.10457 12 3 12C1.89543 12 1 12.8954 1 14C1 15.1046 1.89543 16 3 16Z" stroke="#0042FF" stroke-width="1.75" stroke-linecap="round" stroke-linejoin="round"/>
<path d="M1 31H31" stroke="#0042FF" stroke-width="1.75" stroke-linecap="round" stroke-linejoin="round"/>
<path d="M8 23.6667H4C3.73586 23.6701 3.4835 23.7766 3.29671 23.9634C3.10992 24.1502 3.00345 24.4025 3 24.6667V31H9V24.6667C9 24.4015 8.89464 24.1471 8.70711 23.9596C8.51957 23.772 8.26522 23.6667 8 23.6667Z" stroke="#0042FF" stroke-width="1.75" stroke-linecap="round" stroke-linejoin="round"/>
<path d="M18 14.3333H14C13.7359 14.3368 13.4835 14.4432 13.2967 14.63C13.1099 14.8168 13.0035 15.0692 13 15.3333V31H19V15.3333C19 15.0681 18.8946 14.8138 18.7071 14.6262C18.5196 14.4387 18.2652 14.3333 18 14.3333Z" stroke="#0042FF" stroke-width="1.75" stroke-linecap="round" stroke-linejoin="round"/>
<path d="M28 19.6667H24C23.7359 19.6701 23.4835 19.7766 23.2967 19.9634C23.1099 20.1502 23.0035 20.4025 23 20.6667V31H29V20.6667C29 20.4015 28.8946 20.1471 28.7071 19.9596C28.5196 19.772 28.2652 19.6667 28 19.6667V19.6667Z" stroke="#0042FF" stroke-width="1.75" stroke-linecap="round" stroke-linejoin="round"/>
</g>
<defs>
<clipPath id="clip0_7538_22162">
<rect width="32" height="32" fill="white"/>
</clipPath>
</defs>
</svg>
