<svg width="32" height="32" viewBox="0 0 32 32" fill="none" xmlns="http://www.w3.org/2000/svg">
<path d="M29.5 31L25.5 25V18C25.5 15.3333 20.4333 12.48 18.5 11" stroke="#0042FF" stroke-width="1.75" stroke-linecap="round" stroke-linejoin="round"/>
<path d="M21.0733 19.724L16.2093 15.8267C15.8834 15.5008 15.4415 15.3177 14.9806 15.3177C14.5198 15.3177 14.0778 15.5008 13.752 15.8267C13.4261 16.1525 13.243 16.5945 13.243 17.0553C13.243 17.2835 13.288 17.5095 13.3753 17.7203C13.4626 17.9311 13.5906 18.1226 13.752 18.284L18.464 23.6V26.9333C18.464 28.508 20.7133 30.9933 20.7133 30.9933" stroke="#0042FF" stroke-width="1.75" stroke-linecap="round" stroke-linejoin="round"/>
<path d="M18.448 23.9707C18.303 24.8183 17.8628 25.5872 17.2055 26.1416C16.5481 26.696 15.7159 27.0001 14.856 27H6.144C5.17755 27 4.25069 26.6161 3.5673 25.9327C2.88392 25.2493 2.5 24.3224 2.5 23.356V4.64267C2.5 4.16419 2.59426 3.69041 2.77741 3.24837C2.96055 2.80634 3.22899 2.40471 3.56738 2.06644C3.90578 1.72817 4.3075 1.45988 4.7496 1.2769C5.1917 1.09392 5.66553 0.999825 6.144 1H14.5C15.5609 1 16.5783 1.42143 17.3284 2.17157C18.0786 2.92172 18.5 3.93913 18.5 5V17.6667" stroke="#0042FF" stroke-width="1.75" stroke-linecap="round" stroke-linejoin="round"/>
<path d="M2.5 21H10.5" stroke="#0042FF" stroke-width="1.75" stroke-linecap="round" stroke-linejoin="round"/>
<path d="M8.02267 12.4587C8.3112 12.8382 8.68709 13.1424 9.11839 13.3455C9.54969 13.5487 10.0237 13.6446 10.5 13.6253C12.0187 13.6253 13.2507 12.7013 13.2507 11.5627C13.2507 10.424 12.0187 9.5 10.5 9.5C8.98134 9.5 7.75067 8.576 7.75067 7.436C7.75067 6.296 8.98134 5.37333 10.5 5.37333C10.9763 5.35437 11.4502 5.4505 11.8814 5.65359C12.3126 5.85668 12.6886 6.16074 12.9773 6.54" stroke="#0042FF" stroke-width="1.75" stroke-linecap="round" stroke-linejoin="round"/>
<path d="M10.5 13.6253V15" stroke="#0042FF" stroke-width="1.75" stroke-linecap="round" stroke-linejoin="round"/>
<path d="M10.5 4V5.37333" stroke="#0042FF" stroke-width="1.75" stroke-linecap="round" stroke-linejoin="round"/>
</svg>
