<svg width="32" height="32" viewBox="0 0 32 32" fill="none" xmlns="http://www.w3.org/2000/svg">
<path d="M27 28.3334H29C29.5304 28.3334 30.0391 28.1227 30.4142 27.7476C30.7893 27.3725 31 26.8638 31 26.3334V4.49337C30.9965 3.92159 30.7678 3.37421 30.3635 2.96989C29.9592 2.56557 29.4118 2.33687 28.84 2.33337H3.14667C2.57734 2.33337 2.03132 2.55954 1.62874 2.96212C1.22617 3.3647 1 3.91071 1 4.48004V26.1734C1.0035 26.7452 1.23219 27.2925 1.63651 27.6969C2.04084 28.1012 2.58821 28.3299 3.16 28.3334H5" stroke="#0042FF" stroke-width="1.75" stroke-linecap="round" stroke-linejoin="round"/>
<path d="M1 8.33337H31" stroke="#0042FF" stroke-width="1.75" stroke-linecap="round" stroke-linejoin="round"/>
<path d="M21.6667 20.6667H10.1067C9.78823 20.6706 9.47525 20.7499 9.19342 20.8982C8.9116 21.0465 8.66898 21.2596 8.48548 21.5198C8.30198 21.7801 8.18285 22.0802 8.13786 22.3955C8.09286 22.7108 8.1233 23.0322 8.22666 23.3334L9.97333 28.9734C10.0423 29.1655 10.169 29.3314 10.3362 29.4484C10.5033 29.5654 10.7026 29.6277 10.9067 29.6267H20.8533C21.0592 29.6285 21.2606 29.5667 21.43 29.4498C21.5994 29.3329 21.7286 29.1665 21.8 28.9734L23.5333 23.3334C23.6395 23.0333 23.6724 22.7121 23.6294 22.3966C23.5864 22.0812 23.4688 21.7806 23.2862 21.5197C23.1036 21.2589 22.8614 21.0455 22.5797 20.8971C22.2981 20.7487 21.985 20.6698 21.6667 20.6667V20.6667Z" stroke="#0042FF" stroke-width="1.75" stroke-linecap="round" stroke-linejoin="round"/>
<path d="M11.1067 20.6667L13.1067 15.6667" stroke="#0042FF" stroke-width="1.75" stroke-linecap="round" stroke-linejoin="round"/>
<path d="M20.44 20.6667L18.44 15.6667" stroke="#0042FF" stroke-width="1.75" stroke-linecap="round" stroke-linejoin="round"/>
</svg>
