<svg width="32" height="32" viewBox="0 0 32 32" fill="none" xmlns="http://www.w3.org/2000/svg">
<g clip-path="url(#clip0_7538_21996)">
<path d="M19.0013 20V13H13.0013V20H9.00134L16.0013 27L23.0013 20H19.0013Z" stroke="#0042FF" stroke-width="2" stroke-linecap="round" stroke-linejoin="round"/>
<path d="M29.0013 9H3.00134C1.89677 9 1.00134 9.89543 1.00134 11V29C1.00134 30.1046 1.89677 31 3.00134 31H29.0013C30.1059 31 31.0013 30.1046 31.0013 29V11C31.0013 9.89543 30.1059 9 29.0013 9Z" stroke="#0042FF" stroke-width="2" stroke-linecap="round" stroke-linejoin="round"/>
<path d="M1.27203 10L4.47203 2.188C4.62923 1.83416 4.88577 1.53355 5.21049 1.32267C5.53522 1.11178 5.91417 0.999693 6.30137 1H25.7014C26.0883 0.999952 26.467 1.11216 26.7915 1.32303C27.1159 1.5339 27.3723 1.83436 27.5294 2.188L30.6547 9.87467" stroke="#0042FF" stroke-width="2" stroke-linecap="round" stroke-linejoin="round"/>
<path d="M16.0013 9V1" stroke="#0042FF" stroke-width="2" stroke-linecap="round" stroke-linejoin="round"/>
</g>
<defs>
<clipPath id="clip0_7538_21996">
<rect width="32" height="32" fill="white"/>
</clipPath>
</defs>
</svg>
