<svg width="64" height="64" viewBox="0 0 64 64" fill="none" xmlns="http://www.w3.org/2000/svg">
<rect width="64" height="64" rx="16" fill="#80F5D2"/>
<path fill-rule="evenodd" clip-rule="evenodd" d="M19.8963 33.1188C19.8963 29.1735 19.8963 27.2009 20.6689 25.694C21.3485 24.3685 22.4328 23.2908 23.7665 22.6155C25.2828 21.8476 27.2676 21.8476 31.2374 21.8476H36.9079C40.8776 21.8476 42.8626 21.8476 44.3787 22.6155C45.7125 23.2908 46.7968 24.3685 47.4765 25.694C48.2491 27.2009 48.2491 29.1735 48.2491 33.1188V34.729C48.2491 38.6742 48.2491 40.647 47.4765 42.1537C46.7968 43.4793 45.7125 44.5569 44.3787 45.2324C42.8626 46 40.8776 46 36.9079 46H26.3769C24.1085 46 22.9743 46 22.1079 45.5615C21.3458 45.1755 20.7261 44.5597 20.3378 43.8021C19.8963 42.9412 19.8963 41.8138 19.8963 39.5593V33.1188ZM30.0223 33.9239C30.0223 32.8123 30.929 31.9112 32.0475 31.9112C33.166 31.9112 34.0727 32.8123 34.0727 33.9239V37.9493C34.0727 39.0609 33.166 39.9619 32.0475 39.9619C30.929 39.9619 30.0223 39.0609 30.0223 37.9493V33.9239ZM40.1483 31.9112C39.0297 31.9112 38.1231 32.8123 38.1231 33.9239V37.9493C38.1231 39.0609 39.0297 39.9619 40.1483 39.9619C41.2667 39.9619 42.1735 39.0609 42.1735 37.9493V33.9239C42.1735 32.8123 41.2667 31.9112 40.1483 31.9112Z" fill="#09161D"/>
<path fill-rule="evenodd" clip-rule="evenodd" d="M26.969 15.7645C27.107 16.8676 26.3192 17.873 25.2092 18.0102C24.5974 18.0858 24.1058 18.1887 23.6707 18.3235C20.176 19.4058 17.4393 22.1255 16.3503 25.5988C16.2147 26.0312 16.1112 26.5197 16.0351 27.1278C15.8971 28.2309 14.8854 29.0139 13.7755 28.8767C12.6655 28.7395 11.8777 27.7341 12.0157 26.631C12.1148 25.8388 12.2615 25.1085 12.4833 24.4012C13.9683 19.665 17.7001 15.9562 22.4657 14.4803C23.1774 14.2599 23.9122 14.1141 24.7094 14.0156C25.8193 13.8784 26.831 14.6614 26.969 15.7645Z" fill="#09161D"/>
</svg>
