<svg width="64" height="64" viewBox="0 0 64 64" fill="none" xmlns="http://www.w3.org/2000/svg">
<rect width="64" height="64" rx="16" fill="#FF0000"/>
<g clip-path="url(#clip0_70848_242276)">
<path d="M47.9308 23.7417C47.5416 22.3026 46.419 21.1757 44.9799 20.7908C43.0468 20.0445 24.3233 19.6788 18.8918 20.8122C17.4527 21.2014 16.3258 22.324 15.9409 23.7631C15.0684 27.5908 15.0021 35.8663 15.9623 39.7795C16.3514 41.2186 17.4741 42.3455 18.9132 42.7304C22.7409 43.6114 40.9384 43.7355 45.0013 42.7304C46.4404 42.3412 47.5673 41.2186 47.9522 39.7795C48.8824 35.6097 48.9487 27.8474 47.9308 23.7417Z" fill="white"/>
<path d="M37.4528 31.7606L28.7283 26.7568V36.7644L37.4528 31.7606Z" fill="#FF0000"/>
</g>
<defs>
<clipPath id="clip0_70848_242276">
<rect width="34" height="23.522" fill="white" transform="translate(15 20)"/>
</clipPath>
</defs>
</svg>
