<svg width="64" height="64" viewBox="0 0 64 64" fill="none" xmlns="http://www.w3.org/2000/svg">
<rect width="64" height="64" rx="16" fill="#9146FF"/>
<path d="M16 9L10.2857 14.7143V35.2857H17.1429V41L22.8571 35.2857H27.4286L37.7143 25V9H16ZM35.4286 23.8571L30.8571 28.4286H26.2857L22.2857 32.4286V28.4286H17.1429V11.2857H35.4286V23.8571Z" fill="white"/>
<path d="M32 15.2858H29.7143V22.1429H32V15.2858Z" fill="white"/>
<path d="M25.7143 15.2858H23.4286V22.1429H25.7143V15.2858Z" fill="white"/>
<g clip-path="url(#clip0_68741_234862)">
<path fill-rule="evenodd" clip-rule="evenodd" d="M44.5086 40.8439H40.9272C40.7042 40.5477 40.5673 40.1957 40.5314 39.8267C40.4986 39.461 40.5886 39.2067 40.73 39.051C40.86 38.9067 41.1814 38.6839 41.96 38.6839C42.67 38.6839 43.4 39.1696 44.02 40.0267C44.2157 40.2982 44.3772 40.5782 44.5086 40.8439ZM38.3957 40.0153C38.4214 40.2953 38.4772 40.5753 38.56 40.8439H37.7114C37.3326 40.8439 36.9692 40.9944 36.7013 41.2623C36.4334 41.5302 36.2829 41.8936 36.2829 42.2724V43.5339C36.2829 43.9128 36.4334 44.2761 36.7013 44.544C36.9692 44.8119 37.3326 44.9624 37.7114 44.9624H54.2886C54.6675 44.9624 55.0308 44.8119 55.2987 44.544C55.5666 44.2761 55.7172 43.9128 55.7172 43.5339V42.271C55.7172 41.8921 55.5666 41.5288 55.2987 41.2609C55.0308 40.993 54.6675 40.8424 54.2886 40.8424H53.44C53.5229 40.5739 53.5786 40.2939 53.6043 40.0139C53.6729 39.2253 53.5014 38.3253 52.8614 37.6139C52.2114 36.8967 51.2329 36.5424 50.04 36.5424C48.3257 36.5424 47.0357 37.6739 46.2414 38.7767C46.1576 38.8935 46.0771 39.0125 46 39.1339C45.9225 39.0125 45.8415 38.8934 45.7572 38.7767C44.9657 37.6724 43.6743 36.541 41.9614 36.541C40.7672 36.541 39.79 36.8953 39.14 37.6167C38.4986 38.3267 38.3286 39.2267 38.3972 40.0167L38.3957 40.0153ZM47.4914 40.8439H51.0729C51.2965 40.5481 51.4335 40.1959 51.4686 39.8267C51.5014 39.461 51.4114 39.2067 51.27 39.051C51.14 38.9067 50.8186 38.6839 50.04 38.6839C49.33 38.6839 48.6 39.1696 47.98 40.0267C47.7843 40.2982 47.6229 40.5782 47.4914 40.8439ZM37.7114 46.7482H45.1072V55.7924H39.0772C38.6983 55.7924 38.3349 55.6419 38.067 55.374C37.7991 55.1061 37.6486 54.7428 37.6486 54.3639V46.7467H37.7114V46.7482ZM52.9229 55.7924H46.8929V46.7482H54.3514V54.3639C54.3514 54.7428 54.2009 55.1061 53.933 55.374C53.6651 55.6419 53.3017 55.7924 52.9229 55.7924Z" fill="white"/>
</g>
<defs>
<clipPath id="clip0_68741_234862">
<rect width="20" height="20" fill="white" transform="translate(36 36)"/>
</clipPath>
</defs>
</svg>
