<svg width="64" height="64" viewBox="0 0 64 64" fill="none" xmlns="http://www.w3.org/2000/svg">
<rect width="64" height="64" rx="16" fill="#6CBE45"/>
<path d="M34.7423 49.9963H29.2613L28.5364 45.2125C27.3325 44.8954 26.1779 44.4146 25.1048 43.7836L21.2103 46.6573L17.3332 42.7842L20.2072 38.8878C19.5773 37.8142 19.0988 36.6587 18.7856 35.454L14 34.7341V29.261L18.7843 28.5373C19.0994 27.3339 19.5782 26.1794 20.2072 25.1061L17.3332 21.2084L21.2103 17.3328L25.1048 20.2066C26.1778 19.5769 27.3326 19.0982 28.5364 18.7838L29.2613 14H34.7423L35.4624 18.7838C36.6671 19.0978 37.8227 19.5765 38.8965 20.2066L42.7897 17.3328L46.6681 21.2084L43.794 25.1024C44.4229 26.1756 44.9013 27.3302 45.2157 28.5337L50 29.261V34.7427L45.2157 35.4627C44.9017 36.6667 44.4233 37.8217 43.794 38.8951L46.6681 42.7904L42.7909 46.6672L38.8965 43.7934C37.8222 44.4225 36.6668 44.9012 35.4624 45.2162L34.7423 50V49.9963ZM32 25.9799C30.8095 25.9797 29.6456 26.3324 28.6556 26.9936C27.6656 27.6548 26.894 28.5948 26.4383 29.6945C25.9826 30.7942 25.8633 32.0044 26.0955 33.172C26.3277 34.3395 26.901 35.412 27.7428 36.2537C28.5846 37.0954 29.6572 37.6687 30.8248 37.9008C31.9925 38.133 33.2028 38.0137 34.3027 37.5581C35.4025 37.1024 36.3425 36.3308 37.0038 35.341C37.6651 34.3511 38.0179 33.1873 38.0176 31.9969C38.016 30.4016 37.3815 28.8721 36.2533 27.744C35.1251 26.616 33.5955 25.9815 32 25.9799Z" fill="white"/>
</svg>
