<svg width="64" height="64" viewBox="0 0 64 64" fill="none" xmlns="http://www.w3.org/2000/svg">
<rect width="64" height="64" rx="16" fill="#20A0CC"/>
<path fill-rule="evenodd" clip-rule="evenodd" d="M32.4994 48C39.0037 48 44.6403 44.2218 47.4032 38.7056C50.0156 38.2368 52 35.9168 52 33.1255C52 30.927 50.7689 29.0208 48.9696 28.0812C47.6088 20.0831 40.7526 14 32.4994 14C24.246 14 17.3897 20.0834 16.0292 28.0819C14.2305 29.0216 13 30.9274 13 33.1255C13 35.9163 14.9838 38.236 17.5955 38.7054C20.3583 44.2217 25.995 48 32.4994 48ZM18.5734 31.0004C18.5734 32.3764 18.7662 33.7065 19.126 34.9644C22.8518 37.8122 27.4838 39.4998 32.5033 39.4998C37.5224 39.4998 42.1541 37.8125 45.8796 34.9652C46.2396 33.7071 46.4325 32.3766 46.4325 31.0004C46.4325 23.1763 40.1961 16.8337 32.503 16.8337C24.8098 16.8337 18.5734 23.1763 18.5734 31.0004ZM21.3668 29.576C21.2711 30.3578 21.9082 30.9996 22.6829 30.9996C23.4575 30.9996 24.0732 30.3561 24.2008 29.5792C24.7902 25.9904 27.5755 23.1577 31.1041 22.5583C31.8682 22.4285 32.5009 21.8023 32.5009 21.0145C32.5009 20.2267 31.8698 19.5787 31.1011 19.676C26.0233 20.3187 21.9986 24.4119 21.3668 29.576Z" fill="white"/>
</svg>
