<svg width="64" height="64" viewBox="0 0 64 64" fill="none" xmlns="http://www.w3.org/2000/svg">
<rect width="64" height="64" rx="16" fill="url(#paint0_linear_91553_24784)"/>
<path d="M44.58 31.0651H19.4494C18.8091 31.0651 18.2865 30.5407 18.2865 29.9021V28.1283C18.2865 26.1207 19.915 24.4922 21.9226 24.4922H42.0793C44.0869 24.4922 45.7154 26.1207 45.7154 28.1283V29.9021C45.743 30.5425 45.2185 31.0651 44.58 31.0651Z" fill="white"/>
<path d="M39.286 22.5729H24.7435C24.1031 22.5729 23.5511 22.0485 23.5511 21.3805C23.5511 18.4142 25.9653 16 28.9316 16H35.0979C38.0641 16 40.4784 18.4142 40.4784 21.3805C40.4784 22.0503 39.9539 22.5729 39.286 22.5729Z" fill="white"/>
<path d="M45.743 32.9862H18.2865C16.4831 32.9862 15 34.4693 15 36.2727C15 38.076 16.4831 39.5591 18.2865 39.5591H28.0299C28.3796 37.6969 30.0081 36.2727 31.9862 36.2727C33.9643 36.2727 35.6223 37.6969 35.9701 39.5591H45.7135C47.5169 39.5591 49 38.076 49 36.2727C49 34.4693 47.5463 32.9862 45.743 32.9862Z" fill="white"/>
<path d="M44.5506 41.4784H36.029V48.0513H42.4271C44.2304 48.0513 45.7135 46.5682 45.7135 44.7648V42.6708C45.743 42.0304 45.2185 41.4784 44.5506 41.4784Z" fill="white"/>
<path d="M19.4494 41.4784C18.8091 41.4784 18.257 42.0028 18.257 42.6708V44.7648C18.257 46.5682 19.7402 48.0513 21.5435 48.0513H27.9416V41.4784C27.971 41.4784 19.4494 41.4784 19.4494 41.4784Z" fill="white"/>
<defs>
<linearGradient id="paint0_linear_91553_24784" x1="0" y1="0" x2="64" y2="67.5" gradientUnits="userSpaceOnUse">
<stop stop-color="#ED5DBC"/>
<stop offset="1" stop-color="#3843D0"/>
</linearGradient>
</defs>
</svg>
