<svg width="64" height="64" viewBox="0 0 64 64" fill="none" xmlns="http://www.w3.org/2000/svg">
<g clip-path="url(#clip0_90965_11386)">
<path d="M32.0104 0C23.3775 0 0.00219727 0 0.00219727 0V64C0.00219727 64 44.4531 64 64 64C64 64 64 42.6316 64 31.9791C64 21.4123 64 0.076807 64 0.076807C64 0.076807 49.6442 0.0125452 42.4257 0C42.4257 0 40.6434 0 32.0104 0Z" fill="url(#paint0_radial_90965_11386)"/>
<path d="M0.00219727 0V63.9412H64V0C64 0 11.1876 0.000119231 0.00219727 0Z" fill="url(#paint1_radial_90965_11386)"/>
<path d="M32.0018 13C26.8416 13 26.1941 13.0226 24.1674 13.1148C22.1446 13.2074 20.764 13.5276 19.5559 13.9975C18.3062 14.4828 17.2461 15.132 16.1901 16.1884C15.1332 17.2445 14.484 18.3046 13.9971 19.5538C13.5261 20.7623 13.2054 22.1434 13.1144 24.1653C13.0238 26.1919 13 26.8399 13 32C13 37.1601 13.023 37.8057 13.1148 39.8324C13.2078 41.8551 13.528 43.2357 13.9975 44.4438C14.4832 45.6935 15.1324 46.7535 16.1889 47.8096C17.2446 48.8665 18.3046 49.5172 19.5535 50.0025C20.7624 50.4724 22.1434 50.7926 24.1658 50.8852C26.1925 50.9774 26.8397 51 31.9994 51C37.1599 51 37.8056 50.9774 39.8322 50.8852C41.855 50.7926 43.2372 50.4724 44.4461 50.0025C45.6954 49.5172 46.7539 48.8665 47.8096 47.8096C48.8664 46.7535 49.5156 45.6935 50.0025 44.4442C50.4696 43.2357 50.7902 41.8547 50.8852 39.8328C50.9762 37.8061 51 37.1601 51 32C51 26.8399 50.9762 26.1923 50.8852 24.1657C50.7902 22.143 50.4696 20.7623 50.0025 19.5542C49.5156 18.3046 48.8664 17.2445 47.8096 16.1884C46.7527 15.1316 45.6958 14.4824 44.4449 13.9975C43.2337 13.5276 41.8522 13.2074 39.8295 13.1148C37.8028 13.0226 37.1576 13 31.9958 13H32.0018ZM30.2973 16.424C30.8032 16.4232 31.3676 16.424 32.0018 16.424C37.0748 16.424 37.6761 16.4422 39.6794 16.5332C41.532 16.6179 42.5374 16.9275 43.2071 17.1875C44.0938 17.5319 44.726 17.9436 45.3906 18.6086C46.0556 19.2736 46.4673 19.9069 46.8124 20.7936C47.0725 21.4625 47.3824 22.4679 47.4668 24.3204C47.5578 26.3234 47.5776 26.925 47.5776 31.9956C47.5776 37.0663 47.5578 37.6679 47.4668 39.6709C47.382 41.5234 47.0725 42.5288 46.8124 43.1977C46.4681 44.0844 46.0556 44.7158 45.3906 45.3804C44.7256 46.0454 44.0942 46.457 43.2071 46.8014C42.5382 47.0626 41.532 47.3714 39.6794 47.4561C37.6765 47.5471 37.0748 47.5669 32.0018 47.5669C26.9283 47.5669 26.3271 47.5471 24.3241 47.4561C22.4716 47.3706 21.4662 47.0611 20.796 46.801C19.9093 46.4566 19.276 46.045 18.611 45.38C17.946 44.715 17.5343 44.0832 17.1891 43.1961C16.9291 42.5272 16.6191 41.5218 16.5348 39.6693C16.4438 37.6664 16.4256 37.0647 16.4256 31.9909C16.4256 26.9171 16.4438 26.3186 16.5348 24.3157C16.6195 22.4632 16.9291 21.4578 17.1891 20.788C17.5335 19.9014 17.946 19.268 18.611 18.603C19.276 17.938 19.9093 17.5264 20.796 17.1812C21.4658 16.9199 22.4716 16.6112 24.3241 16.5261C26.0769 16.4469 26.7561 16.4232 30.2973 16.4192V16.424ZM42.1439 19.5787C40.8852 19.5787 39.8639 20.5988 39.8639 21.858C39.8639 23.1167 40.8852 24.138 42.1439 24.138C43.4027 24.138 44.424 23.1167 44.424 21.858C44.424 20.5992 43.4027 19.578 42.1439 19.578V19.5787ZM32.0018 22.2427C26.6132 22.2427 22.2444 26.6115 22.2444 32C22.2444 37.3885 26.6132 41.7553 32.0018 41.7553C37.3903 41.7553 41.7576 37.3885 41.7576 32C41.7576 26.6115 37.3899 22.2427 32.0014 22.2427H32.0018ZM32.0018 25.6667C35.4994 25.6667 38.3352 28.502 38.3352 32C38.3352 35.4976 35.4994 38.3333 32.0018 38.3333C28.5038 38.3333 25.6684 35.4976 25.6684 32C25.6684 28.502 28.5038 25.6667 32.0018 25.6667Z" fill="white"/>
</g>
<defs>
<radialGradient id="paint0_radial_90965_11386" cx="0" cy="0" r="1" gradientUnits="userSpaceOnUse" gradientTransform="translate(17.0001 68.9293) rotate(-90) scale(63.4287 58.9937)">
<stop stop-color="#FFDD55"/>
<stop offset="0.1" stop-color="#FFDD55"/>
<stop offset="0.5" stop-color="#FF543E"/>
<stop offset="1" stop-color="#C837AB"/>
</radialGradient>
<radialGradient id="paint1_radial_90965_11386" cx="0" cy="0" r="1" gradientUnits="userSpaceOnUse" gradientTransform="translate(-10.7203 4.61045) rotate(78.6806) scale(28.3529 116.872)">
<stop stop-color="#3771C8"/>
<stop offset="0.128" stop-color="#3771C8"/>
<stop offset="1" stop-color="#6600FF" stop-opacity="0"/>
</radialGradient>
<clipPath id="clip0_90965_11386">
<rect width="64" height="64" rx="16" fill="white"/>
</clipPath>
</defs>
</svg>
