<svg width="64" height="64" viewBox="0 0 64 64" fill="none" xmlns="http://www.w3.org/2000/svg">
<rect width="64" height="64" rx="16" fill="black"/>
<g clip-path="url(#clip0_68865_235399)">
<path d="M19.382 43.3841L19.487 43.6804C19.4735 43.6465 19.4351 43.5428 19.382 43.3841ZM23.5361 36.6678C23.7204 35.0753 24.3464 34.1837 25.526 33.2697C27.2139 32.0318 29.3223 32.732 29.3223 32.732V28.578C29.8349 28.5643 30.3476 28.596 30.8546 28.6727V34.0186C30.8546 34.0186 28.7469 33.3183 27.059 34.5569C25.88 35.4703 25.2527 36.3625 25.069 37.955C25.0633 38.8197 25.2188 39.9501 25.935 40.9275C25.758 40.8328 25.5775 40.7248 25.3935 40.6036C23.8158 39.4982 23.5284 37.8398 23.5361 36.6678ZM39.5602 20.8972C38.3991 19.5697 37.96 18.2294 37.8013 17.2878H39.2619C39.2619 17.2878 38.9707 19.7566 41.0931 22.1843L41.1226 22.217C40.5506 21.8416 40.026 21.3984 39.5602 20.8972ZM46.5965 24.6608V29.8991C46.5965 29.8991 44.7326 29.8229 43.3532 29.4568C41.4273 28.9448 40.1894 28.1594 40.1894 28.1594C40.1894 28.1594 39.3342 27.5993 39.2651 27.5603V38.3774C39.2651 38.9798 39.107 40.4839 38.625 41.7385C37.9959 43.3796 37.0249 44.4568 36.8463 44.677C36.8463 44.677 35.6654 46.1332 33.5819 47.1138C31.704 47.9983 30.0552 47.9759 29.5623 47.9983C29.5623 47.9983 26.7121 48.1161 24.1473 46.377C23.5927 45.9937 23.075 45.5596 22.6009 45.0803L22.6137 45.0899C25.1791 46.8289 28.0287 46.7111 28.0287 46.7111C28.5222 46.6887 30.171 46.7111 32.0483 45.8266C34.1298 44.846 35.3127 43.3898 35.3127 43.3898C35.4893 43.1696 36.4648 42.0924 37.0914 40.4506C37.5721 39.1967 37.7315 37.6919 37.7315 37.0896V26.2737C37.8006 26.3134 38.6551 26.8735 38.6551 26.8735C38.6551 26.8735 39.8937 27.6595 41.8196 28.1709C43.1996 28.537 45.0629 28.6132 45.0629 28.6132V24.5084C45.7004 24.6576 46.2438 24.6979 46.5965 24.6608Z" fill="#EE1D52"/>
<path d="M45.0635 24.5084V28.6119C45.0635 28.6119 43.2003 28.5358 41.8203 28.1696C39.8943 27.6576 38.6558 26.8722 38.6558 26.8722C38.6558 26.8722 37.8013 26.3122 37.7321 26.2725V37.0909C37.7321 37.6932 37.5741 39.198 37.0921 40.4519C36.4629 42.0937 35.4919 43.1709 35.3133 43.3911C35.3133 43.3911 34.1318 44.8473 32.049 45.8279C30.1717 46.7124 28.5228 46.69 28.0293 46.7124C28.0293 46.7124 25.1798 46.8302 22.6144 45.0911L22.6016 45.0815C22.3307 44.8079 22.0758 44.519 21.838 44.2162C21.0193 43.1748 20.5175 41.9433 20.3914 41.5919C20.3912 41.5904 20.3912 41.5889 20.3914 41.5874C20.1885 40.9768 19.7622 39.5104 19.8205 38.0901C19.9235 35.5842 20.7684 34.0461 20.9918 33.6608C21.5834 32.61 22.3529 31.6699 23.266 30.8822C24.0717 30.2026 24.985 29.6618 25.9683 29.2821C27.0314 28.8362 28.1697 28.5973 29.3223 28.578V32.732C29.3223 32.732 27.2139 32.0344 25.5267 33.2697C24.347 34.1837 23.721 35.0753 23.5367 36.6678C23.529 37.8398 23.8164 39.4982 25.3929 40.6043C25.5768 40.7259 25.7573 40.8338 25.9344 40.9281C26.2098 41.3017 26.545 41.6271 26.9265 41.8914C28.4665 42.9085 29.7569 42.9795 31.407 42.319C32.5073 41.8773 33.3355 40.882 33.7196 39.7792C33.9609 39.0905 33.9577 38.3973 33.9577 37.6804V17.2878H37.7981C37.9568 18.2294 38.3959 19.5697 39.557 20.8972C40.0228 21.3984 40.5473 21.8416 41.1194 22.217C41.2884 22.3994 42.1525 23.3013 43.2617 23.8549C43.8353 24.1411 44.4398 24.3604 45.0635 24.5084Z" fill="white"/>
<path d="M18.8629 40.3162V40.3194L18.9576 40.5889C18.9468 40.5575 18.9116 40.4622 18.8629 40.3162Z" fill="#69C9D0"/>
<path d="M25.9683 29.2821C24.985 29.6618 24.0717 30.2026 23.266 30.8822C22.3526 31.6717 21.5833 32.6138 20.9924 33.6665C20.769 34.0506 19.9242 35.59 19.8211 38.0958C19.7629 39.5161 20.1891 40.9825 20.392 41.5932C20.3918 41.5946 20.3918 41.5962 20.392 41.5976C20.5201 41.9458 21.0199 43.1773 21.8386 44.2219C22.0764 44.5247 22.3313 44.8137 22.6022 45.0873C21.7344 44.4871 20.9604 43.7615 20.3056 42.9341C19.494 41.9017 18.9935 40.683 18.8629 40.3233C18.8628 40.3207 18.8628 40.3181 18.8629 40.3156V40.3111C18.6594 39.7011 18.2318 38.2341 18.2913 36.8118C18.3944 34.306 19.2393 32.7679 19.4627 32.3826C20.0534 31.3297 20.8227 30.3875 21.7362 29.5983C22.5418 28.9184 23.4551 28.3775 24.4386 27.9981C25.052 27.7436 25.6911 27.5558 26.3447 27.438C27.3297 27.2661 28.3358 27.2512 29.3255 27.3939V28.578C28.1718 28.5969 27.0324 28.8358 25.9683 29.2821Z" fill="#69C9D0"/>
<path d="M37.8013 17.2878L33.9609 17.2878V37.6811C33.9609 38.3979 33.9609 39.0892 33.7228 39.7798C33.3349 40.882 32.5098 41.8773 31.4102 42.319C29.7595 42.9821 28.4691 42.9085 26.9297 41.8914C26.5476 41.6283 26.2115 41.3039 25.935 40.9313C27.2465 41.6309 28.4204 41.6188 29.8747 41.035C30.9737 40.5934 31.8 39.5981 32.1866 38.4952C32.4285 37.8065 32.4253 37.1133 32.4253 36.3971V16H37.7283C37.7283 16 37.6688 16.5069 37.8013 17.2878ZM45.0635 23.3736V24.5084C44.4409 24.3602 43.8374 24.1409 43.2649 23.8549C42.1557 23.3013 41.2916 22.3994 41.1226 22.217C41.3187 22.3457 41.5221 22.4628 41.7319 22.5677C43.0806 23.2411 44.4087 23.4421 45.0635 23.3736Z" fill="#69C9D0"/>
</g>
<defs>
<clipPath id="clip0_68865_235399">
<rect width="32" height="32" fill="white" transform="translate(16 16)"/>
</clipPath>
</defs>
</svg>
