<svg width="88" height="24" viewBox="0 0 88 24" fill="none" xmlns="http://www.w3.org/2000/svg">
<g clip-path="url(#clip0_12867_2948)">
<path d="M23.2228 7.90488H32.0035V9.52561H28.5509V18.6365H26.6524V9.52561H23.2151L23.2228 7.90488ZM31.6284 10.8661H33.2513V12.3656H33.282C33.3355 12.1536 33.4351 11.9491 33.5805 11.7522C33.726 11.5553 33.902 11.366 34.1088 11.2069C34.3155 11.0403 34.5451 10.9115 34.7977 10.8055C35.0504 10.7071 35.3107 10.6541 35.571 10.6541C35.77 10.6541 35.9155 10.6616 35.9919 10.6692C36.0686 10.6768 36.145 10.6919 36.2293 10.6995V12.3505C36.1069 12.3278 35.9843 12.3126 35.8542 12.2975C35.7241 12.2824 35.6015 12.2748 35.4791 12.2748C35.1882 12.2748 34.9125 12.3354 34.6523 12.4489C34.392 12.5626 34.17 12.7368 33.9786 12.9564C33.7872 13.1836 33.6341 13.4562 33.5193 13.7894C33.4044 14.1227 33.3509 14.5014 33.3509 14.933V18.6289H31.6208L31.6284 10.8661ZM44.1832 18.6365H42.4837V17.5535H42.4531C42.2388 17.9473 41.9249 18.2579 41.5039 18.4926C41.0828 18.7274 40.6541 18.8485 40.2177 18.8485C39.1842 18.8485 38.4341 18.5987 37.9747 18.0912C37.5154 17.5838 37.2857 16.8188 37.2857 15.7964V10.8661H39.0158V15.6299C39.0158 16.3115 39.1461 16.7962 39.4139 17.0764C39.6742 17.3566 40.0493 17.5004 40.5239 17.5004C40.8914 17.5004 41.19 17.4475 41.435 17.3339C41.6799 17.2202 41.8789 17.0764 42.0244 16.887C42.1775 16.7053 42.2847 16.478 42.3536 16.2205C42.4225 15.9631 42.4531 15.6828 42.4531 15.3799V10.8737H44.1832V18.6365ZM47.1306 16.1448C47.1841 16.6447 47.3755 16.9931 47.7047 17.1976C48.0416 17.3945 48.4396 17.5004 48.9066 17.5004C49.0674 17.5004 49.2511 17.4853 49.4579 17.4626C49.6645 17.44 49.8635 17.3869 50.0397 17.3188C50.2233 17.2506 50.3688 17.1445 50.4913 17.0082C50.6061 16.8719 50.6597 16.6978 50.6521 16.478C50.6444 16.2584 50.5602 16.0766 50.4071 15.9403C50.254 15.7964 50.0626 15.6905 49.8253 15.5995C49.588 15.5162 49.32 15.4405 49.0138 15.3799C48.7076 15.3193 48.4014 15.2512 48.0875 15.183C47.7659 15.1148 47.4521 15.024 47.1536 14.9255C46.855 14.8271 46.5871 14.6908 46.3498 14.5165C46.1125 14.35 45.9211 14.1302 45.7832 13.8652C45.6377 13.6002 45.5688 13.2745 45.5688 12.8807C45.5688 12.4566 45.676 12.1081 45.8828 11.8204C46.0894 11.5326 46.3574 11.3054 46.6712 11.1312C46.9927 10.957 47.345 10.8358 47.7354 10.7601C48.1258 10.6919 48.5009 10.6541 48.8531 10.6541C49.2587 10.6541 49.6491 10.6995 50.0167 10.7828C50.3842 10.8661 50.7209 11.0024 51.0195 11.1993C51.3181 11.3887 51.563 11.6386 51.762 11.9415C51.9612 12.2444 52.0836 12.6156 52.1372 13.0472H50.3305C50.2463 12.6383 50.0626 12.3581 49.764 12.2218C49.4655 12.0779 49.121 12.0097 48.7382 12.0097C48.6158 12.0097 48.4703 12.0173 48.3018 12.04C48.1334 12.0628 47.9803 12.1006 47.8272 12.1536C47.6817 12.2066 47.5593 12.2899 47.4521 12.396C47.3526 12.502 47.299 12.6383 47.299 12.8125C47.299 13.0246 47.3755 13.1911 47.521 13.3199C47.6665 13.4486 47.8578 13.5547 48.0951 13.6456C48.3324 13.7288 48.6004 13.8047 48.9066 13.8652C49.2128 13.9258 49.5267 13.9939 49.8483 14.0621C50.1621 14.1302 50.4683 14.2212 50.7746 14.3196C51.0808 14.4181 51.3487 14.5544 51.586 14.7286C51.8233 14.9028 52.0147 15.1148 52.1602 15.3724C52.3056 15.6299 52.3821 15.9554 52.3821 16.3342C52.3821 16.7962 52.275 17.1824 52.0606 17.5081C51.8462 17.8261 51.5707 18.0912 51.2339 18.2881C50.897 18.485 50.5143 18.6365 50.1008 18.7274C49.6874 18.8183 49.2741 18.8638 48.8683 18.8638C48.3707 18.8638 47.9114 18.8107 47.4903 18.6971C47.0693 18.5834 46.7019 18.4169 46.3957 18.1973C46.0894 17.97 45.8445 17.6898 45.6684 17.3566C45.4923 17.0233 45.4005 16.6219 45.3852 16.16H47.1306V16.1448ZM52.8415 10.8661H54.1505V8.53347H55.8806V10.8661H57.4424V12.146H55.8806V16.2964C55.8806 16.478 55.8884 16.6295 55.9036 16.7659C55.9189 16.8946 55.9572 17.0082 56.0108 17.099C56.0644 17.19 56.1486 17.2582 56.2634 17.3035C56.3782 17.349 56.5237 17.3717 56.7227 17.3717C56.8452 17.3717 56.9678 17.3717 57.0902 17.3641C57.2127 17.3566 57.3352 17.3414 57.4577 17.3112V18.6365C57.2663 18.6593 57.0749 18.6744 56.8989 18.6971C56.7151 18.7198 56.5314 18.7274 56.34 18.7274C55.8806 18.7274 55.5132 18.682 55.2377 18.5987C54.9621 18.5153 54.7401 18.3866 54.5869 18.22C54.4262 18.0534 54.3266 17.8489 54.2654 17.599C54.2118 17.349 54.1735 17.0612 54.1659 16.7431V12.1612H52.8568V10.8661H52.8415ZM58.6673 10.8661H60.3055V11.9188H60.3361C60.581 11.4644 60.9179 11.1463 61.3543 10.9494C61.7906 10.7525 62.2576 10.6541 62.7705 10.6541C63.3907 10.6541 63.9264 10.7601 64.3858 10.9797C64.8451 11.1918 65.2279 11.4871 65.5341 11.8658C65.8403 12.2444 66.0623 12.6838 66.2155 13.1836C66.3686 13.6835 66.4451 14.2212 66.4451 14.7892C66.4451 15.3118 66.3762 15.8191 66.2385 16.3039C66.1006 16.7962 65.894 17.2278 65.6183 17.6065C65.3427 17.9852 64.9906 18.2806 64.5619 18.5077C64.1332 18.735 63.6356 18.8485 63.0538 18.8485C62.8011 18.8485 62.5486 18.8258 62.2959 18.7804C62.0432 18.735 61.7983 18.6593 61.5686 18.5608C61.3389 18.4624 61.1169 18.3336 60.9255 18.1745C60.7265 18.0155 60.5658 17.8337 60.4279 17.6292H60.3974V21.5069H58.6673V10.8661ZM64.715 14.7589C64.715 14.4106 64.6691 14.0698 64.5772 13.7365C64.4853 13.4033 64.3475 13.1154 64.1637 12.858C63.9801 12.6005 63.7504 12.396 63.4825 12.2444C63.2069 12.093 62.8931 12.0097 62.5408 12.0097C61.8135 12.0097 61.2624 12.2597 60.895 12.7595C60.5275 13.2593 60.3437 13.9258 60.3437 14.7589C60.3437 15.1528 60.3896 15.5162 60.4892 15.8495C60.5888 16.1827 60.7265 16.4705 60.9255 16.7129C61.1169 16.9552 61.3466 17.1445 61.6145 17.2808C61.8825 17.4247 62.1963 17.4929 62.5486 17.4929C62.9466 17.4929 63.2757 17.4096 63.5514 17.2506C63.827 17.0915 64.049 16.8794 64.225 16.6295C64.4011 16.3721 64.5312 16.0842 64.6078 15.7586C64.6767 15.433 64.715 15.0997 64.715 14.7589ZM67.7695 7.90488H69.4996V9.52561H67.7695V7.90488ZM67.7695 10.8661H69.4996V18.6365H67.7695V10.8661ZM71.0461 7.90488H72.7761V18.6365H71.0461V7.90488ZM78.0813 18.8485C77.4536 18.8485 76.8948 18.7426 76.4048 18.5381C75.9148 18.3336 75.5014 18.0458 75.1569 17.6898C74.82 17.3263 74.5598 16.8946 74.3837 16.3948C74.2077 15.895 74.1158 15.342 74.1158 14.7437C74.1158 14.153 74.2077 13.6078 74.3837 13.1078C74.5598 12.608 74.82 12.1763 75.1569 11.8128C75.4938 11.4493 75.9148 11.1691 76.4048 10.9646C76.8948 10.7601 77.4536 10.6541 78.0813 10.6541C78.7091 10.6541 79.2679 10.7601 79.7578 10.9646C80.2478 11.1691 80.6611 11.4568 81.0056 11.8128C81.3425 12.1763 81.6028 12.608 81.7788 13.1078C81.9549 13.6078 82.0468 14.153 82.0468 14.7437C82.0468 15.342 81.9549 15.895 81.7788 16.3948C81.6028 16.8946 81.3425 17.3263 81.0056 17.6898C80.6689 18.0534 80.2478 18.3336 79.7578 18.5381C79.2679 18.7426 78.7091 18.8485 78.0813 18.8485ZM78.0813 17.4929C78.464 17.4929 78.8009 17.4096 79.0841 17.2506C79.3674 17.0915 79.5971 16.8794 79.7807 16.6219C79.9645 16.3645 80.0947 16.0691 80.1865 15.7434C80.2707 15.4178 80.3166 15.0846 80.3166 14.7437C80.3166 14.4106 80.2707 14.0849 80.1865 13.7516C80.1023 13.4184 79.9645 13.1306 79.7807 12.8731C79.5971 12.6156 79.3674 12.4111 79.0841 12.2521C78.8009 12.093 78.464 12.0097 78.0813 12.0097C77.6985 12.0097 77.3616 12.093 77.0784 12.2521C76.7952 12.4111 76.5655 12.6232 76.3818 12.8731C76.198 13.1306 76.0679 13.4184 75.9761 13.7516C75.8918 14.0849 75.8459 14.4106 75.8459 14.7437C75.8459 15.0846 75.8918 15.4178 75.9761 15.7434C76.0603 16.0691 76.198 16.3645 76.3818 16.6219C76.5655 16.8794 76.7952 17.0915 77.0784 17.2506C77.3616 17.4172 77.6985 17.4929 78.0813 17.4929ZM82.552 10.8661H83.8611V8.53347H85.5912V10.8661H87.1529V12.146H85.5912V16.2964C85.5912 16.478 85.5989 16.6295 85.6142 16.7659C85.6296 16.8946 85.6677 17.0082 85.7214 17.099C85.7749 17.19 85.8591 17.2582 85.974 17.3035C86.0888 17.349 86.2343 17.3717 86.4333 17.3717C86.5559 17.3717 86.6783 17.3717 86.8008 17.3641C86.9233 17.3566 87.0457 17.3414 87.1682 17.3112V18.6365C86.9768 18.6593 86.7854 18.6744 86.6094 18.6971C86.4257 18.7198 86.2419 18.7274 86.0505 18.7274C85.5912 18.7274 85.2238 18.682 84.9482 18.5987C84.6726 18.5153 84.4506 18.3866 84.2975 18.22C84.1367 18.0534 84.0372 17.8489 83.9759 17.599C83.9224 17.349 83.8841 17.0612 83.8764 16.7431V12.1612H82.5674V10.8661H82.552Z" fill="#FDFCFB"/>
<path d="M21.2017 7.90618H13.2707L10.821 0.438721L8.3636 7.90618L0.432617 7.8986L6.85549 12.5184L4.3981 19.9783L10.821 15.3661L17.2362 19.9783L14.7864 12.5184L21.2017 7.90618Z" fill="#00B67A"/>
<path d="M15.3379 14.2058L14.7867 12.517L10.8212 15.3646L15.3379 14.2058Z" fill="#005128"/>
</g>
<defs>
<clipPath id="clip0_12867_2948">
<rect width="87" height="24" fill="white" transform="translate(0.432617)"/>
</clipPath>
</defs>
</svg>
