<svg width="97" height="16" viewBox="0 0 97 16" fill="none" xmlns="http://www.w3.org/2000/svg">
<path d="M7.85028 0.734291C8.10807 0.105342 8.99861 0.105489 9.25653 0.734291L11.0895 5.20792L15.8405 5.59464C16.5112 5.64923 16.7857 6.48419 16.278 6.9257L12.6501 10.08L13.7595 14.8007C13.9143 15.4599 13.1944 15.9777 12.6188 15.621L8.5534 13.1005L4.48895 15.621C3.91341 15.9778 3.19344 15.46 3.34832 14.8007L4.4577 10.08L0.829768 6.9257C0.32213 6.48421 0.595921 5.64944 1.26629 5.59464L6.01824 5.20792L7.85028 0.734291Z" fill="#FDFCFB"/>
<path d="M27.8239 0.734291C28.0818 0.105442 28.9723 0.105389 29.2302 0.734291L31.0632 5.20792L35.8141 5.59464C36.4847 5.64932 36.7583 6.48422 36.2507 6.9257L32.6227 10.08L33.7321 14.8007C33.887 15.46 33.1671 15.9779 32.5915 15.621L28.527 13.1005L24.4616 15.621C23.8861 15.9775 23.1671 15.4599 23.322 14.8007L24.4304 10.08L20.8024 6.9257C20.2947 6.48415 20.5694 5.64927 21.2399 5.59464L25.9909 5.20792L27.8239 0.734291Z" fill="#FDFCFB"/>
<path d="M47.7966 0.734291C48.0543 0.105328 48.9449 0.105504 49.2028 0.734291L51.0358 5.20792L55.7868 5.59464C56.4575 5.64923 56.732 6.48419 56.2243 6.9257L52.5964 10.08L53.7057 14.8007C53.8606 15.4599 53.1407 15.9777 52.5651 15.621L48.4997 13.1005L44.4352 15.621C43.8597 15.9778 43.1397 15.46 43.2946 14.8007L44.404 10.08L40.7761 6.9257C40.2684 6.48422 40.5423 5.64949 41.2126 5.59464L45.9645 5.20792L47.7966 0.734291Z" fill="#FDFCFB"/>
<path d="M67.7702 0.734291C68.0281 0.105428 68.9186 0.105403 69.1764 0.734291L71.0095 5.20792L75.7604 5.59464C76.431 5.64928 76.7055 6.48419 76.1979 6.9257L72.569 10.08L73.6784 14.8007C73.8333 15.46 73.1134 15.9779 72.5378 15.621L68.4733 13.1005L64.4079 15.621C63.8324 15.9775 63.1134 15.4599 63.2682 14.8007L64.3766 10.08L60.7487 6.9257C60.241 6.48415 60.5157 5.64927 61.1862 5.59464L65.9372 5.20792L67.7702 0.734291Z" fill="#FDFCFB"/>
<path fill-rule="evenodd" clip-rule="evenodd" d="M88.4733 0.264565C88.751 0.274363 89.0243 0.430111 89.1491 0.734291L90.9821 5.20792L95.7331 5.59464C96.4035 5.6494 96.678 6.48421 96.1706 6.9257L92.5427 10.08L93.652 14.8007C93.8069 15.4598 93.0869 15.9775 92.5114 15.621L88.4596 13.1083L84.4079 15.621C84.2627 15.7109 84.1077 15.7449 83.9606 15.7353C83.5133 15.722 83.1228 15.3034 83.2409 14.8007L84.3503 10.08L80.7223 6.9257C80.215 6.48421 80.4887 5.64959 81.1589 5.59464L85.9108 5.20792L87.7429 0.734291C87.875 0.412018 88.1733 0.255518 88.4675 0.263588C88.4702 0.262795 88.4733 0.262611 88.4733 0.262611V0.264565ZM88.4733 11.4716C88.6028 11.4763 88.7319 11.513 88.8464 11.5839L91.7829 13.4042L90.9802 9.98917C90.9157 9.7147 91.0087 9.42615 91.2214 9.24113L93.86 6.94718L90.4079 6.66593C90.1228 6.64263 89.8747 6.46082 89.7663 6.19621L88.4733 3.04093V11.4716Z" fill="#FDFCFB"/>
</svg>
