<svg width="34" height="33" viewBox="0 0 34 33" fill="none" xmlns="http://www.w3.org/2000/svg">
<path d="M11.7229 27.2107C13.6548 27.2493 15.5901 27.3069 17.5221 27.2443C18.8037 27.2028 20.152 27.1357 21.3013 26.4994C21.6939 26.2821 22.1246 25.9243 22.2355 25.4684C22.4769 24.4759 20.4897 24.2268 19.8872 24.1385C18.5249 23.9389 17.0277 24.5028 15.9061 25.2411C15.5011 25.5077 15.1317 25.8822 15.1317 26.3816C15.1317 26.7198 15.0992 27.1063 15.3926 27.3453C15.8176 27.6916 16.5939 27.6186 17.1013 27.581C17.6295 27.5419 18.1127 27.3007 18.6331 27.2275C19.4921 27.1067 20.3769 27.2488 21.2339 27.0423C21.9799 26.8626 22.4427 26.2443 23.0814 25.885C23.1631 25.8391 23.3764 25.718 23.3886 25.6199C23.4297 25.2913 23.5326 24.8726 23.8431 24.673C24.532 24.2302 23.9874 23.0053 23.7674 22.4552C23.6542 22.1722 23.5401 21.9519 23.5401 21.6387C23.5401 21.4109 23.5731 21.1476 23.5233 20.9233C23.3986 20.3621 23.2806 19.8154 23.1235 19.2568C22.7425 17.902 22.6311 16.6521 22.6311 15.2419C22.6311 14.4785 22.7617 13.6979 22.5932 12.9231C22.4012 12.0396 22.5242 10.9187 22.0251 10.1077C21.7198 9.61148 21.4896 8.81403 21.0025 8.4243C20.4177 7.95645 20.1388 6.97093 19.4075 6.76198C19.2122 6.70618 18.9293 6.75777 18.7257 6.75777C18.3125 6.75777 18.2952 6.79276 18.145 6.45476C18.0427 6.22477 17.9069 6.01127 17.8419 5.773C17.7832 5.55764 17.6843 4.99711 17.5179 4.86398C17.4946 4.84536 17.3952 4.26027 17.3285 4.49364C17.2189 4.87721 17.2083 5.42243 16.7983 5.60466C16.245 5.85056 15.3441 4.95815 14.9423 4.63673C14.5939 4.358 14.2348 3.94122 14.088 3.51729C14.0055 3.27891 13.6717 2.51569 13.3516 2.51569C12.8195 2.51569 12.1669 2.79488 12.0428 3.36579C11.9073 3.98903 11.8387 4.62402 11.6303 5.22591C11.4952 5.6162 11.141 5.47802 10.776 5.35637C10.1181 5.13708 9.42835 4.89073 8.88644 4.44735C8.66885 4.26932 8.3968 3.95806 8.16259 3.82029C7.80488 3.60988 7.27405 3.2732 6.83273 3.2732C6.2895 3.2732 5.70752 3.33941 5.19145 3.18062C4.92418 3.09838 4.69547 2.96507 4.45077 2.83553C4.26741 2.73846 4.06217 2.72906 3.88263 2.62931C3.49038 2.41139 3.98529 3.90497 4.02993 4.06438C4.2182 4.73678 4.4318 5.10594 4.94736 5.6215C5.26586 5.94 5.52561 6.1392 5.69646 6.54735C5.81034 6.81939 6.01635 7.04408 6.1173 7.3217C6.15298 7.41981 6.15992 7.68573 6.23093 7.74254C6.43527 7.90601 6.45123 8.65268 6.49185 8.91669C6.5408 9.23486 6.85886 9.87877 6.70648 10.1666C6.40766 10.731 5.62382 9.20257 5.54917 9.06819C5.43276 8.85865 5.11369 8.69931 5.06099 8.46218C4.96679 8.03826 4.90528 8.19451 4.90528 8.59264C4.90528 8.93838 5.19602 11.6816 4.5644 11.6816C3.99954 11.6816 3.39429 10.7647 3.14616 10.3181C3.09216 10.2209 3.00519 10.1014 2.90207 10.0572C2.87104 10.0439 2.97865 10.5561 2.99466 10.6379C3.10323 11.1928 3.31358 11.7175 3.55017 12.2245C3.94658 13.0739 4.5493 13.8569 4.68223 14.7874C4.72618 15.095 4.98156 15.4696 5.13253 15.7301C5.35961 16.1219 5.48328 16.496 5.62913 16.9127C5.92564 17.7599 6.46253 18.4946 6.94215 19.2483C7.31155 19.8288 7.58262 20.5383 7.90167 21.1505C8.41089 22.1277 8.97091 23.0711 9.49666 24.0417C9.84611 24.6869 10.1835 25.3682 10.7045 25.8892C11.1252 26.31 11.6047 26.6691 11.967 27.1349C12.2763 27.5326 12.6901 27.6461 13.1033 27.8756C13.7943 28.2595 14.5992 28.1954 15.359 28.1954C16.1852 28.1954 16.997 28.2712 17.8167 28.2712C18.3526 28.2712 18.8884 28.2712 19.4243 28.2712C20.0792 28.2712 20.8435 28.3737 21.3854 27.9303C21.7622 27.622 22.312 27.536 22.669 27.2065C22.8581 27.0319 23.1745 26.5849 23.4223 26.5121C23.7209 26.4242 23.9971 26.2125 24.2514 26.0365C24.508 25.8589 24.2225 26.1864 24.163 26.2848C23.6882 27.0701 23.0706 27.628 22.2187 27.9976C20.1476 28.8964 17.7953 29.0187 15.5862 28.7425C14.9441 28.6623 14.3085 28.7913 13.6756 28.6331C13.335 28.548 13.038 28.3523 12.6824 28.267C12.4888 28.2205 12.3633 28.0873 12.4131 27.8882C12.4582 27.7078 12.6746 27.5945 12.8087 27.4926C13.2906 27.1264 13.7513 26.7342 14.2648 26.4111C15.2537 25.7887 16.3414 25.3342 17.3285 24.7025C18.4404 23.9909 19.472 23.1499 20.4007 22.2111C20.8761 21.7304 21.2742 21.1401 21.4612 20.4856C21.497 20.3602 21.7161 19.1183 21.4949 19.1053C21.0523 19.0792 20.7177 19.3772 20.3922 19.6439C19.5016 20.374 18.7113 21.191 17.7115 21.7818C16.1799 22.6869 14.4183 23.2716 12.6403 23.2716C12.2464 23.2716 12.0957 23.3287 12.3878 22.9686C12.6081 22.6971 12.7961 22.226 13.1201 22.0596C14.2731 21.4675 15.7993 22.1565 16.9666 21.5293C17.4388 21.2756 17.8502 20.8304 18.2375 20.4646C18.7039 20.0241 19.28 19.5915 19.5969 19.0211C19.9009 18.4738 20.0589 17.8313 20.2997 17.2536C20.5244 16.7141 20.8474 16.1408 20.8846 15.5449C20.9498 14.5026 20.6322 13.5936 20.2828 12.6327C19.9757 11.7881 19.4088 11.0188 18.9361 10.2592C18.7459 9.95344 18.4537 9.75378 18.1576 9.55636C17.6273 9.20284 17.1647 8.72876 16.6846 8.31067C15.8112 7.54997 14.6914 6.97513 13.6251 6.53893C12.6201 6.12778 11.8229 6.14908 10.8223 6.60627C9.55326 7.18609 8.23847 7.6284 6.93373 8.12129C6.71388 8.20435 6.59514 8.19212 6.53394 8.43693C6.36339 9.1191 6.48247 9.99433 6.50027 10.6884C6.54435 12.4077 7.27983 13.9696 7.97321 15.5071C8.39677 16.4463 8.68302 17.4147 9.07161 18.3646C9.38435 19.129 9.09765 19.9545 9.23995 20.755C9.28949 21.0336 9.7485 21.9754 10.0311 21.9754C10.6525 21.9754 11.3427 21.7281 11.9586 21.6387C12.447 21.5678 12.8922 21.5224 13.3347 21.2894C14.204 20.8319 15.0239 20.4109 15.965 20.1069C16.857 19.8187 18.2021 19.609 18.8099 18.8023C19.5183 17.862 19.0732 16.2922 18.8435 15.2588C18.6951 14.5909 18.6246 13.9071 18.3806 13.264C18.0188 12.3101 17.4687 11.4009 16.8025 10.6295C16.1333 9.85473 15.6232 9.00016 14.6309 8.64735C13.8183 8.35841 12.9926 8.1833 12.1353 8.07921C11.7574 8.03332 11.1901 7.91272 10.9149 8.23071C10.5148 8.6931 10.2413 9.22287 9.87121 9.70787C9.55464 10.1227 9.12689 10.5584 8.99586 11.0756C8.79656 11.8623 8.88239 12.8405 8.96219 13.6385C9.05553 14.5719 9.33504 15.4192 9.79967 16.2351C10.4047 17.2977 10.9321 18.399 11.4788 19.4924C11.6971 19.9291 11.8887 20.5093 12.371 20.7255C13.0909 21.0482 14.2536 21.1637 14.9718 20.7802C16.1683 20.1413 17.1308 18.5635 17.2359 17.2199C17.4075 15.0277 16.4221 12.7144 15.056 11.0377C14.5449 10.4105 13.8905 9.94027 13.057 9.86779C12.7216 9.83863 12.6146 10.0368 12.4804 10.3349C12.1161 11.1446 11.8873 12.112 11.8155 12.9946C11.7263 14.0919 11.9088 15.1815 12.2868 16.2099C12.4632 16.6897 12.6668 17.2445 13.0864 17.5734C13.4123 17.8288 13.8703 17.9022 14.2564 18.0111C14.6031 18.1089 14.8816 18.272 15.2496 18.272C15.5279 18.272 15.6992 17.7592 15.763 17.5481C15.9209 17.0259 15.9465 16.3689 15.8051 15.8437C15.3747 14.2453 13.8083 12.5103 12.0933 12.3045C11.4456 12.2267 11.511 13.4097 11.4999 13.8111C11.4735 14.7591 11.634 15.7547 12.1774 16.555C12.4714 16.988 13.714 17.8872 14.2606 17.3882C15.1186 16.6049 15.144 15.1049 14.7866 14.0804C14.6514 13.6927 14.3194 13.39 14.147 13.0451" stroke="black" stroke-width="4" stroke-linecap="round"/>
<g opacity="0.09">
<path d="M15.509 3.39664C14.7682 3.39664 14.1196 2.89116 13.4741 3.5366C12.8055 4.20527 12.5034 5.06824 12.236 5.93755C12.083 6.43471 11.9461 7.17571 12.602 7.17571C13.5692 7.17571 14.7912 6.87932 15.1968 5.91602C15.4459 5.32438 14.9354 4.7193 14.3678 5.09776C13.6665 5.56527 12.921 6.01853 12.3113 6.59431C11.9868 6.90083 11.606 7.06065 11.2454 7.32106C10.8306 7.62065 10.1266 8.31069 9.59816 8.3385C8.70005 8.38577 9.56904 7.25426 9.15673 6.84194C9.01026 6.69547 8.45744 6.78811 8.2631 6.78811C7.87827 6.78811 7.49523 6.69121 7.12723 6.69121C6.45495 6.69121 6.01288 7.59498 6.01288 8.18777C6.01288 8.97792 6.13196 9.53609 6.44893 10.2334C6.53822 10.4298 6.72158 10.8253 6.98188 10.8579C7.21521 10.887 7.89532 11.0517 7.66017 11.0517C7.22859 11.0517 7.0513 11.0097 6.83653 11.4393C6.6678 11.7767 6.58909 12.1658 6.32512 12.4298C6.10943 12.6455 4.87187 12.5139 4.85009 12.699C4.81477 12.9993 4.7179 13.251 4.75858 13.5764C4.83658 14.2004 5.69627 14.9769 6.10978 15.4121C6.60403 15.9324 6.34457 16.7832 6.63735 17.4524C6.83373 17.9013 6.92538 18.4242 7.10031 18.879C7.25087 19.2704 7.66356 19.6322 7.89704 19.9718C8.56528 20.9438 9.6982 21.4748 10.4164 22.3889C10.6481 22.6837 10.9403 22.8732 11.1485 23.1856C11.3367 23.4678 11.5622 23.6581 11.8268 23.8639C12.1116 24.0854 12.2836 24.5014 12.602 24.6606C13.3753 25.0472 13.8016 26.1005 14.4916 26.6525C14.5286 26.6821 14.8129 27.1117 14.8307 27.0939C14.9227 27.0019 14.2228 26.1414 14.1094 26.028C13.3685 25.2871 12.2863 24.671 11.2939 24.23C10.8332 24.0252 10.6787 23.622 10.3518 23.2825C9.93263 22.8472 9.49425 22.3334 9.01676 21.9582C8.59634 21.6279 8.03628 20.8407 7.7786 20.354C7.44944 19.7323 7.02245 19.1659 6.63735 18.5883C6.1954 17.9254 5.64817 17.1328 5.35612 16.4027C5.30032 16.2632 5.24573 16.1047 5.14079 15.9935C4.79451 15.6269 5.25802 16.2147 5.33459 16.3381C5.7966 17.0824 6.26783 17.7989 6.88498 18.416C7.61732 19.1484 8.14832 20.0945 8.82296 20.8816C9.55432 21.7348 10.357 22.5788 11.0301 23.4763C11.5483 24.1673 12.2528 25.0645 12.9896 25.5381C13.2404 25.6993 13.4465 25.8394 13.571 26.1195C13.9872 27.056 14.3821 27.8359 15.0245 28.6389C15.2227 28.8866 15.4299 28.8631 15.7028 28.9996C16.2414 29.2689 16.7825 29.5594 17.4039 29.5594C18.6201 29.5594 19.8595 29.4363 21.0107 28.9996C21.5918 28.7792 22.8833 28.2322 23.1425 27.643C23.2464 27.4069 23.537 27.0353 23.7024 26.8463C23.9767 26.5327 23.9617 26.1444 24.133 25.7804C24.924 24.0995 23.5445 23.0969 22.798 21.8075C22.4383 21.1861 21.849 20.5202 21.8075 19.7726C21.7705 19.1072 21.6293 18.4622 21.829 17.8131C22.0516 17.0896 22.0982 16.1771 22.0982 15.4121C22.0982 14.5965 22.1951 13.8481 22.1951 13.0327C22.1951 12.1375 22.03 11.4196 21.6621 10.6102C21.3709 9.96957 20.9732 9.23262 20.7416 8.53768C20.6221 8.1793 20.1702 7.9097 19.9879 7.5633C19.8463 7.29425 19.6874 7.00036 19.5249 6.74504C19.3451 6.46238 19.2226 6.14911 19.0189 5.89448C18.7678 5.58061 18.9204 5.8284 18.9005 6.20672C18.7957 8.19804 16.144 7.97173 14.8092 8.22007C12.46 8.65713 10.5544 9.86758 9.21594 11.8753C8.92032 12.3188 8.53912 12.8571 8.53226 13.3988C8.50932 15.2118 10.1306 16.7377 11.0463 18.1684C11.4265 18.7625 12.106 19.2683 12.8389 19.2881C13.4408 19.3044 13.3772 19.361 13.3772 19.961C13.3772 21.5162 14.813 23.029 15.7943 24.1331C16.2088 24.5993 16.8089 25.5454 17.4255 25.7588C18.0062 25.9598 18.5853 25.5256 19.1427 25.4843C19.6847 25.4441 19.9184 25.4457 20.1386 25.0052C20.2865 24.7095 20.293 24.3611 20.2517 24.0308C20.0992 22.811 18.9832 21.9871 18.1737 21.1776C17.8064 20.8103 17.0577 20.4655 17.2963 19.848C17.4992 19.3226 18.2085 18.5499 18.6636 18.2222C19.0128 17.9708 19.5523 17.6333 19.5788 17.1563C19.6084 16.6239 19.742 16.0603 19.8479 15.5306C19.9739 14.9007 19.7944 14.3529 19.6757 13.7595C19.5741 13.2516 19.5714 12.5856 19.3634 12.1176C18.9682 11.2283 17.7742 10.8229 16.8441 10.6856C16.1346 10.5809 15.1451 10.4142 14.4377 10.6264C13.8108 10.8145 12.8671 11.4023 12.3867 11.8484C11.6001 12.5788 11.7299 13.4876 11.7299 14.4754C11.7299 14.6303 11.7066 15.1661 11.8484 15.2937C12.0398 15.466 13.0112 15.394 13.2534 15.4068C14.4316 15.4688 15.509 15.5132 15.509 14.0556C15.509 13.7252 15.1806 13.5663 15.3798 13.2158C15.7958 12.4837 16.403 11.8688 16.9571 11.2455C17.7672 10.3341 18.7539 9.31848 18.8951 8.0478C18.9495 7.55779 19.0968 6.49824 18.5129 6.30361" stroke="black" stroke-width="5" stroke-linecap="round"/>
<path fill-rule="evenodd" clip-rule="evenodd" d="M14.4099 2.75503C13.9311 2.73176 13.3162 2.92734 12.8213 3.16278C12.7074 3.21693 12.5334 3.31739 12.3637 3.43565C12.1881 3.55803 12.0512 3.67614 11.9854 3.76003C11.8128 3.98006 11.569 4.14083 11.3872 4.26076C11.3584 4.27976 11.3312 4.29774 11.306 4.31476C11.0936 4.4584 10.9696 4.56575 10.9051 4.7037C10.861 4.79824 10.8111 4.88394 10.7705 4.95343L10.7681 4.9576C10.726 5.02975 10.6947 5.08336 10.669 5.13672C10.6226 5.23346 10.6083 5.30187 10.623 5.38666C10.6449 5.51303 10.6389 5.63337 10.6355 5.70148C10.635 5.71243 10.6345 5.72202 10.6342 5.73008C10.6318 5.79693 10.6361 5.81468 10.6429 5.83147C10.6589 5.87117 10.6783 5.92344 10.6887 5.97711C10.6931 6.00024 10.7031 6.05719 10.6925 6.12604C10.6815 6.19735 10.6302 6.36491 10.4416 6.43373C10.2926 6.48811 10.1698 6.4333 10.1425 6.42087C10.0994 6.40118 10.0675 6.37759 10.0517 6.36526C10.0176 6.33876 9.9883 6.30912 9.96955 6.28942C9.92926 6.2471 9.88624 6.1956 9.85637 6.15965C9.84448 6.14533 9.83531 6.13433 9.82838 6.12602C9.81101 6.10516 9.80772 6.10121 9.8107 6.10417C9.78269 6.07632 9.75336 6.04642 9.73167 6.0243C9.72101 6.01343 9.71219 6.00444 9.70629 5.9985C9.68214 5.97423 9.67336 5.96668 9.66831 5.96272C9.66163 5.95747 9.6456 5.94487 9.52796 5.89231C9.40977 5.8395 9.32531 5.76071 9.26748 5.69611C9.21916 5.64214 9.17585 5.5818 9.14723 5.54192C9.14321 5.53632 9.13947 5.53111 9.13606 5.52639C9.11702 5.50008 9.10411 5.48318 9.09511 5.47215C9.01875 5.45223 8.95883 5.41935 8.91761 5.39325C8.88151 5.37039 8.84076 5.33946 8.82046 5.32405C8.8163 5.32089 8.81299 5.31838 8.81077 5.31673C8.80503 5.31248 8.80022 5.30905 8.79627 5.30632C8.79197 5.30707 8.787 5.30799 8.7813 5.30909C8.7556 5.31407 8.7381 5.31794 8.71727 5.32255C8.69812 5.32679 8.67616 5.33165 8.64245 5.33856C8.59066 5.34918 8.51946 5.36252 8.44734 5.36622C8.3878 5.36928 8.25722 5.37114 8.13227 5.29788C8.13319 5.29841 8.13366 5.29867 8.13364 5.29873C8.13344 5.29919 8.09514 5.28378 7.98302 5.30027C7.86742 5.31726 7.72351 5.36069 7.56074 5.42372C7.40037 5.48582 7.23733 5.56068 7.084 5.633C7.05754 5.64548 7.03087 5.65813 7.00425 5.67075C6.88478 5.72743 6.76654 5.78352 6.67485 5.82047C6.51253 5.8859 6.36051 5.98318 6.17346 6.10474L6.16044 6.11321C5.98658 6.22623 5.77893 6.36121 5.54437 6.45575C5.52227 6.46466 5.46316 6.49834 5.38026 6.56809C5.30214 6.63381 5.22062 6.71666 5.15155 6.80445C5.08093 6.89422 5.0339 6.97572 5.01103 7.03811C5.00105 7.06533 4.99811 7.08179 4.99726 7.08963C5.08961 7.32087 5.15973 7.55065 5.22471 7.76361L5.22679 7.77042C5.29504 7.99407 5.35806 8.19975 5.43982 8.40261C5.56808 8.72085 5.67486 9.04102 5.77756 9.34894L5.77957 9.355C5.88405 9.66826 5.98454 9.96913 6.10404 10.2656C6.10395 10.2654 6.10401 10.2655 6.10425 10.2661C6.10507 10.2679 6.10811 10.2747 6.11518 10.2898C6.11999 10.3 6.12419 10.3088 6.12893 10.3188C6.13353 10.3284 6.13865 10.3392 6.14532 10.3533C6.16859 10.4026 6.19857 10.4673 6.22532 10.5336C6.25023 10.5954 6.28104 10.6795 6.29618 10.7636C6.30353 10.8044 6.3119 10.8695 6.30145 10.9428C6.29092 11.0166 6.25303 11.1465 6.12396 11.2366C6.05088 11.2876 5.9014 11.367 5.76241 11.4272C5.6902 11.4585 5.60667 11.4908 5.52552 11.5128C5.48501 11.5238 5.43679 11.5344 5.38576 11.5394C5.34204 11.5436 5.26827 11.5467 5.18691 11.5229C5.18136 11.523 5.16131 11.5236 5.12171 11.5329C5.05818 11.5478 4.97767 11.5773 4.88176 11.6198C4.78806 11.6614 4.69316 11.7092 4.59677 11.7578L4.58858 11.7619C4.49893 11.8071 4.39836 11.8577 4.31257 11.8923C4.24401 11.92 4.08161 11.997 3.93365 12.0877C3.85971 12.133 3.80037 12.1751 3.761 12.2094C3.75388 12.2156 3.74825 12.2209 3.7439 12.2251C3.70779 12.3348 3.65959 12.4198 3.61422 12.4875C3.59268 12.5196 3.57079 12.5492 3.55516 12.5703C3.55351 12.5725 3.55193 12.5747 3.55043 12.5767C3.53251 12.6009 3.52359 12.6135 3.51713 12.6237C3.51665 12.6245 3.51622 12.6252 3.51583 12.6258C3.51677 12.6376 3.52084 12.6654 3.53779 12.7154C3.6085 12.9243 3.58981 13.1638 3.57813 13.3134C3.57695 13.3285 3.57584 13.3428 3.5749 13.356C3.56139 13.5456 3.56469 13.6406 3.59024 13.7039C3.68799 13.9465 3.7153 14.2062 3.73656 14.4084L3.73726 14.415C3.76072 14.6381 3.77855 14.8018 3.83012 14.9448C3.92903 15.2192 4.03916 15.4829 4.15314 15.7559C4.21207 15.897 4.27204 16.0406 4.33202 16.1894C5.02536 17.9096 5.88685 19.6387 7.05143 21.0062C7.08202 21.0421 7.11227 21.0778 7.14227 21.1132C7.40046 21.418 7.63958 21.7002 7.91209 21.9018C8.07129 22.0196 8.26733 22.1941 8.4435 22.3804C8.61425 22.5611 8.79512 22.7828 8.89466 22.9961C8.9284 23.0684 8.96659 23.1295 9.01781 23.2101L9.02281 23.218C9.06606 23.286 9.11927 23.3696 9.16903 23.4694C9.17632 23.4746 9.18704 23.482 9.20358 23.4933C9.20603 23.495 9.20881 23.4969 9.21189 23.499C9.26631 23.5359 9.41276 23.6351 9.48457 23.8132C9.60393 24.1094 9.76151 24.3745 9.9349 24.6663C9.99521 24.7678 10.0574 24.8725 10.1206 24.9828C10.2252 25.1654 10.1619 25.3981 9.9794 25.5026C9.79687 25.6072 9.56415 25.5439 9.45961 25.3614C9.41028 25.2753 9.35705 25.1858 9.30204 25.0933C9.12774 24.8004 8.93566 24.4776 8.79366 24.1361C8.78808 24.1321 8.78126 24.1274 8.77225 24.1212C8.7701 24.1197 8.76769 24.1181 8.76503 24.1163C8.74031 24.0994 8.69517 24.0686 8.65389 24.0327C8.60473 23.99 8.54191 23.9247 8.49745 23.8302C8.46451 23.7602 8.42695 23.7005 8.37493 23.6187L8.37301 23.6157C8.32335 23.5375 8.26087 23.4392 8.2044 23.3183C8.1577 23.2182 8.04528 23.068 7.88995 22.9037C7.74004 22.7451 7.5772 22.6016 7.45899 22.5142C7.11005 22.256 6.81074 21.9015 6.56176 21.6067C6.5309 21.5701 6.50081 21.5345 6.4715 21.5001C5.22852 20.0406 4.33045 18.2232 3.6255 16.4742C3.57313 16.3442 3.51714 16.21 3.46006 16.0733C3.34164 15.7895 3.21857 15.4945 3.11353 15.2032C3.02918 14.9692 3.00332 14.7212 2.98298 14.5261C2.98187 14.5155 2.98078 14.505 2.9797 14.4947C2.95661 14.2753 2.93628 14.1191 2.88372 13.9887C2.78378 13.7407 2.80278 13.4744 2.81466 13.3077L2.81508 13.3018C2.83022 13.0893 2.83303 13.0092 2.81627 12.9597C2.76934 12.8211 2.7446 12.6852 2.75699 12.55C2.76999 12.4079 2.82088 12.2999 2.87244 12.218C2.92279 12.138 2.95296 12.0997 2.9732 12.0739C2.99937 12.0407 3.00895 12.0285 3.02411 11.9746C3.06992 11.8118 3.1909 11.6959 3.26013 11.6355C3.34443 11.5619 3.44352 11.4947 3.53566 11.4382C3.71983 11.3254 3.92011 11.2292 4.02781 11.1858C4.07914 11.1651 4.1501 11.1298 4.25069 11.0792L4.26033 11.0743C4.35233 11.0279 4.4618 10.9727 4.573 10.9234C4.68696 10.8729 4.81693 10.822 4.94731 10.7914C5.053 10.7665 5.19161 10.7468 5.33473 10.7752C5.36585 10.7661 5.40886 10.7502 5.45969 10.7282C5.46522 10.7258 5.47076 10.7234 5.47629 10.7209C5.46977 10.7068 5.46315 10.6926 5.45656 10.6787C5.45241 10.6699 5.44729 10.6591 5.4422 10.6484C5.43617 10.6357 5.43019 10.6231 5.42595 10.6141C5.41774 10.5967 5.40638 10.5723 5.39753 10.5504C5.26846 10.2302 5.16124 9.90868 5.05832 9.60008L5.05696 9.596C4.95246 9.28266 4.85225 8.9825 4.7333 8.68737C4.63812 8.45122 4.56647 8.21643 4.50019 7.99921L4.49822 7.99275C4.42996 7.76907 4.367 7.56353 4.28534 7.36093C4.19932 7.14749 4.23787 6.93406 4.29581 6.77597C4.35526 6.61378 4.45186 6.46185 4.55289 6.33344C4.65546 6.20307 4.77361 6.08301 4.88985 5.9852C5.00131 5.89143 5.13126 5.80097 5.25961 5.74924C5.42004 5.68457 5.57093 5.58784 5.75839 5.46602L5.76932 5.45891C5.94401 5.34537 6.15302 5.20951 6.39009 5.11396C6.45856 5.08636 6.54924 5.04339 6.66711 4.98754C6.69609 4.97381 6.72672 4.95929 6.75906 4.94404C6.91485 4.87056 7.09847 4.78587 7.28567 4.71338C7.47047 4.64182 7.67506 4.57561 7.87223 4.54662C8.03786 4.52228 8.24692 4.51665 8.44051 4.60149C8.45312 4.59945 8.46918 4.5965 8.48946 4.59234C8.50794 4.58855 8.52653 4.5845 8.54758 4.57991L8.55764 4.57771C8.58161 4.57249 8.60905 4.56656 8.63633 4.56127C8.68247 4.55233 8.76294 4.53774 8.84433 4.5417C9.05226 4.5518 9.19406 4.65265 9.26444 4.70482C9.28315 4.7187 9.29474 4.72749 9.30277 4.73358C9.3056 4.73574 9.30799 4.73755 9.3101 4.73913C9.43719 4.76858 9.53215 4.83539 9.59812 4.89676C9.66683 4.96067 9.72042 5.03455 9.75326 5.07995C9.75796 5.08645 9.76238 5.09257 9.76656 5.09836C9.79823 5.14222 9.81583 5.1666 9.83499 5.188C9.84073 5.1944 9.8448 5.1984 9.84726 5.20066C9.85226 5.2029 9.85723 5.20513 9.86215 5.20736C9.87905 5.05485 9.92697 4.92226 9.98244 4.80682C10.0218 4.72483 10.0675 4.64676 10.105 4.58264C10.1076 4.57814 10.1102 4.57371 10.1127 4.56935C10.1543 4.49812 10.1875 4.44025 10.215 4.38132C10.3755 4.03767 10.6614 3.83111 10.8792 3.6838C10.9152 3.65943 10.9493 3.63664 10.9816 3.61507C11.1696 3.48931 11.2957 3.40497 11.386 3.28987C11.5237 3.11446 11.7366 2.94422 11.9282 2.81073C12.1256 2.67311 12.3358 2.55016 12.494 2.4749C13.0279 2.22096 13.78 1.96178 14.4469 1.99418C14.6446 2.00379 14.8118 2.08775 14.9371 2.16901C15.0631 2.25078 15.1821 2.35392 15.2797 2.43919C15.2867 2.44523 15.2935 2.45119 15.3002 2.45708C15.3965 2.54123 15.4751 2.6099 15.5525 2.66512C15.6357 2.72455 15.6861 2.74463 15.7128 2.74981C15.9026 2.78664 16.0365 2.90168 16.1235 3.005C16.2108 3.10868 16.2752 3.22901 16.3233 3.3345C16.3724 3.44223 16.4126 3.55308 16.445 3.64558C16.4546 3.67329 16.4633 3.69844 16.4713 3.72143C16.4922 3.78218 16.508 3.82781 16.5232 3.86562C16.5273 3.87574 16.5371 3.89571 16.5613 3.94501C16.5818 3.98641 16.6091 4.04218 16.6336 4.10031C16.6571 4.15615 16.6852 4.23085 16.7005 4.31056C16.7133 4.37767 16.7328 4.5231 16.6546 4.66768C16.6547 4.66758 16.6547 4.66751 16.6546 4.66768C16.6541 4.66884 16.6505 4.67656 16.6461 4.69122C16.6414 4.70713 16.6374 4.72571 16.635 4.74438C16.6328 4.7617 16.6325 4.77504 16.6329 4.78331C16.6845 4.92274 16.6785 5.06251 16.6667 5.15593C16.6548 5.25034 16.6313 5.33883 16.6085 5.40848C16.6104 5.4229 16.6148 5.44444 16.6245 5.48472C16.6255 5.48873 16.6265 5.49311 16.6277 5.49782C16.6371 5.53624 16.6517 5.59612 16.6599 5.65528C16.666 5.69899 16.6709 5.75551 16.6657 5.81902C16.8749 5.72373 17.0822 5.60616 17.3075 5.4779L17.3162 5.47294C17.5803 5.3226 17.8702 5.15759 18.1811 5.03226C18.4951 4.9057 18.7506 4.8302 19.0247 4.90523C19.1447 4.9381 19.25 4.99551 19.3335 5.04171C19.3481 5.04984 19.3628 5.05803 19.3777 5.06631C19.4547 5.10925 19.536 5.15459 19.6427 5.20597C19.899 5.32933 20.0993 5.57856 20.236 5.75822C20.2858 5.8236 20.3296 5.88303 20.3694 5.9369C20.4619 6.06246 20.5322 6.15776 20.6037 6.22772C20.7263 6.34769 20.8902 6.51186 21.0423 6.68561C21.1887 6.85284 21.3479 7.05521 21.4396 7.25002C21.7626 7.93632 22.0847 8.63389 22.3792 9.36464C22.5514 9.79182 22.6393 10.2425 22.7189 10.6505L22.721 10.661C22.8036 11.0847 22.8782 11.4628 23.017 11.8072C23.4414 12.86 23.4257 13.7835 23.4087 14.7894C23.408 14.829 23.4073 14.8687 23.4067 14.9086C23.4018 15.2053 23.351 15.4878 23.3014 15.7413C23.2946 15.7765 23.2877 15.8111 23.281 15.8451C23.2376 16.0648 23.1988 16.2605 23.1811 16.4587C23.1669 16.6184 23.1315 16.7906 23.1016 16.9362C23.0933 16.9768 23.0854 17.0153 23.0785 17.0509C23.0427 17.2349 23.0266 17.3692 23.0389 17.4763C23.0692 17.7402 23.0709 18.0365 23.0725 18.3139C23.0731 18.4196 23.0737 18.5225 23.0758 18.6198C23.0842 18.9964 23.114 19.3297 23.2174 19.6153C23.3203 19.8992 23.3683 20.1815 23.4105 20.429C23.4135 20.4468 23.4165 20.4644 23.4195 20.4818C23.4656 20.7508 23.5102 20.9859 23.6049 21.2209C23.6835 21.416 23.5891 21.6379 23.394 21.7165C23.1989 21.7952 22.977 21.7008 22.8984 21.5057C22.77 21.1871 22.7148 20.8792 22.6687 20.6105C22.6665 20.598 22.6644 20.5856 22.6623 20.5733C22.6176 20.3118 22.58 20.0923 22.5012 19.8746C22.3533 19.4663 22.323 19.0285 22.3143 18.6367C22.3115 18.5086 22.3108 18.3879 22.3101 18.2727C22.3087 18.0139 22.3074 17.7836 22.2821 17.5631C22.2554 17.3298 22.294 17.0949 22.3307 16.9057C22.3413 16.8509 22.3517 16.8 22.3615 16.752C22.3893 16.6162 22.4124 16.5035 22.4224 16.3909C22.444 16.149 22.4915 15.9096 22.5345 15.6929C22.5411 15.6598 22.5476 15.6271 22.5539 15.5951C22.6029 15.3444 22.6414 15.1196 22.645 14.8962C22.6454 14.8709 22.6459 14.8458 22.6463 14.8209C22.6634 13.7839 22.6763 12.9995 22.3105 12.0919C22.1428 11.6757 22.0563 11.2325 21.9776 10.8286L21.9733 10.8068C21.8908 10.3841 21.8146 10.0016 21.6727 9.64939C21.3868 8.93993 21.0724 8.25879 20.7504 7.57435C20.7065 7.48122 20.6075 7.34534 20.4692 7.18738C20.3366 7.03595 20.1894 6.88799 20.071 6.77225C19.9517 6.65556 19.8251 6.48356 19.7192 6.33961C19.6873 6.29633 19.6573 6.25559 19.63 6.21965C19.4825 6.026 19.3816 5.92568 19.3123 5.89231C19.1833 5.83022 19.0809 5.77307 19.0035 5.72985C18.9897 5.72216 18.9767 5.71491 18.9645 5.70815C18.8764 5.65933 18.8445 5.64568 18.8236 5.63994C18.8232 5.63985 18.8229 5.63973 18.8224 5.63959C18.8118 5.63617 18.761 5.61982 18.4659 5.73877C18.207 5.84311 17.9584 5.9839 17.6843 6.1399L17.6731 6.14632C17.4099 6.29614 17.1217 6.46018 16.8136 6.58437C16.6911 6.63375 16.5612 6.67589 16.4368 6.68648C16.312 6.6971 16.1171 6.68002 15.974 6.51593C15.8456 6.36876 15.8386 6.18972 15.8441 6.08655C15.8497 5.98031 15.8741 5.86608 15.9046 5.75423C15.9016 5.73639 15.8963 5.71435 15.8857 5.67031L15.884 5.66343C15.8733 5.61889 15.8564 5.54846 15.8493 5.47283C15.842 5.39466 15.8431 5.2921 15.8808 5.18265C15.8947 5.14234 15.9062 5.0979 15.9109 5.06064C15.9125 5.04823 15.913 5.03923 15.913 5.03346C15.8624 4.89491 15.8664 4.74961 15.8794 4.64787C15.8892 4.57093 15.9082 4.48829 15.9374 4.41016C15.9356 4.40563 15.9336 4.40084 15.9315 4.39578C15.9168 4.36097 15.8987 4.32367 15.8781 4.28176C15.8763 4.27819 15.8745 4.2744 15.8725 4.27043C15.8558 4.2366 15.8325 4.18957 15.8167 4.15038C15.7936 4.09297 15.7685 4.02036 15.7455 3.95353C15.7387 3.93399 15.7322 3.91494 15.7259 3.89691C15.6951 3.8088 15.6641 3.72502 15.6301 3.65035C15.5951 3.57344 15.5644 3.52362 15.5409 3.49564C15.5394 3.49393 15.5381 3.4924 15.5369 3.49104C15.3675 3.4518 15.2231 3.36588 15.11 3.28516C15.0003 3.20688 14.8937 3.11355 14.8043 3.03533C14.7956 3.02771 14.787 3.02024 14.7787 3.01294C14.6763 2.92355 14.5962 2.85588 14.5225 2.80805C14.448 2.7597 14.4147 2.75526 14.4099 2.75503ZM15.9128 5.02638C15.9128 5.02638 15.9128 5.02657 15.9128 5.02697L15.9128 5.02638ZM16.6075 5.39804C16.6075 5.39805 16.6075 5.39822 16.6075 5.39852L16.6075 5.39804ZM3.73174 12.238C3.73183 12.2379 3.73195 12.2377 3.73209 12.2376C3.73129 12.2387 3.7311 12.2388 3.73174 12.238ZM4.99694 7.0952C4.99694 7.0952 4.99693 7.09511 4.99693 7.09494L4.99694 7.0952Z" fill="white"/>
<path fill-rule="evenodd" clip-rule="evenodd" d="M13.3728 23.0208C13.2855 22.8437 13.075 22.7612 12.8889 22.8362C12.6938 22.9149 12.5994 23.1368 12.678 23.3319C12.7831 23.5926 13.0375 23.7211 13.2116 23.7878C13.4086 23.8632 13.6398 23.9099 13.857 23.9396C14.2922 23.9993 14.7512 24.0015 14.9544 23.9865C15.7071 23.9311 16.5467 23.7653 17.259 23.4782C17.4225 23.4123 17.6084 23.3501 17.8157 23.2811L17.8274 23.2772C18.0273 23.2106 18.2445 23.1383 18.4568 23.0555C18.8813 22.89 19.3438 22.662 19.6598 22.2869C19.7226 22.2123 19.7913 22.1193 19.8518 22.0373C19.8753 22.0055 19.8975 21.9754 19.9177 21.9487C20.0016 21.8375 20.0662 21.762 20.1189 21.7182C20.29 21.5762 20.3788 21.3846 20.4324 21.2661C20.4412 21.2466 20.4494 21.2285 20.4569 21.2118C20.506 21.1025 20.5302 21.0487 20.5646 21.0059C20.6965 20.842 20.6705 20.6022 20.5065 20.4704C20.3426 20.3386 20.1029 20.3646 19.971 20.5285C19.8692 20.6552 19.8003 20.8118 19.7563 20.9117C19.7498 20.9265 19.7438 20.9401 19.7384 20.9521C19.6833 21.0738 19.6543 21.1139 19.6324 21.1321C19.5053 21.2375 19.395 21.3768 19.3098 21.4897C19.2769 21.5331 19.2478 21.5727 19.2208 21.6092C19.168 21.6809 19.1237 21.7409 19.0772 21.7962C18.8899 22.0186 18.5793 22.1901 18.1801 22.3458C17.9858 22.4216 17.7841 22.4887 17.5788 22.5571L17.5751 22.5583C17.3726 22.6258 17.1635 22.6954 16.9742 22.7717C16.3505 23.0231 15.5911 23.1758 14.8984 23.2269C14.7486 23.2379 14.343 23.2374 13.9605 23.185C13.7687 23.1587 13.6027 23.1219 13.484 23.0764C13.413 23.0492 13.3826 23.0282 13.3728 23.0208Z" fill="white"/>
<path fill-rule="evenodd" clip-rule="evenodd" d="M13.6722 12.6698C13.632 12.6893 13.5754 12.7162 13.5107 12.7423C13.4355 12.7726 13.3626 12.8006 13.2919 12.8279C13.0987 12.9022 12.9215 12.9705 12.7564 13.0617C12.5607 13.1699 12.4456 13.2789 12.3898 13.4003C12.3901 13.4027 12.3904 13.4053 12.3908 13.4081C12.392 13.4177 12.3936 13.4302 12.3956 13.4475C12.3997 13.4818 12.4067 13.5441 12.4024 13.6108C12.3981 13.6769 12.3807 13.789 12.3003 13.8935C12.1898 14.0372 12.1367 14.1085 12.0888 14.2259C12.0371 14.3526 11.9798 14.4749 11.9273 14.5868L11.9259 14.5897C11.8716 14.7055 11.8225 14.8104 11.7796 14.9157C11.698 15.1157 11.6499 15.3443 11.5985 15.6123C11.5945 15.6332 11.5905 15.6544 11.5864 15.6758C11.5432 15.9033 11.4945 16.1595 11.4142 16.4024C11.4149 16.4084 11.4158 16.4159 11.417 16.4261C11.4177 16.4317 11.4185 16.438 11.4194 16.4453C11.4232 16.4764 11.43 16.5331 11.4283 16.5939C11.4266 16.6555 11.4157 16.749 11.3638 16.8445C11.3523 16.8656 11.342 16.8844 11.3327 16.9014C11.2738 17.0091 11.2569 17.0399 11.2517 17.0821C11.2313 17.2469 11.163 17.4026 11.1108 17.5128C11.0848 17.5677 11.0628 17.6117 11.0436 17.6501C11.0153 17.7067 10.993 17.7514 10.9726 17.8015C10.8953 17.9909 10.8443 18.1881 10.7965 18.4022C10.7852 18.4529 10.7738 18.5059 10.7622 18.5602C10.7315 18.7027 10.6988 18.8548 10.6595 19.0026C10.6671 19.0196 10.678 19.0413 10.6926 19.0669C10.7151 19.1061 10.741 19.145 10.7646 19.1771C10.7762 19.1929 10.7863 19.2056 10.7938 19.2146C10.7981 19.2197 10.8007 19.2226 10.8016 19.2236C10.8767 19.2954 10.9539 19.3712 11.0334 19.4493C11.2189 19.6315 11.4168 19.8258 11.63 20.01C11.8901 20.2347 12.1321 20.4067 12.3415 20.4968C12.3435 20.4958 12.3454 20.4948 12.3474 20.4939C12.3558 20.4897 12.3722 20.4817 12.3908 20.4742C12.4842 20.4365 12.5755 20.383 12.6898 20.3139C12.696 20.3102 12.7024 20.3063 12.7089 20.3024C12.8101 20.2411 12.9383 20.1635 13.0734 20.109C13.6627 19.8715 14.1193 19.5245 14.6452 19.1079C14.645 19.0945 14.6455 19.0809 14.6468 19.0673C14.6663 18.8578 14.8519 18.7038 15.0613 18.7233C15.0903 18.726 15.1194 18.7291 15.1486 18.7325C15.2717 18.6862 15.4117 18.7069 15.5163 18.7882C15.5448 18.7931 15.5728 18.7981 15.6001 18.8029C15.6783 18.8166 15.7512 18.8294 15.8154 18.8391C16.0346 18.8722 16.2345 18.886 16.4574 18.8505C16.8419 18.7892 17.2071 18.6352 17.6172 18.4622C17.7347 18.4126 17.8559 18.3615 17.9823 18.3105C18.3808 18.1499 18.8677 17.8668 19.1946 17.5146C19.5169 17.1674 19.6342 16.8179 19.4858 16.4498C19.387 16.2046 19.2915 16.054 19.182 15.9367C19.0697 15.8164 18.925 15.712 18.6971 15.5792C18.6012 15.5234 18.492 15.4789 18.3526 15.422C18.3218 15.4095 18.2896 15.3964 18.2558 15.3824C18.0864 15.3125 17.8756 15.2207 17.6965 15.079C17.6102 15.0108 17.5101 14.9668 17.366 14.9149C17.3474 14.9081 17.3274 14.9011 17.3063 14.8937C17.1796 14.8491 17.013 14.7905 16.8579 14.7001C16.6537 14.5812 16.4444 14.4661 16.2329 14.3499C15.6239 14.0152 14.9968 13.6706 14.4231 13.194C14.3391 13.1242 14.2465 13.065 14.1312 12.9929C14.1263 12.9898 14.1212 12.9867 14.1161 12.9835C14.01 12.9171 13.8828 12.8376 13.7619 12.7396C13.7236 12.7085 13.6944 12.686 13.6722 12.6698ZM15.3384 19.5305C15.3656 19.5353 15.3931 19.5402 15.4211 19.5452C15.5071 19.5605 15.598 19.5767 15.7018 19.5924C15.9601 19.6313 16.2464 19.6555 16.5772 19.6028C17.0627 19.5254 17.5405 19.3229 17.9617 19.1445C18.0673 19.0997 18.1694 19.0564 18.2671 19.0171C18.7307 18.8302 19.3257 18.493 19.7529 18.0328C20.1848 17.5676 20.4936 16.9126 20.1923 16.1651C20.069 15.8591 19.929 15.6206 19.7388 15.4169C19.5514 15.2162 19.332 15.0675 19.0806 14.921C18.9335 14.8354 18.7634 14.7664 18.6233 14.7096C18.5964 14.6987 18.5707 14.6883 18.5465 14.6783C18.3775 14.6085 18.2563 14.5506 18.169 14.4815C17.9806 14.3326 17.7819 14.2551 17.6244 14.1983C17.5973 14.1885 17.5718 14.1794 17.5476 14.1709C17.4195 14.1253 17.3293 14.0932 17.2414 14.042C17.0008 13.9018 16.7697 13.7747 16.5462 13.6519C15.9581 13.3285 15.4231 13.0344 14.9099 12.6081C14.7811 12.501 14.6466 12.4168 14.5353 12.3472C14.4178 12.2736 14.3256 12.2159 14.2417 12.1479C14.1539 12.0767 14.0681 12.0116 13.9843 11.9659C13.8927 11.9159 13.7799 11.8756 13.6459 11.8851C13.5296 11.8934 13.4348 11.9386 13.3879 11.961L13.3862 11.9618C13.3714 11.9689 13.3579 11.9755 13.3449 11.9818C13.3065 12.0005 13.2732 12.0167 13.226 12.0358C13.1751 12.0563 13.1182 12.0781 13.0573 12.1015C12.8528 12.1801 12.6035 12.2759 12.3879 12.3951C12.0995 12.5545 11.7915 12.7954 11.6543 13.1898C11.621 13.2857 11.624 13.3753 11.6267 13.4193C11.6285 13.4494 11.6325 13.4838 11.6356 13.5087C11.5466 13.6267 11.4576 13.7562 11.3834 13.9383C11.3399 14.045 11.2904 14.1508 11.2362 14.2664L11.2339 14.2713C11.1818 14.3825 11.125 14.5035 11.0742 14.628C10.9603 14.9075 10.9006 15.2067 10.8504 15.4691C10.847 15.4869 10.8436 15.5046 10.8403 15.522C10.792 15.7749 10.7503 15.9934 10.6809 16.1927C10.6495 16.2832 10.6492 16.3667 10.6514 16.416C10.6532 16.4581 10.6588 16.5026 10.662 16.5275C10.6624 16.5308 10.6628 16.5338 10.6631 16.5364C10.6072 16.6353 10.519 16.7999 10.4957 16.9885C10.4915 17.0224 10.4716 17.0828 10.4224 17.1867C10.4113 17.2101 10.3968 17.2395 10.3806 17.272C10.3432 17.3475 10.2974 17.4398 10.2672 17.5139C10.1654 17.7635 10.1035 18.0105 10.0531 18.2363C10.0388 18.3005 10.0256 18.3617 10.0129 18.4208C9.97906 18.5781 9.9485 18.7203 9.90789 18.8631C9.86564 19.0118 9.90394 19.1496 9.92678 19.2181C9.95449 19.3012 9.99438 19.3804 10.0318 19.4457C10.1024 19.5689 10.1988 19.7012 10.2731 19.7722C10.3351 19.8315 10.4047 19.8997 10.4798 19.9735C10.6714 20.1616 10.8995 20.3855 11.1319 20.5864C11.4526 20.8635 11.8385 21.1493 12.2363 21.2681C12.3192 21.2929 12.3899 21.2844 12.4193 21.2799C12.4552 21.2745 12.4853 21.2655 12.505 21.2589C12.5445 21.2456 12.5808 21.2289 12.6044 21.2175C12.6269 21.2067 12.6491 21.1952 12.6641 21.1874L12.6688 21.185C12.6767 21.1809 12.6814 21.1785 12.6837 21.1774C12.8386 21.114 12.9762 21.0308 13.0837 20.9659C13.2035 20.8935 13.283 20.8458 13.3581 20.8156C14.1007 20.5163 14.6736 20.06 15.2452 19.6047C15.2763 19.58 15.3073 19.5552 15.3384 19.5305ZM11.4124 16.3825C11.4122 16.3797 11.4124 16.38 11.4124 16.3828C11.4124 16.3827 11.4124 16.3826 11.4124 16.3825ZM12.3869 13.3687C12.387 13.3687 12.3871 13.3701 12.387 13.3727C12.3869 13.3699 12.3869 13.3686 12.3869 13.3687Z" fill="#FF8CE6"/>
<path fill-rule="evenodd" clip-rule="evenodd" d="M6.15222 13.1005C6.19367 13.0874 6.2146 13.0808 6.22989 13.0746C6.49482 12.9678 6.76181 12.9917 6.97652 13.0433C7.18971 13.0946 7.39252 13.184 7.54156 13.2498L7.54252 13.2502C7.92991 13.421 8.17631 13.7017 8.35144 13.9992C8.48873 14.2324 8.593 14.4975 8.68423 14.7295C8.70381 14.7793 8.72279 14.8276 8.74137 14.8736C8.79852 15.0154 8.76426 15.1714 8.66639 15.2762C8.66842 15.2907 8.67039 15.305 8.67232 15.3189C8.67312 15.3247 8.67391 15.3304 8.67469 15.3361C8.70303 15.5405 8.72538 15.6873 8.776 15.8129C8.86228 16.027 8.80621 16.2352 8.74003 16.3739C8.6708 16.5191 8.56404 16.6481 8.44946 16.7493C8.33503 16.8503 8.19225 16.9415 8.03574 16.9915C7.88254 17.0404 7.66783 17.063 7.46643 16.9462C7.38502 16.899 7.30071 16.8795 7.14916 16.8492C7.1451 16.8483 7.141 16.8475 7.13684 16.8467C6.99647 16.8187 6.79699 16.7789 6.59518 16.6619C6.17946 16.4207 5.878 15.951 5.72098 15.5615C5.70347 15.518 5.68064 15.465 5.65527 15.4062C5.59545 15.2674 5.52156 15.096 5.47035 14.9401C5.39549 14.7123 5.3295 14.4146 5.41211 14.1179C5.41229 14.1165 5.41252 14.1147 5.41278 14.1123C5.414 14.1011 5.41507 14.0857 5.41619 14.0628C5.41648 14.0569 5.41684 14.0489 5.41724 14.0399C5.41801 14.0227 5.41893 14.002 5.41983 13.9858C5.42137 13.9581 5.42382 13.9227 5.42884 13.8864C5.44345 13.7806 5.49007 13.7032 5.52124 13.6591C5.5334 13.642 5.54533 13.627 5.55526 13.615C5.57416 13.4959 5.63472 13.4001 5.70109 13.333C5.7805 13.2527 5.87442 13.2051 5.93787 13.1773C6.00562 13.1475 6.07524 13.1249 6.12518 13.1091C6.13507 13.1059 6.14404 13.1031 6.15222 13.1005ZM5.59724 13.5664C5.59724 13.5664 5.5971 13.5666 5.59677 13.567C5.59707 13.5666 5.59723 13.5664 5.59724 13.5664ZM7.82991 14.653C7.78813 14.5585 7.7446 14.4699 7.69499 14.3856C7.57428 14.1805 7.43502 14.0353 7.23517 13.9472C7.07825 13.878 6.93539 13.8169 6.79836 13.7839C6.6624 13.7512 6.57413 13.7571 6.51465 13.7811C6.46929 13.7994 6.41382 13.8168 6.37428 13.8292C6.36763 13.8313 6.36142 13.8333 6.35579 13.8351C6.33144 13.8428 6.31048 13.8497 6.29222 13.8561C6.28161 13.8916 6.26782 13.9231 6.25338 13.9501C6.22849 13.9967 6.19885 14.0347 6.17898 14.0583C6.17845 14.0701 6.17782 14.0837 6.17703 14.1C6.17572 14.1269 6.17379 14.1605 6.17003 14.1949C6.16641 14.2282 6.15998 14.2731 6.14642 14.3205C6.12503 14.3952 6.13236 14.5147 6.19404 14.7024C6.235 14.8271 6.28303 14.9379 6.3352 15.0582C6.36481 15.1266 6.39576 15.198 6.42749 15.2767C6.55262 15.5871 6.76767 15.8813 6.97739 16.003C7.0619 16.052 7.1486 16.0722 7.29848 16.1022C7.30356 16.1032 7.30873 16.1042 7.31399 16.1053C7.44313 16.131 7.62346 16.1669 7.80777 16.2646C7.84171 16.253 7.89256 16.2248 7.94538 16.1782C7.99828 16.1315 8.03392 16.0832 8.05092 16.0492C7.9758 15.8429 7.94615 15.6285 7.92263 15.4585C7.9218 15.4525 7.92098 15.4465 7.92017 15.4407C7.89186 15.2365 7.86941 15.0892 7.81858 14.9631C7.7765 14.8588 7.78398 14.7467 7.82991 14.653ZM8.05986 16.0272C8.05994 16.0271 8.05975 16.0282 8.05904 16.0303C8.05943 16.0283 8.05978 16.0272 8.05986 16.0272ZM7.7874 16.2699C7.78742 16.2699 7.78813 16.2698 7.78946 16.2697C7.78805 16.2699 7.78738 16.27 7.7874 16.2699Z" fill="#FF8CE6"/>
<path fill-rule="evenodd" clip-rule="evenodd" d="M7.47333 7.66232C7.52322 7.47406 7.70944 7.35158 7.90519 7.38483C7.98771 7.39885 8.08323 7.40861 8.20112 7.42065C8.31378 7.43216 8.44386 7.44552 8.57358 7.46691C8.82313 7.50807 9.1393 7.58817 9.38165 7.80889C9.40116 7.82667 9.42724 7.84685 9.46645 7.87513C9.47483 7.88117 9.48451 7.88807 9.49506 7.89559C9.52651 7.918 9.56557 7.94584 9.60026 7.97247C9.69347 8.04402 9.83446 8.1637 9.91033 8.35193L10.1641 8.98163C10.3647 9.47936 10.4782 9.86024 10.4403 10.4355C10.4193 10.7537 10.3355 11.0204 10.1142 11.232C9.92341 11.4143 9.65694 11.523 9.39972 11.6267C9.05037 11.7675 8.78227 11.8048 8.50517 11.7368C8.38228 11.7066 8.27046 11.6586 8.17408 11.6159C8.15688 11.6083 8.13988 11.6007 8.12292 11.5931C8.03929 11.5558 7.95661 11.5189 7.85607 11.4808C7.73436 11.4347 7.65615 11.3447 7.61994 11.2998C7.57459 11.2435 7.53491 11.1795 7.50129 11.1186C7.43336 10.9957 7.36926 10.8471 7.31609 10.7035C7.26265 10.5591 7.21577 10.4076 7.1855 10.2756C7.17049 10.2101 7.15784 10.142 7.15174 10.0781C7.14726 10.0313 7.13965 9.93178 7.17216 9.83112C7.17211 9.82998 7.17498 9.81392 7.17561 9.77651C7.17641 9.72914 7.17348 9.66925 7.16741 9.60104C7.15645 9.4777 7.13764 9.35135 7.12355 9.25664C7.122 9.24625 7.12051 9.23624 7.11909 9.22666C7.09749 9.08054 7.1125 8.93844 7.12928 8.8296C7.13794 8.77344 7.14835 8.71883 7.15733 8.67205C7.15784 8.6694 7.15834 8.66678 7.15884 8.66419C7.1676 8.61859 7.17472 8.58155 7.18026 8.54695C7.18585 8.51207 7.19143 8.47532 7.19713 8.43775C7.21364 8.32894 7.23119 8.21327 7.25312 8.11632C7.28247 7.98655 7.33453 7.81122 7.46439 7.67174C7.46735 7.66856 7.47033 7.66542 7.47333 7.66232ZM8.70329 8.2803C8.60774 8.33863 8.48748 8.35448 8.37414 8.31314C8.18674 8.2448 8.0754 8.22237 8.01377 8.21858C8.00879 8.23381 8.0027 8.25517 7.99609 8.28437C7.98061 8.35282 7.96935 8.42701 7.95472 8.52343C7.94818 8.56652 7.94097 8.61405 7.93241 8.66748C7.92491 8.71428 7.91563 8.76254 7.90747 8.80498C7.90677 8.80861 7.90608 8.81219 7.9054 8.81573C7.8963 8.86312 7.88839 8.90504 7.88213 8.94565C7.86907 9.03035 7.86784 9.08278 7.87265 9.11526C7.87397 9.12419 7.87542 9.1339 7.87697 9.14432C7.89084 9.23729 7.91306 9.38616 7.92616 9.53359C7.93347 9.61578 7.93868 9.70492 7.93724 9.78941C7.93618 9.852 7.93145 9.93422 7.9112 10.0162C7.91373 10.0361 7.91891 10.0658 7.92798 10.1053C7.94936 10.1986 7.98571 10.3182 8.03046 10.4391C8.07548 10.5607 8.12451 10.6715 8.16802 10.7502C8.17832 10.7689 8.18721 10.7837 8.19452 10.7952C8.28827 10.8326 8.36986 10.8691 8.43779 10.8994C8.45348 10.9065 8.46844 10.9131 8.48265 10.9194C8.57859 10.9619 8.6358 10.9845 8.68666 10.997C8.75703 11.0142 8.85525 11.0249 9.11497 10.9202C9.40493 10.8033 9.52256 10.7437 9.58777 10.6814C9.62246 10.6482 9.66647 10.5937 9.6802 10.3854C9.7075 9.97116 9.63733 9.71228 9.45762 9.26639L9.20464 8.63874C9.20308 8.6366 9.18984 8.61771 9.13646 8.57674C9.11314 8.55884 9.09131 8.54329 9.06421 8.52398C9.05121 8.51472 9.037 8.50459 9.02084 8.49293C8.97677 8.46115 8.92168 8.42029 8.86873 8.37207C8.83074 8.33747 8.77691 8.30679 8.70329 8.2803ZM8.21779 10.8271C8.21779 10.8273 8.21626 10.8258 8.21323 10.822C8.21629 10.8251 8.2178 10.827 8.21779 10.8271ZM7.90932 9.99222C7.90942 9.99234 7.90957 9.99465 7.90946 9.99882C7.90916 9.99419 7.90921 9.99211 7.90932 9.99222Z" fill="#FF8CE6"/>
<path fill-rule="evenodd" clip-rule="evenodd" d="M13.6465 5.16017C13.8145 5.21781 13.9159 5.34706 13.9686 5.47787C14.0491 5.67766 14.0939 5.75695 14.1889 5.82957C14.1909 5.83064 14.1994 5.83512 14.2188 5.84286C14.2337 5.84881 14.2499 5.85477 14.2725 5.86305L14.2741 5.86365C14.2947 5.87115 14.321 5.8808 14.3477 5.89148C14.4453 5.93056 14.6576 6.02305 14.7548 6.26434C14.7757 6.31617 14.8098 6.37215 14.8693 6.46714L14.8727 6.47248C14.9249 6.55589 14.9969 6.67085 15.0493 6.80079C15.1305 7.00224 15.1117 7.20311 15.1016 7.31179C15.101 7.31798 15.1005 7.32388 15.1 7.32946C15.0879 7.46414 15.0923 7.48978 15.0985 7.50504C15.1679 7.6773 15.1694 7.84492 15.1577 7.9753C15.1499 8.06122 15.132 8.16182 15.119 8.23445C15.1144 8.25998 15.1105 8.28206 15.1078 8.29882C15.075 8.50528 15.0164 8.68062 14.9545 8.83988C14.9234 8.92008 14.897 8.98347 14.8717 9.04411C14.8395 9.12125 14.8093 9.19396 14.7733 9.29122C14.7263 9.41868 14.6369 9.50058 14.5703 9.54851C14.5007 9.59859 14.4243 9.63432 14.3555 9.66046C14.2175 9.71292 14.0578 9.74619 13.9097 9.76549C13.7598 9.78503 13.6033 9.79261 13.4659 9.78564C13.3975 9.78217 13.3263 9.77474 13.2594 9.76061C13.2012 9.74833 13.1081 9.72357 13.0236 9.66418L13.0212 9.66249C12.8428 9.53713 12.6737 9.41827 12.5318 9.26909C12.3796 9.10919 12.2697 8.92791 12.1717 8.68467C11.9682 8.17979 11.8647 7.72517 11.9124 7.15616C11.9277 6.97488 12.0022 6.81479 12.0458 6.72115C12.0477 6.71707 12.0495 6.71311 12.0513 6.70928C12.0768 6.65427 12.093 6.61934 12.1047 6.58744C12.1144 6.56138 12.1158 6.5507 12.1159 6.55033C12.1423 6.10253 12.4063 5.82075 12.7043 5.63964C12.7127 5.49721 12.8011 5.36538 12.9422 5.3085C12.97 5.29732 12.9976 5.28384 13.0383 5.264C13.0494 5.25857 13.0616 5.25265 13.0749 5.24618C13.1265 5.22122 13.2036 5.1845 13.2852 5.16053C13.363 5.13766 13.4988 5.10948 13.6465 5.16017ZM13.4282 6.10657C13.3926 6.14295 13.349 6.17272 13.2987 6.19299C12.9772 6.32258 12.8847 6.45207 12.8763 6.59544C12.8663 6.7658 12.792 6.92413 12.7512 7.01089C12.748 7.01769 12.745 7.02406 12.7423 7.02995C12.6902 7.14216 12.6742 7.18719 12.6715 7.21989C12.6362 7.63988 12.7063 7.97328 12.8782 8.39991C12.949 8.57557 13.0121 8.66882 13.0836 8.74403C13.1599 8.8242 13.2568 8.89658 13.4281 9.01742C13.4451 9.02024 13.4704 9.02315 13.5045 9.02488C13.5896 9.02919 13.6997 9.02467 13.8113 9.01014C13.9247 8.99536 14.0213 8.97257 14.0849 8.9484C14.0865 8.9478 14.088 8.94721 14.0895 8.94663C14.1189 8.87117 14.1515 8.79209 14.1809 8.7208C14.2057 8.66067 14.2282 8.60608 14.2446 8.56389C14.2964 8.43042 14.3345 8.31121 14.3555 8.17927C14.3609 8.14523 14.3679 8.10617 14.374 8.07202C14.377 8.05533 14.3798 8.03982 14.3821 8.02664C14.3901 7.98007 14.3959 7.94176 14.399 7.90714C14.4053 7.83691 14.3982 7.80526 14.392 7.7898C14.3108 7.58847 14.3295 7.38764 14.3397 7.27904C14.3402 7.27281 14.3408 7.26689 14.3413 7.26128C14.3534 7.12672 14.349 7.10095 14.3428 7.08555C14.3183 7.02491 14.281 6.96289 14.2237 6.87137C14.2209 6.86698 14.2181 6.86248 14.2152 6.85789C14.1727 6.79008 14.1164 6.70026 14.0708 6.6012C14.0688 6.60038 14.0667 6.59952 14.0645 6.59862C14.0496 6.59265 14.0333 6.58667 14.0108 6.57843L14.0086 6.57762C13.9883 6.57019 13.9622 6.56066 13.936 6.55016C13.8834 6.52914 13.8064 6.49533 13.7325 6.43952C13.5958 6.33627 13.5004 6.22213 13.4282 6.10657ZM14.0986 6.61434C14.0985 6.61434 14.0981 6.6141 14.0974 6.61361C14.0982 6.61409 14.0986 6.61433 14.0986 6.61434ZM13.4073 9.0129C13.4074 9.01286 13.4087 9.0132 13.4112 9.01404C13.4085 9.01336 13.4072 9.01294 13.4073 9.0129Z" fill="#FF8CE6"/>
<path fill-rule="evenodd" clip-rule="evenodd" d="M17.2774 8.35862C16.874 8.72331 16.5902 9.1864 16.5701 9.82905C16.5619 10.0894 16.6428 10.4154 16.7278 10.6263C16.7391 10.6542 16.7455 10.6941 16.7511 10.7985C16.7515 10.8052 16.7519 10.8125 16.7522 10.8201C16.7566 10.9074 16.7639 11.0519 16.8116 11.1922C16.9605 11.6295 17.2093 12.0582 17.6047 12.277C18.0397 12.5178 18.537 12.4462 19.0225 12.1113C19.2451 11.9576 19.4029 11.7295 19.4992 11.4982C19.5959 11.2661 19.6433 11.0011 19.6161 10.7493C19.6035 10.6326 19.5937 10.5079 19.5834 10.3776C19.5773 10.2989 19.5709 10.2181 19.5637 10.1357C19.5584 10.0758 19.5433 10.0236 19.5311 9.98767C19.5183 9.94959 19.503 9.9134 19.4893 9.88282C19.475 9.85091 19.4527 9.80459 19.4344 9.76672C19.4244 9.74614 19.4157 9.72806 19.4101 9.71615C19.3995 9.69342 19.3916 9.6754 19.3857 9.6613C19.4041 9.58048 19.3983 9.50904 19.3929 9.46717C19.3832 9.39379 19.3617 9.32381 19.34 9.26552C19.296 9.1473 19.23 9.02187 19.163 8.91098C19.0951 8.79868 19.0177 8.68731 18.9436 8.59717C18.907 8.55256 18.8661 8.50703 18.8236 8.46774C18.7935 8.44001 18.7177 8.3716 18.6124 8.33942C18.5779 8.32886 18.5355 8.30948 18.4715 8.27522C18.4583 8.26815 18.4428 8.25966 18.4257 8.2503C18.3744 8.22217 18.3089 8.18626 18.2485 8.15771C18.2323 8.15006 18.2154 8.14239 18.1977 8.13485C18.077 7.97333 17.8495 7.9333 17.6803 8.04709C17.6718 8.05282 17.6633 8.05858 17.6548 8.06437C17.605 8.07422 17.5537 8.0892 17.5011 8.11036C17.388 8.15598 17.3087 8.24979 17.2774 8.35862ZM19.3722 9.62339C19.3722 9.62338 19.3723 9.62369 19.3724 9.62428C19.3723 9.62369 19.3722 9.6234 19.3722 9.62339ZM17.894 8.8334C17.5318 9.12285 17.3447 9.43093 17.3314 9.85288C17.3276 9.97581 17.3748 10.1939 17.4343 10.3415C17.4978 10.4991 17.5063 10.6564 17.5115 10.752L17.5118 10.7573C17.518 10.8731 17.5216 10.9142 17.5327 10.9467C17.6574 11.3128 17.822 11.5267 17.9735 11.6105C18.0852 11.6723 18.2681 11.7063 18.5899 11.4843C18.664 11.4332 18.7412 11.337 18.796 11.2054C18.8505 11.0746 18.8703 10.9383 18.8587 10.8311C18.8451 10.7052 18.8336 10.5583 18.8225 10.4189C18.8172 10.3511 18.812 10.2852 18.8068 10.2243C18.8045 10.2183 18.8005 10.2085 18.7941 10.1942C18.7817 10.1665 18.7716 10.1458 18.7594 10.1208C18.7488 10.0991 18.7367 10.0743 18.7202 10.039C18.6932 9.98141 18.6568 9.89982 18.6349 9.81486C18.6214 9.7626 18.598 9.65429 18.6269 9.53327C18.6267 9.53266 18.6264 9.53203 18.6262 9.5314C18.6047 9.47378 18.5643 9.39309 18.5111 9.30501C18.4587 9.21834 18.402 9.13788 18.3551 9.08075C18.3431 9.06616 18.333 9.05462 18.3249 9.04581C18.2429 9.01519 18.1702 8.97796 18.1119 8.94674C18.0837 8.93163 18.0597 8.91847 18.0381 8.90662C17.9952 8.88305 17.9617 8.86468 17.9232 8.84653C17.9126 8.84152 17.9029 8.83717 17.894 8.8334Z" fill="#FF8CE6"/>
<path fill-rule="evenodd" clip-rule="evenodd" d="M22.8004 20.4145C22.8945 20.2332 23.1234 20.1597 23.3116 20.2503C23.5381 20.3594 23.6783 20.5577 23.7639 20.6904C23.7938 20.7367 23.8256 20.7892 23.8528 20.8344C23.8652 20.8549 23.8767 20.874 23.8867 20.8902C23.9239 20.9506 23.9512 20.9911 23.9746 21.0193C24.0271 21.0825 24.0842 21.1265 24.1768 21.198C24.1919 21.2096 24.208 21.222 24.2251 21.2354C24.3386 21.3236 24.4867 21.4452 24.6009 21.6376C24.6853 21.78 24.7899 21.9225 24.9086 22.0774C24.9355 22.1124 24.9634 22.1484 24.9918 22.1852C25.085 22.3056 25.1846 22.4343 25.2763 22.5641C25.5181 22.9065 25.7503 23.3169 25.7793 23.8202C25.804 24.2486 25.8244 24.7629 25.765 25.2609C25.7059 25.7556 25.5641 26.2742 25.2321 26.6852C24.8303 27.1829 24.4193 27.6875 24.0005 28.1805C23.6696 28.57 23.2508 28.8129 22.8806 29.0277C22.7851 29.0831 22.6928 29.1367 22.6061 29.1903C21.1776 30.0749 19.4994 30.1382 17.9646 30.1382C17.6803 30.1382 17.3688 30.1548 17.0321 30.1726L17.0113 30.1737C16.6708 30.1918 16.3076 30.2107 15.9459 30.2115C15.2312 30.2131 14.4661 30.1455 13.8297 29.821C13.4875 29.6465 13.0771 29.406 12.7187 29.1035C12.3662 28.806 12.035 28.4243 11.8942 27.9595C11.8922 27.9563 11.8845 27.9423 11.8648 27.9157C11.8351 27.8754 11.795 27.8279 11.7442 27.7697C11.7344 27.7584 11.7237 27.7462 11.7123 27.7333C11.6266 27.6361 11.5041 27.497 11.4359 27.3722C11.3348 27.1871 11.1882 27.0146 11.0161 26.8122C11.0087 26.8034 11.0012 26.7946 10.9936 26.7857C10.856 26.6236 10.7165 26.4619 10.5766 26.2995C9.98722 25.6157 9.38756 24.92 8.86451 24.1382C8.75051 23.9678 8.8015 23.7406 8.97839 23.6308C9.15529 23.521 9.39112 23.5701 9.50512 23.7405C10.0009 24.4815 10.5641 25.1353 11.1507 25.8162C11.2938 25.9822 11.4383 26.1499 11.5835 26.3208C11.5951 26.3346 11.607 26.3485 11.6191 26.3627C11.7787 26.55 11.9718 26.7767 12.1103 27.0303C12.1368 27.0787 12.2 27.1511 12.3058 27.2724C12.313 27.2806 12.3203 27.289 12.3278 27.2976C12.3787 27.3559 12.4368 27.4236 12.4862 27.4906C12.5311 27.5515 12.5929 27.6432 12.6241 27.7484C12.7065 28.0261 12.9202 28.2976 13.2209 28.5514C13.5181 28.8022 13.8721 29.0121 14.1863 29.1723C14.6508 29.4092 15.2586 29.4789 15.9442 29.4774C16.2827 29.4767 16.6265 29.459 16.9694 29.4408L17.0007 29.4391C17.329 29.4217 17.6589 29.4042 17.9646 29.4042C19.508 29.4042 20.974 29.3283 22.194 28.5729C22.3201 28.4948 22.4375 28.4262 22.5475 28.362C22.8967 28.158 23.1709 27.9979 23.4107 27.7156C23.8233 27.2299 24.2296 26.7311 24.6306 26.2346C24.8395 25.9758 24.956 25.6112 25.0078 25.1771C25.0592 24.7461 25.0429 24.2857 25.0184 23.8609C25.0008 23.5569 24.8609 23.2811 24.6461 22.977C24.5646 22.8615 24.4788 22.7506 24.3879 22.6332C24.3577 22.5941 24.3269 22.5544 24.2956 22.5135C24.1739 22.3549 24.047 22.1836 23.9392 22.0018C23.8986 21.9335 23.844 21.8824 23.7465 21.8066C23.735 21.7977 23.7224 21.7881 23.709 21.7778C23.6188 21.709 23.4895 21.6103 23.3795 21.4779C23.3209 21.4073 23.2712 21.3296 23.2311 21.2645C23.2142 21.237 23.1994 21.2125 23.1855 21.1895C23.1621 21.1506 23.1412 21.1159 23.1167 21.078C23.0372 20.9548 22.9915 20.9169 22.9708 20.9069C22.7825 20.8163 22.7062 20.5958 22.8004 20.4145Z" fill="white"/>
<path d="M12.1291 14.5095C11.6574 15.7392 10.1443 19.3893 10.6205 18.1613C10.7907 17.7223 11.0192 17.2912 11.1473 16.8383C11.3871 15.9906 11.452 15.0874 11.6442 14.2281C11.7297 13.8457 11.8333 13.873 11.74 14.2641C11.5506 15.0578 11.4477 15.9078 11.4287 16.7245C11.4166 17.2446 11.3748 17.76 11.3748 18.2811C11.3748 18.6926 11.3502 18.586 11.4287 18.2392C11.5788 17.5755 11.8502 16.9435 12.0633 16.2995C12.1859 15.9287 12.265 15.5463 12.4195 15.186C12.4877 15.0267 12.6148 14.7494 12.7188 14.6023C12.7425 14.5688 12.7906 14.4862 12.8116 14.5215C12.9123 14.6906 12.7531 14.9116 12.7038 15.1022C12.4648 16.0263 12.0951 16.8938 11.7759 17.7902C11.6647 18.1024 11.3871 19.0314 11.3748 18.7001C11.3543 18.1462 11.5659 17.6424 11.6981 17.1137C11.8996 16.3076 12.1641 15.5259 12.3207 14.7071C12.3979 14.3035 12.5423 13.0872 12.5601 13.4978C12.5729 13.7914 12.5243 14.0641 12.4524 14.3479C12.3426 14.7809 12.1458 15.1824 12.0213 15.611C11.8292 16.2727 11.6563 16.9482 11.4287 17.5986C11.3988 17.6841 11.2058 18.3367 11.279 17.9338C11.3576 17.5013 11.5173 17.0692 11.6562 16.6527C11.9517 15.7661 11.9966 14.7654 12.3985 13.9168C12.467 13.7723 13.2894 12.4587 13.1947 13.2164C13.1503 13.5719 13.1143 13.9973 12.9912 14.3359C12.8825 14.6348 13.0954 14.3417 13.2067 14.2521C13.6048 13.9314 13.8082 13.492 14.0269 13.0548C14.2018 12.7049 14.0608 13.8412 14.0029 14.2281C13.911 14.8418 13.8539 15.5289 13.6377 16.1139C13.5818 16.2653 13.5783 16.4825 13.5838 16.1798C13.5918 15.7412 13.7585 15.2759 13.8832 14.8567C14.0621 14.2547 14.0864 13.5164 14.3681 12.953C14.4331 12.8229 14.4465 13.0027 14.4459 13.0488C14.441 13.4074 14.3537 13.7619 14.3142 14.1174C14.2278 14.8947 14.1575 15.6823 14.1256 16.4641C14.1147 16.7327 14.1779 17.0988 14.3681 16.7186C14.5306 16.3935 14.7032 16.1213 14.8261 15.7757C14.9672 15.3786 15.1392 14.952 15.3619 14.5933C15.4754 14.4105 15.5774 14.1202 15.5774 14.4676C15.5774 15.2442 15.1597 17.5166 15.4427 16.7934C15.6998 16.1364 15.6898 15.4155 15.9276 14.755C16.1292 14.1949 16.1162 14.9662 16.1162 15.1471C16.1162 15.7255 16.0989 16.3023 16.0743 16.8802C16.0694 16.9939 16.034 17.3308 16.0653 17.2214C16.1482 16.9311 16.4242 16.7108 16.5981 16.4761C16.8049 16.1969 17.0177 15.9234 17.2207 15.641C17.3051 15.5236 17.5709 15.0964 17.5709 15.4404C17.5709 15.9906 17.5585 16.5089 17.4093 17.0418C17.3432 17.2778 17.1321 17.973 17.2536 17.7602C17.4134 17.4806 17.7382 17.3043 17.9481 17.0658C18.1911 16.7896 18.3984 16.548 18.5946 16.2396C18.6233 16.1945 18.8049 15.8835 18.8101 15.8954C18.9463 16.2017 18.864 16.6599 18.864 16.988C18.864 17.2291 18.8496 17.4836 18.7593 17.7093C18.6732 17.9244 18.9031 17.2634 19.0286 17.0688C19.1979 16.8065 19.3874 16.5238 19.5914 16.2875C19.6243 16.2495 19.7569 16.0051 19.8099 16.0121C19.8902 16.0228 19.6203 16.4893 19.6093 16.506C19.3372 16.9223 19.0016 17.3832 18.6485 17.7363C18.595 17.7898 18.1173 18.1904 18.1127 18.1673C18.0714 17.961 18.2906 17.6547 18.406 17.5028C18.5777 17.277 18.6612 17.0095 18.7802 16.7545C18.7934 16.7263 18.8323 16.6509 18.7982 16.7305C18.6985 16.963 18.4835 17.1721 18.3252 17.3651C18.027 17.7287 17.6674 18.0077 17.2895 18.2811C17.2389 18.3177 16.8797 18.4921 16.8705 18.3349C16.856 18.088 17.3075 17.7986 17.4871 17.6884C17.8507 17.4653 18.1952 17.1511 18.5707 16.958C18.9008 16.7883 18.0951 17.5372 17.7984 17.7602C17.1624 18.2383 16.2724 18.732 15.4936 18.9156C15.4363 18.9291 14.9308 19.0786 14.9308 18.9156C14.9308 18.6144 15.191 18.398 15.3858 18.2032C15.67 17.919 15.9552 17.6402 16.2359 17.3531C16.6407 16.9392 16.1052 17.4845 15.9725 17.5926C15.5154 17.9649 15.0044 18.2342 14.5118 18.5505C14.2211 18.7371 13.886 18.8897 14.404 18.6043C15.0802 18.2317 15.7717 17.8813 16.4275 17.4729C16.6141 17.3566 16.7897 17.2304 16.9453 17.0748C16.981 17.0391 17.0647 16.9687 16.9962 17.0778C16.6249 17.6691 15.9092 18.0918 15.3319 18.4487C14.5947 18.9045 13.7986 19.2715 13.069 19.7358C12.6901 19.9769 13.0728 19.5466 13.1887 19.4425C13.6336 19.0426 14.1462 18.729 14.5956 18.3349C14.6625 18.2763 15.1462 17.7608 15.0685 17.9039C14.842 18.3212 14.3267 18.7547 13.973 19.0653C13.5835 19.4072 12.6906 19.778 12.5182 20.3165C12.5137 20.3308 12.8892 19.9496 12.9792 19.8555C13.1389 19.6886 13.2998 19.423 13.3564 19.197C13.5219 18.535 12.5555 19.3629 12.4224 19.5083C12.3231 19.6169 12.1291 19.9107 12.1291 19.628C12.1291 19.4085 12.1291 19.189 12.1291 18.9695C12.1291 18.7665 12.1333 18.5846 12.0872 18.3888C12.02 18.1032 11.9711 18.3572 11.8597 18.5505C11.7419 18.7547 11.5092 19.1364 11.4826 19.3766C11.4631 19.5519 11.6277 19.049 11.6472 18.8737C11.6644 18.7185 11.6981 18.5807 11.6981 18.4217C11.6981 18.2374 11.544 18.7568 11.4616 18.9216C11.298 19.2489 11.267 19.0475 11.267 18.766C11.267 18.7351 11.2632 18.4939 11.2401 18.5355C11.1496 18.6984 11.18 19.1518 11.27 19.3018C11.4085 19.5325 11.5655 19.0831 11.6951 18.9276C11.9899 18.5739 12.2803 18.2155 12.5901 17.874C12.8485 17.589 13.1158 17.2842 13.3354 16.967C13.4066 16.8641 13.2722 17.4171 13.2546 17.5118C13.1609 18.0151 12.909 18.4703 12.8056 18.9725C12.7529 19.2283 12.7382 19.2787 12.8056 18.9994C13.0285 18.076 13.3719 17.1214 13.4731 16.1768C13.4824 16.0903 13.5838 15.1685 13.5838 15.632C13.5838 16.4241 13.4521 17.1454 13.3474 17.9249C13.333 18.0319 13.2388 18.4735 13.3264 18.5684C13.3619 18.6069 13.6434 18.3758 13.6677 18.3559C14.0285 18.0607 14.4242 17.7302 14.6824 17.3382C14.8154 17.1363 14.9215 16.9112 15.0146 16.6886C15.0201 16.6755 15.1824 16.3466 15.1912 16.3863C15.2765 16.7698 14.8434 17.3643 14.6944 17.6884C14.6034 17.8861 14.5488 18.0971 14.5118 18.311C14.4963 18.4006 14.4835 18.4371 14.5058 18.326C14.5743 17.9835 14.7979 17.631 14.9338 17.3082C15.2036 16.6676 15.6755 15.6414 15.3888 14.9405C15.2591 14.6235 15.0506 14.3498 14.9368 14.0246C14.9217 13.9815 14.8268 13.3147 14.9099 13.3331C15.0525 13.3648 15.2443 13.6684 15.3349 13.7791C15.4528 13.9232 15.5245 14.0906 15.6313 14.2431C15.8644 14.5761 16.0724 14.8818 16.4424 15.0752C16.6991 15.2094 16.9544 15.3097 17.2147 15.4255C17.3332 15.4781 17.4683 15.7084 17.5709 15.7996C17.6292 15.8514 17.9212 16.0181 17.8942 16.0181" stroke="#FF8CE6" stroke-width="0.8" stroke-linecap="round"/>
<path d="M6.25623 14.5095C6.3636 14.9972 6.41119 15.5893 6.59147 16.0601C6.64047 16.188 6.90982 15.771 6.92074 15.7517C7.04682 15.5298 7.11272 15.2387 7.11829 14.9825C7.12324 14.7552 7.13419 14.5176 7.1153 14.291C7.1023 14.135 7.08057 13.693 7.01054 13.833C6.9336 13.9869 6.95984 14.3049 6.92972 14.4796C6.89447 14.684 6.89702 14.895 6.90278 15.1022C6.91534 15.5544 7.04252 15.2478 7.13027 15.0723C7.18663 14.9595 7.27294 14.5992 7.27993 14.725C7.29336 14.9668 7.33381 15.2001 7.33381 15.4464C7.33381 15.6058 7.27398 15.9202 7.38769 16.0481C7.4179 16.0821 7.57007 15.6186 7.65709 15.5751C7.76791 15.5197 7.92648 15.3939 7.92648 15.2638" stroke="#FF8CE6" stroke-width="0.8" stroke-linecap="round"/>
<path d="M8.30367 8.36728C8.14308 8.76056 7.99197 9.14538 7.91454 9.5646C7.89639 9.66285 7.73549 10.4126 8.04026 10.2201C8.34756 10.026 8.57629 9.61743 8.80055 9.33711C8.88112 9.23639 8.9498 9.13625 9.01607 9.0258C9.05234 8.96535 9.11185 8.76672 9.11185 8.83723C9.11185 9.19291 9.05798 9.54383 9.05798 9.89985C9.05798 9.9757 9.05798 10.4174 9.05798 10.3488C9.05798 10.0834 9.05798 9.81803 9.05798 9.55262C9.05798 9.33247 9.03504 9.09936 9.11185 8.88811C9.18893 8.67617 9.13701 9.11413 9.13281 9.13656C9.04769 9.59052 8.85916 10.0294 8.80055 10.4865C8.78179 10.6329 8.7347 10.8575 8.7347 10.5733C8.7347 10.1058 8.74141 9.75496 9.21961 9.52269C9.58487 9.34528 9.26193 10.3548 9.51595 10.3548C9.66097 10.3548 9.92204 10.2391 10.0817 10.1992" stroke="#FF8CE6" stroke-width="0.8" stroke-linecap="round"/>
<path d="M13.3145 6.15823C13.2144 6.70897 12.9327 7.30573 12.7188 7.8225C12.561 8.204 12.8732 7.0108 12.9254 6.60124C12.936 6.51745 12.9373 5.77787 12.9373 6.17021C12.9373 6.86282 12.6735 7.49671 12.5901 8.17571C12.5673 8.36138 12.5602 8.54573 12.5602 8.73247C12.5602 8.82607 12.5674 8.6984 12.5841 8.66661C12.75 8.35229 13.0408 8.12124 13.2067 7.79856C13.2564 7.70189 13.4221 6.98625 13.4492 6.9754C13.5279 6.9439 13.4699 7.14689 13.4522 7.22983C13.3709 7.61039 13.2255 7.99222 13.087 8.35531C12.9966 8.5923 12.8794 8.81869 12.8356 9.07071C12.8323 9.08952 13.0392 8.59147 13.093 8.45708C13.2959 7.94988 13.4612 7.42952 13.6617 6.92152C13.8992 6.3199 13.6193 7.4752 13.5719 7.61297C13.4323 8.01847 13.3538 8.43507 13.2187 8.84023C13.217 8.84524 13.367 8.53028 13.4791 8.41817C13.6273 8.26996 13.8431 7.78566 14.0389 7.72971C14.1121 7.70879 13.876 8.48824 13.8533 8.5409C13.7469 8.78711 13.4568 9.53407 13.5899 9.30119C13.7154 9.08151 13.944 8.86923 14.1227 8.69056" stroke="#FF8CE6" stroke-width="0.8" stroke-linecap="round"/>
<path d="M17.8403 9.12158C17.8575 9.67848 17.7777 10.3775 17.9061 10.9295C17.9285 11.026 17.9868 10.7461 18.0019 10.6482C18.0883 10.0888 18.0353 9.52552 18.0588 8.96293C18.0659 8.79277 18.0529 8.43004 18.1875 8.29543C18.2219 8.26097 18.2171 8.39045 18.2144 8.43911C18.1935 8.81498 18.1102 9.18687 18.0558 9.5586C17.9384 10.3604 17.7989 11.1831 17.7864 11.9951C17.7819 12.2849 17.9063 11.5928 17.9211 11.5222C18.0299 11.0022 18.1183 10.3997 18.3671 9.92977C18.397 9.87329 18.379 10.175 18.379 10.2231C18.379 10.5748 18.439 10.9001 18.4868 11.2468C18.5891 11.9888 18.6484 11.0151 18.6484 10.7918C18.6484 10.6663 18.6484 9.82539 18.6484 10.3099C18.6484 10.5783 18.6484 10.8467 18.6484 11.1151" stroke="#FF8CE6" stroke-width="0.8" stroke-linecap="round"/>
</g>
<path d="M5.22627 9.99356C5.32771 10.2472 5.73189 10.4825 5.76507 10.7479C5.3398 10.7479 5.42278 10.5694 4.96885 10.5862C4.59172 10.6002 4.08522 10.6801 3.79847 10.9095C3.5336 11.1214 3.55601 11.4263 3.55601 11.7446C3.55601 11.9203 3.46148 12.4885 3.56799 12.6217C3.73072 12.8251 3.60184 13.3978 3.70568 13.6574C3.76836 13.8141 3.74496 14.0279 3.79847 14.1991C3.85176 14.3697 3.93317 14.6371 3.93317 14.8158C3.93317 15.0195 4.08326 15.2275 4.09481 15.4354C4.10687 15.6525 4.22133 15.8424 4.25944 16.052C4.35402 16.5722 4.53481 17.1588 4.75333 17.6444C4.98191 18.1524 5.12696 18.7157 5.39988 19.2069C5.51422 19.4127 5.6646 19.5475 5.79201 19.7457C5.9159 19.9384 6.15226 20.046 6.27093 20.2306C6.4564 20.5191 6.78069 20.7613 7.02824 21.0089C7.28377 21.2644 7.48143 21.5698 7.73465 21.8231C7.94572 22.0341 8.0802 22.2905 8.24351 22.5355C8.37792 22.7371 8.6094 22.8732 8.72843 23.0862C9.02898 23.6241 9.60209 23.9729 9.85989 24.5529C10.2131 25.3476 10.9355 25.9594 11.2637 26.78C11.3689 27.0429 11.5758 27.2458 11.6798 27.5163C11.7454 27.6869 12.0382 27.9372 12.1887 28.0431C12.712 28.4114 13.1373 28.8078 13.7632 28.983C14.6207 29.2231 15.5138 29.2285 16.4032 29.2285C16.8261 29.2285 17.2496 29.2366 17.6724 29.2285C18.0529 29.2212 18.4114 29.0256 18.7919 29.013C19.5025 28.9893 20.2169 28.627 20.8632 28.3784C21.5357 28.1197 22.2777 27.9823 22.9526 27.7199C23.6089 27.4646 24.3691 27.3592 24.7007 26.6961C24.9838 26.1298 25.2155 25.38 25.2155 24.7445C25.2155 24.3528 25.2826 23.8691 25.0299 23.5442C24.9253 23.4097 24.8861 23.1519 24.7845 22.9904C24.6777 22.8208 24.5724 22.6148 24.5031 22.4277C24.3889 22.1193 24.1591 21.8531 24.0571 21.5267C24.0041 21.3571 23.8241 21.1552 23.8146 20.9849C23.7998 20.7186 23.626 20.4396 23.5961 20.1708C23.5249 19.5301 23.3297 18.9678 23.3297 18.3179V17.0817V15.3276C23.3297 14.7314 23.222 14.1652 23.222 13.5735C23.222 13.0357 23.2496 12.3135 23.0184 11.8255C22.9669 11.7166 22.9331 11.5284 22.9017 11.4184C22.8598 11.2717 22.774 11.143 22.74 10.9903C22.6402 10.541 22.3186 9.98892 22.0606 9.61042C21.7833 9.20383 21.6166 8.62768 21.2703 8.28139C21.038 8.04903 20.9857 7.59238 20.8393 7.29959C20.6671 6.95516 20.4983 6.67719 20.2317 6.41058C20.0337 6.21261 19.8596 5.98648 19.639 5.81492C19.3304 5.57492 19.2161 5.41382 18.8039 5.41382C18.4911 5.41382 18.1737 5.45182 17.8879 5.4677C17.5512 5.4864 17.2455 5.73669 16.948 5.84485C16.5939 5.97363 16.5323 5.53909 16.3524 5.27912C16.244 5.12256 16.1533 4.88056 16.0141 4.75529C15.8407 4.59918 15.6421 4.45168 15.4633 4.28235C15.2068 4.03935 14.7614 3.7265 14.4277 3.62383C14.2089 3.55651 13.6463 3.49582 13.4429 3.60886C13.3081 3.68373 13.1297 3.61336 12.9849 3.6777C12.8508 3.73732 12.6717 3.75992 12.5299 3.80043C12.2624 3.87686 12.0392 3.99957 11.7995 4.13269C11.5074 4.29501 11.4317 4.59755 11.2368 4.84808C11.0852 5.04297 10.9104 5.54971 10.8836 5.79097C10.8764 5.85541 10.722 6.1596 10.722 5.97955C10.722 5.85805 10.5664 5.78729 10.5603 5.68321C10.5509 5.52233 10.3348 5.13644 10.2101 5.03666C9.89764 4.78668 9.72052 4.36635 9.40192 4.09677C8.94992 3.71431 8.59789 3.24555 8.09385 2.93537C7.65671 2.66636 7.30436 2.50433 6.78877 2.50433C6.41723 2.50433 5.98886 2.45963 5.63336 2.56121C5.09262 2.7157 4.67617 2.82828 4.31032 3.28558C3.9739 3.70612 3.66377 4.16734 3.66377 4.71338C3.66377 5.06747 3.64962 5.42514 3.66377 5.779C3.67576 6.07865 3.87929 6.44197 3.87929 6.73386C3.87929 7.00023 4.01127 7.35588 4.12175 7.59892C4.31052 8.01421 4.33106 8.66447 4.6336 9.02373C4.73891 9.14879 4.90004 9.43018 4.95688 9.58647C5.01518 9.74679 5.16501 9.84039 5.22627 9.99356Z" stroke="white" stroke-width="0.8" stroke-linecap="round"/>
<path d="M20.6896 20.8233C20.1501 21.3628 19.6883 21.8329 19.0194 22.2361C18.3 22.6697 17.43 23.0068 16.6157 23.2179C15.8746 23.4101 15.0166 23.4634 14.254 23.4634C13.9181 23.4634 13.5983 23.4511 13.2662 23.3975C13.0272 23.359 12.796 23.2479 12.5538 23.2479" stroke="white" stroke-width="0.8" stroke-linecap="round"/>
<path d="M12.9309 12.472C12.5073 12.5174 12.0572 13.1056 11.9491 13.4837C11.8428 13.8557 11.7969 14.3031 11.6079 14.6541C11.3378 15.1557 11.3625 15.7301 11.2637 16.2735C11.1946 16.6532 11.0676 17.0474 11.0452 17.4289C11.0262 17.7504 10.5249 18.0103 10.5064 18.3448C10.4987 18.4827 10.3986 18.5827 10.3986 18.734C10.3986 18.8734 10.3447 18.9756 10.3447 19.1261C10.3447 19.2518 10.3447 19.3775 10.3447 19.5032C10.3447 19.7478 10.5372 19.9151 10.6441 20.1228C10.8054 20.4367 11.196 20.7722 11.581 20.8203C12.3509 20.9165 13.0191 20.5258 13.6433 20.1468C13.8417 20.0264 14.0741 19.9315 14.2779 19.8115C14.3845 19.7489 14.4568 19.6363 14.5743 19.5841C14.8795 19.4484 15.208 19.2493 15.5171 19.0991C16.8504 18.4515 18.4117 18.5273 19.4833 17.4558C19.6783 17.2607 19.8814 17.2356 19.8814 16.917C19.8814 16.6478 19.866 16.4246 19.7616 16.1897C19.4788 15.5532 18.8296 15.3723 18.2111 15.0881C17.9743 14.9793 17.5923 14.7966 17.4029 14.6272C17.0964 14.3529 16.5762 14.3703 16.2445 14.1123C15.817 13.7798 15.2303 13.6708 14.8167 13.2802C14.6522 13.1248 14.4759 13.0399 14.3049 12.903C14.1152 12.7513 13.9585 12.6336 13.7122 12.6336C13.5753 12.6336 13.4682 12.5797 13.335 12.5797C13.1883 12.5797 13.1022 12.7988 13.0267 12.891C12.7996 13.1687 12.8414 13.5618 12.7663 13.8998C12.6388 14.4734 12.4143 15.0104 12.3921 15.609C12.3755 16.0575 12.0936 16.4993 12.0689 16.944C12.0596 17.1104 11.9304 17.4319 11.8533 17.5905C11.7346 17.8351 11.6726 18.0185 11.6378 18.2969C11.6072 18.5417 11.5469 18.8511 11.4223 19.0692C11.3676 19.1649 11.2727 19.3551 11.3265 19.4763C11.3567 19.5441 11.4432 19.7505 11.4882 19.7217C11.6722 19.6039 11.7722 19.4998 11.9851 19.4224C12.1048 19.3789 12.2756 18.9974 12.3652 18.9974C12.4363 18.9974 12.3736 19.6746 12.3622 19.7188C12.3083 19.9266 12.2115 20.1157 12.1646 20.3264C12.1568 20.3616 12.1005 20.5549 12.1257 20.4162C12.1941 20.0402 12.7458 19.6614 12.9968 19.4104C13.1618 19.2454 13.5711 18.6796 13.4578 18.8836C13.4044 18.9797 12.9787 19.6572 13.2362 19.4523C13.7086 19.0766 14.1865 18.7136 14.673 18.3568C14.6877 18.3461 14.9146 18.1449 14.9215 18.1622C14.9981 18.3539 14.7927 18.6715 14.709 18.8238C14.642 18.9456 14.4727 19.3562 14.3138 19.3865C14.2281 19.4028 14.3675 19.2188 14.4126 19.144C14.6265 18.7895 14.8661 18.447 15.128 18.1263C15.3639 17.8375 15.6265 17.513 15.9901 17.387C16.2907 17.2828 16.2313 17.4949 16.1817 17.7342C16.113 18.065 15.9209 18.3313 15.8105 18.6442C15.7397 18.8448 15.815 18.6302 15.8524 18.5783C16.1841 18.1176 16.6718 17.8183 17.0138 17.375C17.3133 16.9868 16.6217 17.7515 16.5528 17.8479C16.1093 18.4688 16.7177 17.8105 16.9419 17.6474C17.3703 17.3359 17.8208 17.0471 18.2829 16.7883C18.3007 16.7784 18.5029 16.6762 18.4266 16.7524C18.2121 16.9669 18.061 17.203 17.8998 17.4588C17.7948 17.6255 17.6225 17.7935 17.5675 17.9856C17.5334 18.105 17.7582 17.8262 17.8579 17.7522C18.2512 17.46 18.7164 17.2281 19.0732 16.8901C19.403 16.5776 18.3945 17.5349 18.2231 17.9557C18.2151 17.9753 18.1295 18.1405 18.1931 18.1173C18.4817 18.0124 18.7533 17.6023 18.9355 17.378C19.0887 17.1895 19.6795 16.5907 19.4982 16.2735C19.4542 16.1964 19.147 16.1572 19.0732 16.1478C18.7707 16.1089 18.4806 16.1828 18.2111 16.3214C18.0892 16.384 17.6682 16.8018 17.7382 16.7584C18.0246 16.5806 18.28 16.3435 18.5254 16.1148C18.5959 16.0491 19.0014 15.7386 18.714 15.7616C18.0321 15.8162 17.3051 16.5545 16.8192 16.9919C16.6811 17.1162 16.689 17.0558 16.7803 16.92C17.0005 16.5927 17.2762 16.2976 17.5885 16.058C17.7026 15.9704 18.5396 15.4274 18.1752 15.3545C17.748 15.2691 17.2967 15.4821 16.912 15.6389C16.4375 15.8322 15.9541 16.061 15.5052 16.3094C15.2655 16.442 15.4429 16.2596 15.5231 16.1537C15.7302 15.8808 15.9899 15.6755 16.2176 15.4234C16.3435 15.2839 16.5506 15.1386 16.6157 14.9564C16.67 14.8042 16.1673 14.9949 16.1278 15.0133C16.0181 15.0643 14.9832 15.7283 15.2807 15.2707C15.5379 14.8749 15.9717 14.6481 16.3014 14.3278C16.3787 14.2527 16.4584 14.25 16.3164 14.25C16.0273 14.25 15.7607 14.3205 15.4872 14.4116C15.1297 14.5308 14.7523 14.6572 14.4216 14.8397C14.2424 14.9385 14.2393 14.9822 14.3976 14.8307C14.6558 14.5837 14.9481 14.4213 15.2418 14.2231C15.3193 14.1707 15.7087 13.9476 15.7087 13.8309C15.7087 13.6026 13.8401 14.3241 13.6942 14.3817C13.6719 14.3905 13.2992 14.5788 13.3859 14.4535C13.5353 14.2378 13.8322 14.0877 14.0235 13.9088C14.2906 13.6589 14.7411 13.4982 14.8826 13.1305C15.0054 12.811 14.4754 12.9673 14.2899 13.0108C13.9418 13.0924 13.6067 13.2799 13.2901 13.4418C13.2195 13.4779 12.7378 13.8852 12.6735 13.8369C12.5269 13.7269 13.2187 13.2983 13.2752 13.2592C13.323 13.2261 13.3674 13.1404 13.3081 13.1964C13.1107 13.3828 13.0625 13.7138 12.9549 13.9507C12.6518 14.6174 12.3351 15.3491 12.3951 16.0999C12.4315 16.555 14.1053 15.1819 14.2779 15.0462C14.5448 14.8366 14.8577 14.6341 15.0981 14.3937C15.1131 14.3786 14.6876 14.5987 14.6132 14.6571C13.9806 15.153 13.4033 15.7132 12.8681 16.3124C12.7264 16.471 12.1234 17.035 12.1796 17.2882C12.1965 17.3642 12.7987 16.9495 12.8292 16.932C13.5505 16.5162 14.3001 16.1261 15.0502 15.7646C15.4332 15.58 15.8217 15.3939 16.1817 15.166C16.2294 15.1357 15.7695 15.6224 15.7027 15.6928C15.2018 16.221 14.7379 16.7953 14.224 17.3091C13.9741 17.5591 13.6492 17.8276 13.3201 17.9677C13.278 17.9856 13.0613 18.0767 13.0417 17.9886C12.99 17.756 13.56 17.4791 13.6972 17.3989C14.3369 17.0254 16.4854 16.4168 15.7626 16.5788C15.2055 16.7037 14.649 17.0295 14.1372 17.2732C13.4121 17.6186 12.7035 18.0006 11.9851 18.3598C11.6242 18.5402 11.6983 18.4308 11.997 18.291C12.9008 17.8678 13.8293 17.4844 14.7628 17.1325C15.4295 16.8812 16.1142 16.6894 16.7803 16.4411C17.3071 16.2447 16.4429 16.5588 16.3493 16.6027C15.1696 17.157 13.9589 17.6542 12.7932 18.2371C12.3783 18.4446 13.1489 18.1915 13.2003 18.1742C14.1106 17.8674 15.0316 17.6327 15.9631 17.4019C16.2886 17.3213 16.9404 17.2482 17.2054 17.0098C17.5302 16.7175 16.4114 17.3753 16.017 17.5636C15.7392 17.6963 12.6738 19 12.6645 18.9585C12.6193 18.7548 12.8545 18.4416 12.9549 18.291C13.202 17.9203 13.5165 17.6001 13.7331 17.2074C14.0587 16.6172 14.1904 15.8887 13.4817 15.585C13.3346 15.522 13.4697 15.3254 13.4697 15.2198C13.4697 14.9636 13.1653 14.8625 12.9549 14.8457C12.7331 14.8279 12.5358 14.8883 12.3742 15.0462C12.3293 15.0901 12.1743 15.2737 12.3173 15.2737C12.7546 15.2737 13.0372 14.9689 13.4158 14.8427" stroke="#FF8CE6" stroke-width="0.8" stroke-linecap="round"/>
<path d="M6.73484 13.1186C6.44883 13.1186 6.27288 13.0764 6.08829 13.3071C5.92445 13.5119 5.76501 13.8464 5.76501 14.1153C5.76501 14.6876 5.84668 15.17 6.24993 15.597C6.51033 15.8727 6.81452 16.0985 7.19282 16.2136C7.3656 16.2662 8.02486 16.3245 8.13271 16.1627C8.56824 15.5094 8.39302 14.5889 7.86631 14.0345C7.65746 13.8147 6.7994 12.5929 6.49239 13.1455C6.22537 13.6261 6.46142 14.5495 6.58518 15.0582C6.64605 15.3085 6.90627 15.6555 7.16588 15.3815C7.40118 15.1331 7.5892 14.2517 7.35745 13.9537C6.97255 13.4588 6.8426 14.1615 6.8426 14.5194C6.8426 14.9012 6.91022 15.3559 7.32751 15.1241C7.51257 15.0213 7.43643 14.7952 7.49514 15.1181C7.50637 15.1798 7.66464 15.7848 7.75855 15.597" stroke="#FF8CE6" stroke-width="0.8" stroke-linecap="round"/>
<path d="M7.00881 5.59267C6.64761 5.63782 6.79329 6.95734 6.79329 7.18211C6.79329 7.49351 6.7604 7.83988 6.93098 8.11901C7.13977 8.46066 7.68117 8.39812 8.00857 8.3944C8.73138 8.38618 8.73295 7.85369 8.73295 7.26892C8.73295 6.49045 7.66374 6.06342 7.06269 5.75431C6.99497 5.71948 6.77419 5.52797 6.6975 5.60465C6.61042 5.69173 6.63165 5.98539 6.63165 6.10453C6.63165 6.21755 6.6984 7.06944 6.94296 6.8738C7.20826 6.66156 7.5476 6.34208 7.5476 5.96683C7.5476 5.50717 7.10547 5 6.63165 5C6.03019 5 6.14674 5.79308 6.14674 6.18235C6.14674 6.81047 6.69009 7.58949 7.30814 7.73587C7.7077 7.83051 8.05407 7.71431 8.27497 7.37069C8.56095 6.92583 8.46855 6.69586 8.17619 6.29909C7.85617 5.86477 7.35735 5.52858 6.84717 5.35321C6.73971 5.31627 6.28925 5.04942 6.17667 5.11375C6.04505 5.18896 6.1017 5.76485 6.10483 5.8471C6.12102 6.27204 6.1818 6.75508 6.5658 7.00551C6.79937 7.15784 7.05674 7.24448 7.30215 7.37069C7.48217 7.46327 7.65536 7.7024 7.65536 7.39464C7.65536 6.99386 7.72546 6.39252 7.35902 6.10752C6.95887 5.79629 6.94812 6.58679 6.95493 6.8319C6.96486 7.18957 7.4155 7.19816 7.67931 7.04741C7.7747 6.9929 7.6813 6.75607 7.62243 6.6972C7.49719 6.57196 7.37563 6.5625 7.21235 6.5625C6.85365 6.5625 6.68553 6.6934 6.68553 7.02047C6.68553 7.29984 6.59966 7.38109 6.41614 7.58621C6.37311 7.63429 6.27816 7.88326 6.2545 7.69397C6.24031 7.58044 6.17777 7.43795 6.14674 7.31382C6.03204 6.85502 5.89708 6.03812 6.1198 5.59267C6.33946 5.15334 6.54402 5.2153 7.00881 5.09579C7.23569 5.03744 7.51797 4.99073 7.6823 5.19157C8.09833 5.70005 8.42766 6.33363 8.56831 6.96659C8.64212 7.29871 7.73088 7.40988 7.5476 7.43654C7.36104 7.46368 6.71031 7.44747 6.57777 7.61315C6.46889 7.74926 6.26733 7.79912 6.2545 8.01724C6.24323 8.2088 6.59715 8.35565 6.68553 8.17888" stroke="#FF8CE6" stroke-width="0.8" stroke-linecap="round"/>
<path d="M13.2678 6.1849C12.8056 6.06469 12.3905 7.14404 12.403 7.46506C12.411 7.67119 12.5001 8.00118 12.5929 8.19734C12.6898 8.40197 12.6797 8.59464 12.8196 8.78864C12.8875 8.8828 13.0957 8.9162 13.2077 8.97879C13.4615 9.12052 13.7287 9.22536 13.9841 9.35909C14.3519 9.5516 14.3178 9.54671 14.5672 9.34351C14.9202 9.05593 15.4108 8.37757 15.2448 7.90315C15.122 7.55223 15.0289 7.09043 14.7484 6.79574C14.4229 6.45365 14.1538 6.3563 13.6206 6.22647C12.7586 6.0166 12.3872 7.15619 12.4041 7.6939C12.4112 7.92114 12.543 8.15169 12.6083 8.37135C12.6917 8.65208 12.6927 8.89331 13.0735 8.79614C13.612 8.65868 14.2158 8.83062 14.3671 8.24904C14.4843 7.7983 14.3043 7.48948 14.0677 7.07023C13.9976 6.94606 13.8616 7.40617 13.8503 7.44013C13.8157 7.54396 13.6946 7.63353 13.7057 7.77601C13.7212 7.97385 14.002 8.22353 14.1629 8.33529C14.349 8.46459 14.2399 8.12832 14.245 8.0194C14.2528 7.85448 14.3383 7.48101 14.2551 7.33357C14.1136 7.08286 13.7985 7.02529 13.4657 6.93873C13.1945 6.8682 13.1171 7.46347 13.0776 7.61543C13.0121 7.86699 13.3128 8.1089 13.2531 8.33838" stroke="#FF8CE6" stroke-width="0.8" stroke-linecap="round"/>
<path d="M18.265 8.48492C18.1251 8.50047 18.0192 8.95327 17.9537 9.0776C17.8411 9.29161 17.8118 9.63069 17.6724 9.80497C17.4866 10.0372 17.5646 10.4872 17.5646 10.7568C17.5646 10.9248 17.5093 11.2344 17.6304 11.3824C17.746 11.5236 17.7696 11.6831 17.9687 11.7716C18.2876 11.9133 19.6561 12.5723 19.7766 11.9093C19.8436 11.541 20.1048 11.1328 19.9772 10.7359C19.9121 10.5335 19.7783 9.99792 19.5821 9.88579C19.2246 9.68154 19.0423 8.91596 18.5344 8.91596C17.9106 8.91596 17.9417 9.98915 17.9417 10.4246C17.9417 10.6751 17.8882 11.152 18.1812 11.2358C18.3692 11.2895 18.6216 11.3578 18.738 11.125C18.9015 10.7979 19.0463 10.0651 18.8457 9.72415C18.6183 9.33745 18.6961 10.0572 18.6961 10.1971C18.6961 10.4833 18.9208 10.7797 18.9625 11.0711C18.9809 11.2004 18.9686 11.7104 19.181 11.598C19.4468 11.4572 19.3965 10.7456 19.3965 10.5084C19.3965 10.1943 18.8683 10.2168 18.6422 10.2749C18.2445 10.3772 18.2003 11.2089 18.3997 11.0981C18.653 10.9574 18.658 10.5852 18.6422 10.3168C18.6268 10.0554 17.945 10.5323 18.3997 10.5323C18.6533 10.5323 18.4805 10.1483 18.4805 10.0205C18.4805 9.96145 18.4303 9.80616 18.3997 9.75109C18.3159 9.60012 18.3699 9.43479 18.3069 9.29311C18.249 9.16268 18.1697 8.8082 18.0226 8.8082C17.6927 8.8082 17.7262 8.87305 17.7262 9.18536C17.7262 9.29311 17.7262 9.40087 17.7262 9.50863C17.7262 9.70267 17.7172 9.428 17.7292 9.37393C17.7748 9.16884 18.0213 8.70514 18.2111 8.60466C18.6162 8.39019 19.0193 8.75921 19.0193 9.18536" stroke="#FF8CE6" stroke-width="0.8" stroke-linecap="round"/>
<path d="M5.05672 4.03073C4.84552 3.65527 4.58168 3.28977 4.34971 2.9197C4.15764 2.61331 3.9783 2.51226 3.76894 2.25057C3.59153 2.0288 3.168 1.99574 3.02826 1.75818C2.98444 1.68369 2.75673 1.66779 2.81784 1.60668C2.85689 1.56763 3.13967 1.60668 3.20081 1.60668C3.60965 1.60668 3.85444 1.59743 4.18979 1.87181C4.4822 2.11105 4.8311 2.46201 5.13247 2.65037C5.26 2.73007 5.62095 3.38238 5.47335 3.50047C5.2677 3.66498 5.28397 3.93641 5.28397 4.18223" stroke="#A5A5A5" stroke-linecap="round"/>
<path d="M5.13253 2.8187C4.76276 2.44431 4.27549 1.73036 3.67642 1.68243C3.36788 1.65775 3.18846 1.37943 2.85999 1.37943" stroke="white" stroke-width="0.5" stroke-linecap="round"/>
<path d="M4.0719 12.1361C3.81591 11.7241 3.58198 11.2137 3.17972 10.9241C2.92172 10.7384 2.7787 10.376 2.52741 10.175C2.16126 9.88209 3.28743 10.7434 3.57531 11.1135C3.79757 11.3993 4.06038 11.7739 4.15186 12.094C4.21742 12.3235 4.29915 12.2295 4.29915 12.0435C4.29915 11.7967 4.29915 11.5498 4.29915 11.3029C4.29915 10.7151 3.49578 10.5752 3.16288 10.2423C2.96568 10.0451 2.40876 10.0845 2.2707 9.86359C2.11259 9.61061 2.18871 9.94994 2.29174 10.053C2.42097 10.1822 2.59709 10.5233 2.78413 10.5454C3.06255 10.5781 3.39014 11.2069 3.39014 11.4544" stroke="#A5A5A5" stroke-linecap="round"/>
<path d="M13.1622 4.18223C13.028 3.80478 12.9286 3.00093 12.6319 2.6672C12.4765 2.49237 12.0915 1.94416 12.4804 2.19585C12.8948 2.46399 13.0741 3.01825 13.2548 3.42471C13.3417 3.62033 13.3145 3.88026 13.4484 4.04756C13.5011 4.11343 13.5248 4.35971 13.4652 4.30006C13.3661 4.20097 13.327 3.95009 13.2969 3.8203C13.1549 3.20997 13.0221 2.22408 12.5562 1.75818" stroke="#A5A5A5" stroke-linecap="round"/>
<path d="M18.389 6.22753C18.0792 5.68301 17.7992 5.12082 17.5557 4.54416C17.4631 4.32478 17.0696 3.79741 17.4042 4.0139C17.802 4.27131 17.9368 4.9805 18.2207 5.33534C18.3564 5.50499 18.4585 6.04366 18.4647 6.2612C18.4692 6.41544 18.4647 6.72412 18.4647 6.72412C18.4647 6.72412 18.4383 6.44116 18.4058 6.30328C18.3186 5.93273 18.3496 5.53739 18.2543 5.16701C18.1733 4.85194 18.0362 4.56321 17.9345 4.25799" stroke="#A5A5A5" stroke-linecap="round"/>
<path d="M2.02661 9.63632C2.48355 9.92792 2.94391 10.2144 3.38593 10.5285C3.46658 10.5858 3.4836 10.6144 3.44906 10.5453C3.38996 10.4271 3.33338 10.3371 3.23863 10.2423C3.06496 10.0687 2.91846 9.96862 2.70837 9.86358" stroke="white" stroke-linecap="round"/>
<path d="M12.1774 1.45517C12.4169 1.80441 12.6426 2.15482 12.8591 2.51569" stroke="white" stroke-linecap="round"/>
<path d="M17.2527 3.72772C17.4421 3.91713 17.7425 4.396 18.0102 4.48524" stroke="white" stroke-linecap="round"/>
</svg>
