<svg width="35" height="33" viewBox="0 0 35 33" fill="none" xmlns="http://www.w3.org/2000/svg">
<path d="M8.17065 5.9252C9.86966 5.33709 11.4844 4.5169 13.2848 4.20255C13.9405 4.08806 14.6558 3.84729 15.2927 3.65345C15.8735 3.47671 16.4649 3.50272 17.0639 3.50272C18.1037 3.50272 19.1175 3.40582 20.1646 3.40582C21.471 3.40582 22.7598 3.50272 24.0621 3.50272" stroke="black" stroke-width="5" stroke-linecap="round"/>
<path d="M13.791 9.31685C15.3979 8.84287 16.9202 8.36799 18.4637 7.74493C19.5342 7.31279 20.5154 6.80182 21.6399 6.52831C23.0574 6.18349 24.6403 6.02228 26.0972 6.02228" stroke="black" stroke-width="5" stroke-linecap="round"/>
<path d="M22.7056 10.2858C23.628 10.1874 24.4702 9.89416 25.3757 9.80129C26.268 9.70977 27.1576 9.41369 28.0458 9.41369C28.7379 9.41369 29.4317 9.40038 30.1237 9.41369C30.6251 9.42333 31.1194 9.60749 31.6203 9.60749" stroke="black" stroke-width="5" stroke-linecap="round"/>
<path d="M3.51972 6.50665C3.10028 7.81741 3.44589 8.94926 4.14418 10.0919C4.70952 11.017 5.46679 11.8446 6.11447 12.7082C6.56503 13.309 6.99266 13.9869 7.49259 14.5493C7.97161 15.0882 8.32345 15.7388 8.9084 16.1966C9.45998 16.6282 10.0537 17.1847 10.3996 17.79C10.5364 18.0295 11.0364 18.5758 11.2717 18.7375C11.5862 18.9537 11.9022 19.468 12.1653 19.7603C12.7286 20.3862 13.4043 21.142 14.1733 21.5745C14.5806 21.8036 15.1599 22.3426 15.6321 22.3981C15.7766 22.4151 16.4045 22.8367 16.5258 22.958C16.7797 23.2119 17.0695 23.0723 16.7949 23.4156C16.6268 23.6257 16.1406 23.8516 15.8744 23.8516C15.1584 23.8516 14.174 24.1726 13.4519 23.8516C13.1286 23.7079 12.5897 23.6966 12.2407 23.6578C11.8639 23.616 11.5201 23.4452 11.1748 23.2918C10.6195 23.0449 9.80189 22.8689 9.37674 23.4156C8.82308 24.1274 8.45538 24.8682 9.18294 25.5958C9.52533 25.9382 9.7196 25.8915 10.1573 25.9888C10.5797 26.0826 10.9991 26.2152 11.417 26.2795C13.0226 26.5265 14.4712 26.9145 16.0951 26.3925C16.5467 26.2474 16.9752 25.8841 17.4248 25.7842C17.6353 25.7374 17.7792 25.6927 18.0062 25.6927C18.2453 25.6927 18.3007 25.9959 18.4907 26.0803C18.7639 26.2017 18.8475 26.598 19.1205 26.7586C19.4276 26.9392 19.7279 27.2838 19.9926 27.5338C20.3677 27.888 20.6015 28.3904 20.9831 28.7719C21.4341 29.223 23.0499 28.8499 23.4594 28.4812C23.7252 28.242 23.977 28.1004 24.1593 27.7814C24.4114 27.3402 24.8901 27.5662 24.4984 27.0439C23.8955 26.24 22.9095 25.3091 22.0275 24.8421C21.4638 24.5437 20.7678 23.99 20.7678 23.3187C20.7678 22.8232 20.788 22.541 20.9831 22.1074C21.1545 21.7265 21.5269 21.1473 21.543 20.7293C21.5603 20.2783 21.7462 19.8025 21.8283 19.3512C21.8997 18.9587 21.8337 18.4901 21.8337 18.0915C21.8337 17.8299 21.9904 16.7642 21.7368 16.6057C21.574 16.504 21.3299 15.8994 21.2307 15.7121C21.057 15.3838 20.9831 14.5665 20.7193 14.3555C20.5749 14.24 20.6562 13.4584 20.4233 13.3919C20.0925 13.2974 19.4196 14.494 19.1743 14.6946C18.9149 14.9069 18.2484 15.3138 18.2484 15.6636C18.2484 16.0837 18.9875 15.9396 19.3143 16.1212C19.7976 16.3897 20.2678 17.0375 20.2833 17.5962C20.2919 17.9061 20.2833 18.2174 20.2833 18.5275C20.2833 18.9559 19.9321 19.0253 19.6588 19.2489C19.2647 19.5714 18.7991 19.6849 18.2969 19.6849C17.7887 19.6849 17.0299 19.4244 16.7196 19.0067C16.2978 18.4389 16.196 17.71 15.8259 17.144C15.5269 16.6866 15.4273 16.07 15.1961 15.5613C14.9275 14.9705 14.4318 14.7589 14.0387 14.2586C13.6443 13.7566 12.7633 13.5486 12.2407 13.1712C11.7643 12.8272 11.2224 12.519 10.8087 12.1053C10.4391 11.7357 9.87178 11.4144 9.43596 11.1147C8.85107 10.7126 8.41967 10.2546 7.92864 9.76354C7.6916 9.52651 7.31585 9.29834 7.00809 9.14447C6.58857 8.93471 6.15724 8.57208 5.72687 8.4231C4.92319 8.14491 4.31917 7.28185 3.42282 7.28185" stroke="black" stroke-width="5" stroke-linecap="round"/>
<path d="M14.1856 22.0515C14.0667 21.2801 13.9363 20.5104 13.8274 19.7376C13.778 19.3867 13.7428 19.1774 13.8909 19.6029C14.1101 20.2332 14.2157 21.1392 14.6256 21.6835C14.6324 21.6925 14.6572 20.8311 14.6441 20.7334C14.5738 20.2099 14.4586 19.6607 14.3056 19.1546C14.2413 18.9419 14.1744 18.4124 14.0038 18.2525C13.9408 18.1933 13.9339 18.413 13.9225 18.4987C13.8863 18.7705 13.805 19.0333 13.7707 19.3054C13.7171 19.7309 13.5851 20.3212 13.6936 20.7416C13.9036 21.5556 14.0007 20.6471 13.9706 20.2484C13.8969 19.2703 13.797 18.1506 13.3817 17.2439C13.3425 17.1583 13.2497 18.0798 13.241 18.1839C13.1818 18.8885 13.2034 19.6628 12.9948 20.344C12.9788 20.3961 12.7994 21.0093 12.6577 20.9267C12.4026 20.778 12.5067 19.6628 12.5067 19.4388C12.5065 18.6916 12.5106 17.9418 12.5147 17.1948C12.5153 17.0816 12.5443 16.2811 12.5266 16.7984C12.4768 18.2569 12.5994 19.7317 12.7253 21.1834C12.8072 22.129 12.4138 19.3068 12.1554 18.3934C12.0588 18.052 11.9552 17.7076 11.8342 17.3739C11.7905 17.2531 11.7271 16.9297 11.6522 17.0341C11.5983 17.1092 11.5997 17.4181 11.59 17.4949C11.5383 17.9028 11.5126 18.3136 11.4737 18.7228C11.4404 19.0744 11.4373 19.6495 11.2679 19.9746C11.0788 20.3377 11.1549 19.1603 11.1605 18.7509C11.1686 18.1602 11.1528 17.5656 11.1394 16.975C11.1291 16.5186 10.9512 16.0691 10.9677 15.6172C10.9828 15.2033 10.8732 15.5167 10.8349 15.7561C10.6872 16.6804 10.6511 17.6237 10.7112 18.5571C10.7417 19.0318 10.7699 19.1202 10.6809 18.6152C10.5794 18.0384 10.4791 17.4343 10.3253 16.8696C10.174 16.3143 9.98257 15.7676 9.80966 15.2186C9.76816 15.0868 9.6671 14.4302 9.68506 14.6269C9.76199 15.4693 9.58421 16.3433 9.6105 17.1918C9.61523 17.3445 9.7144 18.2136 9.68839 18.1115C9.56499 17.6275 9.75417 17.1069 9.75582 16.6166C9.75766 16.0698 9.77487 15.5192 9.73254 14.9738C9.70864 14.6658 9.65874 14.3521 9.66015 14.0435C9.66032 14.0065 9.57364 14.811 9.55934 14.9842C9.50138 15.686 9.4976 16.3908 9.44709 17.0933C9.42478 17.4036 9.37453 17.3672 9.28362 17.0786C9.05054 16.3386 8.70941 15.5684 8.60542 14.7993C8.59402 14.715 8.63763 14.2992 8.64401 14.3195C8.7317 14.5979 8.46989 15.1791 8.38845 15.4412C8.31499 15.6777 8.30364 16.015 8.18851 15.6189C8.09254 15.2888 8.12711 14.9349 8.10436 14.5953C8.08672 14.332 7.96573 13.5499 7.98159 13.8133C8.01161 14.3117 7.79265 14.8822 7.72803 15.3757C7.72033 15.4345 7.70687 16.0236 7.66507 15.9603C7.55322 15.7908 7.52095 15.5006 7.4949 15.3079C7.43274 14.8482 7.28268 14.1867 7.05037 13.7845C6.94652 13.6047 6.49908 14.5112 6.48759 14.4913C6.26498 14.1059 6.08519 12.7606 6.13899 13.2024C6.19578 13.6687 6.11914 14.1345 6.15569 14.6002C6.15782 14.6273 6.2235 15.151 6.12466 14.8659C6.02687 14.5838 5.95855 14.3084 5.91788 14.0133C5.89149 13.8217 5.96564 13.4424 5.8595 13.2816C5.72499 13.0778 5.28419 13.7104 5.18922 13.4089C5.09767 13.1182 5.0955 12.9686 5.11753 12.677" stroke="#A5A5A5" stroke-width="0.8" stroke-linecap="round"/>
<path d="M3.86983 8.46358C3.89779 9.35161 3.96699 10.2342 4.00937 11.1199C4.01098 11.1537 3.96071 11.5039 3.95248 11.4996C3.89339 11.4689 3.89517 10.8013 3.89052 10.7426C3.85679 10.3163 3.80333 9.88761 3.78672 9.46045C3.77653 9.19865 3.7775 8.94646 3.70365 8.69241C3.70003 8.67998 3.59571 8.39756 3.67387 8.40176C3.77448 8.40716 4.13844 11.2659 4.19244 11.477C4.21914 11.5814 4.67054 13.1283 4.71904 12.5466C4.76371 12.0108 4.95353 11.3805 4.92159 10.8502C4.88878 10.3055 4.99438 11.1165 5.00788 11.2643C5.06242 11.8614 5.06474 11.6149 5.04786 11.1811C5.04235 11.0393 5.08299 10.0459 5.23064 10.5146C5.43656 11.1684 5.56921 11.8417 5.77536 12.4962C5.85339 12.744 5.83204 11.9783 5.89464 11.7262C6.01433 11.2443 6.17435 11.6214 6.29756 11.8288C6.33025 11.8838 6.52459 12.1752 6.57355 12.2007C6.672 12.252 6.93366 12.0191 7.00469 12.1267C7.15161 12.3493 7.12553 12.6754 7.25926 12.9069C7.31836 13.0092 7.33068 12.5148 7.34937 12.4505" stroke="#A5A5A5" stroke-width="0.8" stroke-linecap="round"/>
<path d="M4.52405 8.01926C5.10131 8.93713 5.57404 9.73803 6.41411 10.4198C6.65191 10.6129 6.87122 10.9285 7.17466 11.0274C7.23092 11.0458 6.96618 10.3328 6.93571 10.2688C6.69681 9.76687 6.44591 9.25925 6.15511 8.78507C6.08032 8.66311 5.82408 8.11231 5.95949 8.54224C6.13738 9.10699 6.30387 9.6631 6.59508 10.1819C6.69573 10.3613 6.83806 10.8344 7.05689 10.9057C7.10836 10.9225 6.94067 10.3966 6.91877 10.3271C6.8199 10.0132 6.76701 9.27385 7.18988 9.87106C7.27183 9.98678 8.33541 11.6281 8.41491 11.6031C8.48242 11.5818 7.99813 9.99039 7.94439 9.80107C7.74181 9.08737 8.75103 11.0465 9.15115 11.6712C9.30217 11.907 9.66577 12.4926 9.47752 11.8949C9.4585 11.8345 9.48132 11.6548 9.48656 11.6715C9.58228 11.9754 9.74293 12.269 9.85361 12.5707C10.0613 13.1368 10.3152 14.0494 10.7993 14.4524C11.0034 14.6224 10.7406 12.8794 10.6644 12.6374C10.5671 12.3283 10.4697 12.0192 10.3724 11.7101C10.3104 11.5134 10.3195 11.5422 10.3837 11.7463C10.5501 12.2746 10.7452 12.7832 10.9516 13.297C11.1053 13.6797 11.2408 14.1887 11.5239 14.4978C11.7077 14.6983 11.6796 14.409 11.653 14.263C11.5864 13.8991 11.6055 13.5432 11.5885 13.1758C11.5803 12.9995 11.4142 11.524 11.7137 12.0466C12.2893 13.0506 12.6289 14.212 13.3395 15.1349C13.5927 15.4638 13.586 15.3809 13.5597 15.0214C13.526 14.5633 13.4861 14.08 13.3617 13.6365C13.282 13.3522 13.2599 13.0612 13.171 12.7789C13.1347 12.6637 13.3806 13.1954 13.4076 13.2779C13.7239 14.2438 14.1609 15.1653 14.4649 16.1305C14.5311 16.3406 14.5973 16.5507 14.6634 16.7607C14.7456 17.0215 14.5492 16.2244 14.5278 15.9519C14.5029 15.6346 14.485 15.3054 14.42 14.9931C14.3293 14.5581 14.5645 15.4381 14.5896 15.5177C14.7156 15.9177 14.8416 16.3178 14.9676 16.7179C15.0049 16.8362 15.019 17.1383 15.115 17.0597C15.2355 16.9612 14.7978 15.9265 14.7567 15.796C14.6085 15.3257 14.0925 13.9396 14.2406 14.4098C14.3801 14.8527 14.5196 15.2956 14.6591 15.7384C14.8113 16.2215 14.9634 16.7045 15.1155 17.1875C15.1676 17.3528 15.2808 17.9636 15.2302 17.4955C15.1716 16.9534 14.759 15.4249 15.0789 15.8665C15.332 16.216 15.4396 16.7036 15.5668 17.1072C15.6418 17.3456 15.754 18.1138 16.0653 18.1856C16.2116 18.2193 16.1818 16.7542 16.1771 16.5796C16.1663 16.1742 16.4089 16.8312 16.4405 16.9114C16.7344 17.6576 16.8509 18.5098 17.2756 19.1986C17.8291 20.0964 17.9635 18.8129 17.9707 18.3796C17.9745 18.1533 17.9893 17.9287 17.9606 17.7033C17.9505 17.6241 17.8938 17.4269 17.9646 17.4638C18.1425 17.5565 18.2542 18.3273 18.3119 18.5104C18.5584 19.293 18.3238 18.548 18.2259 18.2374" stroke="#E8E8E8" stroke-width="0.8" stroke-linecap="round"/>
<path fill-rule="evenodd" clip-rule="evenodd" d="M20.9991 12.1204C21.001 12.1074 21.002 12.1095 20.999 12.1209C20.999 12.1207 20.999 12.1206 20.9991 12.1204ZM20.7654 12.5498C20.7535 12.5634 20.7414 12.5768 20.7293 12.5899C20.6171 12.7114 20.4764 12.8377 20.3382 12.9525C20.0647 13.1796 19.7584 13.3963 19.6174 13.4777C19.5341 13.5258 19.4546 13.5687 19.3832 13.6069C19.3723 13.6128 19.3617 13.6185 19.3513 13.624C19.2917 13.6559 19.24 13.6835 19.192 13.7107C19.0729 13.7779 19.0222 13.8175 19.0001 13.8425C18.9998 13.8429 18.9995 13.8432 18.9992 13.8435C19.0012 13.8714 19.0184 13.9501 19.1095 14.1078C19.1309 14.1449 19.1536 14.1838 19.1772 14.2241C19.3049 14.4426 19.4577 14.7042 19.5737 14.9738C19.712 15.2952 19.8205 15.6759 19.7653 16.0748C19.7463 16.2121 19.7419 16.3484 19.7366 16.5087C19.7356 16.5399 19.7345 16.572 19.7333 16.6052C19.7263 16.7991 19.7143 17.0219 19.6614 17.253C19.6476 17.3134 19.6389 17.4022 19.6334 17.5272C19.6308 17.5866 19.6291 17.6487 19.6272 17.7156L19.6271 17.7192C19.6252 17.7863 19.6232 17.858 19.62 17.9297C19.6137 18.0712 19.6022 18.2277 19.5732 18.3758C19.5449 18.5204 19.4942 18.6887 19.389 18.8332C19.3588 18.8747 19.3293 18.941 19.294 19.0562C19.2853 19.0847 19.2748 19.1218 19.263 19.1634C19.2377 19.2527 19.2066 19.3626 19.175 19.4511C19.1231 19.5967 19.0447 19.7689 18.9046 19.9165C18.7577 20.0714 18.5641 20.1771 18.3209 20.2209C17.8169 20.3116 17.3401 20.2044 16.9366 20.0989C16.874 20.0826 16.8133 20.0664 16.7544 20.0506C16.4697 19.9746 16.2248 19.9091 15.9856 19.8873C16.0025 19.9382 16.0222 19.9992 16.0384 20.0622C16.0659 20.1691 16.0996 20.3378 16.0563 20.5155C16.0567 20.5205 16.0572 20.5259 16.0577 20.5317C16.0622 20.5815 16.0698 20.6486 16.0788 20.7185C16.0879 20.7882 16.0978 20.8565 16.1066 20.9084C16.1097 20.9268 16.1123 20.9415 16.1145 20.9526C16.1884 21.1219 16.2007 21.3002 16.1984 21.4389C16.196 21.5847 16.1758 21.7302 16.1612 21.8357C16.1604 21.8411 16.1597 21.8465 16.1589 21.8517C16.1509 21.9101 16.1423 21.9793 16.1339 22.0476C16.1237 22.1306 16.1136 22.2125 16.1046 22.2727C16.0851 22.4029 16.0574 22.5426 15.9997 22.6796C15.8728 22.9806 15.639 23.1816 15.284 23.3687C14.8427 23.6014 14.336 23.6492 13.9166 23.6888C13.909 23.6896 13.9013 23.6903 13.8937 23.691C13.4374 23.7342 13.0731 23.772 12.7712 23.9234C12.5467 24.036 12.2791 24.0783 12.0224 24.0847C11.7603 24.0913 11.4798 24.061 11.2098 24.0053C10.6883 23.8978 10.1241 23.6777 9.79878 23.363C9.79881 23.3631 9.79851 23.3628 9.79783 23.3621C9.79745 23.3618 9.79696 23.3613 9.79633 23.3607L9.78947 23.3545C9.78362 23.3492 9.77604 23.3425 9.76675 23.3345C9.74817 23.3184 9.72444 23.2983 9.697 23.2757C9.64197 23.2303 9.57497 23.1769 9.50862 23.127C9.47864 23.1044 9.45018 23.0836 9.42402 23.0652C9.41981 23.07 9.41384 23.0768 9.40669 23.085C9.38229 23.113 9.34413 23.1568 9.31511 23.1869C9.26509 23.2388 9.198 23.3 9.10853 23.3517C8.89252 23.4764 8.70111 23.6561 8.46605 23.8784L8.46028 23.8838C8.28544 24.0492 8.0863 24.2376 7.85375 24.4001C8.29423 24.9968 8.85872 25.5403 9.45909 25.9002C9.57723 25.971 9.69358 26.0419 9.80861 26.1119C10.6455 26.6216 11.413 27.0889 12.2982 27.2013C12.5072 27.2278 12.7192 27.2644 12.9193 27.299C13.0223 27.3168 13.1222 27.3341 13.217 27.3491C13.5079 27.3954 13.7875 27.4281 14.0835 27.4232C14.5224 27.416 14.8936 27.2816 15.3565 27.114C15.4094 27.0949 15.4636 27.0753 15.5192 27.0554C16.4805 26.7112 17.3413 26.2141 18.2784 25.6728C18.3082 25.6556 18.3381 25.6383 18.3681 25.621C18.8161 25.3624 19.2085 25.0201 19.6144 24.6405C19.6873 24.5724 19.7609 24.5027 19.8355 24.4321C20.1672 24.1181 20.5175 23.7866 20.8995 23.4974C21.3258 23.1747 21.5636 22.8175 21.8259 22.3242C21.9029 22.1793 22.0043 21.9577 22.0847 21.7296C22.1688 21.491 22.2136 21.2897 22.2116 21.1686C22.2013 20.5408 22.2844 19.9623 22.3714 19.3908C22.4138 19.1125 22.4181 18.8311 22.421 18.5203L22.4213 18.4881C22.4239 18.1942 22.4269 17.8724 22.472 17.5461C22.5031 17.3214 22.4732 17.0801 22.4205 16.7929C22.4116 16.7439 22.4017 16.6928 22.3915 16.64C22.3461 16.4038 22.294 16.1337 22.2844 15.8723C22.2775 15.6843 22.2668 15.4273 22.2353 15.1783C22.202 14.9146 22.1517 14.7197 22.0958 14.6228C21.9732 14.4105 21.8329 14.212 21.6819 13.9994L21.6732 13.9872C21.528 13.7828 21.3722 13.5634 21.2362 13.3278C21.2302 13.3175 21.2204 13.2999 21.2072 13.2763C21.1344 13.146 20.96 12.8336 20.7824 12.5745C20.7767 12.5661 20.771 12.5579 20.7654 12.5498ZM7.42203 23.7576C7.59276 23.6368 7.75351 23.4869 7.93414 23.316C7.94113 23.3094 7.94816 23.3028 7.95522 23.2961C8.17118 23.0917 8.4222 22.8541 8.72151 22.6813C8.73916 22.6711 8.7462 22.6632 8.78388 22.6203C8.79979 22.6022 8.82115 22.578 8.85108 22.5447C8.93886 22.4471 9.07928 22.3087 9.3164 22.2493C9.4046 22.2273 9.47878 22.2399 9.51261 22.2472C9.55235 22.2558 9.58601 22.2684 9.60959 22.2782C9.65697 22.2981 9.70219 22.3236 9.73891 22.3459C9.81446 22.3917 9.89826 22.4515 9.97387 22.5083C10.1224 22.6201 10.28 22.7516 10.337 22.8067C10.5066 22.9708 10.9 23.1511 11.3661 23.2472C11.5898 23.2933 11.8106 23.3157 12.0031 23.3109C12.201 23.3059 12.3415 23.273 12.4242 23.2314C12.8652 23.0103 13.3655 22.9632 13.7802 22.9242C13.7938 22.9229 13.8074 22.9217 13.8208 22.9204C14.2758 22.8774 14.6328 22.837 14.923 22.684C15.1999 22.5381 15.2575 22.4474 15.2864 22.3789C15.3066 22.3311 15.3228 22.2667 15.339 22.1583C15.3488 22.0928 15.3555 22.037 15.3632 21.9727C15.3707 21.9105 15.3791 21.8403 15.3922 21.7456C15.4084 21.6285 15.4228 21.5239 15.4244 21.4262C15.4261 21.3248 15.4121 21.2761 15.4037 21.2593C15.3762 21.2045 15.3635 21.1435 15.3608 21.1301C15.3606 21.1293 15.3605 21.1287 15.3604 21.1282C15.3544 21.1005 15.3486 21.0687 15.3432 21.0369C15.3324 20.9725 15.3211 20.894 15.3112 20.8179C15.3014 20.7419 15.2924 20.664 15.2868 20.6009C15.284 20.5699 15.2816 20.538 15.2806 20.5099C15.2801 20.4964 15.2796 20.478 15.2804 20.4583C15.2808 20.4486 15.2816 20.4336 15.2838 20.416C15.2853 20.4051 15.2895 20.3732 15.303 20.3343C15.3026 20.3268 15.3011 20.303 15.2888 20.2551C15.2786 20.2156 15.2647 20.1724 15.2469 20.1187C15.2451 20.1133 15.2432 20.1077 15.2413 20.102C15.2259 20.0557 15.2071 19.9995 15.192 19.9454C15.1752 19.885 15.1566 19.8062 15.1524 19.7218C15.1482 19.6369 15.1572 19.5194 15.2222 19.403C15.3671 19.1434 15.6499 19.104 15.8406 19.1056C16.2367 19.1088 16.6315 19.2153 16.9707 19.3069C17.0261 19.3218 17.08 19.3364 17.1323 19.35C17.5298 19.4539 17.8612 19.5171 18.1838 19.459C18.2748 19.4427 18.3165 19.4118 18.3431 19.3837C18.3767 19.3484 18.4102 19.2913 18.4459 19.1912C18.4703 19.1227 18.4865 19.0645 18.5058 18.9956C18.5191 18.9478 18.5339 18.8948 18.5539 18.8296C18.5947 18.6963 18.6542 18.5276 18.7631 18.3778C18.7732 18.3639 18.7951 18.3215 18.8136 18.2271C18.8314 18.1362 18.8409 18.0253 18.8468 17.8951C18.8496 17.831 18.8515 17.7657 18.8533 17.6977L18.8535 17.6915C18.8553 17.6267 18.8572 17.559 18.8601 17.4932C18.8659 17.3617 18.8764 17.2135 18.9069 17.0805C18.9423 16.9255 18.953 16.7649 18.9598 16.5773C18.9607 16.5501 18.9616 16.522 18.9626 16.4931C18.9677 16.3333 18.9735 16.15 18.9986 15.9687C19.0259 15.7709 18.9761 15.5434 18.8627 15.2798C18.7672 15.0577 18.6425 14.844 18.5146 14.6247C18.4895 14.5816 18.4643 14.5384 18.4391 14.4948C18.3231 14.2939 18.2393 14.0926 18.2266 13.891C18.2125 13.6656 18.2894 13.4779 18.4199 13.3302C18.5345 13.2004 18.6854 13.1078 18.8114 13.0366C18.8678 13.0048 18.9285 12.9723 18.9876 12.9407C18.9977 12.9353 19.0078 12.9299 19.0177 12.9246C19.0879 12.887 19.1583 12.8489 19.2304 12.8073C19.3196 12.7558 19.5888 12.5687 19.8437 12.357C19.9696 12.2525 20.0813 12.1507 20.1606 12.0648C20.2005 12.0216 20.2258 11.9893 20.2398 11.9681C20.24 11.9678 20.2401 11.9676 20.2403 11.9673C20.2618 11.8623 20.3286 11.6593 20.5535 11.5825C20.6753 11.5409 20.7854 11.5608 20.8574 11.586C20.9281 11.6106 20.9849 11.6477 21.025 11.6779C21.1703 11.7877 21.313 11.9794 21.421 12.1371C21.625 12.4348 21.8282 12.8001 21.8896 12.9105C21.898 12.9257 21.9038 12.936 21.9065 12.9407C22.0239 13.1441 22.1613 13.3377 22.313 13.5512L22.3134 13.5519C22.4615 13.7604 22.6228 13.9874 22.7662 14.2358C22.9059 14.4779 22.9689 14.8093 23.0033 15.0812C23.0395 15.3679 23.0511 15.6558 23.058 15.8439C23.0652 16.0401 23.1028 16.2367 23.147 16.4681C23.1583 16.5273 23.1701 16.5889 23.1819 16.6533C23.2362 16.9497 23.288 17.2959 23.2387 17.6522C23.2005 17.9284 23.198 18.2066 23.1951 18.5145L23.195 18.5275C23.1921 18.8324 23.1885 19.1668 23.1366 19.5074C23.0494 20.0801 22.9764 20.6003 22.9856 21.1559C22.99 21.4212 22.905 21.7307 22.8147 21.9868C22.7208 22.2533 22.6036 22.5103 22.5094 22.6875C22.2252 23.2221 21.9235 23.6931 21.3667 24.1146C21.022 24.3755 20.7096 24.6709 20.3798 24.9829C20.3021 25.0564 20.2234 25.1308 20.1431 25.2059C19.7311 25.5912 19.2846 25.9857 18.7551 26.2914C18.7181 26.3128 18.681 26.3342 18.644 26.3556C17.7238 26.8872 16.8086 27.4159 15.78 27.7841C15.7265 27.8033 15.6724 27.823 15.6176 27.843C15.1682 28.0069 14.6727 28.1877 14.0962 28.1972C13.7351 28.2031 13.4051 28.1628 13.0954 28.1136C12.9784 28.095 12.8684 28.0759 12.7612 28.0573C12.5736 28.0248 12.3945 27.9938 12.2007 27.9692C11.1386 27.8343 10.2184 27.2711 9.39754 26.7687C9.2835 26.6989 9.17138 26.6302 9.06106 26.5641C8.14803 26.0167 7.33749 25.1306 6.81644 24.2281C6.70956 24.043 6.77299 23.8063 6.9581 23.6994C7.11179 23.6107 7.30104 23.6394 7.42203 23.7576ZM20.248 11.9543C20.2481 11.9543 20.2477 11.9552 20.2467 11.9569C20.2475 11.9552 20.248 11.9543 20.248 11.9543ZM15.7764 19.8832C15.7763 19.883 15.7783 19.8825 15.7829 19.8819C15.7789 19.883 15.7766 19.8833 15.7764 19.8832Z" fill="white"/>
<path fill-rule="evenodd" clip-rule="evenodd" d="M21.6372 22.8611C21.6244 22.6477 21.787 22.4644 22.0003 22.4516C22.1252 22.4441 22.2375 22.4843 22.3052 22.5127C22.3836 22.5455 22.4635 22.5896 22.539 22.6361C22.6909 22.7298 22.8578 22.854 23.014 22.981C23.1714 23.109 23.3256 23.2461 23.4529 23.3694C23.5716 23.4844 23.6921 23.6113 23.7594 23.7143C23.8115 23.7939 23.9021 23.8676 24.0625 23.9912C24.0677 23.9952 24.073 23.9992 24.0785 24.0034C24.2109 24.1052 24.4101 24.2583 24.5316 24.4688C24.5808 24.554 24.7113 24.705 24.8906 24.8848C25.06 25.0547 25.2432 25.2212 25.3675 25.3315C25.5788 25.5189 25.9661 25.9 26.2111 26.3137C26.3319 26.5178 26.4436 26.7714 26.4475 27.0378C26.4518 27.3363 26.319 27.6119 26.0324 27.7993C25.9068 27.8815 25.7912 27.9885 25.6443 28.1244C25.6348 28.1333 25.6251 28.1422 25.6153 28.1513C25.465 28.2903 25.2817 28.4574 25.0614 28.5845C24.9824 28.6301 24.9249 28.6922 24.8276 28.8059C24.8236 28.8106 24.8195 28.8155 24.8153 28.8204C24.7267 28.9243 24.5966 29.0768 24.4026 29.1888C23.8644 29.4996 23.1789 30.0455 22.6821 30.5012C22.5854 30.5899 22.3452 30.7483 22.1318 30.8632C22.0222 30.9222 21.8949 30.9834 21.777 31.0198C21.7203 31.0373 21.6409 31.0571 21.5549 31.0567C21.4761 31.0564 21.3039 31.0371 21.1844 30.8793C21.1483 30.8316 21.042 30.7296 20.8949 30.6096C20.7544 30.495 20.6155 30.3951 20.5395 30.3496C20.1693 30.1276 19.9877 29.7981 19.8386 29.5277C19.8146 29.4841 19.7914 29.442 19.7684 29.4022C19.6329 29.1675 19.4758 29.0013 19.276 28.7898C19.2201 28.7306 19.1607 28.6677 19.0975 28.5989C18.9954 28.4876 18.8924 28.3784 18.7892 28.2691C18.3435 27.7969 17.8962 27.323 17.5192 26.6701C17.4123 26.485 17.4758 26.2483 17.6609 26.1414C17.846 26.0345 18.0827 26.0979 18.1896 26.283C18.5173 26.8507 18.8913 27.2478 19.33 27.7135C19.4386 27.8288 19.5511 27.9483 19.6679 28.0756C19.7134 28.1252 19.7613 28.1757 19.8106 28.2276C20.0191 28.4473 20.2533 28.6941 20.4387 29.0151C20.4727 29.074 20.5029 29.1275 20.5306 29.1765C20.6831 29.4463 20.7574 29.5777 20.9376 29.6857C21.0588 29.7584 21.2302 29.8841 21.3842 30.0098C21.4697 30.0796 21.5636 30.1604 21.6465 30.2411C21.6811 30.2252 21.7209 30.2053 21.7648 30.1816C21.8554 30.1329 21.9483 30.0763 22.0252 30.0257C22.0635 30.0005 22.0962 29.9779 22.1214 29.9595C22.1454 29.9419 22.1565 29.9327 22.1586 29.931C22.1589 29.9307 22.159 29.9306 22.1589 29.9307C22.6762 29.4562 23.4087 28.8688 24.0156 28.5184C24.0863 28.4776 24.1389 28.4203 24.2393 28.3029C24.2416 28.3002 24.2439 28.2975 24.2463 28.2947C24.338 28.1874 24.4712 28.0315 24.6744 27.9142C24.8105 27.8356 24.9363 27.7249 25.0897 27.5831C25.1021 27.5716 25.1147 27.5599 25.1276 27.5479C25.2632 27.4221 25.4257 27.2712 25.6088 27.1515C25.671 27.1108 25.674 27.0852 25.6735 27.049C25.6725 26.9806 25.6386 26.8661 25.545 26.7081C25.3613 26.3978 25.0448 26.0799 24.854 25.9107C24.7242 25.7956 24.5279 25.6173 24.3425 25.4314C24.1671 25.2555 23.9674 25.0397 23.8613 24.8559C23.8255 24.7939 23.7507 24.728 23.5902 24.6044C23.5828 24.5987 23.5751 24.5928 23.5673 24.5868C23.435 24.4853 23.2417 24.337 23.1116 24.1379C23.0964 24.1147 23.0332 24.0405 22.9143 23.9253C22.804 23.8184 22.6666 23.6962 22.5257 23.5816C22.3836 23.466 22.2454 23.3645 22.1328 23.295C22.0761 23.2601 22.0338 23.2382 22.0061 23.2266C22.004 23.2257 22.0022 23.225 22.0005 23.2243C21.8075 23.213 21.649 23.0589 21.6372 22.8611ZM21.9869 23.2196C21.9869 23.2195 21.988 23.2198 21.9905 23.2206C21.9882 23.2201 21.987 23.2197 21.9869 23.2196ZM21.533 30.2844C21.533 30.2844 21.5332 30.2844 21.5336 30.2843C21.5332 30.2844 21.533 30.2844 21.533 30.2844Z" fill="white"/>
<path fill-rule="evenodd" clip-rule="evenodd" d="M16.8098 20.9827C16.8726 20.8738 16.9872 20.7976 17.122 20.7895C17.4259 20.7713 17.7475 20.8278 18.0352 20.8888C18.1325 20.9094 18.2253 20.9303 18.3151 20.9505C18.5092 20.9942 18.6893 21.0348 18.8704 21.0624C19.2073 21.1137 19.3553 21.3857 19.4124 21.5831C19.4696 21.7806 19.4733 22.0079 19.4625 22.2031C19.4418 22.5769 19.3577 22.9694 19.3236 23.1281C19.3214 23.1386 19.3194 23.1481 19.3176 23.1565C19.3041 23.2197 19.2967 23.2696 19.2886 23.3237C19.2853 23.3459 19.2819 23.3689 19.2779 23.3937L19.2773 23.3974C19.2672 23.4604 19.2469 23.5874 19.1766 23.6996C19.081 23.8521 18.934 23.9253 18.7857 23.9479C18.6632 23.9667 18.5289 23.9532 18.4024 23.9339C18.3871 23.9316 18.355 23.9314 18.2855 23.9447C18.2564 23.9503 18.2277 23.9568 18.1924 23.9648C18.1861 23.9662 18.1796 23.9676 18.1729 23.9691C18.1317 23.9784 18.0813 23.9895 18.0293 23.9979C17.9299 24.0141 17.782 24.0287 17.6264 23.9788C17.4547 23.9237 17.3214 23.8065 17.2291 23.6466C17.1048 23.4312 17.0509 23.2233 17.0097 23.0594C17.0081 23.053 17.0065 23.0468 17.005 23.0406C16.9643 22.8787 16.9357 22.7646 16.8772 22.6479C16.8283 22.5503 16.812 22.4558 16.8055 22.3845C16.8004 22.3288 16.8004 22.2693 16.8004 22.2312C16.8004 22.2245 16.8004 22.2184 16.8004 22.2131C16.8001 22.1684 16.7987 22.1456 16.7959 22.129C16.7948 22.1219 16.7936 22.118 16.793 22.1162C16.7925 22.1146 16.7921 22.114 16.792 22.1137L16.4741 21.5633C16.3673 21.3781 16.4307 21.1414 16.6158 21.0346C16.677 20.9992 16.7439 20.9825 16.8098 20.9827ZM17.369 21.5651L17.4623 21.7267C17.5726 21.9178 17.5739 22.1095 17.5744 22.2087C17.5745 22.2215 17.5745 22.2326 17.5746 22.2424C17.5747 22.2786 17.5747 22.2963 17.5764 22.3144C17.5764 22.3149 17.5765 22.3154 17.5765 22.3158C17.6697 22.5064 17.7158 22.6918 17.7517 22.8358C17.7547 22.8478 17.7576 22.8595 17.7604 22.8709C17.7979 23.0201 17.8293 23.1302 17.8866 23.2366C17.8921 23.2359 17.8982 23.235 17.9051 23.2339C17.9322 23.2295 17.9627 23.223 18.0035 23.2138C18.0088 23.2127 18.0144 23.2114 18.0202 23.2101C18.055 23.2022 18.0972 23.1927 18.1393 23.1846C18.2364 23.1659 18.3721 23.1463 18.519 23.1687C18.5224 23.1692 18.5257 23.1697 18.5289 23.1702C18.5369 23.1193 18.5471 23.0585 18.5604 22.9957C18.5621 22.9878 18.5639 22.9792 18.5659 22.97C18.6002 22.8094 18.6724 22.4708 18.6896 22.1603C18.6983 22.0044 18.6907 21.8873 18.6732 21.8146C18.488 21.783 18.2944 21.7394 18.1141 21.6989C18.0308 21.6801 17.9503 21.662 17.8748 21.646C17.6846 21.6057 17.5168 21.5764 17.369 21.5651Z" fill="#458FFF"/>
<path fill-rule="evenodd" clip-rule="evenodd" d="M3.67493 6.25464C3.75024 6.27698 3.82581 6.30592 3.88383 6.32859C3.9148 6.34069 3.96853 6.35689 4.05356 6.38071C4.06807 6.38477 4.08331 6.38901 4.09913 6.39341C4.16756 6.41244 4.24672 6.43446 4.32322 6.45806C4.41692 6.48696 4.52189 6.52276 4.61669 6.56705C4.66572 6.58996 4.73185 6.62385 4.79643 6.67303C4.83173 6.6697 4.87567 6.66782 4.92138 6.67194C5.02626 6.68137 5.14698 6.72133 5.25069 6.82168C5.27963 6.84968 5.32262 6.89048 5.36381 6.92291C5.36567 6.92438 5.36749 6.92579 5.36924 6.92714C5.73059 6.95515 6.05439 7.15985 6.28296 7.31016C6.32893 7.34039 6.37165 7.369 6.41239 7.39629C6.49736 7.45321 6.57371 7.50435 6.65299 7.55234C6.76767 7.62176 6.85353 7.66211 6.92008 7.67995C7.00105 7.70164 7.10262 7.74605 7.18974 7.78715C7.28535 7.83225 7.39356 7.8879 7.49825 7.94576C7.60242 8.00333 7.7081 8.06585 7.79717 8.12502C7.84154 8.1545 7.88574 8.18575 7.92515 8.21726C7.95935 8.2446 8.01082 8.28836 8.05289 8.34392C8.05273 8.34372 8.05384 8.3452 8.05677 8.34832C8.05969 8.35143 8.06397 8.35569 8.06992 8.36105C8.08209 8.37202 8.09892 8.38554 8.12134 8.40147C8.16701 8.4339 8.22521 8.46887 8.29482 8.50707C8.35359 8.53932 8.41383 8.57032 8.47692 8.60278C8.48875 8.60886 8.50067 8.615 8.5127 8.6212C8.58507 8.65852 8.66429 8.69981 8.73328 8.74117C8.86859 8.8223 9.00339 8.90999 9.13139 8.99327C9.16186 9.01309 9.19194 9.03266 9.22156 9.05183C9.37941 9.15403 9.52862 9.24806 9.67842 9.32903C9.81804 9.4045 10.0334 9.53701 10.234 9.67598C10.4196 9.80451 10.648 9.97565 10.7674 10.1278C10.8758 10.2659 11.0698 10.4086 11.3287 10.5671C11.4076 10.6154 11.4968 10.6675 11.5886 10.721C11.763 10.8229 11.9471 10.9303 12.0889 11.0286C12.3701 11.2235 12.6274 11.4706 12.8589 11.6929C12.8972 11.7297 12.9348 11.7658 12.9717 11.8009C13.2447 12.0605 13.49 12.2763 13.7588 12.4164C14.4377 12.7702 15.0326 13.2978 15.5721 13.8385C15.8039 14.0707 16.0303 14.3104 16.2496 14.5427C16.2862 14.5815 16.3226 14.62 16.3588 14.6583C16.614 14.9281 16.86 15.1852 17.1052 15.4188C17.3682 15.6693 17.6108 15.944 17.8401 16.2036C17.8559 16.2215 17.8716 16.2394 17.8873 16.2571C18.1351 16.5375 18.3695 16.7988 18.6213 17.027C18.7148 17.1117 18.8079 17.208 18.8943 17.2981C18.9036 17.3078 18.9128 17.3174 18.922 17.327C19.0012 17.4097 19.0765 17.4883 19.1541 17.5632C19.3329 17.7356 19.4807 17.8442 19.6114 17.8876C19.8143 17.9549 19.9241 18.174 19.8568 18.3769C19.7894 18.5797 19.5704 18.6896 19.3675 18.6222C19.0633 18.5212 18.8112 18.3079 18.6167 18.1202C18.5274 18.0341 18.4412 17.9441 18.3634 17.8628C18.354 17.853 18.3447 17.8434 18.3356 17.8339C18.2477 17.7422 18.1721 17.6646 18.1016 17.6006C17.8136 17.3397 17.553 17.0476 17.3074 16.7698C17.2934 16.7539 17.2794 16.7381 17.2655 16.7224C17.031 16.4569 16.8092 16.2059 16.5713 15.9792C16.31 15.7303 16.0517 15.4601 15.7964 15.1902C15.7594 15.1511 15.7225 15.112 15.6857 15.073C15.466 14.8403 15.2478 14.6093 15.0242 14.3852C14.5005 13.8604 13.9728 13.4008 13.401 13.1028C13.0261 12.9074 12.7119 12.622 12.4383 12.3618C12.3965 12.322 12.3556 12.2829 12.3156 12.2445C12.0813 12.02 11.8743 11.8216 11.648 11.6648C11.5274 11.5812 11.3939 11.5036 11.2418 11.4152C11.1442 11.3585 11.0389 11.2973 10.9245 11.2272C10.6617 11.0663 10.3602 10.8627 10.1585 10.6057C10.122 10.5591 9.9907 10.449 9.7933 10.3123C9.61096 10.186 9.42003 10.0693 9.31035 10.01C9.13187 9.9135 8.96101 9.80527 8.80089 9.7016C8.76802 9.68032 8.73575 9.65933 8.70392 9.63863C8.57699 9.55608 8.45718 9.47815 8.33525 9.40505C8.29047 9.3782 8.23227 9.3475 8.15797 9.30919C8.14724 9.30366 8.1362 9.29798 8.1249 9.29217C8.062 9.25982 7.99111 9.22336 7.92241 9.18565C7.78184 9.1085 7.57814 8.98953 7.44806 8.82697C7.4464 8.82557 7.44434 8.82388 7.44185 8.82189C7.42616 8.80935 7.40203 8.79181 7.36884 8.76977C7.3028 8.72589 7.21648 8.67444 7.12383 8.62323C7.03169 8.57231 6.93826 8.52437 6.85947 8.48721C6.82005 8.46861 6.78627 8.45364 6.75945 8.44266C6.73479 8.43257 6.72252 8.42855 6.72008 8.42775C6.71961 8.4276 6.7195 8.42756 6.71974 8.42763C6.54764 8.38151 6.38797 8.29674 6.25215 8.21452C6.15723 8.15707 6.05654 8.08965 5.96428 8.02788C5.92705 8.00296 5.89121 7.97896 5.85766 7.95691C5.58737 7.77917 5.41582 7.6974 5.28558 7.69798C5.16133 7.69853 5.06282 7.64682 5.02255 7.62443C4.96974 7.59507 4.92192 7.56018 4.88493 7.53105C4.85255 7.50555 4.82155 7.47893 4.79435 7.45456C4.75587 7.45909 4.70106 7.46283 4.64491 7.4565C4.59217 7.45056 4.52881 7.4355 4.46399 7.4009C4.40763 7.37082 4.35944 7.33089 4.31993 7.28422C4.31381 7.28065 4.30386 7.27527 4.28905 7.26835C4.24231 7.24651 4.17701 7.223 4.09503 7.19771C4.02993 7.17763 3.96395 7.15927 3.89624 7.14043C3.87921 7.13569 3.86206 7.13092 3.8448 7.12608C3.82678 7.12103 3.80805 7.11576 3.789 7.11029C3.78219 7.16961 3.77224 7.22516 3.76403 7.26981C3.76167 7.28268 3.75941 7.29481 3.75728 7.3063C3.74666 7.36351 3.73897 7.40489 3.73451 7.44446C3.73114 7.47432 3.73167 7.48827 3.73172 7.49116C3.74453 7.54589 3.74604 7.60053 3.74666 7.62349C3.74761 7.65861 3.74717 7.69769 3.74605 7.73662C3.7438 7.81513 3.73832 7.90806 3.73144 7.9978C3.72456 8.08771 3.71594 8.17876 3.70693 8.25385C3.70247 8.29107 3.69754 8.3275 3.6922 8.35929L3.69194 8.36087C3.68856 8.38108 3.67949 8.43532 3.65985 8.48558C3.64807 8.51573 3.63646 8.62055 3.65523 8.8083C3.67159 8.97203 3.7037 9.13863 3.72802 9.26478L3.72996 9.27486C3.89312 10.1216 4.14343 11.0689 4.5574 11.7859C4.78487 12.1799 4.97678 12.5615 5.1638 12.9335L5.16761 12.9411C5.35704 13.3178 5.54188 13.685 5.76088 14.0643C5.91655 14.3339 6.12738 14.5725 6.36932 14.8435L6.38362 14.8595C6.61271 15.1161 6.87094 15.4052 7.06591 15.7429C7.13937 15.8701 7.25491 15.9803 7.42281 16.1281C7.43416 16.1381 7.44585 16.1483 7.45784 16.1589C7.60508 16.2879 7.79641 16.4555 7.93414 16.6661C8.18847 17.0551 8.54678 17.3885 8.95766 17.7237C9.08274 17.8257 9.21597 17.9302 9.352 18.037C9.64389 18.266 9.94872 18.5052 10.2138 18.7515C10.3425 18.8711 10.4466 19.0028 10.529 19.107C10.5428 19.1244 10.5559 19.141 10.5685 19.1567C10.6625 19.2742 10.7388 19.36 10.836 19.4307C10.8998 19.4772 10.9775 19.5303 11.0677 19.592L11.0821 19.6018C11.1761 19.6661 11.2807 19.7379 11.3831 19.8121C11.5761 19.9521 11.8065 20.1321 11.9459 20.3216C12.095 20.5242 12.3468 20.8106 12.6246 21.0656C12.9129 21.3302 13.1824 21.5172 13.3676 21.5775C13.5052 21.6222 13.6099 21.7072 13.679 21.7712C13.7395 21.8272 13.7985 21.8926 13.8437 21.9426C13.8508 21.9505 13.8575 21.958 13.8639 21.965C13.9185 22.025 13.9548 22.0623 13.9853 22.0869C13.9917 22.092 13.9965 22.0955 14 22.0978C14.123 22.121 14.235 22.1828 14.3102 22.2294C14.4006 22.2854 14.492 22.3543 14.5746 22.4235C14.6577 22.4932 14.7382 22.5684 14.8063 22.64C14.8691 22.7059 14.94 22.7879 14.9872 22.8696C15.0941 23.0547 15.0307 23.2914 14.8456 23.3983C14.6605 23.5052 14.4238 23.4417 14.3169 23.2566L14.3169 23.2566C14.316 23.2554 14.2966 23.2271 14.2458 23.1738C14.1992 23.1249 14.1402 23.0694 14.0774 23.0168C14.014 22.9637 13.9529 22.9186 13.9026 22.8874C13.8696 22.867 13.8517 22.8591 13.847 22.8569C13.6967 22.83 13.5801 22.7544 13.5001 22.69C13.417 22.6231 13.3443 22.5441 13.2911 22.4856C13.2824 22.476 13.2742 22.467 13.2664 22.4584C13.2193 22.4063 13.1862 22.3698 13.1529 22.339C13.1339 22.3214 13.1226 22.3133 13.1184 22.3103C12.7683 22.1934 12.3999 21.9101 12.1011 21.6358C11.789 21.3493 11.5031 21.0259 11.3224 20.7803C11.263 20.6995 11.1262 20.5819 10.9288 20.4388C10.836 20.3715 10.7396 20.3054 10.6451 20.2407L10.6269 20.2283C10.5405 20.1692 10.4539 20.11 10.3806 20.0566C10.196 19.9223 10.0669 19.7687 9.96427 19.6406C9.94724 19.6193 9.93112 19.599 9.91568 19.5796C9.83244 19.4748 9.76883 19.3947 9.6869 19.3186C9.44501 19.0938 9.18499 18.89 8.90852 18.6733C8.76611 18.5617 8.61932 18.4466 8.46841 18.3235C8.04194 17.9756 7.60773 17.5814 7.28629 17.0898C7.20841 16.9707 7.09209 16.8682 6.91921 16.716L6.91129 16.7091C6.75116 16.5681 6.54096 16.3818 6.39556 16.1299C6.24328 15.8662 6.0346 15.6308 5.79193 15.3591L5.7836 15.3497C5.55231 15.0907 5.2902 14.7972 5.09053 14.4513C4.85883 14.05 4.66458 13.6637 4.47633 13.2893L4.47606 13.2888C4.28654 12.9119 4.10318 12.5473 3.88705 12.1729C3.40601 11.3397 3.13676 10.2873 2.96989 9.42132C2.96885 9.4159 2.96777 9.41032 2.96666 9.40458C2.94293 9.28163 2.90496 9.08494 2.88501 8.88527C2.86685 8.70362 2.85421 8.44546 2.92884 8.23106C2.9314 8.2158 2.93468 8.19257 2.93839 8.16166C2.94576 8.10022 2.95338 8.02057 2.95965 7.93869C2.96593 7.85665 2.97053 7.77673 2.97232 7.71438C2.97322 7.68304 2.9733 7.65977 2.9729 7.6446C2.95059 7.53578 2.95692 7.43225 2.96533 7.35767C2.97321 7.28786 2.98698 7.21425 2.99755 7.15772C2.99939 7.14787 3.00114 7.13853 3.00274 7.12982C3.01536 7.06122 3.02162 7.01891 3.02284 6.98821C3.02287 6.98741 3.0229 6.98665 3.02292 6.98592C2.97729 6.88981 2.92132 6.74076 2.95326 6.58118C2.97538 6.47067 3.03763 6.36683 3.13979 6.29662C3.23078 6.23408 3.32455 6.21805 3.38501 6.21402C3.4993 6.2064 3.60935 6.23518 3.67493 6.25464ZM3.0227 6.97158C3.02272 6.97157 3.02279 6.97212 3.02286 6.97329C3.02272 6.97219 3.02268 6.9716 3.0227 6.97158ZM2.97229 7.63221C2.97231 7.63216 2.97242 7.63322 2.97255 7.63557C2.97234 7.63345 2.97227 7.63227 2.97229 7.63221ZM2.92635 8.24429C2.92634 8.24422 2.92659 8.24298 2.92711 8.24077C2.92663 8.24326 2.92637 8.24436 2.92635 8.24429ZM7.45374 8.83194C7.45372 8.83194 7.45347 8.83171 7.45301 8.83126C7.45352 8.83172 7.45375 8.83195 7.45374 8.83194Z" fill="white"/>
<path fill-rule="evenodd" clip-rule="evenodd" d="M3.51572 6.87723C3.70083 6.77035 3.93753 6.83378 4.04441 7.01889C4.39646 7.62866 5.00855 8.25398 5.57444 8.77724C5.75591 8.94504 5.92269 9.10889 6.0846 9.26796C6.36765 9.54605 6.6358 9.8095 6.94148 10.0538C7.1257 10.201 7.29162 10.3957 7.42848 10.5564C7.45051 10.5822 7.47178 10.6072 7.49225 10.6309C7.65732 10.8224 7.78527 10.9539 7.91458 11.0274C8.43841 11.3252 9.04062 11.919 9.4196 12.2946C9.46234 12.337 9.51263 12.3898 9.56258 12.4422C9.57176 12.4519 9.58094 12.4615 9.59005 12.471C9.65123 12.5352 9.7145 12.6009 9.77794 12.6628C9.84191 12.7252 9.90116 12.779 9.95331 12.8202C9.97911 12.8405 10.0005 12.8557 10.0176 12.8664C10.0336 12.8765 10.0417 12.8801 10.0426 12.8805C10.0427 12.8805 10.0427 12.8805 10.0427 12.8805C10.2474 12.9605 10.3891 13.1217 10.4686 13.2121L10.4696 13.2133C10.4791 13.2241 10.4882 13.2344 10.4967 13.2441C10.5809 13.3401 10.619 13.3835 10.6611 13.4114C10.8616 13.5437 11.0407 13.6978 11.2034 13.8449C11.2565 13.8929 11.3068 13.9392 11.3558 13.9842C11.4636 14.0833 11.5646 14.1762 11.6733 14.2674C12.1244 14.6462 12.526 15.0973 12.902 15.5332C12.9573 15.5972 13.0119 15.6608 13.066 15.7239C13.3872 16.0979 13.692 16.453 14.0144 16.7649C14.0914 16.8394 14.1823 16.9208 14.2851 17.0124L14.3056 17.0306C14.4008 17.1154 14.5042 17.2075 14.605 17.3021C14.8122 17.4966 15.0395 17.7295 15.1867 17.9793C15.189 17.982 15.1984 17.9941 15.2196 18.0185C15.2501 18.0535 15.2925 18.1 15.3443 18.1549C15.4476 18.2642 15.5813 18.3997 15.7171 18.5313C15.8537 18.6636 15.9876 18.7874 16.0924 18.8757C16.1401 18.9159 16.1762 18.9439 16.2004 18.961C16.3462 19.0094 16.4552 19.1425 16.465 19.3053C16.4778 19.5186 16.3152 19.702 16.1018 19.7148C15.9892 19.7215 15.901 19.6791 15.8771 19.6676L15.8762 19.6671C15.8375 19.6485 15.8024 19.6264 15.7745 19.6075C15.7176 19.569 15.6551 19.5193 15.5938 19.4677C15.4693 19.3629 15.3208 19.2251 15.1784 19.0872C15.0353 18.9484 14.8935 18.8048 14.7815 18.6863C14.7258 18.6272 14.6756 18.5725 14.6357 18.5266C14.6052 18.4915 14.5551 18.4333 14.5237 18.3788C14.4378 18.23 14.2796 18.0582 14.0754 17.8666C13.9822 17.7791 13.886 17.6934 13.7893 17.6074L13.7703 17.5904C13.6693 17.5005 13.5665 17.4086 13.4762 17.3212C13.1258 16.9822 12.7945 16.5962 12.4748 16.2237C12.4216 16.1616 12.3686 16.0999 12.3159 16.0388C11.9404 15.6035 11.5743 15.1951 11.1756 14.8603C11.053 14.7574 10.931 14.6452 10.8174 14.5408C10.7715 14.4986 10.7269 14.4576 10.6843 14.419C10.5289 14.2786 10.3848 14.1565 10.2346 14.0573C10.0975 13.9667 9.98418 13.8354 9.9143 13.7544C9.9048 13.7434 9.8961 13.7333 9.88826 13.7244C9.84758 13.6781 9.81887 13.6477 9.79371 13.6257C9.76951 13.6045 9.75939 13.6009 9.76098 13.6015C9.65128 13.5586 9.5518 13.4894 9.47385 13.4278C9.39167 13.363 9.31069 13.2884 9.23723 13.2167C9.16325 13.1445 9.09192 13.0703 9.03003 13.0054C9.0197 12.9946 9.00973 12.9841 9.00011 12.974C8.94974 12.9212 8.90881 12.8782 8.8747 12.8444C8.47304 12.4463 7.94787 11.9367 7.532 11.7003C7.27229 11.5526 7.06646 11.3225 6.90605 11.1364C6.88048 11.1068 6.85594 11.0781 6.83224 11.0504C6.69116 10.8857 6.57984 10.7556 6.45825 10.6585C6.12525 10.3924 5.80322 10.0768 5.49929 9.77891C5.34414 9.62686 5.1937 9.47944 5.04893 9.34557C4.47868 8.81828 3.78942 8.12534 3.37406 7.40592C3.26718 7.2208 3.33061 6.9841 3.51572 6.87723Z" fill="white"/>
<path fill-rule="evenodd" clip-rule="evenodd" d="M4.28204 12.6593C4.19412 12.4644 4.28078 12.2352 4.47561 12.1473C4.67079 12.0592 4.86878 12.0614 5.03467 12.092C5.19834 12.1221 5.35505 12.1842 5.48822 12.2448C5.57861 12.286 5.67469 12.3345 5.75929 12.3772C5.7958 12.3957 5.83017 12.413 5.86102 12.4283C5.97684 12.4854 6.05739 12.52 6.11588 12.5357C6.69759 12.6915 7.25775 12.8005 7.85858 12.8442C7.93101 12.8494 8.0654 12.8758 8.1907 12.9003C8.20681 12.9035 8.22277 12.9066 8.23844 12.9096C8.39619 12.9403 8.57808 12.9751 8.74931 13.0002C8.7995 13.0076 8.84635 13.0137 8.8895 13.0186C8.88802 13.0057 8.88674 12.9928 8.88569 12.9799C8.87173 12.8076 8.89617 12.6385 8.97117 12.4466C8.99863 12.3763 9.05004 12.24 9.08979 12.108C9.10983 12.0415 9.12444 11.9841 9.13222 11.941C9.13408 11.9307 9.13529 11.9225 9.13607 11.9165C9.09425 11.7217 9.09878 11.4866 9.11323 11.2916C9.12938 11.0736 9.16225 10.8561 9.19314 10.6999C9.22562 10.5356 9.2953 10.3371 9.3545 10.1684C9.36991 10.1245 9.38461 10.0826 9.39776 10.0438C9.47478 9.81694 9.50768 9.67598 9.50321 9.6014C9.4904 9.38804 9.65299 9.20469 9.86635 9.19188C10.0797 9.17907 10.2631 9.34166 10.2759 9.55502C10.2909 9.80544 10.1998 10.0892 10.1307 10.2927C10.11 10.3539 10.0901 10.4107 10.0715 10.4638C10.0165 10.6212 9.97323 10.7452 9.95249 10.85C9.92687 10.9796 9.89872 11.1659 9.88517 11.3488C9.87078 11.5431 9.87657 11.6895 9.89495 11.7629C9.92561 11.8854 9.90599 12.0118 9.89398 12.0784C9.87883 12.1624 9.85507 12.2512 9.83095 12.3313C9.78237 12.4926 9.72226 12.6512 9.69216 12.7282C9.65621 12.8202 9.65353 12.8719 9.65722 12.9174C9.66173 12.9731 9.67514 13.026 9.70183 13.1311C9.70758 13.1538 9.71395 13.1789 9.72098 13.2069C9.74218 13.2916 9.7446 13.3981 9.69728 13.5055C9.65114 13.6103 9.57514 13.6763 9.51103 13.7152C9.39754 13.784 9.27096 13.7988 9.19616 13.8041C9.02867 13.8157 8.82039 13.793 8.63699 13.7661C8.44582 13.738 8.24779 13.7 8.09052 13.6694C8.07707 13.6668 8.06398 13.6643 8.05125 13.6618C7.98789 13.6494 7.93336 13.6388 7.88778 13.6304C7.86064 13.6254 7.83906 13.6217 7.8225 13.6191C7.80754 13.6168 7.80147 13.6161 7.80148 13.6161C7.80148 13.6161 7.80181 13.6161 7.80244 13.6162C7.14117 13.5681 6.53154 13.4484 5.91554 13.2834C5.7764 13.2461 5.6358 13.1803 5.51847 13.1224C5.4735 13.1002 5.43169 13.0791 5.39145 13.0587C5.31468 13.0199 5.24367 12.984 5.16745 12.9493C5.05507 12.8981 4.9658 12.8663 4.89461 12.8532C4.82564 12.8405 4.79988 12.8502 4.79401 12.8528C4.59918 12.9408 4.36997 12.8541 4.28204 12.6593ZM9.13734 11.9037C9.13733 11.9038 9.13733 11.9039 9.13732 11.904C9.13732 11.9017 9.13745 11.9014 9.13734 11.9037ZM9.16654 13.029C9.1666 13.029 9.16546 13.0293 9.16296 13.0297C9.16524 13.0292 9.16649 13.029 9.16654 13.029Z" fill="white"/>
<path fill-rule="evenodd" clip-rule="evenodd" d="M19.5351 3.87171C19.1196 3.85856 18.7382 3.86606 18.4009 3.93378C18.0993 3.99435 17.8008 4.01792 17.5288 4.03895L17.5138 4.04011C17.2403 4.06125 16.9931 4.08035 16.7489 4.12588C16.2041 4.22746 15.5812 4.33674 14.985 4.34775C14.686 4.35327 14.3942 4.40927 14.0711 4.47903C14.0349 4.48684 13.9982 4.49486 13.961 4.50299C13.6767 4.56513 13.363 4.63367 13.0386 4.66254C12.3862 4.72059 11.8278 4.78106 11.3062 5.01566C11.022 5.14345 10.7249 5.21964 10.4664 5.28592C10.4511 5.28986 10.4358 5.29377 10.4207 5.29765C10.1395 5.36998 9.90128 5.43491 9.68411 5.5412C9.60612 5.57937 9.50145 5.61451 9.42193 5.6412C9.41921 5.64212 9.41653 5.64302 9.41387 5.64391C9.40941 5.64541 9.40495 5.6469 9.40051 5.6484C9.31155 5.67826 9.22618 5.70692 9.14649 5.73873C9.07374 5.76776 9.02326 5.79274 8.99181 5.81222C8.92564 5.97899 8.75018 6.087 8.56059 6.0638C8.33683 6.03642 8.17811 5.83666 8.20608 5.61763C8.23522 5.38941 8.39513 5.24797 8.49479 5.17684C8.6041 5.09883 8.7316 5.04106 8.83818 4.99852C8.94025 4.95779 9.04615 4.92226 9.13063 4.89393C9.13682 4.89185 9.14289 4.88981 9.14884 4.88782C9.24937 4.85405 9.29817 4.83638 9.3189 4.82623C9.62208 4.67784 9.93865 4.59514 10.2132 4.52452C10.2211 4.52249 10.229 4.52046 10.2369 4.51844C10.5136 4.44731 10.7477 4.38712 10.9652 4.2893C11.6315 3.98967 12.3246 3.92341 12.9647 3.86646C13.233 3.84257 13.4928 3.786 13.7829 3.72281C13.8198 3.71478 13.8572 3.70663 13.8952 3.69844C14.221 3.62808 14.5823 3.55569 14.9696 3.54853C15.4878 3.53896 16.0476 3.4429 16.5961 3.34064C16.8851 3.28675 17.1717 3.26465 17.433 3.2445C17.4436 3.24369 17.4541 3.24288 17.4645 3.24207C17.7417 3.22064 17.9918 3.19993 18.2368 3.15072C18.6709 3.06356 19.1304 3.05912 19.5615 3.07276C19.7392 3.07838 19.9068 3.08665 20.0684 3.09463C20.3193 3.10701 20.556 3.1187 20.7946 3.1187C21.0201 3.1187 21.2029 3.29764 21.2029 3.51838C21.2029 3.73911 21.0201 3.91806 20.7946 3.91806C20.5411 3.91806 20.2622 3.90453 19.9922 3.89143C19.8346 3.88379 19.68 3.87629 19.5351 3.87171ZM8.96392 5.83236C8.96377 5.83234 8.96503 5.83106 8.96818 5.82854C8.96565 5.83111 8.96408 5.83237 8.96392 5.83236Z" fill="white"/>
<path fill-rule="evenodd" clip-rule="evenodd" d="M25.8228 6.88031C24.9659 6.88031 24.1293 6.9126 23.2871 7.0115C20.3326 7.35846 17.4406 7.85443 14.7264 9.0368C14.532 9.12149 14.3102 9.02151 14.231 8.81348C14.1519 8.60546 14.2453 8.36816 14.4398 8.28346C17.255 7.0571 20.2328 6.5519 23.2041 6.20297C24.0825 6.09982 24.9486 6.06693 25.8228 6.06693C26.0327 6.06693 26.2029 6.24901 26.2029 6.47362C26.2029 6.69823 26.0327 6.88031 25.8228 6.88031Z" fill="white"/>
<path fill-rule="evenodd" clip-rule="evenodd" d="M29.746 9.49438C27.6305 9.49438 25.6452 9.5113 23.5716 9.77831C23.3604 9.8055 23.1653 9.66955 23.1358 9.47466C23.1064 9.27976 23.2537 9.09973 23.4649 9.07253C25.5975 8.79793 27.6315 8.78177 29.746 8.78177C29.9592 8.78177 30.1321 8.94129 30.1321 9.13807C30.1321 9.33486 29.9592 9.49438 29.746 9.49438Z" fill="white"/>
<path d="M9.44238 24.2387C9.29092 24.3785 8.73708 24.6847 8.71201 24.8853C8.67797 25.1576 9.13397 24.5337 9.33462 24.3465C9.53602 24.1585 9.81825 23.6095 9.98117 23.8316C10.129 24.0332 9.67925 24.67 9.55013 24.8314C9.40098 25.0178 9.75568 24.2256 9.81354 24.131C10.1525 23.5762 10.1158 23.5653 10.2206 24.1549C10.2762 24.4673 10.1728 25.3774 10.3284 25.1008C10.5051 24.7867 10.9353 24.4252 11.2144 24.1968C11.4749 23.9836 11.3803 25.4855 11.3581 25.6635C11.3215 25.9565 11.3178 26.3509 11.1905 26.6214C11.1189 26.7734 11.1732 26.2779 11.2264 26.1185C11.3912 25.6242 11.4539 25.0539 11.6514 24.58C11.8448 24.1158 11.4364 25.5631 11.2982 26.0467C11.1791 26.4638 11.3657 25.2945 11.376 25.1547C11.4426 24.2555 11.232 24.4556 10.7953 25.017C10.6703 25.1778 9.98117 25.8697 9.98117 25.8551C9.98117 25.3183 9.98117 24.7815 9.98117 24.2447C9.98117 23.7877 9.59069 24.7789 9.44238 24.8613C9.14356 25.0273 9.1191 24.3447 9.1191 24.1908C9.1191 23.9149 9.1191 24.8761 9.1191 25.023C9.1191 25.2485 9.10586 24.5716 9.1191 24.3465C9.13136 24.1381 9.64759 24.0895 9.81354 24.1369C9.96941 24.1815 10.0992 25.8965 10.1967 26.1544C10.4215 26.7495 10.5474 25.9894 10.7953 25.6635C11.1286 25.2256 11.4957 24.7073 11.9687 24.4063C12.3921 24.1369 11.9039 27.3516 12.1902 25.6336C12.2085 25.5237 12.4088 24.3584 12.5135 24.3584C12.5656 24.3584 11.9402 25.5479 11.8969 25.6994C11.7344 26.2683 12.4367 25.113 12.5075 24.9391C12.5992 24.7141 12.6941 23.342 12.6751 24.0232C12.6595 24.5844 12.411 25.0845 12.268 25.6156C12.2034 25.8559 13.1444 25.2781 13.2678 25.1547C13.5027 24.9198 13.87 24.1776 13.7288 25.0409C13.6625 25.4456 13.5454 25.8394 13.4534 26.2382C13.4282 26.3473 13.4294 26.7129 13.4294 26.3819C13.4294 25.7559 13.4598 24.9428 13.6988 24.3584C13.8512 23.9861 14.1978 23.1624 14.1838 24.0471C14.1722 24.7755 13.8605 26.9367 13.8605 26.2083C13.8605 25.3142 14.5449 24.5006 14.9141 23.7239C15.4529 22.5905 15.1492 24.8433 15.0698 25.1367C15.0091 25.3609 14.8565 26.0455 14.6148 26.1664C14.489 26.2293 14.507 25.236 14.507 25.2026C14.507 24.9585 14.7225 23.103 14.7225 24.0711C14.7225 24.9153 14.5077 25.6763 14.4053 26.4957C14.3225 27.1581 14.728 26.1448 14.8303 25.9629C15.3181 25.0957 15.6544 24.034 16.2312 23.233C16.7851 22.4636 16.0255 25.1179 15.9079 26.0586C15.7911 26.9928 15.7696 26.1867 15.9079 25.7473C16.1808 24.8806 16.5207 24.0337 16.77 23.1611C17.0626 22.1367 17.1189 22.8196 17.0873 23.4365C17.0512 24.1389 16.4561 26.1725 16.6861 25.5079C16.9684 24.6924 17.6384 24.0471 18.0032 23.2689C18.149 22.9578 18.2884 22.5287 18.536 22.2811C18.603 22.2141 18.5489 23.1046 18.536 23.1791C18.3949 23.9941 17.9317 26.4185 17.9553 25.5917C17.9808 24.7007 18.4705 23.8432 18.991 23.1492C19.1226 22.9737 20.2182 21.7313 20.2182 21.9159C20.2182 22.8738 19.7175 23.701 19.4041 24.5859C19.1876 25.1972 19.7435 23.3043 20.1225 22.778C20.2222 22.6394 20.9269 21.635 20.5774 22.347C20.2382 23.0379 19.1633 25.0798 19.4759 24.3764C19.7306 23.8033 20.2504 23.344 20.5415 22.778C20.629 22.6079 21.2958 21.4359 21.2958 21.5687C21.2958 21.9568 20.8768 22.3206 20.8768 22.6702C20.8768 22.8611 21.1247 22.3797 21.2539 22.2392C21.6038 21.8589 21.8975 21.5181 22.1339 21.0539C22.2723 20.7822 22.6088 20.0108 22.1818 20.7066C22.0277 20.9578 21.3329 22.2871 21.0264 22.2871C20.581 22.2871 21.4994 20.3161 21.4994 20.2038C21.4994 20.1964 21.0366 20.4657 21.0085 20.4851C20.5167 20.8243 20.0362 21.2089 19.5837 21.5986C19.2852 21.8556 18.3615 23.0316 18.8174 21.892C19.065 21.2729 19.5025 20.7448 19.7872 20.1439C19.8999 19.906 20.2688 19.2327 19.889 19.7787C19.346 20.5592 18.7526 21.3928 18.0212 22.0117C17.7128 22.2726 17.8994 21.2416 17.9314 21.1137C18.0172 20.7706 18.3453 20.2347 18.111 20.9042C18.06 21.0497 17.4137 22.0972 17.2848 21.868C16.9847 21.3345 17.0138 21.1441 16.3868 21.3232C15.74 21.5081 16.1234 20.0394 16.1234 20.7366C16.1234 21.64 16.6361 20.1985 16.6622 21.1137C16.6665 21.2634 16.6622 22.146 16.6622 21.5926C16.6622 21.4493 16.631 21.2803 16.7281 21.1616C16.834 21.0321 16.9855 20.5632 16.9855 20.7306C16.9855 21.1014 16.7489 21.5353 16.5544 21.8441C16.2704 22.2953 16.5279 21.4781 16.6083 21.3352C16.7659 21.0552 17.181 20.2542 17.201 20.5749C17.2219 20.9095 17.201 21.2512 17.201 21.5867C17.201 21.6805 17.2537 21.4005 17.3147 21.3292C17.4581 21.162 17.6256 20.9926 17.7937 20.8503C18.0469 20.6361 18.3326 20.4485 18.5779 20.2277C18.7921 20.0349 18.8174 21.1272 18.8174 21.3173C18.8174 21.5459 18.9367 20.8756 19.0089 20.6587C19.0458 20.5483 19.3243 19.7752 19.44 19.7607C19.5391 19.7484 19.3562 20.93 19.3562 21.0539C19.3562 21.7915 19.4614 19.581 19.5657 18.8508C19.6255 18.4319 19.5796 19.5075 19.5657 19.653C19.4919 20.4274 19.4639 19.4268 19.4639 19.198C19.4639 18.6075 19.4594 18.0818 19.6196 17.5098C19.6712 17.3254 19.7872 16.3364 19.7872 17.0428C19.7872 17.5018 19.7872 18.8787 19.7872 18.4198C19.7872 17.8145 20.0003 17.2921 20.1045 16.7016C20.2163 16.0681 20.408 15.4244 20.4338 14.7799C20.4406 14.6091 20.4338 15.2108 20.4338 15.3367C20.4338 15.6271 20.364 14.7561 20.2721 14.4806C20.2498 14.4135 20.2182 13.9914 20.1584 14.0855C19.8922 14.5037 19.7142 15.1437 19.5956 15.618C19.547 15.8126 19.4639 17.392 19.4639 16.534C19.4639 16.0774 19.4536 15.6195 19.4639 15.163C19.4744 14.7005 19.7979 13.9906 20.0267 13.5946C20.293 13.1335 20.4338 12.8175 20.4338 13.5227C20.4338 14.3289 20.4338 15.1351 20.4338 15.9413C20.4338 16.4615 20.2497 17.7979 20.332 16.522C20.3642 16.0229 20.5526 15.5644 20.6972 15.0912C20.8135 14.7104 20.8223 14.2824 20.9785 13.9178C21.0826 13.6749 21.1881 13.642 21.1881 13.9059C21.1881 14.3865 20.9691 14.8304 20.8648 15.2948C20.6004 16.4712 20.1105 17.613 20.1105 18.8328C20.1105 19.7457 20.3468 18.4123 20.4338 18.0965C20.5841 17.5506 20.7264 16.8792 20.9725 16.3723C21.4424 15.405 21.0448 17.0313 20.9666 17.3003C20.7863 17.9199 20.4639 18.486 20.2901 19.1022C20.2677 19.1816 20.2182 19.9153 20.2182 19.6051C20.2182 18.9864 20.4329 18.2192 20.6014 17.6175C20.7626 17.0417 21.0181 16.1232 21.4515 15.6899C21.4742 15.6672 21.5146 16.6347 21.5113 16.7794C21.4947 17.5131 21.3456 17.1952 21.4575 16.6357C21.4733 16.5568 21.8334 15.5558 21.8346 15.5582C22.1091 16.1072 21.73 17.4157 21.6191 17.9648C21.4218 18.9413 20.8648 19.8608 20.8648 20.8802C20.8648 21.4667 21.1559 19.7401 21.3796 19.198C21.6432 18.5595 22.04 17.7083 22.1519 17.0368C22.1742 16.9028 22.154 17.4802 22.1519 17.5218C22.1209 18.1265 21.8622 18.6167 21.6251 19.1621C21.4558 19.5514 21.2249 19.9161 21.1941 20.3474C21.163 20.7826 21.1881 20.5582 21.1881 20.2756C21.1881 20.0031 21.2074 19.7622 21.2719 19.4973C21.3278 19.2674 21.3741 18.6299 21.5054 18.8268C21.6081 18.981 21.5113 19.5238 21.5113 19.7129" stroke="#458FFF" stroke-width="0.8" stroke-linecap="round"/>
<path d="M5.50347 3.55462C6.45313 5.19949 7.37428 6.63215 6.48712 8.75644C6.31983 9.15702 6.28386 9.65606 6.18094 10.0727C6.05717 10.5738 6.14693 10.4996 6.66544 10.7017C7.71182 11.1096 9.28236 11.003 10.1595 11.6342C10.7448 12.0553 11.1649 12.4531 11.5994 13.017C11.9451 13.4659 12.4775 13.8246 12.7871 14.2786C12.9856 14.5696 12.5453 13.6118 12.4767 13.2606C12.3414 12.5673 12.2043 12.0653 12.2563 11.3324C12.323 10.3921 12.663 9.45143 12.795 8.4971C12.844 8.14209 12.768 7.65865 12.9797 7.31581C13.0896 7.13791 13.1723 6.97813 13.1757 6.78439C13.1854 6.22521 12.6734 6.46717 12.2579 6.27572C11.8621 6.09335 10.8228 6.00873 10.3241 6.09402C9.68042 6.20411 9.10331 5.63775 8.57137 5.49042C8.03271 5.34122 7.40379 5.115 7.01397 4.75964C6.61097 4.39227 6.09285 3.85983 5.55968 3.65199" stroke="black" stroke-linecap="round"/>
<path d="M7.47123 9.28077C7.34214 9.31367 7.10259 9.42842 6.98315 9.41465C6.92933 9.40845 6.8042 9.35059 6.74456 9.38502C6.5826 9.47853 7.13481 9.65149 7.16544 9.65973C7.46 9.73893 7.77633 9.76132 8.11407 9.7582C8.46532 9.75495 8.80881 9.78261 9.1377 9.82504C9.34369 9.85162 9.64689 9.87633 9.80138 9.97513C9.82615 9.99097 9.88704 10.1125 9.96097 10.0698C10.022 10.0346 9.25933 9.64124 9.21975 9.62391C8.71743 9.40397 8.0017 9.20012 7.74556 8.75649C7.64196 8.57704 7.80299 8.36391 7.78044 8.17583C7.76091 8.01299 7.90816 8.15223 7.94566 8.18943C8.2012 8.44293 8.53075 8.65087 8.80006 8.89699C8.8169 8.91238 9.06907 9.10364 9.07181 9.10015C9.11904 9.04005 8.95772 8.8571 8.93641 8.82021C8.75799 8.51117 8.51486 8.25482 8.29956 7.96954C8.11758 7.72839 7.95524 7.4842 7.80482 7.22366C7.74133 7.1137 7.55087 6.78381 7.61436 6.89377C7.7814 7.1831 7.87567 7.52965 8.00366 7.84065C8.26657 8.47948 8.57301 9.11598 8.97199 9.67937C8.98483 9.69749 9.13711 9.93073 9.12453 9.78204C9.10784 9.58482 9.00405 9.4034 8.94728 9.22265C8.74701 8.58508 8.52316 7.9512 8.23666 7.35581C8.10966 7.0919 7.7003 6.31576 7.84651 6.569C8.01667 6.86373 8.05663 7.20543 8.18334 7.52088C8.28645 7.77759 8.53917 8.57337 8.48228 8.29611C8.38326 7.81348 8.36141 7.29863 8.27224 6.81172C8.24132 6.64287 8.24233 6.46704 8.23383 6.29089C8.23232 6.25965 8.25236 6.09957 8.30741 6.18613C8.8692 7.06968 9.29348 8.0206 9.68021 8.99801C9.75148 9.17811 9.68305 8.95133 9.67405 8.89647C9.61207 8.51874 9.66282 8.10197 9.69329 7.69815C9.72038 7.339 9.76225 6.97696 9.79206 6.61739C9.80717 6.43509 9.81402 6.25161 9.7301 6.10626C9.69707 6.04905 9.62102 6.11462 9.57236 6.16619C9.31316 6.44092 9.33373 6.84013 9.33564 7.09888C9.33967 7.64503 9.48545 8.14263 9.68602 8.60929C9.73728 8.72856 9.87945 9.08954 9.86018 8.95638C9.82822 8.73547 9.88893 8.48316 9.91965 8.2467C9.9711 7.85066 10.0171 7.45601 10.0447 7.06512C10.0628 6.81021 10.0868 6.56675 10.0431 6.33037C10.0232 6.22249 10.0225 6.11024 9.93726 6.31363C9.48784 7.38568 9.47795 8.4748 9.65795 9.41374C9.66776 9.4649 9.91334 10.1207 9.92619 10.1055C9.98503 10.0359 10.0178 9.89658 10.0489 9.82835C10.1513 9.60345 10.2635 9.37872 10.3767 9.15446C10.7669 8.38182 11.097 7.63886 11.3901 6.86642C11.441 6.73228 11.2461 7.13437 11.1996 7.26835C10.9851 7.88611 10.9074 8.47892 10.8849 9.06543C10.8784 9.23377 10.8148 9.5296 10.8959 9.67016C10.9142 9.70171 10.8903 9.59321 10.8926 9.55336C10.8996 9.43357 10.9213 9.31001 10.9435 9.18726C11.0209 8.75992 11.1378 8.32658 11.2631 7.89337C11.2698 7.87053 11.4111 7.30241 11.4069 7.30437C11.339 7.33538 11.2551 7.92993 11.2491 7.95987C11.1629 8.39202 11.1076 8.8215 11.0543 9.24787C11.0291 9.44919 11.0094 9.30919 11.0082 9.20833C11.0049 8.931 11.2124 8.57931 11.3356 8.2914C11.3703 8.21035 11.9616 6.916 11.97 6.91693C12.0983 6.93109 12.0799 7.38188 12.0877 7.46401C12.1071 7.66711 12.1332 7.86715 12.1473 8.0719C12.1573 8.21846 12.1697 7.98973 12.1751 7.95853C12.2186 7.7055 12.2943 7.4537 12.4047 7.19535C12.5411 6.87644 12.9208 6.32275 12.8318 6.03209C12.8045 5.94306 12.6359 6.0928 12.5763 6.03366C12.4695 5.92777 12.3471 5.84902 12.1471 5.8455C11.8101 5.83957 11.4285 5.92128 11.081 5.93742C10.9654 5.9428 10.465 5.87804 10.3612 5.96767C10.2788 6.03877 10.502 6.34705 10.5112 6.36375C10.6887 6.68805 10.9489 7.00973 10.9573 7.41407C10.9576 7.42917 10.9163 7.68328 10.8948 7.66423C10.8146 7.59301 10.79 7.45825 10.7698 7.35688C10.6935 6.9741 10.5589 6.60887 10.5223 6.21137C10.5166 6.15024 10.4794 6.0673 10.5288 5.99547C10.5484 5.96693 10.5605 6.00214 10.5666 6.01059C10.6189 6.08263 10.685 6.12959 10.7895 6.15437C10.957 6.19406 11.2834 6.12277 11.4107 6.20056C11.423 6.20804 11.4928 6.24534 11.4619 6.19828C11.3395 6.01195 10.6751 6.07131 10.4056 6.11525C10.1148 6.16266 9.64971 6.30615 9.42921 6.18072C9.26502 6.08733 9.16633 5.92027 9.00889 5.81616C8.8881 5.73628 8.77142 5.63287 8.57281 5.65143C8.4145 5.66622 8.32269 5.76599 8.1768 5.82363C7.9742 5.90367 7.94384 5.73814 7.88825 5.64184" stroke="black" stroke-linecap="round"/>
<path d="M6.94831 5.22437C7.34832 5.9172 7.99625 6.70242 7.89831 7.53938C7.83272 8.09991 7.65333 8.72019 7.77536 9.2855C7.95371 10.1117 7.63047 7.71809 7.79848 8.60639C7.87782 9.0259 7.92436 9.43919 8.07543 9.84245C8.15355 10.0509 8.34904 10.3703 8.32105 10.6026C8.24343 11.2469 8.67584 9.2526 8.41543 8.65824C8.27121 8.32906 8.96849 9.39299 9.04524 9.52592C9.39315 10.1285 9.31933 10.1804 9.43664 9.52187C9.55119 8.87883 9.59617 8.69466 9.95168 9.31042C10.2072 9.75293 10.8576 10.6931 10.7754 11.233C10.7235 11.5736 10.7614 10.6646 10.7739 10.561C10.8183 10.1926 10.6582 9.64137 10.9737 10.1879C11.0786 10.3696 11.3761 11.1504 11.6051 10.7111C11.7374 10.4571 11.6691 9.64248 11.8274 9.88111C12.1046 10.2987 11.9634 9.86968 12.0363 9.47416C12.2339 8.40232 12.6632 7.40583 12.9437 6.35883C13.0175 6.08326 12.5938 7.5029 12.523 7.72564C12.3751 8.19068 12.2946 9.2105 11.8096 9.49054C11.706 9.55031 11.4455 9.02519 11.4403 8.93776C11.4196 8.59299 11.7438 8.10061 11.9321 7.83055C11.974 7.77053 12.4307 7.03577 12.3856 7.42558C12.2778 8.35591 12.0062 9.49936 11.474 10.2856C11.2763 10.5776 10.7055 9.10122 10.649 8.94359C10.5063 8.5447 10.4492 8.11496 10.3744 7.69907C10.3274 7.43819 10.4018 7.20988 10.2754 7.57724C10.204 7.7848 9.59673 9.56971 9.50001 9.42085C9.19159 8.94616 8.93429 8.43045 8.79646 7.87988C8.70705 7.52276 8.67795 7.13291 8.50406 6.80308C8.41304 6.63042 8.61109 7.11899 8.61057 7.23554C8.60966 7.43767 8.66163 8.81361 8.54816 8.41696C8.44342 8.05082 8.54878 6.49593 8.96325 6.30889C9.20172 6.20127 9.42964 8.09522 9.45626 8.22913C9.5718 8.8105 9.43238 8.41097 9.27282 8.1346C9.14053 7.90547 9.28534 7.7491 9.34697 7.51909C9.35411 7.49247 9.33468 7.18607 9.39728 7.24664C9.60854 7.45104 9.66888 8.37422 9.5219 8.11965" stroke="black" stroke-linecap="round"/>
<path d="M8.06878 6.9713C8.25883 7.30047 8.13277 7.82273 8.04017 8.20234C7.98467 8.4299 7.55528 9.5439 7.68934 9.65138C7.79051 9.7325 8.68792 9.64363 8.88999 9.66133C9.20585 9.68898 9.92495 9.6802 10.1371 9.86817C10.2258 9.94676 10.5367 10.2609 10.5434 10.145C10.566 9.75495 10.5967 9.3971 10.7223 9.00615C10.7977 8.77152 10.9875 8.38595 11.0059 8.15206C11.0316 7.82552 11.1021 7.8664 10.727 8.08295C10.1726 8.40302 9.63681 8.54329 9.016 8.49551C8.83361 8.48147 8.67201 8.01611 8.59192 7.8774C8.52562 7.76257 8.37657 7.107 8.44197 7.16495C8.63771 7.33837 8.86546 7.60915 9.09234 7.76107C9.35379 7.93614 9.48301 7.90263 9.81182 7.94655C10.2366 8.00329 10.8626 8.11973 11.2809 7.87821" stroke="white" stroke-linecap="round"/>
<path d="M11.0852 7.53918C10.5126 6.81202 9.2243 7.10855 8.35315 6.80713" stroke="white" stroke-width="0.7" stroke-linecap="round"/>
<path d="M10.3531 10.2712C10.6873 10.85 11.0055 11.4011 11.3531 12.0033" stroke="white" stroke-width="0.7" stroke-linecap="round"/>
<path d="M11.8061 7.51518C11.9361 7.44011 12.052 7.21388 11.9622 7.05835C11.8504 6.86458 11.8308 7.49128 11.7438 7.70013C11.6505 7.92397 11.4243 8.09087 11.3482 8.31809C11.2835 8.51131 11.1498 8.83535 11.2226 8.41356C11.2772 8.09702 11.572 7.1622 11.1415 7.05093C10.899 6.98826 10.5736 7.1963 10.3103 7.18705C10.1123 7.18009 9.90878 7.16043 9.71912 7.17316" stroke="white" stroke-width="0.7" stroke-linecap="round"/>
<path d="M7.1437 5.19596C7.52908 5.86346 8.13198 6.47901 8.2848 7.25567C8.38964 7.78847 8.19678 8.38018 8.086 8.8718C8.0579 8.99649 8.05519 9.13156 8.01241 9.25528C7.94629 9.44649 8.0206 9.52148 8.206 9.57923C8.59479 9.70033 8.96561 9.75601 9.30902 9.99855C9.5778 10.1884 9.75931 10.4562 10.0261 10.6502C10.3178 10.8623 10.6418 11.001 10.9392 11.191C11.0511 11.2624 11.1634 11.3855 11.2811 11.4388C11.3584 11.4737 11.4268 11.4637 11.4802 11.5488C11.5238 11.6184 11.5824 11.6578 11.6245 11.7307C11.6517 11.7779 11.764 11.8361 11.7112 11.7446C11.5298 11.4304 11.4322 11.0918 11.3261 10.7521C11.2015 10.3533 11.1689 9.99472 11.2583 9.59774C11.3024 9.40198 11.2963 9.19708 11.3058 8.9949C11.3152 8.79571 11.417 8.64119 11.4643 8.45581C11.5151 8.25728 11.6137 8.02441 11.6335 7.82533C11.6542 7.61652 11.7317 7.42726 11.8404 7.26779C11.9078 7.16891 11.9722 7.00688 11.8558 6.88949C11.8239 6.85733 11.5161 7.02188 11.4682 7.04697C11.3167 7.12621 11.0255 7.1029 10.849 7.12504C10.5803 7.15873 10.2722 7.0859 9.99898 7.07586C9.71495 7.06542 9.41481 6.95416 9.13807 6.87907C8.90464 6.81574 8.55157 6.69853 8.35658 6.53223C8.33124 6.51062 8.20369 6.4188 8.2213 6.44931C8.41151 6.77874 8.60806 7.0994 8.81887 7.4162C9.1309 7.88511 9.4756 8.30113 9.60314 8.85784C9.6478 9.05281 9.72828 9.22341 9.50858 9.08767C9.20943 8.90286 8.89144 8.75488 8.55331 8.68961C8.50666 8.68061 8.12793 8.59018 8.13566 8.61342C8.23825 8.92159 8.72747 9.14555 8.99392 9.23326C9.25298 9.31854 9.5169 9.40136 9.78087 9.46091C9.9186 9.49198 10.0473 9.52044 10.1785 9.58183C10.1936 9.58893 10.3346 9.66557 10.2701 9.59288C10.0738 9.37171 9.57182 9.37155 9.32142 9.36149C9.03071 9.34981 8.74127 9.41244 8.45798 9.44796C8.23767 9.47558 7.90659 9.40162 7.71009 9.51507C7.64283 9.5539 7.59922 9.59749 7.7134 9.58894C7.90399 9.57467 8.10122 9.50026 8.28729 9.45889C8.4698 9.41831 8.6473 9.41568 8.83602 9.42151C9.05838 9.42838 9.34646 9.50618 9.55054 9.43286" stroke="white" stroke-linecap="round"/>
<path d="M10.2257 8.37146C10.2571 8.40517 10.9855 9.03318 10.5843 8.90984C10.4457 8.86726 10.2854 8.8609 10.1409 8.83714C9.70265 8.7651 9.26478 8.6657 8.82461 8.90087C8.52905 9.05878 8.08749 9.40768 7.73639 9.37904C7.67021 9.37364 7.50395 9.33625 7.47412 9.28458C7.45926 9.25885 7.66675 8.99022 7.69521 8.95765C7.75817 8.88559 7.91191 8.65228 7.85436 8.55259C7.81994 8.49297 7.95316 8.28936 7.95062 8.1942" stroke="white" stroke-linecap="round"/>
</svg>
