<svg xmlns="http://www.w3.org/2000/svg" width="84" height="44" fill="none"><g opacity=".4"><path fill="url(#a)" d="M14.25 42.88H.88v-2.558c0-4.077 2.663-7.413 5.916-7.413H7.98c.65 0 1.183-.668 1.183-1.483v-9.082c0-6.154 3.963-11.12 8.873-11.12h15.647c1.508 0 2.72-1.52 2.72-3.411v-.148C36.404 3.55 39.067.25 42.32.25h16.268c3.253 0 5.915 3.336 5.915 7.414v14.827h12.69c8.991 0 16.267 9.12 16.267 20.388H14.25Z" opacity=".3"/><path fill="url(#b)" d="m76.114 29.622-1.783.627a.465.465 0 0 0-.228.708.464.464 0 0 0 .228.17l1.783.626a.463.463 0 0 1 .286.285l.628 1.777a.464.464 0 0 0 .88 0l.63-1.777a.467.467 0 0 1 .286-.285l1.785-.627a.464.464 0 0 0 0-.877l-1.785-.627a.478.478 0 0 1-.287-.285l-.628-1.78a.463.463 0 0 0-.44-.313.466.466 0 0 0-.44.314l-.63 1.78a.467.467 0 0 1-.285.284Z"/><path fill="url(#c)" fill-opacity=".9" d="m74.83 26.315-.226-.637a.164.164 0 0 0-.157-.112.165.165 0 0 0-.156.112l-.21.637a.164.164 0 0 1-.102.101l-.648.211a.166.166 0 0 0-.11.155.164.164 0 0 0 .11.155l.632.22a.164.164 0 0 1 .1.102l.22.628a.164.164 0 0 0 .157.112.166.166 0 0 0 .156-.112l.235-.628a.164.164 0 0 1 .1-.101l.633-.22a.165.165 0 0 0 0-.31l-.64-.221a.163.163 0 0 1-.093-.092Z"/></g><defs><linearGradient id="a" x1=".881" x2="93.459" y1="21.566" y2="21.566" gradientUnits="userSpaceOnUse"><stop stop-color="#B473F5"/><stop offset="1" stop-color="#E292AA"/></linearGradient><linearGradient id="b" x1="74.017" x2="80.924" y1="30.686" y2="30.686" gradientUnits="userSpaceOnUse"><stop stop-color="#B473F5"/><stop offset="1" stop-color="#E292AA"/></linearGradient><linearGradient id="c" x1="73.221" x2="75.674" y1="26.782" y2="26.782" gradientUnits="userSpaceOnUse"><stop stop-color="#B473F5"/><stop offset="1" stop-color="#E292AA"/></linearGradient></defs></svg>