<svg width="33" height="33" viewBox="0 0 33 33" fill="none" xmlns="http://www.w3.org/2000/svg">
<path d="M2.69751 13.5951C3.01406 13.9116 3.51829 14.0832 3.89798 14.311C4.17599 14.4779 4.46974 14.611 4.73239 14.7955C4.85421 14.8811 5.03271 14.9915 5.16844 15.0593C5.65876 15.3045 5.98527 15.7812 6.43082 16.0875C7.2709 16.6651 7.99802 17.3776 8.6595 18.1493C8.9926 18.5379 9.26762 19.0024 9.6258 19.3606C10.0226 19.7574 10.3932 20.2538 10.6917 20.7279C10.9776 21.182 11.3121 21.7079 11.5046 22.2083C11.584 22.4148 11.6664 22.6449 11.7684 22.8489C11.8809 23.0741 11.8213 23.0585 12.0106 23.0427C12.1253 23.0332 12.2218 22.9943 12.3497 22.9943C13.3104 22.9943 14.2669 23.057 15.1975 22.8032C15.3738 22.7551 15.628 22.6067 15.8031 22.6067C15.907 22.6067 16.0441 22.6264 16.1181 22.534C16.2568 22.3606 16.5543 22.2464 16.6994 22.063C16.843 21.8816 17.0386 21.8531 17.0386 21.5893C17.0386 21.2752 17.0386 20.9612 17.0386 20.6472C17.0386 19.916 16.7963 19.2128 16.7963 18.4885C16.7963 17.6542 16.8448 16.8214 16.8448 15.9906C16.8448 15.3772 16.9412 14.6613 16.8206 14.058C16.6981 13.4459 16.753 12.8061 16.6618 12.19C16.6144 11.8705 16.6897 11.5473 16.5918 11.2318C16.5481 11.0912 16.5162 10.8946 16.5056 10.7473C16.4885 10.5067 16.4211 10.2297 16.3495 9.99903C16.3208 9.90648 16.3054 9.66959 16.2365 9.60067C15.8606 9.2248 15.9409 8.45935 15.3913 8.22793C15.0515 8.08486 14.628 8.18973 14.277 8.1095C14.0453 8.05655 13.7898 8.0585 13.5502 8.07181C13.3891 8.08076 12.9294 8.32125 12.7858 8.20639C12.5708 8.0344 12.4751 7.6 12.2905 7.36929C12.0464 7.06409 11.2446 7.46766 10.9232 7.21049C10.762 7.08151 10.295 7.27718 10.1103 7.29662C9.81003 7.32823 9.51971 7.34507 9.21398 7.34507C8.8327 7.34507 8.49825 6.97949 8.22077 6.76367C8.06963 6.64612 7.86827 6.64409 7.70935 6.54296C7.56302 6.44983 7.39598 6.3211 7.276 6.20112C6.98872 5.91384 6.85066 5.40689 6.74305 5.01949C6.64701 4.67373 6.52341 4.17586 6.28278 3.90515C6.17598 3.785 6.15785 3.61365 6.07822 3.47987C6.02517 3.39074 5.88966 3.12449 5.79829 3.07074C5.62166 2.96684 5.43133 2.89558 5.32456 2.69391C5.24835 2.54997 5.13956 3.11895 5.13076 3.1784C5.07222 3.5735 5.08973 3.9816 5.03386 4.37888C4.93786 5.06154 4.97464 5.75656 4.97464 6.44606C4.97464 7.58624 5.74521 8.50469 6.3097 9.4284C6.67069 10.0191 6.99019 10.6494 7.30022 11.2695C7.46781 11.6047 7.63414 11.9377 7.76319 12.2896C7.93781 12.7659 8.26523 13.168 8.46301 13.6328C8.6212 14.0045 8.81493 14.3521 8.95828 14.7309C9.23628 15.4657 9.6687 16.1462 9.9165 16.8896C9.97921 17.0778 10.1103 17.5574 10.1103 17.0404C10.1103 15.6131 9.85308 14.2261 9.40778 12.8737C9.14122 12.0642 8.90941 11.2665 8.68373 10.4458C8.64872 10.3186 8.45257 9.83182 8.58683 9.69757C8.68651 9.59789 8.87796 9.698 8.9502 9.77024C9.3566 10.1766 9.48213 10.665 9.63657 11.2157C10.0172 12.5726 10.3837 13.92 10.6056 15.3123C10.7569 16.262 11.009 17.173 11.3215 18.0793C11.3846 18.2622 11.478 18.5044 11.5746 18.6715C11.5992 18.7142 11.8932 19.2759 11.9029 19.0322C11.912 18.8057 11.9923 18.5909 12.0483 18.37C12.2384 17.6194 12.3333 16.8549 12.339 16.0821C12.346 15.1269 12.4414 14.169 12.3767 13.2129C12.3333 12.5718 12.0752 11.9557 11.9998 11.3152C11.9847 11.1868 11.8967 10.9302 11.9622 10.8065C11.9886 10.7567 12.2503 11.1518 12.2636 11.1753C12.7095 11.96 12.9151 12.888 13.0415 13.7727C13.2173 15.003 13.3564 16.2181 13.3564 17.463C13.3564 18.1804 13.409 18.8503 12.985 19.4629C12.4216 20.2767 11.717 21.0139 10.9286 21.6162C10.8199 21.6992 10.7476 21.7498 10.6217 21.7857C10.5689 21.8008 10.6116 21.8831 10.584 21.9176C10.4804 22.0471 10.408 22.2341 10.3068 22.386C10.2629 22.4518 10.3063 22.2271 10.2933 22.1491C10.2618 21.9599 10.2319 21.7522 10.1803 21.5677C10.1265 21.3756 10.0143 21.2027 9.96495 21.0052C9.80969 20.3841 9.47466 19.7752 9.21398 19.1937C8.80712 18.2861 8.38752 17.3386 7.40789 16.9758C7.2622 16.9218 7.10961 16.8034 6.96108 16.7335C6.86663 16.6891 7.13514 17.3486 7.15487 17.4226C7.50187 18.7238 8.08299 20.0183 8.92329 21.0778C9.32345 21.5824 9.77904 21.997 10.2072 22.464C10.4075 22.6826 10.6032 22.9058 10.8128 23.1154C10.9409 23.2435 11.0057 23.442 11.1762 23.5272" stroke="black" stroke-width="5" stroke-linecap="round"/>
<path fill-rule="evenodd" clip-rule="evenodd" d="M5.1909 1.6918C4.95212 1.72552 4.75577 1.80923 4.69634 1.85686C4.50462 2.01048 4.38573 2.30993 4.33 2.7351C4.28525 3.07652 4.28785 3.43496 4.29021 3.75988C4.29073 3.83057 4.29123 3.89967 4.29123 3.96667V5.32366C4.29123 5.64538 4.33773 5.89513 4.39186 6.18577C4.41965 6.33502 4.44944 6.49504 4.47598 6.68113C4.48603 6.75157 4.49566 6.82258 4.50529 6.89357C4.5601 7.29774 4.61486 7.7015 4.74588 7.99677C4.79752 8.11315 4.82596 8.25905 4.84602 8.38051C4.8584 8.4554 4.87076 8.54333 4.88261 8.62763C4.89012 8.68102 4.89742 8.73295 4.90439 8.77918C4.92429 8.91126 4.94475 9.02212 4.96981 9.1064C4.98612 9.16123 4.99883 9.18492 5.00194 9.19108C5.05203 9.23556 5.08208 9.28467 5.09781 9.31291C5.1176 9.34845 5.13269 9.3844 5.14402 9.41434C5.16652 9.47378 5.18571 9.54078 5.20103 9.59601C5.20596 9.6138 5.21054 9.63052 5.21489 9.64641C5.22555 9.68535 5.23484 9.7193 5.2447 9.75182C5.25554 9.78754 5.2623 9.80484 5.26442 9.81025C5.26527 9.81244 5.26537 9.81269 5.26467 9.81143C5.35133 9.96767 5.38018 10.1385 5.3987 10.2481C5.39948 10.2527 5.40025 10.2572 5.401 10.2616C5.4235 10.394 5.43632 10.4505 5.45821 10.4899C5.66548 10.8636 5.81562 11.4259 5.839 11.8475C5.85632 12.1597 6.00075 12.4579 6.1893 12.831C6.19428 12.8408 6.19929 12.8507 6.20434 12.8607C6.37704 13.2021 6.58603 13.6151 6.61308 14.0757C6.61531 14.1136 6.62878 14.1738 6.65353 14.2577C6.65765 14.2716 6.66291 14.2887 6.66871 14.3076C6.68743 14.3683 6.71185 14.4476 6.7223 14.5014C6.72645 14.5228 6.73217 14.5572 6.73232 14.5965C6.73242 14.6233 6.73187 14.7193 6.66627 14.8125C6.62784 14.8671 6.57129 14.9142 6.49897 14.9404C6.43059 14.9651 6.36842 14.9639 6.32516 14.9573C6.24766 14.9456 6.19098 14.911 6.16816 14.8964C6.11503 14.8624 6.06406 14.8151 6.02142 14.7729C5.97417 14.7261 5.91775 14.6659 5.85118 14.5918C5.49902 14.1999 5.33643 14.0259 4.91178 13.7581C4.37196 13.4176 3.9636 13.2402 3.3794 13.0377C3.28433 13.0047 3.18022 12.9573 3.08902 12.9158C3.07579 12.9097 3.06283 12.9038 3.0502 12.8981C2.9421 12.8491 2.84379 12.8064 2.74946 12.7767C2.555 12.7154 2.46506 12.7355 2.40367 12.7858C2.34191 12.8364 2.25605 12.895 2.17809 12.9481C2.17289 12.9516 2.16773 12.9552 2.16261 12.9587C2.07382 13.0192 1.98325 13.0814 1.89969 13.1457C1.8146 13.2111 1.74941 13.2694 1.7074 13.3184C1.69077 13.3378 1.68184 13.3511 1.67737 13.3585C1.67717 13.4061 1.68637 13.4507 1.70581 13.5226C1.70802 13.5308 1.71044 13.5396 1.71299 13.5488C1.73482 13.6278 1.76706 13.7445 1.77473 13.8829C1.7797 13.9725 1.81818 14.1299 1.88766 14.2922C1.96015 14.4614 2.03815 14.5697 2.08359 14.6061C2.23887 14.7305 2.35522 14.9072 2.4372 15.0317C2.44835 15.0486 2.45887 15.0646 2.46876 15.0793C2.56833 15.2277 2.63584 15.3083 2.71205 15.3519C3.05407 15.5477 3.42268 15.8852 3.66518 16.1281C4.12655 16.5903 4.66318 16.9728 5.218 17.3683C5.44103 17.5272 5.667 17.6883 5.8922 17.8575C6.36562 18.2131 6.76106 18.6453 7.12639 19.0718C7.21811 19.1789 7.3074 19.2849 7.39552 19.3895C7.66546 19.71 7.92438 20.0174 8.20791 20.3014C8.46386 20.5578 8.62481 20.8384 8.75646 21.0992C8.79641 21.1783 8.8326 21.2531 8.86733 21.3248C8.95255 21.5009 9.02897 21.6588 9.13045 21.8185C9.32721 22.1282 9.46833 22.5092 9.58023 22.8696C9.64354 23.0734 9.70581 23.3009 9.76235 23.5074C9.80082 23.6479 9.83663 23.7787 9.86833 23.8859C9.89221 23.9666 9.90579 24.0352 9.91574 24.091C9.91909 24.1099 9.92176 24.1254 9.92405 24.1387C9.9293 24.1693 9.9326 24.1885 9.93769 24.2099C9.94465 24.2393 9.95248 24.2675 9.99632 24.3204C10.0122 24.3211 10.0296 24.3215 10.0489 24.3215H11.4037C11.7144 24.3215 12.0347 24.2285 12.4107 24.1108C12.431 24.1044 12.4516 24.0979 12.4723 24.0914C12.8157 23.9835 13.2074 23.8604 13.61 23.8374C14.2849 23.7988 15.1212 23.5985 15.7292 23.3549C15.8461 23.3081 15.9863 23.2577 16.1409 23.2022C16.5619 23.051 17.0895 22.8615 17.5434 22.6006C17.8499 22.4245 18.0756 22.2399 18.1955 22.0539C18.3015 21.8897 18.3302 21.7209 18.2335 21.503C18.1314 21.2728 18.0864 20.9235 18.0626 20.6289C18.0375 20.3178 18.0323 20.0055 18.0323 19.8144V18.0266C18.0323 17.6832 18.0849 17.3489 18.1325 17.0467L18.1332 17.0424C18.1824 16.7299 18.2258 16.452 18.2258 16.1796C18.2258 15.895 18.2504 15.5971 18.2738 15.3121L18.2754 15.2935C18.2997 14.9973 18.3226 14.7134 18.3226 14.4402C18.3226 13.969 18.2762 13.5034 18.2275 13.0188L18.2266 13.0097C18.1788 12.5333 18.1291 12.0381 18.1291 11.5324C18.1291 10.8584 18.0186 10.1409 17.8078 9.50729C17.7513 9.33755 17.755 9.15189 17.7573 9.0363C17.7576 9.02241 17.7578 9.00953 17.758 8.99781C17.7596 8.85378 17.7491 8.80724 17.7362 8.78396C17.7163 8.74808 17.6954 8.71326 17.6721 8.67501C17.6692 8.67015 17.6662 8.66519 17.6631 8.66014C17.643 8.62713 17.6205 8.5903 17.5992 8.5532C17.5487 8.46522 17.4958 8.36081 17.4593 8.23315C17.4401 8.1658 17.3975 8.09576 17.3198 8.0114C17.2548 7.94091 17.182 7.87719 17.0942 7.8003C17.0708 7.77985 17.0464 7.75848 17.0208 7.7358C16.8331 7.56958 16.562 7.32213 16.498 6.94491C16.4606 6.94869 16.4142 6.95564 16.3583 6.96704C16.1745 7.00459 16.0029 7.0621 15.8679 7.10734C15.8078 7.12749 15.755 7.1452 15.7115 7.15763C15.6534 7.17426 15.5531 7.24846 15.4581 7.40237C15.366 7.55173 15.3228 7.7063 15.3228 7.79531C15.3228 8.06935 15.3455 8.35227 15.3699 8.65515L15.3701 8.65768C15.3941 8.95663 15.4196 9.27423 15.4196 9.59386C15.4196 9.61303 15.4189 9.63724 15.4159 9.66297C15.4138 9.68023 15.4071 9.73533 15.3766 9.79448C15.3603 9.82605 15.3253 9.88237 15.2578 9.92643C15.1803 9.97698 15.0887 9.99245 15.0037 9.97555C14.93 9.96091 14.8795 9.92596 14.8543 9.90578C14.8272 9.88409 14.8084 9.86249 14.7975 9.84887C14.7617 9.80422 14.7396 9.75465 14.7317 9.73682L14.7314 9.73621C14.7194 9.70931 14.7079 9.68007 14.698 9.65344C14.6841 9.6164 14.6686 9.57248 14.6548 9.53335C14.6494 9.51773 14.6441 9.50287 14.6394 9.48952C14.6303 9.46416 14.6225 9.44273 14.6158 9.42538C14.6084 9.40619 14.6053 9.39973 14.6059 9.40095C14.49 9.16887 14.3912 8.93152 14.2983 8.70233C14.2815 8.66083 14.2649 8.61971 14.2484 8.57891C14.1726 8.39097 14.0995 8.20995 14.0194 8.03146C13.9627 7.90529 13.9083 7.77013 13.8555 7.63888L13.8506 7.62689C13.7954 7.48951 13.741 7.35498 13.6824 7.22406C13.5636 6.95902 13.4384 6.73562 13.2863 6.57434C13.2472 6.53283 13.1234 6.4763 12.8915 6.474C12.6764 6.47186 12.4525 6.51826 12.3093 6.57868C12.1864 6.63048 12.0609 6.66251 11.9647 6.68705L11.9603 6.68819C11.8531 6.71554 11.7851 6.73352 11.7307 6.75723C11.6824 6.77827 11.6711 6.79319 11.6677 6.79818C11.6647 6.80264 11.6456 6.83156 11.6456 6.92296C11.6456 6.93568 11.6456 6.94835 11.6456 6.96097C11.6455 7.33259 11.6455 7.66163 11.7067 7.95741C11.7506 8.00275 11.7803 8.05104 11.7997 8.08668C11.8273 8.13726 11.8492 8.19117 11.8668 8.24129C11.9021 8.34152 11.9306 8.45605 11.9534 8.56171C11.9611 8.59693 11.9683 8.63221 11.9751 8.66686C12.0501 8.85273 12.1262 9.06097 12.1935 9.27097C12.3043 9.61665 12.4004 9.99463 12.4191 10.2943C12.421 10.3251 12.4223 10.3607 12.4202 10.395C12.4193 10.4115 12.4169 10.4384 12.4097 10.469L12.4096 10.4696C12.4051 10.4884 12.3863 10.5683 12.3166 10.6386C12.2742 10.6815 12.2091 10.7239 12.1231 10.7365C12.0393 10.7488 11.9697 10.728 11.9241 10.706C11.8463 10.6685 11.8039 10.6115 11.7931 10.5971L11.793 10.5969C11.7633 10.557 11.7447 10.5153 11.7367 10.4969C11.6996 10.4117 11.6554 10.2657 11.6148 10.1213C11.5293 9.81745 11.4298 9.41149 11.3845 9.20283C11.3753 9.16014 11.3641 9.09582 11.3526 9.0297C11.3499 9.01424 11.3472 8.99868 11.3445 8.98327C11.3377 8.94412 11.3303 8.90306 11.3225 8.86124C11.2854 8.77157 11.2493 8.68971 11.2159 8.61904C11.1579 8.49658 11.1135 8.37088 11.0794 8.24393C11.0552 8.19846 11.0344 8.15092 11.0165 8.10493C10.9723 7.99163 10.9353 7.86149 10.9048 7.73903C10.8635 7.5733 10.8257 7.38263 10.8007 7.25684C10.7906 7.20593 10.7826 7.16565 10.7774 7.14195C10.7562 7.04638 10.7077 6.95399 10.6298 6.82018C10.6242 6.81054 10.6184 6.80057 10.6123 6.79029C10.5437 6.67323 10.4514 6.51562 10.4006 6.33767C10.3893 6.2978 10.3796 6.26232 10.3709 6.23003C10.3482 6.14626 10.3313 6.0839 10.3046 6.02187C10.2733 5.94875 10.2462 5.92387 10.2231 5.91101C9.98841 5.78039 9.59032 5.74464 9.24749 5.84956C8.90957 5.95297 8.74257 6.14625 8.74257 6.38986C8.74257 6.58486 8.75339 6.77669 8.77303 6.9669C8.78582 6.98891 8.79929 7.01211 8.81343 7.03677C8.90427 7.19525 9.01732 7.40867 9.03235 7.67957C9.03229 7.67842 9.03238 7.67893 9.03281 7.68129C9.03411 7.68829 9.0384 7.71157 9.05047 7.75582C9.0645 7.80731 9.08399 7.86931 9.10598 7.93433C9.1502 8.0651 9.19923 8.19255 9.22137 8.24523C9.33393 8.51301 9.35235 8.79297 9.36665 9.01036C9.36721 9.01894 9.36777 9.02742 9.36832 9.03579C9.38435 9.27688 9.39984 9.44695 9.46602 9.59608C9.56258 9.81371 9.62162 10.0908 9.65755 10.3478C9.66857 10.4267 9.67773 10.506 9.68515 10.5842C9.6869 10.5929 9.68844 10.601 9.68982 10.6085C9.70146 10.6721 9.7092 10.7416 9.71453 10.8083C9.72523 10.9421 9.72794 11.0871 9.7271 11.197C9.72668 11.252 9.72534 11.3017 9.72332 11.3394C9.72237 11.357 9.72098 11.3779 9.71865 11.3973C9.71783 11.4041 9.71526 11.4255 9.70899 11.4501L9.7088 11.4508C9.70674 11.459 9.6968 11.4983 9.67128 11.5413C9.66 11.5603 9.62175 11.6223 9.5427 11.6658C9.43449 11.7253 9.30515 11.7202 9.20336 11.6582C9.12881 11.6128 9.09359 11.5518 9.08311 11.533C9.06876 11.5072 9.06085 11.485 9.05711 11.4737C9.04943 11.4505 9.04583 11.4311 9.04445 11.4234C9.04127 11.4055 9.03976 11.3896 9.03902 11.3809C9.03732 11.3612 9.03623 11.338 9.03544 11.3138C9.0338 11.264 9.03285 11.191 9.03285 11.0909C9.03285 10.9769 9.0274 10.8423 9.01552 10.7014C8.87458 10.4401 8.79489 10.1581 8.73438 9.89863C8.7098 9.79324 8.68906 9.69557 8.66927 9.60236C8.63554 9.44353 8.60456 9.29766 8.56204 9.14858C8.37997 8.51031 8.20115 7.86484 8.11626 7.18481C8.05822 7.07962 7.9981 6.95614 7.95992 6.82231C7.85934 6.46968 7.75057 6.16524 7.63223 5.83401C7.58369 5.69814 7.53354 5.55776 7.48168 5.40771C7.44276 5.29506 7.40892 5.19088 7.37569 5.08854C7.33262 4.95592 7.29056 4.8264 7.23971 4.68556C7.15499 4.45087 7.06575 4.2456 6.95916 4.08232C6.91367 4.01263 6.86331 3.94097 6.81089 3.86638C6.63541 3.61667 6.43673 3.33395 6.31921 2.98082C6.29583 2.91055 6.28021 2.83529 6.26836 2.77264C6.26189 2.73839 6.25703 2.71101 6.25246 2.6852C6.24684 2.65351 6.24164 2.62418 6.23436 2.5874C6.22291 2.52944 6.21189 2.4842 6.19997 2.44906C6.18925 2.41746 6.18176 2.40621 6.18185 2.40616C6.18186 2.40615 6.18208 2.40643 6.18251 2.40698C5.98448 2.15903 5.80109 1.9417 5.57313 1.71336C5.57366 1.7139 5.57394 1.71416 5.57392 1.71418C5.57375 1.7144 5.55098 1.69664 5.47843 1.6859C5.40253 1.67465 5.30287 1.67599 5.1909 1.6918ZM8.30007 5.68925C8.28778 5.65475 8.27545 5.62025 8.26311 5.5857C8.21602 5.45389 8.16871 5.32143 8.12182 5.18576C8.09297 5.10226 8.06104 5.00449 8.02755 4.9019C7.97907 4.75341 7.92729 4.59482 7.87675 4.45482C7.78594 4.2033 7.67562 3.94002 7.52613 3.711C7.45362 3.59992 7.3867 3.50439 7.32539 3.41687C7.16654 3.1901 7.04531 3.01705 6.96185 2.76626C6.94742 2.72288 6.93879 2.67419 6.92603 2.60218C6.91887 2.56174 6.9104 2.51394 6.89887 2.4556C6.87511 2.33542 6.8317 2.13364 6.71148 1.98311C6.5061 1.72597 6.30514 1.48701 6.05212 1.23358C5.91316 1.09438 5.73107 1.03742 5.57755 1.01468C5.41908 0.991201 5.25114 0.998062 5.09633 1.01992C4.80158 1.06155 4.46778 1.17107 4.27317 1.32702C3.86633 1.65302 3.71911 2.18329 3.65836 2.64677C3.60686 3.0397 3.61019 3.4559 3.6128 3.78066C3.61333 3.84677 3.61382 3.9091 3.61382 3.96667V5.32366C3.61382 5.70795 3.67799 6.05635 3.73755 6.37973C3.76271 6.51638 3.78706 6.64856 3.80539 6.77709C3.81361 6.83476 3.82189 6.89705 3.83063 6.96281C3.88319 7.35835 3.9524 7.87918 4.12686 8.27235C4.13952 8.30088 4.15741 8.36844 4.17771 8.4913C4.18939 8.56197 4.19907 8.63131 4.20953 8.70613C4.21712 8.76049 4.22512 8.81773 4.23457 8.88047C4.25511 9.01674 4.28114 9.1674 4.3206 9.3001C4.35101 9.40235 4.40443 9.55008 4.51337 9.66235C4.52307 9.68929 4.5343 9.72699 4.54835 9.77765C4.55176 9.78996 4.55542 9.80331 4.55924 9.81728C4.57074 9.8593 4.58378 9.90694 4.59655 9.94907C4.61227 10.0009 4.63667 10.0763 4.67251 10.1409C4.69728 10.1856 4.71129 10.2466 4.7332 10.3755C4.7342 10.3814 4.73523 10.3875 4.73629 10.3938C4.75423 10.5007 4.78244 10.6687 4.86605 10.8194C5.01874 11.0947 5.14435 11.5555 5.16264 11.8851C5.18863 12.3537 5.39989 12.7715 5.574 13.1158L5.58493 13.1374C5.66111 13.2882 5.73005 13.4261 5.78642 13.5572C5.64466 13.4352 5.48445 13.3174 5.27271 13.1839C4.67841 12.8091 4.22037 12.6112 3.60098 12.3965C3.53818 12.3747 3.46631 12.3421 3.37032 12.2985C3.35714 12.2925 3.3435 12.2863 3.32936 12.2799C3.22083 12.2307 3.08975 12.1726 2.95278 12.1295C2.68466 12.045 2.30439 11.9905 1.97472 12.2607C1.93775 12.291 1.87545 12.3336 1.78129 12.3979C1.69403 12.4574 1.58811 12.5298 1.48704 12.6076C1.38748 12.6842 1.27989 12.7755 1.19328 12.8766C1.1129 12.9704 1.01184 13.1168 1.0016 13.3014C0.992271 13.4696 1.02559 13.6025 1.05194 13.7C1.05433 13.7088 1.05663 13.7173 1.05884 13.7254C1.08181 13.81 1.09491 13.8582 1.09837 13.9206C1.10918 14.1154 1.17668 14.3531 1.26511 14.5596C1.35054 14.7591 1.48238 14.9933 1.66042 15.136C1.7269 15.1892 1.78021 15.2689 1.87392 15.4091C1.88429 15.4246 1.89515 15.4408 1.90658 15.4579C2.00433 15.6035 2.14772 15.8104 2.37597 15.941C2.63488 16.0892 2.95037 16.3717 3.18618 16.6079C3.69046 17.113 4.29903 17.5469 4.87064 17.9543C5.08321 18.1059 5.29067 18.2537 5.48576 18.4003C5.89728 18.7094 6.2533 19.0946 6.6123 19.5136C6.69544 19.6107 6.77929 19.7103 6.86416 19.8111C7.13833 20.1367 7.42313 20.4749 7.72891 20.7812C7.90947 20.9621 8.03192 21.1676 8.15193 21.4053C8.18097 21.4629 8.21086 21.5246 8.24204 21.589C8.33295 21.7769 8.43488 21.9875 8.55895 22.1828C8.70608 22.4143 8.82601 22.7253 8.93339 23.0711C8.99783 23.2786 9.04961 23.469 9.1005 23.6561C9.10892 23.687 9.11731 23.7179 9.12573 23.7487C9.03046 23.8493 9.0031 24.0027 9.0686 24.134C9.10756 24.212 9.13271 24.2849 9.16085 24.3679C9.16229 24.3722 9.16377 24.3766 9.16529 24.3811C9.18973 24.4535 9.22472 24.5572 9.28042 24.6491C9.34904 24.7624 9.44866 24.8607 9.59535 24.9235C9.72966 24.9811 9.88309 25 10.0489 25H11.4037C11.8334 25 12.2493 24.8722 12.6128 24.7584L12.6475 24.7475C13.0144 24.6326 13.3324 24.5329 13.6487 24.5148C14.4036 24.4716 15.3117 24.253 15.9808 23.9849C16.0641 23.9515 16.178 23.9107 16.3124 23.8624C16.7378 23.7098 17.3681 23.4836 17.8805 23.1892C18.2214 22.9933 18.5576 22.743 18.7646 22.4221C18.9855 22.0794 19.0486 21.6693 18.8525 21.2274C18.8032 21.1163 18.7622 20.8766 18.7378 20.5742C18.7148 20.2884 18.7097 19.996 18.7097 19.8144V18.0266C18.7097 17.7432 18.7533 17.4593 18.8023 17.1481L18.8053 17.1292C18.8521 16.8323 18.9032 16.5076 18.9032 16.1796C18.9032 15.9232 18.9258 15.6491 18.9501 15.3533L18.9505 15.3493C18.9745 15.0576 19 14.7459 19 14.4402C19 13.9317 18.9501 13.4347 18.9022 12.9573L18.9015 12.951C18.8529 12.4663 18.8065 12.0017 18.8065 11.5324C18.8065 10.7897 18.6856 9.99939 18.4504 9.29272C18.4327 9.23952 18.4334 9.1738 18.4351 9.02121L18.4353 9.00539L18.4353 9.00413C18.4368 8.87483 18.4392 8.65432 18.3284 8.45444C18.3014 8.40583 18.2745 8.36114 18.2506 8.32198L18.2408 8.30587C18.2204 8.2723 18.203 8.24381 18.1865 8.21502C18.1497 8.15088 18.1259 8.10015 18.1107 8.04674C18.0516 7.83954 17.9347 7.67828 17.8174 7.55103C17.7252 7.45104 17.6175 7.35696 17.5271 7.27804C17.5069 7.26038 17.4876 7.24349 17.4695 7.22745C17.2416 7.02569 17.1614 6.91444 17.1614 6.77757C17.1614 6.64847 17.1169 6.5183 17.0136 6.41865C16.9197 6.32806 16.807 6.29168 16.7212 6.2761C16.5558 6.24604 16.3691 6.27235 16.223 6.30221C15.99 6.34978 15.7104 6.44359 15.5859 6.48536C15.5556 6.49555 15.5344 6.50264 15.5254 6.50521C15.2335 6.58877 15.0166 6.82732 14.8819 7.04571C14.7486 7.26178 14.6515 7.5289 14.6457 7.77219C14.6428 7.7658 14.64 7.75941 14.6371 7.75302C14.586 7.63932 14.536 7.51506 14.4813 7.37903L14.4789 7.3732C14.4242 7.23727 14.3652 7.09093 14.3004 6.94626C14.1722 6.66011 14.0098 6.35342 13.7788 6.10845C13.5441 5.85953 13.1803 5.79831 12.8982 5.79551C12.5993 5.79254 12.2827 5.85366 12.0464 5.95333C11.9755 5.98325 11.8963 6.00433 11.793 6.03068C11.7884 6.03186 11.7837 6.03306 11.7789 6.03428C11.6877 6.05749 11.5692 6.08766 11.4606 6.13498C11.3557 6.18067 11.2412 6.24973 11.1482 6.36249C11.1022 6.2808 11.0708 6.21728 11.052 6.15127C11.0466 6.1324 11.0407 6.11044 11.0342 6.08626C11.0088 5.99223 10.9745 5.86454 10.927 5.75398C10.8619 5.60214 10.7532 5.42975 10.5521 5.31787C10.1276 5.08163 9.53378 5.05246 9.04955 5.20065C8.77077 5.28597 8.49 5.4454 8.30007 5.68925ZM14.7422 9.59526C14.7422 9.59531 14.7422 9.59522 14.7422 9.59526V9.59526ZM15.3509 9.46164C15.3522 9.4642 15.3529 9.46567 15.3529 9.46575C15.3529 9.46584 15.3522 9.46457 15.3509 9.46164ZM6.05735 14.6309C6.05752 14.6318 6.05744 14.6315 6.05724 14.6303C6.05728 14.6305 6.05731 14.6307 6.05735 14.6309Z" fill="white"/>
</svg>
