<svg width="108" height="37" viewBox="0 0 108 37" fill="none" xmlns="http://www.w3.org/2000/svg">
  <path d="M39.4176 2.25681C36.5446 2.25681 33.7018 2 30.8399 2C28.015 2 25.2081 2.0139 22.3845 2.09987C20.6091 2.15392 18.8107 2.23305 17.0464 2.25681C15.3999 2.27898 13.3659 2.99487 11.8712 3.44099C9.40163 4.17807 6.72453 4.56955 4.98463 6.16602C4.17076 6.91279 2.96493 7.88752 2.6008 8.80545C2.2657 9.65021 2.19331 10.5576 2.19331 11.4306C2.19331 12.511 1.67492 13.6706 2.33593 14.7121C2.53228 15.0214 2.35004 15.5319 2.37668 15.8677C2.41921 16.4037 2.56006 16.9448 2.56006 17.5084C2.56006 19.2633 2.56006 21.0182 2.56006 22.773C2.56006 23.7147 2.56006 24.6563 2.56006 25.5979C2.56006 26.6764 2.32297 27.776 3.11017 28.7367C4.3618 30.2642 6.08443 30.8319 8.38718 31.3761C11.2953 32.0634 14.2622 32.6466 17.3316 32.8457C27.4154 33.4995 36.8117 33.8476 46.9276 34.1297L57.6247 34.5149C61.4129 34.6874 68.8107 34.7432 72.6078 34.7432C76.1882 34.7432 79.7328 34.8353 83.2841 34.7432C85.7165 34.6801 88.0994 35 90.5374 35C91.928 35 93.2437 34.9735 94.6123 34.7717C95.2401 34.6792 96.1796 34.4864 96.8128 34.4864C97.898 34.4864 99.2225 34.3441 100.256 34.1297C100.853 34.0059 101.166 33.6941 101.723 33.559C102.39 33.3973 103.453 33.1749 103.964 32.8171C104.533 32.4188 104.406 31.6295 104.555 31.1193C105.188 28.9532 105.431 26.9855 105.431 24.7562C105.431 23.6835 105.948 22.6737 105.981 21.6174C106.023 20.2919 105.981 18.9627 105.981 17.6368C105.981 14.688 105.615 11.7406 105.615 8.80545C105.615 7.68179 104.937 6.70891 103.781 5.98054C103.151 5.58365 102.709 5.0444 102.171 4.66796C101.778 4.39275 101.116 4.38499 100.704 4.15434C100.281 3.91743 99.3813 3.7971 98.8298 3.69779C97.734 3.50047 96.6592 3.41245 95.5292 3.41245C91.8518 3.41245 88.1607 2.89883 84.4658 2.89883C80.0814 2.89883 75.7362 2.64202 71.3649 2.64202C68.2476 2.64202 65.1303 2.64202 62.013 2.64202C56.747 2.64202 51.4312 2.51362 46.2024 2.51362C44.776 2.51362 43.3999 2.38521 41.9848 2.38521C41.4376 2.38521 40.8807 2.40646 40.3345 2.38521C39.8346 2.36577 39.3427 2.1284 38.8675 2.1284" stroke="#90C355" stroke-width="3" stroke-linecap="round"/>
</svg>
