<svg width="33" height="32" viewBox="0 0 33 32" fill="none" xmlns="http://www.w3.org/2000/svg">
<path d="M3.05039 2.99778C4.19768 5.43576 5.11156 5.98011 5.46755 8.82799C5.64529 10.2499 6.44192 11.534 6.44192 13C6.44192 13.5028 6.63572 13.9841 6.63572 14.502C6.63572 15.1967 6.73262 15.8806 6.73262 16.5853C6.73262 18.5386 6.92642 20.4895 6.92642 22.4477C6.92642 23.0527 6.96605 22.8149 7.41091 23.0022C7.98194 23.2426 8.69963 23.0027 9.27353 22.9807C9.86208 22.958 10.4556 22.9807 11.0446 22.9807C11.7504 22.9807 12.3977 22.4628 13.0795 22.3024C14.0561 22.0726 14.7046 21.7879 15.5289 21.258C16.0784 20.9048 16.7075 20.6118 17.1977 20.1706C17.8725 19.5633 19.051 19.1483 19.2272 18.1788C19.3736 17.3736 19.9266 16.8446 20.5138 16.3161C21.064 15.821 21.3531 15.1954 21.5528 14.4966C21.6598 14.1221 20.4543 13.8515 20.2016 13.7322C19.3713 13.3401 18.3908 13.0376 17.6822 12.4402C16.3666 11.3309 15.0444 10.0869 13.9516 8.74185C13.5735 8.27644 12.979 7.90926 12.5466 7.47678C12.1798 7.10999 11.74 6.68413 11.2869 6.43242C10.0973 5.77156 8.76096 5.4878 7.50781 5.00047C6.33742 4.54531 5.18828 4.09876 4.06789 3.60081C3.70922 3.4414 3.39606 3.18981 3.05039 2.99778ZM3.05039 2.99778C2.3433 2.60495 2.74289 2.92027 3.19041 3.23475C5.57105 4.90763 8.68648 5.20172 11.2438 6.51317C13.0204 7.42425 14.9322 8.27633 16.5194 9.49013C17.4093 10.1706 18.3973 10.7005 19.1896 11.4927C19.2359 11.5391 19.5037 11.6875 19.2811 11.6381C18.9536 11.5653 18.5582 11.2722 18.2421 11.1374C17.0986 10.65 15.8579 10.4493 14.6999 9.99616C13.5628 9.55121 12.3271 9.33176 11.1577 8.9841C9.97882 8.63363 8.82003 8.08534 7.60471 7.86438C7.30584 7.81004 7.03552 7.76748 6.73262 7.76748C6.27731 7.76748 6.73474 8.65135 6.80799 8.86567C7.22058 10.0729 7.97343 11.1803 8.28301 12.4186C8.70953 14.1247 8.6706 16.0461 8.6706 17.7965C8.6706 18.439 8.6706 19.0814 8.6706 19.7238C8.6706 20.8671 8.62108 17.4311 8.74597 16.2946C8.91538 14.7529 9.10173 13.0166 9.8334 11.6219C10.0103 11.2847 10.0714 10.8145 10.1456 11.4173C10.2899 12.5893 10.2795 13.8517 10.2102 15.0295C10.1486 16.0765 9.84494 17.1067 9.71496 18.1465C9.65354 18.6378 9.54465 19.1125 9.39735 19.5838C9.35479 19.72 9.3489 20.1518 9.3489 20.0091C9.3489 19.5234 9.91232 19.0236 10.1672 18.6525C11.6105 16.5508 13.2651 14.6071 15.066 12.8062C15.2863 12.5859 15.6537 12.1921 15.4535 12.7524C14.9704 14.1054 14.1646 15.4112 13.4187 16.6338C12.4 18.3032 11.3566 19.6091 9.45656 20.2136C9.15861 20.3085 8.81728 20.4879 8.52526 20.5528C8.34687 20.5924 9.36042 19.9751 9.52116 19.9014C10.6924 19.3646 11.9152 18.9792 13.1172 18.5233C14.1503 18.1314 15.1122 17.5746 16.1318 17.1667C17.1031 16.7782 15.8497 16.7674 15.4105 16.6876C15.108 16.6326 14.9443 16.7794 14.6999 16.9298C14.4937 17.0567 15.0917 16.2438 15.1575 16.1493C15.6209 15.483 15.9413 14.8884 16.3041 14.1628C16.9369 12.8973 16.0349 14.4815 16.0349 14.8411" stroke="black" stroke-width="5" stroke-linecap="round"/>
<path fill-rule="evenodd" clip-rule="evenodd" d="M2.5946 2.1157C2.49508 2.00196 2.32775 1.96522 2.18657 2.03643C2.01926 2.12081 1.95204 2.32485 2.03643 2.49215C2.09274 2.6038 2.18637 2.66611 2.24134 2.69733C2.30391 2.73288 2.37234 2.75893 2.43478 2.7787C2.51519 2.80416 2.6049 2.82512 2.69566 2.84242C2.53957 2.8729 2.42177 3.0104 2.42177 3.17542C2.42177 3.60082 2.5083 4.0091 2.6037 4.38904C2.63005 4.49401 2.65674 4.59573 2.68287 4.69535C2.75441 4.96803 2.82182 5.22497 2.86704 5.48986C2.91511 5.77143 2.96137 6.05408 3.00775 6.33742C3.18593 7.42603 3.36578 8.52487 3.65616 9.61232C3.79054 10.1156 3.93358 10.5991 4.07513 11.0776C4.27708 11.7602 4.47599 12.4326 4.64239 13.1374C4.70919 13.4204 4.80828 13.6928 4.90503 13.9473C4.92187 13.9916 4.93858 14.0353 4.95509 14.0784C5.03574 14.2889 5.11148 14.4867 5.17302 14.6872C5.21527 14.8247 5.24211 14.9637 5.27282 15.1228C5.28041 15.1621 5.28823 15.2026 5.29658 15.2446C5.33664 15.4462 5.38778 15.6741 5.48764 15.8969C5.54553 16.026 5.57191 16.1861 5.58883 16.3913C5.59283 16.4399 5.59635 16.4933 5.60006 16.5496C5.61044 16.707 5.62229 16.8869 5.65047 17.0475C5.6767 17.197 5.70582 17.3425 5.73426 17.4847C5.80931 17.8598 5.87964 18.2114 5.87964 18.5495C5.87964 18.8391 5.91854 19.1327 5.95727 19.4022C5.96203 19.4354 5.96677 19.4681 5.97146 19.5004C6.00614 19.7394 6.03776 19.9574 6.0488 20.1653C6.05764 20.3319 6.07118 20.4813 6.10357 20.5995C6.13662 20.7202 6.21199 20.8889 6.40354 20.9651C6.55674 21.0261 6.7133 20.9919 6.78747 20.9756C6.82915 20.9665 6.87479 20.9548 6.9179 20.9438C6.92335 20.9424 6.92876 20.9411 6.93412 20.9397C6.98419 20.9269 7.03611 20.9139 7.09314 20.9014C7.3681 20.8408 7.65573 20.8237 7.96452 20.8211C8.0792 20.8201 8.20449 20.8213 8.33367 20.8226C8.53061 20.8245 8.73657 20.8265 8.92765 20.8209C9.19697 20.8131 9.45623 20.7453 9.67391 20.6884C9.6854 20.6854 9.69676 20.6824 9.70801 20.6795C9.94684 20.6173 10.1412 20.5702 10.3328 20.5702C10.669 20.5702 10.9969 20.4878 11.2917 20.3981C11.4064 20.3632 11.5127 20.3286 11.6144 20.2954C11.7912 20.2377 11.9543 20.1844 12.1246 20.1422C12.3358 20.0899 12.5353 19.9994 12.7115 19.9099C12.7938 19.8681 12.8749 19.8245 12.9508 19.7836L12.9686 19.7741C13.0511 19.7297 13.1274 19.6889 13.201 19.6524C13.3926 19.5575 13.598 19.481 13.8237 19.3974L13.8309 19.3948C14.0487 19.3141 14.2858 19.2262 14.513 19.1136C14.7328 19.0047 14.9574 18.9137 15.196 18.817C15.2272 18.8043 15.2587 18.7916 15.2904 18.7787C15.5596 18.6692 15.844 18.5503 16.1237 18.3962C16.4049 18.2413 16.7052 18.1246 17.0304 17.9982L17.0319 17.9977C17.3497 17.8742 17.692 17.7412 18.0182 17.5593C18.5039 17.2885 18.9361 16.7254 19.1814 16.3054C19.2899 16.1197 19.4043 15.9353 19.5215 15.7463C19.5382 15.7194 19.555 15.6925 19.5717 15.6654C19.7053 15.4499 19.8411 15.2288 19.9669 15.0043C20.0231 14.904 20.0797 14.7796 20.1289 14.6714C20.1513 14.6222 20.1721 14.5763 20.1907 14.5376C20.2608 14.3917 20.3232 14.2887 20.3924 14.2201C20.4717 14.1414 20.5358 14.0319 20.5827 13.9411C20.6342 13.8417 20.6834 13.728 20.7264 13.6157C20.8068 13.4054 20.8857 13.1465 20.8952 12.9762C20.8976 12.9342 20.9088 12.8756 20.9295 12.7815C20.9313 12.7733 20.9332 12.7648 20.9351 12.756C20.9528 12.6759 20.9751 12.5756 20.988 12.4759C21.0154 12.2651 21.0201 11.9221 20.7251 11.6882C20.695 11.6643 20.6586 11.6224 20.6136 11.55C20.5746 11.4875 20.5393 11.4195 20.4966 11.3373C20.4887 11.3222 20.4806 11.3067 20.4722 11.2906L20.4699 11.2862C20.3768 11.1078 20.2316 10.8297 19.9683 10.6762C19.8682 10.6178 19.7431 10.5066 19.6008 10.3586C19.5102 10.2645 19.428 10.1722 19.3471 10.0815C19.2995 10.028 19.2523 9.97503 19.2041 9.92252C18.7547 9.43251 18.181 8.97487 17.6183 8.61627C17.4702 8.52191 17.3282 8.40994 17.1728 8.2853C17.1622 8.27679 17.1515 8.2682 17.1407 8.25956C16.9984 8.14537 16.8434 8.02092 16.6789 7.91023C16.5306 7.81051 16.3636 7.72673 16.2197 7.65457C16.1903 7.63983 16.1619 7.62558 16.1348 7.61178C15.9623 7.52392 15.8268 7.44681 15.722 7.35334C15.4713 7.12959 15.1904 6.94537 14.9254 6.77877C14.874 6.74645 14.8234 6.71492 14.7736 6.6839C14.5595 6.55047 14.3604 6.42641 14.1758 6.28916C13.7588 5.97912 13.3103 5.73788 12.8572 5.5251C12.8217 5.50841 12.7886 5.49334 12.757 5.47896C12.6876 5.44736 12.6256 5.41912 12.5614 5.38454C12.4716 5.33613 12.4158 5.29414 12.384 5.2573C12.2464 5.09824 12.0624 5.0524 11.9769 5.03111C11.9733 5.03021 11.9699 5.02936 11.9667 5.02854C11.8975 5.01111 11.8743 5.00261 11.8691 5.00101C11.6319 4.76837 11.3263 4.6433 11.0736 4.54883C11.0247 4.53053 10.9776 4.51332 10.9325 4.49678C10.7207 4.41926 10.5488 4.35634 10.4013 4.2633C10.0014 4.01099 9.55999 3.83337 9.13091 3.68486C8.93653 3.61758 8.74077 3.55501 8.55145 3.49449C8.53157 3.48813 8.51176 3.4818 8.49203 3.47548C8.28265 3.40849 8.08176 3.34354 7.88957 3.27426C7.5641 3.15694 7.23579 3.06625 6.91803 2.98218C6.85991 2.96681 6.80228 2.95169 6.74507 2.93668C6.4856 2.86859 6.2349 2.80282 5.98666 2.72592C5.97074 2.72098 5.95437 2.71584 5.93756 2.71056C5.76453 2.65622 5.54569 2.5875 5.30279 2.58536C5.29618 2.58208 5.28095 2.57412 5.25279 2.55653C5.24999 2.55478 5.24686 2.55281 5.24345 2.55067C5.21627 2.53356 5.1708 2.50493 5.12288 2.48177C5.06424 2.45342 4.98531 2.42428 4.88927 2.41868C4.70852 2.40814 4.53256 2.37658 4.3339 2.34095C4.31369 2.33733 4.29324 2.33366 4.27253 2.32997C4.05623 2.29142 3.81378 2.25089 3.55758 2.25089C3.46551 2.25089 3.20086 2.2352 2.95022 2.19744C2.82464 2.17852 2.71609 2.15599 2.63961 2.13178C2.61965 2.12546 2.60492 2.11996 2.5946 2.1157ZM2.92727 2.87956C3.03057 2.93773 3.10034 3.04842 3.10034 3.17542C3.10034 3.51383 3.16935 3.85542 3.26184 4.2238C3.28424 4.31299 3.30837 4.40493 3.33303 4.49888C3.4068 4.77994 3.48528 5.07892 3.53594 5.37567C3.58577 5.66759 3.63319 5.95711 3.68028 6.24465C3.85788 7.32905 4.03089 8.38542 4.31176 9.43726C4.43525 9.89969 4.57459 10.3718 4.71538 10.8488C4.92353 11.5541 5.13485 12.2701 5.30281 12.9815C5.35855 13.2176 5.44351 13.4541 5.53934 13.7063C5.55473 13.7467 5.57046 13.7878 5.58639 13.8293C5.66718 14.0401 5.75276 14.2634 5.82172 14.488C5.87574 14.664 5.911 14.8474 5.94206 15.009C5.9489 15.0446 5.95555 15.0791 5.96214 15.1123C6.00075 15.3066 6.04024 15.4707 6.10683 15.6192C6.21445 15.8593 6.24706 16.1166 6.26511 16.3356C6.27127 16.4103 6.27578 16.479 6.28002 16.5436C6.28936 16.6858 6.29738 16.8079 6.31884 16.9303C6.33854 17.0425 6.36295 17.1643 6.38858 17.2921C6.46759 17.6861 6.55822 18.1381 6.55822 18.5495C6.55822 18.7853 6.59011 19.0354 6.62895 19.3058C6.6335 19.3374 6.63816 19.3695 6.64287 19.4018C6.67707 19.637 6.71361 19.8881 6.72642 20.1294C6.72978 20.1926 6.73356 20.2453 6.73789 20.2894C6.74216 20.2883 6.74654 20.2872 6.75104 20.2861L6.76665 20.2821C6.81797 20.269 6.87877 20.2537 6.94716 20.2387C7.29024 20.1631 7.63261 20.1453 7.9587 20.1425C8.10367 20.1413 8.23757 20.1428 8.36792 20.1442C8.5481 20.1462 8.72148 20.1481 8.90788 20.1426C9.09855 20.1371 9.29118 20.0869 9.53276 20.0239L9.53691 20.0228C9.76607 19.9631 10.0415 19.8917 10.3328 19.8917C10.5653 19.8917 10.8149 19.8339 11.0942 19.7489C11.1804 19.7227 11.2733 19.6925 11.3694 19.6613C11.5629 19.5983 11.7696 19.5311 11.9614 19.4836C12.0976 19.4498 12.243 19.3868 12.4043 19.3049C12.479 19.2669 12.5533 19.227 12.6306 19.1854L12.6472 19.1765C12.7289 19.1325 12.8146 19.0866 12.8997 19.0445C13.1259 18.9323 13.3624 18.8447 13.5799 18.7641L13.588 18.7611C13.8135 18.6776 14.0194 18.6009 14.2116 18.5057C14.4559 18.3846 14.7055 18.2835 14.9416 18.1879C14.9729 18.1752 15.004 18.1626 15.0348 18.1501C15.3027 18.0411 15.5546 17.935 15.7964 17.8018C16.1178 17.6248 16.4545 17.494 16.7671 17.3725L16.7846 17.3657C17.1092 17.2396 17.4085 17.1223 17.6877 16.9666C18.0145 16.7844 18.3711 16.3473 18.5955 15.9632C18.7088 15.7691 18.8285 15.5762 18.9453 15.388C18.9619 15.3612 18.9785 15.3345 18.9949 15.3079C19.1284 15.0926 19.2572 14.8827 19.3749 14.6725C19.4182 14.5953 19.4524 14.5196 19.4929 14.4301C19.518 14.3745 19.5455 14.3136 19.5791 14.2437C19.6561 14.0834 19.7592 13.8923 19.9147 13.7382C19.9146 13.7382 19.9147 13.7381 19.9148 13.7379C19.917 13.7352 19.9408 13.7051 19.98 13.6294C20.0169 13.558 20.0561 13.4685 20.0926 13.3732C20.1709 13.1685 20.2146 12.9948 20.2177 12.9383C20.2236 12.8327 20.248 12.7212 20.2667 12.6358C20.2684 12.628 20.2701 12.6203 20.2718 12.6128C20.2906 12.5275 20.3062 12.4566 20.3151 12.3883C20.3248 12.3143 20.3223 12.2695 20.3164 12.244C20.3125 12.227 20.309 12.2242 20.3037 12.22L20.3035 12.2198C20.1868 12.1273 20.102 12.0122 20.0375 11.9087C19.9834 11.8217 19.934 11.7265 19.8918 11.6452C19.8846 11.6313 19.8775 11.6177 19.8707 11.6047C19.7626 11.3976 19.6964 11.3032 19.6265 11.2624C19.4401 11.1537 19.2608 10.984 19.1117 10.829C19.0141 10.7276 18.9131 10.6144 18.8256 10.5164C18.7808 10.4661 18.7394 10.4198 18.704 10.3812C18.3023 9.94313 17.777 9.52207 17.2536 9.18852C17.0705 9.07181 16.9019 8.9379 16.7483 8.8147C16.7392 8.80743 16.7302 8.80019 16.7212 8.79299C16.5739 8.67476 16.44 8.56735 16.3001 8.47327C16.1911 8.39993 16.0711 8.33958 15.9288 8.26796C15.896 8.25147 15.862 8.23439 15.8267 8.21641C15.6508 8.12677 15.446 8.01642 15.2703 7.85968C15.065 7.67656 14.8259 7.51773 14.5643 7.35326C14.5184 7.32441 14.4715 7.29523 14.424 7.26566C14.2085 7.13148 13.9802 6.98926 13.771 6.83372C13.4046 6.56134 13.0009 6.34224 12.5688 6.13933C12.5478 6.12948 12.5235 6.11839 12.4969 6.1063C12.4201 6.07131 12.3249 6.02792 12.2394 5.98183C12.1234 5.91928 11.9874 5.83303 11.8778 5.70923C11.8701 5.70633 11.8488 5.69861 11.8009 5.68654C11.7958 5.68526 11.79 5.68386 11.7835 5.68231C11.7055 5.66355 11.5314 5.62164 11.3965 5.48793C11.2719 5.36446 11.0898 5.27931 10.836 5.18444C10.7994 5.17076 10.7608 5.15672 10.7206 5.14214C10.5084 5.06509 10.2541 4.97273 10.0393 4.83722C9.70461 4.62608 9.32044 4.46853 8.90896 4.32611C8.72266 4.26163 8.53466 4.20153 8.34416 4.14062C8.32454 4.13435 8.3049 4.12807 8.28523 4.12178C8.07629 4.05492 7.86462 3.98658 7.65945 3.91262C7.36369 3.80601 7.05965 3.72157 6.74448 3.63819C6.68941 3.62362 6.63383 3.60904 6.57789 3.59437C6.3178 3.52615 6.0497 3.45583 5.78586 3.3741C5.7756 3.37092 5.76553 3.36779 5.75563 3.36472C5.55786 3.30335 5.43068 3.26389 5.29121 3.26389C5.10381 3.26389 4.9639 3.17627 4.89891 3.13557C4.89698 3.13436 4.89512 3.13319 4.89333 3.13207C4.85774 3.10985 4.83908 3.0994 4.83135 3.09497C4.61418 3.08092 4.40439 3.04315 4.21687 3.00939C4.19544 3.00553 4.17429 3.00173 4.15346 2.99801C3.93729 2.95949 3.74764 2.92946 3.55758 2.92946C3.43985 2.92946 3.18307 2.91396 2.92727 2.87956ZM2.57755 2.10789C2.57716 2.10768 2.57682 2.10749 2.57653 2.10732C2.57299 2.10532 2.57381 2.10538 2.57755 2.10789Z" fill="white"/>
<path fill-rule="evenodd" clip-rule="evenodd" d="M20.9651 12.1926C21.0469 12.0206 21.2458 11.9508 21.4094 12.0368C21.5555 12.1136 21.6446 12.2215 21.6967 12.2845C21.7 12.2885 21.7031 12.2923 21.7061 12.2959C21.7565 12.3565 21.7788 12.3792 21.8186 12.4001C22.0002 12.4955 22.1862 12.6458 22.3048 12.7455C22.3292 12.7661 22.3788 12.7956 22.4648 12.838C22.4844 12.8477 22.5075 12.8588 22.5322 12.8706C22.5946 12.9005 22.6678 12.9356 22.7257 12.9678C22.8692 13.0477 22.9342 13.1826 22.9636 13.2805C22.9927 13.3774 22.999 13.4763 22.9999 13.552C23.0008 13.6306 22.9957 13.7084 22.9915 13.7682C22.9909 13.7771 22.9903 13.7855 22.9897 13.7933C22.9859 13.846 22.9838 13.8757 22.9838 13.897C22.9838 14.4255 22.8785 14.9319 22.7558 15.4058C22.7095 15.5845 22.6622 15.7542 22.6162 15.9192C22.5355 16.2084 22.4588 16.4836 22.3985 16.7688C22.126 18.0577 21.2916 18.9266 20.5106 19.74C20.4428 19.8106 20.3754 19.8808 20.3088 19.9508C19.8008 20.4849 19.2214 20.9042 18.6599 21.3105C18.5938 21.3583 18.528 21.4059 18.4626 21.4535C18.3202 21.5572 18.2017 21.6694 18.0678 21.7964C18.0013 21.8593 17.931 21.9259 17.8521 21.9969C17.6304 22.1962 17.3656 22.4021 17.0171 22.5099C16.935 22.5352 16.7906 22.6109 16.6281 22.7184C16.4697 22.8232 16.3278 22.9356 16.2508 23.0121C16.0934 23.1685 15.9138 23.2494 15.7847 23.3065L15.7716 23.3123C15.6361 23.3722 15.5589 23.4063 15.4937 23.4611C15.2942 23.6289 15.0248 23.6807 14.8494 23.7144L14.8347 23.7172C14.6212 23.7583 14.4931 23.783 14.4054 23.8356C14.2119 23.9519 13.9957 23.9873 13.839 24.0114C13.8233 24.0138 13.808 24.0161 13.7933 24.0184C13.64 24.0417 13.5362 24.0575 13.4457 24.0956C13.1458 24.2217 12.7654 24.2989 12.4545 24.362C12.3728 24.3786 12.2959 24.3942 12.2265 24.4095C12.1988 24.4156 12.1704 24.4218 12.1416 24.4282C11.7157 24.5224 11.1751 24.6418 10.7132 24.6557C10.4709 24.663 10.235 24.7344 9.95138 24.8208L9.94674 24.8222C9.67874 24.9038 9.36278 25 9.026 25H7.55285C7.20674 25 6.93934 24.8321 6.7502 24.7133C6.71608 24.6918 6.6845 24.672 6.65547 24.6551C6.63799 24.6448 6.62754 24.6406 6.60188 24.63C6.59248 24.6261 6.58104 24.6214 6.56646 24.6153C6.51262 24.5926 6.44194 24.5592 6.36389 24.4935C6.2775 24.4209 6.233 24.3288 6.21345 24.2448C6.20576 24.2118 6.20205 24.1794 6.20027 24.1529C6.10175 24.0339 6.05319 23.8912 6.02852 23.7682C5.99722 23.6121 5.99576 23.446 6.00488 23.2974C6.02216 23.0159 6.08248 22.7318 6.11495 22.5789C6.11678 22.5703 6.11852 22.5621 6.12016 22.5543C6.15579 22.3858 6.15909 22.1798 6.14905 21.9393C6.14593 21.8645 6.14119 21.7826 6.1363 21.6981C6.12685 21.5345 6.11682 21.3612 6.11682 21.2102C6.11682 21.0179 6.26509 20.862 6.44799 20.862C6.63089 20.862 6.77916 21.0179 6.77916 21.2102C6.77916 21.3426 6.78697 21.4752 6.79561 21.6218C6.80088 21.7112 6.80645 21.8058 6.81075 21.9088C6.82123 22.1599 6.82226 22.4427 6.76672 22.7054L6.76307 22.7227C6.72994 22.8792 6.6797 23.1165 6.66585 23.3422C6.65866 23.4593 6.66269 23.5551 6.6766 23.6245C6.68608 23.6717 6.69671 23.6904 6.69943 23.6947C6.78342 23.7668 6.82694 23.8574 6.84621 23.9402C6.84983 23.9558 6.85257 23.9712 6.85464 23.986C6.88711 23.9996 6.9317 24.0197 6.97708 24.0462C7.03539 24.0803 7.08587 24.111 7.13083 24.1384C7.31096 24.248 7.40234 24.3036 7.55285 24.3036H9.026C9.25616 24.3036 9.48544 24.2376 9.76714 24.1518C9.77677 24.1489 9.78648 24.1459 9.79625 24.1429C10.0572 24.0634 10.3651 23.9695 10.6943 23.9596C11.0943 23.9475 11.5804 23.8404 12.0229 23.7428C12.0457 23.7378 12.0683 23.7328 12.0909 23.7278C12.1843 23.7073 12.278 23.6881 12.3707 23.6692C12.6729 23.6074 12.9646 23.5478 13.1997 23.449C13.3689 23.3778 13.5551 23.3502 13.694 23.3297C13.7111 23.3271 13.7276 23.3247 13.7432 23.3223C13.9071 23.2971 14.0055 23.2738 14.0768 23.2309C14.2682 23.116 14.5062 23.0714 14.6739 23.04C14.6906 23.0369 14.7066 23.0339 14.7218 23.031C14.9318 22.9906 15.0303 22.959 15.08 22.9172C15.2211 22.7986 15.3819 22.7284 15.4958 22.6786C15.507 22.6737 15.5178 22.669 15.528 22.6645C15.6569 22.6076 15.7345 22.5669 15.7961 22.5058C15.9158 22.3869 16.0966 22.2472 16.2755 22.1289C16.4502 22.0134 16.6576 21.8951 16.8303 21.8417C17.0446 21.7755 17.2243 21.645 17.4217 21.4675C17.473 21.4214 17.5286 21.3688 17.5876 21.3131C17.7368 21.172 17.9076 21.0105 18.0856 20.8809C18.1516 20.8329 18.2171 20.7854 18.2821 20.7384C18.8501 20.3269 19.378 19.9445 19.8405 19.4583C19.9014 19.3943 19.9618 19.3311 20.0216 19.2686C20.8276 18.4259 21.5235 17.6981 21.7519 16.6177C21.8164 16.3126 21.9047 15.9953 21.9898 15.6895C22.0342 15.5297 22.0778 15.373 22.1167 15.2229C22.2345 14.7678 22.3215 14.3322 22.3215 13.897C22.3215 13.8469 22.3259 13.786 22.3294 13.738C22.33 13.7305 22.3305 13.7232 22.331 13.7164C22.3352 13.6574 22.3381 13.6061 22.3376 13.5605C22.3375 13.5542 22.3374 13.5483 22.3372 13.5427C22.3197 13.5342 22.3012 13.5254 22.2813 13.5159C22.2522 13.5019 22.22 13.4866 22.1834 13.4685C22.0981 13.4264 21.9833 13.367 21.8911 13.2894C21.7731 13.1902 21.6351 13.0822 21.5225 13.023C21.36 12.9376 21.2667 12.8255 21.2076 12.7545C21.1485 12.6834 21.1359 12.6717 21.1132 12.6597C20.9496 12.5738 20.8833 12.3646 20.9651 12.1926Z" fill="white"/>
<path fill-rule="evenodd" clip-rule="evenodd" d="M4.59889 7.65788C4.60419 7.65752 4.60991 7.65721 4.61608 7.65696C4.67544 7.65453 4.74548 7.65844 4.82423 7.66449C4.83635 7.66541 4.84921 7.66645 4.86257 7.66752C4.9247 7.67253 4.9974 7.67838 5.05485 7.67838C5.2178 7.67838 5.34756 7.73438 5.48263 7.83614C5.59217 7.91867 5.68764 8.01581 5.80352 8.13371C5.84744 8.1784 5.89429 8.22606 5.94595 8.27705C6.08869 8.41793 6.2484 8.53043 6.38469 8.62623L6.38838 8.62882C6.53015 8.72848 6.64751 8.81097 6.74867 8.90711C6.81304 8.96829 6.86807 9.0466 6.94525 9.15812C6.9469 9.1605 6.94856 9.16291 6.95024 9.16533C7.0189 9.26458 7.11078 9.39739 7.23106 9.50423C7.23105 9.50422 7.23105 9.50422 7.23107 9.50424C7.23148 9.50464 7.23955 9.51245 7.25182 9.5355C7.26456 9.55942 7.27856 9.59366 7.29217 9.64003C7.31974 9.73402 7.33906 9.85466 7.35117 9.99169C7.37088 10.2146 7.36898 10.442 7.36751 10.6185C7.36715 10.6609 7.36682 10.7004 7.36682 10.7362C7.36682 11.1923 7.34164 11.5379 7.24411 11.8347C7.15041 12.1198 6.9829 12.3797 6.66088 12.6446C6.36127 12.891 6.04014 13.0408 5.67979 13.2089C5.56719 13.2615 5.45076 13.3158 5.32996 13.3754C5.17242 13.4531 5.10536 13.6489 5.18018 13.8126C5.255 13.9763 5.44336 14.0459 5.60091 13.9682C5.69455 13.922 5.79332 13.8761 5.89532 13.8287C6.26868 13.6551 6.68536 13.4614 7.05286 13.1591C7.45942 12.8248 7.70477 12.4637 7.8418 12.0467C7.975 11.6414 7.99839 11.2038 7.99839 10.7362C7.99839 10.7083 7.9987 10.6751 7.99904 10.6374C8.00063 10.4622 8.00308 10.1916 7.9801 9.93166C7.96603 9.77252 7.94146 9.60263 7.89629 9.44867C7.85311 9.3015 7.77961 9.12814 7.64145 9.00541C7.5858 8.95598 7.53489 8.88607 7.45802 8.77499C7.45482 8.77037 7.45157 8.76567 7.44826 8.76089C7.38046 8.66277 7.29074 8.53294 7.17493 8.42288C7.03894 8.29363 6.88749 8.18727 6.75748 8.09596C6.75113 8.0915 6.74483 8.08707 6.73858 8.08268C6.59736 7.98341 6.48023 7.89925 6.38091 7.80124C6.34677 7.76754 6.3107 7.73079 6.27299 7.69237C6.14766 7.56467 6.00422 7.41852 5.85339 7.30487C5.64119 7.14499 5.38444 7.02213 5.05485 7.02213C5.02414 7.02213 4.98394 7.01895 4.92429 7.01422C4.90796 7.01292 4.89018 7.01151 4.87073 7.01002C4.79049 7.00387 4.68937 6.9972 4.5912 7.00122C4.50036 7.00494 4.37145 7.01857 4.25605 7.08033C4.19373 7.11368 4.12631 7.16584 4.0752 7.24614C4.02272 7.32862 4 7.42114 4 7.51235C4 7.69356 4.14138 7.84047 4.31579 7.84047C4.43989 7.84047 4.54727 7.76608 4.59889 7.65788Z" fill="#FF0000"/>
<path fill-rule="evenodd" clip-rule="evenodd" d="M11.3461 5C11.5373 5 11.6923 5.14599 11.6923 5.32609V8.12623C11.6923 8.48806 11.753 8.76884 11.8793 8.95605C11.9904 9.12074 12.1762 9.24927 12.5441 9.26777C12.7381 9.27753 12.9226 9.29002 13.1027 9.30221C13.4476 9.32556 13.7766 9.34783 14.1263 9.34783C14.3478 9.34783 14.4641 9.32164 14.5689 9.28189C14.6504 9.25103 14.7183 9.21643 14.8149 9.1672C14.8806 9.13375 14.9595 9.09353 15.065 9.04315C15.2541 8.95275 15.3215 8.88547 15.3696 8.8191C15.3993 8.77822 15.4271 8.72958 15.4661 8.656C15.4733 8.64251 15.4808 8.62818 15.4888 8.61309C15.5219 8.54999 15.5621 8.47364 15.6107 8.39007C15.7311 8.18288 15.9061 8.0342 16.0348 7.92489C16.0423 7.91849 16.0497 7.91222 16.0569 7.90608C16.2004 7.78376 16.2888 7.70159 16.3433 7.59739C16.4278 7.43585 16.6353 7.36944 16.8068 7.44905C16.9783 7.52867 17.0488 7.72416 16.9643 7.8857C16.8449 8.11393 16.6606 8.27097 16.5257 8.38595L16.5214 8.38964C16.3728 8.51636 16.2792 8.59774 16.2179 8.70332C16.1768 8.77399 16.1443 8.8357 16.1116 8.8978C16.103 8.91431 16.0943 8.93084 16.0854 8.94757C16.045 9.02361 15.9995 9.10664 15.9413 9.18696C15.8136 9.36303 15.6468 9.49638 15.3781 9.62477C15.3162 9.6544 15.2538 9.68592 15.1919 9.71718C15.0656 9.78096 14.9415 9.84366 14.8273 9.88694C14.6253 9.96352 14.4185 10 14.1263 10C13.753 10 13.3801 9.97491 13.0196 9.95066C12.8455 9.93894 12.6742 9.92742 12.5072 9.91902C11.9452 9.89075 11.5412 9.67066 11.2951 9.30594C11.0641 8.96373 11 8.53431 11 8.12623V5.32609C11 5.14599 11.155 5 11.3461 5Z" fill="#FF0000"/>
<path fill-rule="evenodd" clip-rule="evenodd" d="M13.7788 14.6522C13.0588 14.6522 12.4293 14.78 11.8255 15.0939C11.2794 15.3778 10.8116 16.0319 10.7181 16.6277C10.6705 16.9308 10.7225 17.2277 10.8011 17.5677C10.8111 17.611 10.8217 17.6553 10.8325 17.7006C10.9026 17.995 10.9823 18.3296 10.9823 18.6739C10.9823 18.854 10.8256 19 10.6323 19C10.439 19 10.2823 18.854 10.2823 18.6739C10.2823 18.4065 10.2213 18.1484 10.1506 17.8491C10.1395 17.8022 10.1282 17.7543 10.1169 17.7051C10.0365 17.3579 9.95824 16.9614 10.0255 16.5333C10.1486 15.7493 10.7367 14.9131 11.4844 14.5244C12.2103 14.147 12.9617 14 13.7788 14C14.0207 14 14.3573 14.0247 14.6788 14.0958C14.9825 14.1629 15.352 14.2879 15.5736 14.5399C15.9376 14.9539 16.1742 15.4415 16.3733 15.9081C16.4297 16.0403 16.4826 16.1694 16.5343 16.2955C16.6714 16.6297 16.8 16.9432 16.9615 17.2371C17.0496 17.3974 16.9815 17.5938 16.8094 17.6759C16.6374 17.758 16.4265 17.6946 16.3384 17.5343C16.1582 17.2063 16.0094 16.8435 15.868 16.4986C15.8191 16.3792 15.771 16.262 15.7228 16.1491C15.5287 15.6942 15.3242 15.2854 15.0321 14.9532C14.9647 14.8765 14.7929 14.7912 14.5172 14.7303C14.2593 14.6733 13.9784 14.6522 13.7788 14.6522Z" fill="#FF0000"/>
<path d="M4.03872 3.66382C3.44612 3.66382 2.82664 3.83355 2.85337 4.50194C2.87251 4.98022 4.22649 4.35662 4.36798 4.2505C4.48746 4.1609 5.10542 3.4493 5.11631 3.81947C5.12718 4.18935 5.15119 4.58906 5.11032 4.95692C5.06639 5.35228 4.92603 5.43146 5.30788 5.04073C5.60178 4.74 6.38195 3.76664 6.19389 4.14275C5.99172 4.5471 5.68421 4.89837 5.44557 5.2802C5.34757 5.437 4.71257 6.04072 4.73316 6.22608C4.7452 6.33441 5.56763 5.73409 5.60721 5.69926C5.93085 5.41445 6.49501 4.92373 6.61894 4.48997C6.63259 4.44219 6.45407 4.68992 6.44533 4.6995C6.14996 5.023 5.84308 5.32253 5.59523 5.68729C5.57052 5.72366 4.98602 6.70669 5.18216 6.6631C5.91799 6.49958 7.14165 5.35438 7.59475 4.76535C7.6404 4.70601 7.98529 4.43644 8.0198 4.59174C8.11767 5.03215 7.82411 5.47496 7.59475 5.81899C7.26838 6.30856 6.87069 6.54711 6.42138 6.89658C6.14281 7.11325 5.98447 7.12163 6.25974 6.78283C6.8107 6.10474 7.90584 5.57144 8.73221 5.34006C8.80835 5.31874 9.533 5.16693 9.37876 5.4119C8.92618 6.1307 8.23289 6.72894 7.64265 7.32761C7.53449 7.43731 6.67538 8.20479 7.22359 8.02206C7.71762 7.85738 8.14564 7.55201 8.54064 7.21985C8.94565 6.87927 9.22362 6.40238 9.5404 5.98662C9.59135 5.91973 10.0899 5.48146 9.90558 5.7711C9.30282 6.71828 8.46093 7.4566 7.77435 8.33935C7.50634 8.68393 8.60516 8.06163 8.99562 7.8664C9.64729 7.54057 10.1884 7.07699 10.8036 6.70501C11.3373 6.38231 10.4701 7.60705 10.3845 7.71674C9.89815 8.33989 9.37012 8.93581 9.01956 9.65041C8.92163 9.85004 8.7801 10.4954 8.7801 10.273C8.7801 9.78659 9.32165 9.60882 9.5823 9.26128C9.77393 9.00577 11.2751 7.40465 10.7617 8.47105C10.4047 9.21242 9.57576 10.4846 8.75615 10.7998C8.57815 10.8683 8.2819 10.9787 8.36104 10.6621C8.46799 10.2343 9.38636 9.77752 9.74993 9.59054C10.0264 9.44834 10.861 8.98535 11.1867 9.17148C11.35 9.26482 10.2634 10.5539 10.1869 10.6621C9.7957 11.2164 9.27648 11.5726 8.80405 12.045C8.61973 12.2294 8.17192 12.6078 8.63043 12.6078C9.47462 12.6078 10.9401 12.1241 11.5579 11.5063C11.8139 11.2502 10.972 11.9351 10.7078 12.1827C10.1049 12.748 9.34963 13.0183 8.67234 13.4699C8.61591 13.5075 7.90036 13.993 7.94198 13.8889C8.10663 13.4773 8.85036 13.1503 9.15127 12.8293C10.2149 11.6947 8.28421 13.1009 7.96592 13.3621C7.88136 13.4315 6.74924 14.4481 6.64887 14.3678C6.47943 14.2323 7.37834 13.4114 7.46305 13.2783C7.74361 12.8374 8.51213 11.9794 7.91803 13.0628C7.63236 13.5837 7.38914 14.1305 7.10385 14.6492C7.04975 14.7476 6.68063 15.3737 6.9063 14.9725C7.04592 14.7243 9.07309 13.2226 9.29495 13.4938C9.51994 13.7688 8.9328 14.5197 8.83398 14.763C8.5702 15.4123 8.17489 16.0582 7.7085 16.5829C7.659 16.6386 7.19692 17.067 7.31937 16.8942C7.57483 16.5335 8.02465 16.2607 8.33709 15.9483C8.37431 15.9111 8.81717 15.3633 8.86391 15.4335C8.9523 15.566 8.22059 16.682 8.13355 16.8343C7.90814 17.2288 7.75672 17.6611 7.54087 18.0496C7.38481 18.3305 7.73742 17.7474 7.81027 17.6724C8.05706 17.4186 8.35601 17.1632 8.45682 16.8104C8.59263 16.335 8.49723 17.4786 8.44485 17.6245C8.24523 18.1806 7.89943 18.6748 7.72646 19.2409C7.61037 19.6208 7.76423 19.0269 7.86415 18.8578C8.12372 18.4185 8.47623 18.074 8.83996 17.7203C8.98111 17.5831 9.30008 17.2062 9.18719 17.6126C9.0809 17.9952 8.26249 19.6209 8.67234 18.319C8.8965 17.607 9.18814 16.9461 9.48053 16.2596C9.68904 15.7701 9.94218 14.2118 10.4444 13.9248C10.5255 13.8785 10.4193 15.0679 10.3725 15.194C10.2789 15.4461 9.88479 16.3861 9.59428 16.4691C9.43714 16.514 9.6363 15.5046 9.66611 15.4335C9.95231 14.751 10.4393 14.0653 10.8754 13.4699C11.2699 12.9312 11.7322 12.4528 12.1206 11.9133C12.1317 11.8979 12.7643 11.1117 12.4199 11.2309C11.9784 11.3837 11.6639 12.2562 11.5399 12.6557C11.4906 12.8147 11.3141 13.4979 11.5399 13.1466C11.7842 12.7666 12.4393 12.4296 12.8151 12.1767C13.3787 11.7976 13.9739 11.4569 14.4793 10.9974C14.5786 10.9071 15.0634 10.6195 14.8984 10.6921C14.368 10.9255 13.9718 11.8491 13.6532 12.3085C13.5942 12.3935 13.149 13.3467 13.276 13.2783C13.8867 12.9495 14.4455 12.2552 14.8984 11.7457C15.4097 11.1705 15.9027 10.6333 16.3172 9.98566C16.7852 9.25441 16.317 10.3307 16.1496 10.5664C15.5701 11.3819 14.9976 12.2067 14.4075 13.0149C14.2711 13.2017 13.7694 13.854 13.8567 13.2424C13.9547 12.5568 14.4958 12.0097 14.8146 11.4224C15.1602 10.7857 15.6355 10.2585 16.0837 9.6983C16.4843 9.19764 15.991 9.92719 15.8922 10.0755C15.6797 10.3942 15.4627 10.9151 15.2217 11.183C15.0336 11.3919 15.5815 10.7484 15.7904 10.5604C15.9082 10.4544 16.4213 9.94007 16.413 9.98566C16.2994 10.6103 15.5601 11.2914 15.2696 11.8535C15.1632 12.0593 14.7417 13.0612 14.7787 13.0209C15.2157 12.5441 15.7324 12.121 16.1915 11.6619C16.5029 11.3505 17.0365 11.0275 17.2691 10.6681C17.8474 9.77435 15.2659 14.2461 16.1556 13.6614C16.9545 13.1364 17.8894 12.041 18.1551 11.1111C18.2081 10.9256 17.809 11.7272 17.7001 11.9014C17.3383 12.4803 16.91 13.0626 16.6046 13.6734C16.4426 13.9974 16.6161 14.0401 16.8859 13.8769C17.382 13.577 17.5435 13.2078 17.8558 12.7634C18.0434 12.4964 18.7279 11.0536 18.3706 12.2007C18.1707 12.8425 17.7492 13.4727 17.4068 14.0506C17.357 14.1346 16.874 14.8381 17.2392 14.757C17.9858 14.591 18.3779 13.0076 18.634 12.4222C18.8579 11.9105 18.2853 13.4835 18.0952 14.0086C17.9257 14.4772 17.7287 14.8986 17.5205 15.3496C17.513 15.366 17.259 16.0082 17.317 16.0082C17.5732 16.0082 18.2402 14.8663 18.3646 14.6672C18.7188 14.1005 18.9889 13.5383 19.2866 12.943C19.6797 12.1567 18.8666 13.9642 18.8017 14.2242" stroke="#FFE100" stroke-width="0.8" stroke-linecap="round"/>
<path d="M11.7974 5.92673C12.1498 5.96197 12.5792 6.46831 12.851 6.68104C13.2749 7.01279 13.7039 7.34106 14.1441 7.65087C14.5005 7.90163 14.9893 8.17761 15.2696 8.48899C15.3217 8.54693 15.9069 8.95494 15.6767 8.86016C15.2906 8.7012 14.9717 8.63615 14.5991 8.42912C14.2195 8.21826 13.9881 8.15599 13.8208 7.75862C13.5658 7.15303 13.3139 6.92519 13.5454 7.75862C13.6319 8.06974 13.8267 8.40302 13.8448 8.72845C13.8623 9.04366 13.8255 8.72949 13.737 8.59675C13.5165 8.26592 13.2401 7.97414 13.0067 7.65087C12.822 7.39517 12.7392 7.04773 12.5277 6.81274C12.2784 6.53575 12.4267 8.05119 12.3122 8.16571C12.2616 8.21635 12.1195 7.4575 12.0967 7.37548C12.0234 7.11181 11.9051 6.96562 11.9051 6.68104C11.9051 5.88028 11.8767 8.30572 12.0967 9.07567C12.2927 9.76165 12.6365 9.18167 12.8989 8.72845C13.1054 8.3718 13.5099 8.34565 13.761 8.59675C14.0267 8.86253 14.6795 8.75352 15.0062 8.64464C15.5029 8.47906 15.8255 8.51293 15.1379 8.51293C14.7803 8.51293 14.5534 8.86665 14.2758 9.05173" stroke="#FF0000" stroke-width="0.8" stroke-linecap="round"/>
<path d="M11.4741 18.9655C12.4764 18.3864 13.5888 17.9255 14.7068 17.6245C15.1849 17.4958 15.5545 17.498 15.9461 17.1935C16.1793 17.0121 15.8205 17.2296 15.7006 17.1097C15.4483 16.8574 15.7758 15.8355 15.7844 15.5172C15.8069 14.6844 15.4256 17.4247 15.1917 16.5829C15.087 16.2056 14.9992 15.7513 14.9283 15.3616C14.8977 15.1929 14.8155 14.7169 14.7068 15.2059C14.5845 15.7565 14.4144 16.3031 14.168 16.8103C13.9964 17.1637 13.9673 17.1702 13.9525 16.7864C13.9427 16.5307 13.8289 16.326 13.8448 16.056C13.8547 15.8872 14.0481 15.7115 14.0603 15.5172C14.0827 15.1583 13.7467 16.1648 13.5754 16.4811C13.3964 16.8115 13.0905 17.8746 13.0905 17.4988C13.0905 16.9812 13.3285 16.6002 13.4137 16.1099C13.516 15.5219 13.63 14.8812 13.8986 14.3439C14.1779 13.7853 13.91 15.1114 13.8448 15.2538C13.5211 15.9601 13.2263 16.5891 12.7672 17.2174C12.4695 17.6248 12.4327 17.0727 12.4499 16.8582C12.4885 16.3754 12.5687 15.7705 12.7133 15.3077C12.9536 14.5387 12.5584 15.498 12.4679 15.7567C12.1481 16.6703 11.7155 17.5607 11.2825 18.4267C10.8738 19.2441 11.7913 16.669 12.1206 15.8166C12.1873 15.6441 12.3744 14.9662 12.3302 15.4753C12.2749 16.1109 11.8575 16.9556 11.528 17.5048C11.3074 17.8724 11.3663 17.8707 11.3663 17.4509C11.3663 17.0932 11.3506 16.7788 11.4741 16.4392C11.5584 16.2074 11.6896 15.9828 11.6896 15.7328C11.6896 15.2222 11.6029 15.7195 11.4501 15.9722C11.3048 16.2126 11.1222 16.4266 10.9592 16.6547C10.9332 16.6911 10.7837 17.0369 10.7437 17.0019C10.5302 16.8151 10.8348 16.2235 10.9353 16.056" stroke="#FF0000" stroke-width="0.8" stroke-linecap="round"/>
<path d="M4.36206 7.43536C4.39895 7.76733 4.65262 8.1344 4.7452 8.46506C4.88411 8.96117 5.11163 9.40758 5.22413 9.91381C5.36075 10.5286 5.65516 11.108 5.65516 11.7457C5.65516 12.1421 5.76292 12.4588 5.76292 12.8772C5.76292 13.575 6.75391 11.8817 6.89439 11.632C6.99126 11.4597 7.08969 11.3483 7.22365 11.2069C7.29617 11.1304 7.30474 10.857 7.3793 10.9315C7.67858 11.2308 7.0657 12.2716 6.97221 12.5599C6.93872 12.6632 6.72834 13.1346 6.57111 13.1346C6.32247 13.1346 7.09844 11.845 7.16378 11.7517C7.40924 11.4011 7.64067 10.9891 7.78639 10.5843C7.82316 10.4822 7.60474 11.1556 7.48706 11.3386C7.42304 11.4382 7.06696 12.0588 7.05603 11.6978C7.04215 11.2398 7.05603 10.7792 7.05603 10.3209C7.05603 10.0952 6.98876 9.82568 7.21168 9.6983C7.31783 9.63763 6.94151 10.5357 6.84051 10.716C6.67328 11.0146 6.30172 11.5901 6.30172 11.5901C6.30172 11.5901 6.39954 11.0227 6.49329 10.7519C6.56517 10.5443 6.57657 10.2596 6.67887 10.0755C6.73652 9.97168 6.73275 9.87979 6.73275 9.76415C6.73275 9.70781 6.71377 9.88855 6.6669 9.9198C6.40337 10.0955 6.18649 10.4406 5.82878 10.4406C5.55963 10.4406 5.93649 9.63105 5.97844 9.53666C6.05442 9.36571 6.1823 9.13051 6.19396 8.94398C6.20813 8.71725 6.13442 9.42538 5.97844 9.59054C5.75651 9.82553 5.87068 9.60716 5.87068 9.32114C5.87068 9.03328 5.79861 8.69694 5.75694 8.40519C5.72888 8.20882 5.66138 7.86018 5.43965 8.08192C5.3198 8.20176 5.22413 8.64736 5.22413 8.29743C5.22413 8.10212 5.22413 7.07663 5.22413 7.43536" stroke="#FF0000" stroke-width="0.8" stroke-linecap="round"/>
<path d="M7.75681 21.8972C7.75681 22.6455 6.99668 23.3832 6.70724 24.0585C6.5095 24.5199 6.45997 24.2571 6.5051 23.9186C6.56748 23.4507 6.83187 23.1396 7.12707 22.799C7.76647 22.0613 8.68854 21.4235 9.56051 20.9876C9.65061 20.9425 9.32721 21.2993 9.21843 21.4774C8.99097 21.8496 8.7078 22.2301 8.45652 22.5891C8.22375 22.9216 7.41594 24.0784 8.17664 23.3588C8.57165 22.9851 10.1648 21.5451 10.7422 21.6173C11.0419 21.6547 10.3503 22.0771 10.1669 22.317C9.91614 22.645 9.63209 22.9962 9.43612 23.3588C9.27411 23.6585 8.63543 24.4549 8.87635 24.214C9.18695 23.9034 9.50497 23.5783 9.82485 23.2655C10.527 22.579 11.622 22.0297 12.2194 21.283C12.7373 20.6356 11.3122 22.679 10.9755 23.4365C10.6838 24.0929 10.9907 23.683 11.3409 23.3588C11.8838 22.8561 12.4544 22.3519 13.0824 21.9594C13.4312 21.7414 15.2434 19.8221 14.684 21.0653C14.3007 21.917 13.4738 22.7429 13.2223 23.6231C13.1615 23.8362 13.3584 23.1916 13.4944 23.0167C13.8255 22.591 14.1616 22.2097 14.544 21.8272C15.1934 21.1778 17.0049 19.102 16.3555 19.7514C15.53 20.5768 14.8783 22.043 14.3419 23.0711C14.3147 23.1232 14.1202 23.6892 14.2253 23.4054C14.5028 22.6562 15.0485 22.0178 15.4536 21.3374C15.9794 20.4546 16.3288 19.4647 16.8842 18.6008C17.1037 18.2593 17.5528 17.7362 17.5528 18.3986C17.5528 19.0169 17.4575 19.5778 17.1796 20.1401C16.965 20.5745 16.3555 21.3374 16.3555 21.3374C16.3555 21.3374 17.4112 20.3021 17.8638 19.7203C18.0254 19.5125 19.1721 17.9098 18.7345 18.5463C18.3315 19.1325 18.055 19.7727 17.6305 20.35C17.3533 20.727 16.7323 21.9739 16.8608 21.524C17.1855 20.3878 18.3651 19.3014 18.9444 18.2587C19.3018 17.6154 19.6257 16.9517 20.1961 16.4628C20.5002 16.2021 19.9785 17.1335 19.9318 17.2169C19.6647 17.6939 19.5719 18.2215 19.2632 18.6785C18.9847 19.0906 19.0672 19.0162 19.3409 18.7096C19.9525 18.0247 20.1673 16.8277 20.4916 15.9885C20.6905 15.4735 20.6512 15.4498 20.6315 16.0507C20.6036 16.9013 20.0724 17.6041 19.8229 18.3986C19.6831 18.844 19.2441 19.622 19.683 18.8495C19.9491 18.3813 20.1935 17.919 20.3205 17.3879C20.4729 16.7505 20.793 16.1112 21.0824 15.522C21.1992 15.2843 21.6314 14.0398 21.8599 13.9827C22.1877 13.9007 21.6636 14.6343 21.5023 14.9312C21.4081 15.1043 21.2225 15.9574 20.9425 15.9574C20.8024 15.9574 21.564 14.4967 21.6111 14.4025C21.9499 13.7249 21.4712 14.1446 21.4712 14.6202" stroke="#946C50" stroke-width="0.8" stroke-linecap="round"/>
</svg>
