<svg width="33" height="32" viewBox="0 0 33 32" fill="none" xmlns="http://www.w3.org/2000/svg">
<path d="M3.5 2.5C3.5 2.98612 5.04689 4.83919 5.42034 5.21264C5.931 5.7233 6.31893 6.26176 6.87383 6.76841C7.5823 7.41527 8.15191 8.03724 8.76337 8.77099C9.08499 9.15694 9.37576 9.55565 9.73236 9.91225C9.95676 10.1366 9.84095 10.3015 9.97461 10.5421C10.2712 11.076 10.3865 11.7807 10.6798 12.3347C10.7623 12.4906 11.1998 13.2637 10.9921 13.0669C10.6701 12.7618 10.4209 12.377 10.0984 12.0656C9.68753 11.6688 9.21412 11.332 8.81182 10.9297C8.48449 10.6024 8.0997 10.2861 7.83744 9.90148C7.43834 9.31614 7.20799 8.64629 6.80385 8.07117C6.48364 7.61549 6.05019 6.02306 6.05019 6.57999C6.05019 7.59843 6.62644 8.79308 7.0138 9.71307C7.45024 10.7496 7.78654 11.8703 8.37577 12.8408C8.41727 12.9091 8.61158 13.3439 8.47267 13.2822C8.01538 13.079 7.56628 12.8021 7.11608 12.577C5.95974 11.9988 4.85859 11.1719 3.53081 11.1719C3.41824 11.1719 3.05248 11.1119 2.97095 11.1935C2.8745 11.2899 2.94869 11.7606 3.01401 11.8556C3.42156 12.4484 4.02101 12.8631 4.46212 13.406C4.86255 13.8989 5.48101 14.2351 5.95329 14.6549C6.17925 14.8558 6.49801 14.978 6.65312 15.2417C6.98832 15.8115 7.43117 16.355 7.79438 16.9105C8.4387 17.896 9.36937 18.6581 9.94769 19.6991C10.3559 20.4338 10.9257 21.8603 11.8211 22.1162C12.2197 22.2301 12.3454 22.5092 12.8331 22.5092C13.5148 22.5092 14.0652 22.4247 14.7281 22.2669C15.4009 22.1067 16.0132 22.2357 16.6876 22.0031C17.0233 21.8873 17.2986 21.899 17.6296 21.8255C17.9448 21.7554 18.0447 21.4364 18.3349 21.3248C19.5963 20.8396 19.3254 19.2354 19.3254 18.1487C19.3254 17.4626 19.2023 16.7083 18.9862 16.06C18.7427 15.3294 18.9378 14.2743 18.9378 13.5029C18.9378 11.8663 18.8409 10.2248 18.8409 8.59873C18.8409 8.32598 18.8409 8.05322 18.8409 7.78047C18.8409 7.49165 18.6925 7.36495 18.5986 7.10217C18.4289 6.62688 18.1851 5.97268 17.8234 5.611C17.7616 5.54917 16.9594 6.99814 16.9029 7.10217C16.7166 7.44539 16.4733 7.86541 16.0308 7.87737C15.2277 7.89907 14.5521 6.34073 14.1467 5.75097C13.8971 5.38802 13.6364 5.11945 13.3392 4.85196C12.9425 4.49492 12.593 5.34496 12.4671 5.74558C11.8821 7.60677 10.7975 5.3455 10.1415 4.75506C9.85372 4.49606 10.2506 5.26109 9.78081 5.26109C8.52391 5.26109 9.68978 7.9998 9.97999 8.46415C10.3973 9.13182 10.9672 9.37984 11.5734 9.82074C12.2383 10.3043 12.6076 10.8667 13.0485 11.5595C13.6184 12.4551 14.2417 13.3749 14.6742 14.3481C15.0794 15.2598 14.6709 13.8022 14.6204 13.5406C14.3524 12.1519 13.6863 10.7154 14.5773 9.44929C15.343 8.36125 16.4704 9.92024 16.5907 10.6659C16.6483 11.0231 16.5981 11.3933 16.6337 11.7533C16.7153 12.5777 16.8756 13.3936 16.9567 14.2189C17.0551 15.2186 17.2905 16.2714 17.2905 17.2766C17.2905 17.7001 17.0432 17.6642 16.6876 17.6642C16.0706 17.6642 15.6011 17.7027 15.0188 17.858C13.8958 18.1574 12.8573 18.4896 11.7242 17.9334C10.9808 17.5684 10.4803 17.0877 10.0284 16.4099C9.7517 15.9948 9.75182 15.5133 9.63546 15.0479" stroke="black" stroke-width="5" stroke-linecap="round"/>
<path fill-rule="evenodd" clip-rule="evenodd" d="M10.6882 4.13833C10.3345 4.24638 10.1597 4.44833 10.1597 4.70286C10.1597 5.61649 10.3876 6.46341 10.6525 7.39052C10.7029 7.56702 10.7451 7.76406 10.7843 7.94737C10.8039 8.03902 10.8227 8.12723 10.8415 8.20773C10.9025 8.46857 10.971 8.69427 11.0772 8.88551C11.1213 8.96479 11.1407 9.05413 11.1511 9.11071C11.1633 9.17716 11.1714 9.24976 11.177 9.31939C11.1882 9.45925 11.191 9.61072 11.1901 9.72554C11.1897 9.78307 11.1883 9.83493 11.1862 9.87431C11.1852 9.8927 11.1837 9.91461 11.1813 9.93483C11.1804 9.94199 11.1777 9.96436 11.1712 9.98998L11.171 9.99077C11.1688 9.99929 11.1584 10.0404 11.1317 10.0853C11.1199 10.1052 11.0799 10.17 10.9971 10.2154C10.8839 10.2775 10.7485 10.2723 10.642 10.2075C10.564 10.16 10.5271 10.0963 10.5161 10.0766C10.5011 10.0497 10.4928 10.0265 10.4889 10.0147C10.4809 9.99039 10.4771 9.97022 10.4757 9.96214C10.4724 9.94346 10.4708 9.92677 10.47 9.91771C10.4682 9.89709 10.4671 9.87288 10.4663 9.84765C10.4645 9.79558 10.4635 9.71929 10.4635 9.61466C10.4635 9.57957 10.4686 9.54566 10.4781 9.51365C10.4764 9.46697 10.4738 9.42019 10.4703 9.37599C10.4657 9.31929 10.46 9.27265 10.4538 9.23855C10.4516 9.22648 10.4497 9.21828 10.4484 9.21332C10.299 8.93874 10.2149 8.64196 10.1512 8.36898C10.1255 8.25886 10.1037 8.15681 10.083 8.05942C10.0477 7.89347 10.0153 7.74106 9.97081 7.58529C9.70757 6.66396 9.4508 5.72828 9.4508 4.70286C9.4508 4.01154 9.9691 3.61673 10.481 3.46032C10.9878 3.30549 11.6092 3.33596 12.0535 3.5828C12.264 3.6997 12.3777 3.87982 12.4459 4.03847C12.4956 4.15399 12.5315 4.2874 12.558 4.38564C12.5649 4.41091 12.5711 4.43386 12.5767 4.45357C12.5964 4.52254 12.6292 4.58891 12.6774 4.67426C12.7747 4.55645 12.8945 4.48429 13.0043 4.43655C13.118 4.38711 13.2421 4.35558 13.3375 4.33133C13.3425 4.33006 13.3474 4.32881 13.3522 4.32757C13.4603 4.30004 13.5432 4.27802 13.6174 4.24676C13.8647 4.14262 14.1961 4.07875 14.5089 4.08186C14.8041 4.08479 15.1849 4.14875 15.4305 4.40884C15.6722 4.66479 15.8422 4.98523 15.9764 5.28421C16.0442 5.43537 16.1059 5.58827 16.1632 5.73029L16.1657 5.73638C16.223 5.87851 16.2753 6.00835 16.3288 6.12715C16.3318 6.13382 16.3348 6.1405 16.3377 6.14718C16.3439 5.89298 16.4454 5.61388 16.5849 5.38812C16.7259 5.15994 16.9529 4.91069 17.2584 4.82339C17.2679 4.8207 17.29 4.81329 17.3218 4.80265C17.4521 4.759 17.7447 4.66098 17.9885 4.61128C18.1414 4.58008 18.3368 4.55259 18.5099 4.584C18.5997 4.60028 18.7177 4.63829 18.8159 4.73294C18.924 4.83706 18.9706 4.97307 18.9706 5.10796C18.9706 5.25097 19.0546 5.36721 19.293 5.57801C19.312 5.59477 19.3322 5.61242 19.3534 5.63087C19.4479 5.71334 19.5606 5.81163 19.6571 5.9161C19.7799 6.04905 19.9022 6.21755 19.9641 6.43404C19.98 6.48984 20.0049 6.54285 20.0435 6.60987C20.0607 6.63995 20.0789 6.66971 20.1003 6.70477C20.1036 6.71025 20.107 6.71586 20.1106 6.72163C20.1355 6.76254 20.1637 6.80924 20.1919 6.86002C20.3079 7.06886 20.3054 7.29926 20.3039 7.43437L20.3038 7.43568L20.3037 7.45221C20.3019 7.61164 20.3011 7.68031 20.3196 7.7359C20.5657 8.47425 20.6923 9.29995 20.6923 10.076C20.6923 10.5663 20.7408 11.0518 20.7918 11.5582L20.7924 11.5648C20.8426 12.0636 20.8948 12.5829 20.8948 13.1143C20.8948 13.4336 20.8681 13.7593 20.843 14.064L20.8426 14.0683C20.8172 14.3773 20.7935 14.6638 20.7935 14.9316C20.7935 15.2743 20.74 15.6135 20.6911 15.9237L20.6879 15.9435C20.6367 16.2687 20.591 16.5653 20.591 16.8614V18.7293C20.591 18.9192 20.5963 19.2247 20.6204 19.5233C20.6459 19.8392 20.6889 20.0897 20.7405 20.2058C20.9457 20.6675 20.8797 21.096 20.6484 21.454C20.4318 21.7893 20.0799 22.0508 19.7232 22.2555C19.1869 22.5632 18.5273 22.7995 18.0821 22.959C17.9415 23.0093 17.8222 23.0521 17.735 23.0869C17.0347 23.3671 16.0844 23.5954 15.2943 23.6406C14.9633 23.6595 14.6305 23.7636 14.2465 23.8837L14.2102 23.8951C13.8298 24.014 13.3945 24.1475 12.9448 24.1475H11.5269C11.3534 24.1475 11.1928 24.1278 11.0522 24.0676C10.8987 24.002 10.7945 23.8993 10.7226 23.781C10.6643 23.6849 10.6277 23.5765 10.6022 23.5009C10.6006 23.4962 10.599 23.4916 10.5975 23.4871C10.5681 23.4004 10.5417 23.3242 10.501 23.2427C10.4324 23.1056 10.461 22.9453 10.5608 22.8401C10.5519 22.8079 10.5432 22.7757 10.5343 22.7433C10.4811 22.5478 10.4269 22.3489 10.3595 22.1321C10.2471 21.7708 10.1216 21.4459 9.96757 21.204C9.83772 20.9999 9.73105 20.7799 9.63591 20.5836C9.60327 20.5163 9.57199 20.4518 9.5416 20.3917C9.41601 20.1433 9.28785 19.9285 9.09888 19.7396C8.77886 19.4195 8.4808 19.0661 8.19387 18.7259C8.10505 18.6206 8.01729 18.5166 7.93028 18.4152C7.55456 17.9773 7.18196 17.5749 6.75128 17.2519C6.54711 17.0988 6.32999 16.9442 6.10752 16.7859C5.50929 16.3602 4.87238 15.9069 4.34462 15.3791C4.09783 15.1323 3.76765 14.8372 3.49668 14.6823C3.2578 14.5458 3.10774 14.3297 3.00543 14.1775C2.99347 14.1597 2.9821 14.1427 2.97125 14.1265C2.87318 13.9801 2.81739 13.8968 2.74782 13.8412C2.56148 13.6921 2.42351 13.4474 2.3341 13.239C2.24155 13.0232 2.1709 12.7748 2.15959 12.5713C2.15597 12.5061 2.14227 12.4557 2.11822 12.3673C2.11591 12.3588 2.1135 12.35 2.111 12.3408C2.08343 12.2389 2.04855 12.1001 2.05832 11.9243C2.06903 11.7315 2.1748 11.5785 2.25892 11.4805C2.34956 11.3748 2.46217 11.2794 2.56636 11.1994C2.67214 11.1181 2.78299 11.0425 2.87431 10.9803C2.97286 10.9131 3.03805 10.8686 3.07674 10.8369C3.42177 10.5546 3.81975 10.6116 4.10036 10.6999C4.2437 10.745 4.38089 10.8056 4.49447 10.857C4.50926 10.8637 4.52354 10.8702 4.53734 10.8764C4.63779 10.922 4.71301 10.9561 4.77874 10.9788C5.42697 11.2032 5.90633 11.4099 6.52831 11.8015C7.0556 12.1335 7.2775 12.3726 7.66067 12.7984C7.79163 12.9439 7.77984 13.168 7.63432 13.299C7.48881 13.4299 7.26468 13.4181 7.13371 13.2726C6.76515 12.8631 6.595 12.6813 6.15057 12.4015C5.58562 12.0458 5.15824 11.8604 4.54683 11.6488C4.44734 11.6144 4.33838 11.5648 4.24294 11.5214C4.22909 11.5151 4.21552 11.5089 4.20231 11.5029C4.08917 11.4518 3.98629 11.4072 3.88757 11.3761C3.68405 11.3121 3.58993 11.3331 3.52568 11.3856C3.46104 11.4385 3.37118 11.4997 3.28959 11.5552C3.28415 11.5589 3.27875 11.5626 3.27339 11.5662C3.18047 11.6295 3.08567 11.6944 2.99822 11.7616C2.90917 11.83 2.84095 11.8909 2.79698 11.9421C2.77958 11.9624 2.77023 11.9762 2.76556 11.9839C2.76534 12.0337 2.77497 12.0804 2.79531 12.1555C2.79763 12.1641 2.80016 12.1732 2.80284 12.1829C2.82568 12.2654 2.85941 12.3873 2.86745 12.532C2.87265 12.6256 2.91292 12.79 2.98564 12.9595C3.0615 13.1364 3.14313 13.2495 3.19069 13.2876C3.35319 13.4176 3.47497 13.6022 3.56077 13.7322C3.57244 13.7499 3.58344 13.7666 3.59379 13.782C3.698 13.937 3.76865 14.0212 3.84842 14.0668C4.20636 14.2713 4.59213 14.624 4.84592 14.8778C5.32878 15.3607 5.8904 15.7604 6.47106 16.1736C6.70447 16.3397 6.94096 16.508 7.17665 16.6847C7.67212 17.0563 8.08596 17.5079 8.46831 17.9535C8.56429 18.0654 8.65775 18.1761 8.74998 18.2855C9.03248 18.6203 9.30345 18.9415 9.60018 19.2383C9.86805 19.5061 10.0365 19.7993 10.1743 20.0718C10.2161 20.1545 10.254 20.2326 10.2903 20.3076C10.3795 20.4915 10.4595 20.6565 10.5657 20.8233C10.7716 21.1469 10.9193 21.5451 11.0364 21.9216C11.1027 22.1346 11.1678 22.3722 11.227 22.588C11.2673 22.7348 11.3048 22.8715 11.3379 22.9834C11.3629 23.0678 11.3771 23.1395 11.3875 23.1978C11.3911 23.2175 11.3938 23.2337 11.3962 23.2477C11.4017 23.2796 11.4052 23.2996 11.4105 23.322C11.4178 23.3527 11.426 23.3821 11.4719 23.4375C11.4884 23.4382 11.5067 23.4386 11.5269 23.4386H12.9448C13.27 23.4386 13.6052 23.3414 13.9987 23.2184C14.02 23.2118 14.0415 23.205 14.0632 23.1982C14.4225 23.0855 14.8324 22.9569 15.2539 22.9328C15.9601 22.8924 16.8354 22.6832 17.4717 22.4287C17.5941 22.3798 17.7408 22.3271 17.9026 22.2691C18.3432 22.1111 18.8953 21.9131 19.3704 21.6406C19.6912 21.4565 19.9274 21.2636 20.0529 21.0693C20.1637 20.8977 20.1938 20.7214 20.0926 20.4937C19.9857 20.2532 19.9386 19.8882 19.9138 19.5804C19.8875 19.2554 19.882 18.929 19.882 18.7293V16.8614C19.882 16.5026 19.9371 16.1534 19.9869 15.8376L19.9876 15.8331C20.0392 15.5065 20.0846 15.2163 20.0846 14.9316C20.0846 14.6343 20.1103 14.323 20.1348 14.0252L20.1364 14.0058C20.1619 13.6963 20.1859 13.3997 20.1859 13.1143C20.1859 12.6219 20.1373 12.1354 20.0864 11.6291L20.0854 11.6196C20.0354 11.1218 19.9833 10.6044 19.9833 10.076C19.9833 9.3718 19.8677 8.62214 19.647 7.96009C19.5879 7.78274 19.5918 7.58875 19.5942 7.46798C19.5945 7.45346 19.5948 7.44001 19.5949 7.42776C19.5966 7.27727 19.5857 7.22864 19.5722 7.20432C19.5514 7.16683 19.5295 7.13045 19.5051 7.09049C19.502 7.0854 19.4989 7.08021 19.4956 7.07492C19.4746 7.04043 19.4511 7.00196 19.4288 6.96321C19.376 6.87129 19.3205 6.76219 19.2824 6.62881C19.2623 6.55844 19.2177 6.48526 19.1363 6.39712C19.0683 6.32347 18.9921 6.25688 18.9002 6.17654C18.8758 6.15518 18.8502 6.13285 18.8234 6.10916C18.627 5.93549 18.3433 5.67693 18.2763 5.28281C18.2372 5.28675 18.1886 5.29401 18.1301 5.30593C17.9377 5.34516 17.7581 5.40525 17.6169 5.45251C17.554 5.47356 17.4987 5.49207 17.4532 5.50506C17.3924 5.52244 17.2874 5.59997 17.188 5.76078C17.0916 5.91683 17.0464 6.07833 17.0464 6.17134C17.0464 6.45767 17.0702 6.75327 17.0957 7.06973L17.0959 7.07237C17.121 7.38474 17.1477 7.71657 17.1477 8.05054C17.1477 8.07057 17.147 8.09587 17.1438 8.12275C17.1416 8.14078 17.1346 8.19835 17.1027 8.26016C17.0856 8.29314 17.049 8.35198 16.9783 8.39802C16.8972 8.45084 16.8014 8.467 16.7124 8.44934C16.6353 8.43405 16.5825 8.39753 16.5561 8.37645C16.5277 8.35378 16.5081 8.33121 16.4966 8.31698C16.4592 8.27033 16.436 8.21853 16.4277 8.19991L16.4274 8.19927C16.4149 8.17117 16.4029 8.14061 16.3924 8.11279C16.3779 8.07409 16.3617 8.02819 16.3473 7.98732C16.3416 7.97099 16.3361 7.95547 16.3311 7.94152C16.3217 7.91503 16.3135 7.89263 16.3065 7.8745C16.2987 7.85445 16.2955 7.8477 16.2961 7.84898C16.1749 7.60649 16.0714 7.3585 15.9742 7.11903C15.9566 7.07567 15.9392 7.03271 15.922 6.99008C15.8426 6.79371 15.7662 6.60457 15.6823 6.41808C15.6229 6.28625 15.566 6.14503 15.5107 6.0079L15.5057 5.99537C15.4478 5.85183 15.391 5.71126 15.3296 5.57447C15.2053 5.29755 15.0742 5.06413 14.9151 4.89562C14.8741 4.85224 14.7446 4.79318 14.5019 4.79077C14.2767 4.78854 14.0425 4.83702 13.8925 4.90015C13.764 4.95427 13.6326 4.98773 13.532 5.01338L13.5273 5.01457C13.4151 5.04314 13.344 5.06193 13.287 5.08671C13.2364 5.10869 13.2247 5.12428 13.2211 5.1295C13.2179 5.13415 13.198 5.16437 13.198 5.25987C13.198 5.27316 13.198 5.28639 13.198 5.29958C13.1979 5.68786 13.1978 6.03166 13.2619 6.3407C13.3079 6.38808 13.339 6.43853 13.3593 6.47578C13.3881 6.52862 13.411 6.58495 13.4295 6.63731C13.4664 6.74204 13.4962 6.86171 13.5201 6.9721C13.5281 7.0089 13.5357 7.04577 13.5428 7.08197C13.6213 7.27618 13.7009 7.49375 13.7714 7.71317C13.8873 8.07435 13.9879 8.46928 14.0075 8.78236C14.0095 8.81462 14.0108 8.85173 14.0087 8.88756C14.0076 8.90482 14.0052 8.93295 13.9976 8.96497L13.9975 8.96559C13.9929 8.98519 13.9732 9.06872 13.9002 9.14215C13.8558 9.18691 13.7877 9.23122 13.6977 9.24444C13.61 9.25731 13.5371 9.2355 13.4894 9.21252C13.4081 9.17333 13.3636 9.11383 13.3524 9.09874L13.3522 9.09853C13.3211 9.05689 13.3017 9.01332 13.2933 8.99403C13.2545 8.90505 13.2082 8.75248 13.1657 8.60163C13.0762 8.28415 12.9721 7.85999 12.9247 7.64197C12.915 7.59737 12.9033 7.53016 12.8913 7.46108C12.8885 7.44492 12.8857 7.42866 12.8829 7.41257C12.8757 7.37166 12.868 7.32876 12.8599 7.28507C12.821 7.19138 12.7832 7.10584 12.7482 7.03201C12.6876 6.90406 12.6411 6.77272 12.6054 6.64008C12.5801 6.59257 12.5583 6.54289 12.5396 6.49484C12.4933 6.37646 12.4545 6.24049 12.4226 6.11254C12.3794 5.93937 12.3398 5.74015 12.3137 5.60872C12.3032 5.55553 12.2948 5.51344 12.2893 5.48868C12.2671 5.38883 12.2164 5.29229 12.1349 5.15247C12.129 5.1424 12.1229 5.13199 12.1166 5.12125C12.0448 4.99894 11.9481 4.83427 11.895 4.64833C11.8831 4.60668 11.873 4.56961 11.8639 4.53586C11.8401 4.44834 11.8224 4.38319 11.7946 4.31837C11.7617 4.24197 11.7334 4.21598 11.7092 4.20253C11.4636 4.06607 11.047 4.02871 10.6882 4.13833ZM17.0779 7.91669C17.0778 7.91673 17.0771 7.91539 17.0758 7.91239C17.0772 7.91511 17.0779 7.91665 17.0779 7.91669Z" fill="white"/>
<path fill-rule="evenodd" clip-rule="evenodd" d="M2.45971 1.19885C2.70271 0.878458 3.09865 0.712636 3.57245 0.807532C3.67005 0.82708 3.76341 0.841555 3.86222 0.856874C3.8884 0.860933 3.91497 0.865052 3.9421 0.869341C4.06643 0.888994 4.20122 0.912058 4.33397 0.948846C4.61204 1.02591 4.88537 1.1645 5.11551 1.45886C5.17558 1.5357 5.25436 1.60692 5.36041 1.70278C5.3896 1.72918 5.42087 1.75745 5.45438 1.78821C5.58971 1.91245 5.76509 2.08157 5.87032 2.29669C5.89641 2.35001 5.95114 2.41226 6.05874 2.51557C6.06912 2.52554 6.08026 2.53612 6.09201 2.54727C6.18096 2.63172 6.30438 2.7489 6.39266 2.88102C6.48636 3.02123 6.58234 3.14385 6.68737 3.27803C6.75162 3.36011 6.81926 3.44651 6.89182 3.54391C6.98238 3.66546 7.07375 3.78752 7.16556 3.91016C7.65403 4.56268 8.15506 5.23197 8.61306 5.93111C8.72034 6.09488 8.67455 6.3146 8.51079 6.42187C8.34703 6.52915 8.12731 6.48336 8.02003 6.3196C7.57531 5.64072 7.08972 4.99197 6.60116 4.33925C6.50856 4.21554 6.41586 4.09169 6.32331 3.96746C6.27218 3.89883 6.21435 3.82471 6.15398 3.74732C6.03646 3.59668 5.90931 3.43369 5.8032 3.2749C5.76168 3.21276 5.69981 3.15349 5.60026 3.05815C5.58984 3.04816 5.57901 3.03779 5.56774 3.02697C5.46744 2.93067 5.32206 2.78927 5.23349 2.60822C5.19302 2.5255 5.11086 2.43525 4.97493 2.31045C4.95435 2.29155 4.93182 2.27129 4.90799 2.24987C4.79746 2.15048 4.65897 2.02594 4.557 1.89552C4.44188 1.74827 4.31414 1.67902 4.14463 1.63204C4.05358 1.60681 3.95295 1.58881 3.83141 1.56959C3.80871 1.56601 3.78512 1.56235 3.76079 1.55859C3.66045 1.54305 3.54765 1.52559 3.43322 1.50267C3.21701 1.45937 3.09801 1.53044 3.02457 1.62726C2.93656 1.74331 2.88805 1.9372 2.92598 2.14967L3.10891 3.17435C3.14098 3.35399 3.17946 3.44937 3.26997 3.6379C3.29644 3.69303 3.33 3.75043 3.37201 3.82228C3.39435 3.86048 3.41908 3.90277 3.44639 3.95098C3.51171 4.06623 3.59896 4.22777 3.63376 4.38704C3.67898 4.59401 3.782 4.80292 3.91877 5.04481C3.94538 5.09187 3.97373 5.14089 4.00301 5.19151C4.1148 5.3848 4.24 5.60127 4.33231 5.81952C4.40827 5.99911 4.51435 6.16757 4.63875 6.36513C4.65147 6.38532 4.66437 6.40581 4.67745 6.42665C4.81144 6.64007 4.96305 6.88867 5.05612 7.17087C5.11138 7.33845 5.19976 7.50592 5.30978 7.69077C5.34353 7.74749 5.38112 7.80862 5.42025 7.87223C5.49978 8.00156 5.58565 8.14118 5.65843 8.27491C5.69345 8.33926 5.72769 8.40873 5.75785 8.46991C5.76852 8.49155 5.77867 8.51216 5.78817 8.53114C5.82771 8.61011 5.86234 8.67457 5.89944 8.73009C5.91616 8.75512 5.93628 8.78443 5.95845 8.81672C6.01743 8.90263 6.09091 9.00967 6.15352 9.11343C6.23738 9.2524 6.33151 9.43144 6.36852 9.62063C6.36988 9.62379 6.37201 9.62854 6.37517 9.63501C6.38573 9.6566 6.4015 9.68476 6.4216 9.71764C6.46164 9.78313 6.50778 9.84937 6.53685 9.89039C6.6642 10.0701 6.78936 10.2948 6.87374 10.497C6.89122 10.5389 6.92356 10.5855 6.98699 10.677C6.99119 10.6831 6.99554 10.6894 7.00003 10.6958L7.00187 10.6985C7.05778 10.7792 7.152 10.9152 7.19228 11.0707C7.20938 11.1367 7.27752 11.2784 7.32666 11.351C7.33493 11.3633 7.3458 11.3783 7.35846 11.3958C7.41653 11.4761 7.51209 11.6081 7.56553 11.7584C7.56505 11.757 7.56671 11.7617 7.57214 11.7737C7.57713 11.7848 7.58383 11.799 7.5921 11.8155C7.6087 11.8487 7.62942 11.8871 7.65101 11.9239C7.67291 11.9613 7.69252 11.9915 7.70713 12.0113C7.76165 12.0508 7.80237 12.0965 7.82247 12.1194C7.8582 12.16 7.89336 12.2058 7.9237 12.2471C7.97389 12.3155 8.02292 12.3886 8.05159 12.4314C8.05743 12.4401 8.06243 12.4476 8.06642 12.4535C8.094 12.4942 8.12269 12.5299 8.15631 12.57C8.16172 12.5764 8.16762 12.5834 8.17387 12.5907C8.20258 12.6246 8.23886 12.6675 8.27112 12.7108C8.38808 12.8678 8.35563 13.0898 8.19864 13.2068C8.04165 13.3238 7.81957 13.2913 7.7026 13.1343C7.68475 13.1104 7.66639 13.0886 7.6394 13.0567C7.63154 13.0474 7.62296 13.0372 7.61343 13.0259C7.57456 12.9796 7.52741 12.9219 7.47926 12.8508C7.47333 12.842 7.46678 12.8323 7.45971 12.8217C7.43045 12.7781 7.39229 12.7213 7.35208 12.6665C7.32725 12.6326 7.30603 12.6057 7.28999 12.5874C7.28835 12.5855 7.28689 12.5839 7.28562 12.5825C7.24561 12.5556 7.21681 12.5267 7.20081 12.5098C7.17665 12.4843 7.15538 12.4575 7.13786 12.4338C7.10265 12.3863 7.06866 12.3324 7.03947 12.2826C6.9845 12.1889 6.92473 12.0722 6.8976 11.996C6.88079 11.9487 6.86197 11.9224 6.81953 11.863C6.79912 11.8344 6.77324 11.7982 6.7395 11.7483C6.6584 11.6285 6.54858 11.413 6.50598 11.2485C6.50179 11.2323 6.48321 11.1948 6.41726 11.0996C6.41168 11.0915 6.40556 11.0828 6.39899 11.0734C6.34723 10.9996 6.26829 10.887 6.21947 10.77C6.15574 10.6173 6.05628 10.4384 5.95842 10.3003C5.92729 10.2564 5.86978 10.1742 5.81675 10.0875C5.79032 10.0442 5.76219 9.99532 5.73825 9.94636C5.7173 9.9035 5.68687 9.83557 5.67349 9.76062C5.66238 9.69838 5.62202 9.60481 5.54653 9.47971C5.49517 9.3946 5.44209 9.31735 5.38762 9.23806C5.36203 9.20082 5.33614 9.16313 5.30998 9.12398C5.24741 9.03035 5.1968 8.93354 5.15423 8.8485C5.14036 8.8208 5.12767 8.79505 5.1156 8.77056C5.08785 8.71426 5.06343 8.66471 5.03573 8.61381C4.97115 8.49515 4.90378 8.3858 4.83114 8.2679C4.7895 8.20031 4.74613 8.12992 4.70056 8.05334C4.58312 7.85602 4.46279 7.63535 4.38284 7.39291C4.3198 7.20176 4.21209 7.01873 4.07703 6.8036C4.06389 6.78268 4.05043 6.76136 4.03673 6.73966C3.91705 6.55009 3.77921 6.33176 3.67936 6.09569C3.60592 5.92204 3.51034 5.75649 3.40221 5.56921C3.36974 5.51295 3.33613 5.45474 3.30165 5.39375C3.16093 5.14489 3.01076 4.85695 2.94115 4.53837C2.93214 4.49714 2.8982 4.42156 2.82961 4.30052C2.8145 4.27386 2.79683 4.24359 2.77803 4.21138C2.7281 4.12584 2.67016 4.02658 2.63086 3.94473C2.52667 3.72771 2.45889 3.56725 2.41099 3.29894L2.22807 2.27426C2.16191 1.90366 2.2313 1.50001 2.45971 1.19885Z" fill="white"/>
<path fill-rule="evenodd" clip-rule="evenodd" d="M8.05443 5.92753C8.213 5.81271 8.43462 5.84817 8.54944 6.00673C8.78306 6.32936 9.04502 6.63481 9.31626 6.95107C9.35092 6.99149 9.38574 7.03208 9.42066 7.07291C9.46668 7.12671 9.50702 7.16929 9.55325 7.21808C9.5927 7.25972 9.63643 7.30589 9.69164 7.36741C9.79142 7.47859 9.90581 7.61745 9.98597 7.77777L9.98753 7.78089C10.0003 7.8065 10.0094 7.8247 10.0189 7.84196C10.0282 7.85902 10.0351 7.86996 10.0404 7.8774C10.0454 7.88425 10.0481 7.88696 10.0488 7.88756C10.0621 7.89464 10.076 7.90193 10.0903 7.90945C10.3095 8.02458 10.6327 8.19429 10.8359 8.49923C10.9445 8.66212 10.9005 8.8822 10.7376 8.9908C10.5747 9.09939 10.3547 9.05537 10.2461 8.89248C10.1484 8.74594 9.97905 8.65282 9.71687 8.51402C9.5021 8.40032 9.40622 8.20529 9.36021 8.11169C9.35723 8.10563 9.35445 8.09999 9.35187 8.09483C9.31534 8.02176 9.25289 7.93996 9.164 7.84091C9.13725 7.8111 9.10053 7.77191 9.06101 7.72974C8.99894 7.66351 8.92998 7.58992 8.88193 7.53376C8.84766 7.49369 8.81307 7.45337 8.77827 7.41281C8.50922 7.09921 8.22718 6.77047 7.97523 6.42254C7.86041 6.26398 7.89587 6.04236 8.05443 5.92753Z" fill="white"/>
<path d="M7.0304 0.631866C8.36909 0.896082 9.65858 0.790841 11.0048 0.790841" stroke="white" stroke-linecap="round"/>
</svg>
