<svg width="139" height="130" fill="none" xmlns="http://www.w3.org/2000/svg"><path d="M137.993 37.514a11.193 11.193 0 0 0-2.977-4.156 6.881 6.881 0 0 0-5.168-1.55c-4.961-1.462-10.487-.25-15.616 1.272-5.586 1.66-11.161 3.857-15.794 7.396a58.48 58.48 0 0 0-9.92 5.04 125.175 125.175 0 0 0-7.888 5.11l-1.637.696c-.105.038-.2.1-.277.18a17.532 17.532 0 0 0-4.852 3.051c-2.292 1.8-4.583 3.62-6.806 5.508a107.048 107.048 0 0 0-5.952 5.458 41.5 41.5 0 0 0-3.492 2.704 1.353 1.353 0 0 0-.377.497l-.457.338a189.868 189.868 0 0 0-4.206 3.33c1.26-2.097 2.728-4.105 3.86-6.272a47.372 47.372 0 0 0 4.067-10.44c.793-3.25.327-6.77-3.135-8.131a16.05 16.05 0 0 0-8.383-.428c.436-.666.932-1.292 1.408-1.918 1.726-2.287 2.828-4.971 4.395-7.298a80.971 80.971 0 0 0 4.633-7.307c.923-1.789 1.865-3.569 2.729-5.388a1.517 1.517 0 0 0 1.13-.994c1.4-3.5 2.977-6.96 3.82-10.697.383-1.834.56-3.704.526-5.577 0-1.65.08-3.41-.913-4.812C64.727.342 60.302.084 57.237.482a15.02 15.02 0 0 0-5.07 1.988c-1.35.726-2.689 1.471-4.028 2.207l-1.18.646a42.919 42.919 0 0 0-9.009 6.333 43.56 43.56 0 0 0-2.103 1.988c-.191.063-.37.16-.526.288a47.679 47.679 0 0 0-6.587 6.96c-7.57 5.02-11.429 13.38-16.796 20.41a38.449 38.449 0 0 0-3.8 5.557c-1.11 2.137-1.984 4.394-2.857 6.62a55.968 55.968 0 0 0-2.291 6.652 29.973 29.973 0 0 0-.616 3.46C1.531 66.472.321 69.216.073 72.268a16.87 16.87 0 0 0 1.894 9.475c1.627 2.833 5.05 3.718 8.086 4.026 4.96 1.302 9.921-.994 14.286-3.609-.307.795-.605 1.59-.903 2.376-.486.796-.992 1.57-1.488 2.356-1 1.63-1.878 3.332-2.629 5.09a56.067 56.067 0 0 0-1.696 4.514c-1.905 3.052-3.651 6.442-3.383 10.11.307 4.166 3.502 6.433 7.4 6.91 4.425.547 8.433-1.143 12.49-2.684a182.334 182.334 0 0 0 4.198-1.651 1.384 1.384 0 0 0 1.27-.079c8.462-4.643 17.48-8.302 26.022-12.805a63.665 63.665 0 0 0 8.333-4.225c.764-.477 1.508-.994 2.242-1.491-2.49 2.743-5.188 5.259-7.867 7.804l-.813.775a1.306 1.306 0 0 0-.992.457c-3.601 3.977-8.017 7.109-11.191 11.453a22.18 22.18 0 0 0-2.193 3.738c-.06 0-.1.109-.159.149a1.143 1.143 0 0 0-.446 1.352c-.992 2.714-1.16 5.627.486 7.954 1.458 1.988 4.316 2.853 6.588 3.539a35.39 35.39 0 0 0 7.62 1.421 45.618 45.618 0 0 0 16.05-1.749c1.32-.378 2.62-.806 3.9-1.263a63.809 63.809 0 0 0 20.834-10.1c3.184-2.237 6.666-4.971 7.47-9.037.863-4.375-2.807-7.248-6.528-8.5a41.332 41.332 0 0 0-6.944-1.492 60.924 60.924 0 0 0-4.217-.487c6.756-5.965 13.562-11.93 19.842-18.412 2.589-2.694 5.615-5.825 8.492-9.255a74.308 74.308 0 0 0 7.441-8.48c2.47-3.5 3.304-7.774 4.444-11.82 1.062-3.779 1.558-7.427-.019-11.115Z" fill="#ABCEFF"/></svg>
