<svg width="28" height="28" viewBox="0 0 28 28" fill="none" xmlns="http://www.w3.org/2000/svg">
<path d="M14.0033 0C6.2603 0 0 6.2603 0 14.0033C0 19.9341 3.62438 25.0412 8.89621 27.0181C8.73147 25.8649 8.73147 24.2175 8.89621 23.0643C9.2257 21.911 10.5437 16.145 10.5437 16.145C10.5437 16.145 10.2142 15.1565 10.2142 14.0033C10.2142 12.0264 11.3674 10.5437 12.6853 10.5437C13.8386 10.5437 14.4975 11.3674 14.4975 12.5206C14.4975 13.6738 13.6738 15.486 13.3443 17.1334C13.0148 18.6161 14.0033 19.7694 15.3213 19.7694C17.7924 19.7694 19.7694 17.1334 19.7694 13.3443C19.7694 10.0494 17.2982 7.57825 13.8385 7.57825C9.88468 7.743 7.57825 10.7084 7.57825 13.6738C7.57825 14.827 8.07249 16.145 8.56672 16.804C8.73147 16.9687 8.73147 17.1334 8.73147 17.1334C8.56672 17.6277 8.40198 18.4514 8.40198 18.7809C8.40198 19.1104 8.23723 19.1104 7.90774 18.9456C6.09555 18.1219 5.10708 15.6507 5.10708 13.5091C5.10708 9.06096 8.23723 5.10708 14.3328 5.10708C19.1104 5.10708 22.8995 8.56672 22.8995 13.1796C22.8995 17.9572 19.9341 21.911 15.6507 21.911C14.168 21.911 12.8501 21.2521 12.5206 20.2636L11.6969 23.5585C11.3674 24.7117 10.5437 26.3591 9.88468 27.1829C11.2026 27.8418 12.5206 28.0066 14.0033 28.0066C21.7463 28.0066 28.0066 21.7463 28.0066 14.0033C28.0066 6.2603 21.7463 0 14.0033 0Z" fill="#fff"/>
</svg>
