<svg width="30" height="28" viewBox="0 0 30 28" fill="none" xmlns="http://www.w3.org/2000/svg">
<path d="M1.60791 27.8699C0.719934 27.8699 0 27.1812 0 26.3311V1.53872C0 0.688633 0.719934 0 1.60791 0H27.5272C28.4152 0 29.1351 0.688633 29.1351 1.53872V26.3311C29.1351 27.1812 28.4152 27.8699 27.5272 27.8699H20.1021V17.0774H23.8896L24.4563 12.8715H20.1021V10.1862C20.1021 8.9687 20.4563 8.13839 22.2817 8.13839L24.6096 8.13674V4.37562C24.2076 4.32455 22.8254 4.20923 21.2175 4.20923C17.86 4.20923 15.5618 6.16969 15.5618 9.76936V12.8715H11.7644V17.0774H15.5618V27.8699H1.60791Z" fill="#fff"/>
</svg>
