<svg width="25" height="28" viewBox="0 0 25 28" fill="none" xmlns="http://www.w3.org/2000/svg">
<path d="M21.2458 5.9882C21.0568 5.89053 20.8728 5.78345 20.6945 5.66738C20.1761 5.32467 19.7008 4.92084 19.2789 4.46461C18.2231 3.25659 17.8288 2.03107 17.6835 1.17302H17.6893C17.568 0.46081 17.6182 0 17.6258 0H12.817V18.5946C12.817 18.8442 12.817 19.091 12.8065 19.3348C12.8065 19.3651 12.8036 19.3931 12.8018 19.4258C12.8018 19.4392 12.8018 19.4532 12.7989 19.4672C12.7989 19.4707 12.7989 19.4742 12.7989 19.4777C12.7482 20.1449 12.5344 20.7894 12.1761 21.3545C11.8179 21.9196 11.3263 22.388 10.7445 22.7185C10.1382 23.0635 9.45245 23.2444 8.75488 23.2435C6.51441 23.2435 4.69858 21.4166 4.69858 19.1604C4.69858 16.9042 6.51441 15.0772 8.75488 15.0772C9.17899 15.0769 9.60049 15.1436 10.0037 15.275L10.0096 10.3787C8.78542 10.2206 7.54179 10.3179 6.35713 10.6645C5.17247 11.011 4.07249 11.5993 3.12658 12.3923C2.29774 13.1124 1.60093 13.9717 1.06751 14.9314C0.864522 15.2814 0.0986437 16.6877 0.00589829 18.9702C-0.0524321 20.2657 0.336632 21.6079 0.522122 22.1626V22.1743C0.638783 22.501 1.09084 23.6157 1.82756 24.5554C2.42162 25.3091 3.12348 25.9713 3.91054 26.5205V26.5088L3.9222 26.5205C6.25017 28.1024 8.83129 27.9986 8.83129 27.9986C9.2781 27.9805 10.7749 27.9986 12.4746 27.1931C14.3598 26.3 15.4331 24.9695 15.4331 24.9695C16.1188 24.1745 16.664 23.2685 17.0454 22.2904C17.4805 21.1465 17.6258 19.7746 17.6258 19.2263V9.36145C17.6841 9.39645 18.4611 9.91034 18.4611 9.91034C18.4611 9.91034 19.5804 10.6278 21.3268 11.095C22.5798 11.4275 24.2679 11.4975 24.2679 11.4975V6.72375C23.6764 6.78791 22.4754 6.60125 21.2458 5.9882Z" fill="#fff"/>
</svg>
