<svg width="32" height="30" viewBox="0 0 32 30" fill="none" xmlns="http://www.w3.org/2000/svg">
<path d="M15.6787 0C19.9374 0 20.4712 0.0164745 22.1433 0.0906096C23.8122 0.163097 24.9522 0.416804 25.9489 0.787479C26.9802 1.17133 27.855 1.68369 28.7265 2.5173C29.598 3.35091 30.1351 4.18781 30.5354 5.17463C30.9226 6.1285 31.1878 7.21911 31.2636 8.81549C31.3394 10.4152 31.3575 10.9259 31.3575 15C31.3575 19.0741 31.3394 19.5848 31.2636 21.1845C31.1878 22.7809 30.9226 23.8715 30.5354 24.8254C30.1351 25.8122 29.598 26.6474 28.7265 27.4827C27.855 28.3163 26.9802 28.8287 25.9489 29.2125C24.9522 29.5832 23.8122 29.8369 22.1433 29.9094C20.4712 29.9819 19.9374 30 15.6787 30C11.4201 30 10.8863 29.9835 9.21417 29.9094C7.5453 29.8369 6.40527 29.5832 5.40857 29.2125C4.37726 28.8287 3.50247 28.3163 2.63097 27.4827C1.75947 26.6491 1.22241 25.8122 0.822076 24.8254C0.434926 23.8715 0.169687 22.7809 0.0939044 21.1845C0.0181219 19.5848 0 19.0741 0 15C0 10.9259 0.0181219 10.4152 0.0939044 8.81549C0.169687 7.21911 0.434926 6.1285 0.822076 5.17463C1.22241 4.18781 1.75947 3.35255 2.63097 2.5173C3.50247 1.68369 4.37726 1.17133 5.40857 0.787479C6.40527 0.416804 7.5453 0.163097 9.21417 0.0906096C10.8863 0.0181219 11.4201 0 15.6787 0ZM15.6787 2.70181C11.4909 2.70181 10.9951 2.71664 9.34267 2.78913C7.81384 2.85502 6.98353 3.10049 6.43163 3.30478C5.70016 3.57661 5.17792 3.90115 4.62932 4.42669C4.08073 4.95222 3.74135 5.4514 3.45634 6.15157C3.24217 6.6804 2.98682 7.47446 2.91598 8.9374C2.8402 10.5189 2.82372 10.9934 2.82372 14.9984C2.82372 19.0033 2.8402 19.4778 2.91598 21.0593C2.98517 22.5222 3.24053 23.3163 3.45634 23.8451C3.74135 24.5453 4.08073 25.0445 4.62932 25.57C5.17792 26.0956 5.70016 26.4201 6.43163 26.6919C6.98353 26.8979 7.81384 27.1417 9.34267 27.2076C10.9967 27.2801 11.4926 27.2949 15.6787 27.2949C19.8666 27.2949 20.3624 27.2801 22.0148 27.2076C23.5437 27.1417 24.374 26.8962 24.9259 26.6919C25.6573 26.4201 26.1796 26.0956 26.7282 25.57C27.2768 25.0445 27.6161 24.5453 27.9012 23.8451C28.1153 23.3163 28.3707 22.5222 28.4415 21.0593C28.5173 19.4778 28.5338 19.0033 28.5338 14.9984C28.5338 10.9934 28.5173 10.5189 28.4415 8.9374C28.3723 7.47446 28.117 6.6804 27.9012 6.15157C27.6161 5.4514 27.2768 4.95222 26.7282 4.42669C26.1796 3.90115 25.6573 3.57661 24.9259 3.30478C24.374 3.09885 23.5437 2.85502 22.0148 2.78913C20.3608 2.71664 19.8649 2.70181 15.6787 2.70181ZM15.6787 7.29654C20.1252 7.29654 23.7315 10.7446 23.7315 14.9984C23.7315 19.2521 20.1269 22.7002 15.6787 22.7002C11.2323 22.7002 7.62603 19.2521 7.62603 14.9984C7.62603 10.7446 11.2306 7.29654 15.6787 7.29654ZM15.6787 19.9984C18.5651 19.9984 20.9061 17.7595 20.9061 14.9984C20.9061 12.2372 18.5667 9.99835 15.6787 9.99835C12.7924 9.99835 10.4514 12.2372 10.4514 14.9984C10.4514 17.7595 12.7908 19.9984 15.6787 19.9984ZM25.9308 6.99176C25.9308 7.98517 25.089 8.79242 24.0494 8.79242C23.0099 8.79242 22.168 7.98682 22.168 6.99176C22.168 5.99835 23.0099 5.1911 24.0494 5.1911C25.089 5.1911 25.9308 5.99671 25.9308 6.99176Z" fill="#fff"/>
</svg>
