<svg width="28" height="28" viewBox="0 0 28 28" fill="none" xmlns="http://www.w3.org/2000/svg">
<path fill-rule="evenodd" clip-rule="evenodd" d="M23.8655 23.8647H19.7127V17.3649C19.7127 15.8152 19.6855 13.8213 17.5539 13.8213C15.3927 13.8213 15.0629 15.5102 15.0629 17.2544V23.8647H10.914V10.4994H14.8956V12.3268H14.9524C15.5063 11.2758 16.8623 10.1679 18.8834 10.1679C23.0883 10.1679 23.8655 12.9352 23.8655 16.5348V23.8647ZM6.22991 8.67349C4.89571 8.67349 3.82055 7.59445 3.82055 6.26414C3.82055 4.93461 4.89571 3.85557 6.22991 3.85557C7.55867 3.85557 8.63771 4.93461 8.63771 6.26414C8.63771 7.59445 7.55867 8.67349 6.22991 8.67349ZM4.15042 23.8647H8.30785V10.4994H4.15042V23.8647ZM25.9341 0H2.06627C0.92656 0 0 0.903991 0 2.01959V25.9855C0 27.101 0.92656 28.0066 2.06627 28.0066H25.9341C27.0769 28.0066 28.0058 27.101 28.0058 25.9855V2.01959C28.0058 0.903991 27.0769 0 25.9341 0Z" fill="#fff"/>
</svg>
