<svg width="34" height="24" viewBox="0 0 34 24" fill="none" xmlns="http://www.w3.org/2000/svg">
<path d="M13.3575 16.0313L13.3558 6.67381L22.453 11.369L13.3575 16.0313ZM33.3328 5.05272C33.3328 5.05272 33.0033 2.75783 31.9951 1.74794C30.715 0.421746 29.2801 0.415157 28.6211 0.337727C23.9094 0 16.8418 0 16.8418 0H16.827C16.827 0 9.75947 0 5.04778 0.337727C4.3888 0.415157 2.95552 0.421746 1.67381 1.74794C0.665568 2.75783 0.336079 5.05272 0.336079 5.05272C0.336079 5.05272 0 7.74794 0 10.4432V12.9703C0 15.6656 0.336079 18.3608 0.336079 18.3608C0.336079 18.3608 0.663921 20.6557 1.67381 21.6656C2.95552 22.9918 4.63756 22.9506 5.38715 23.089C8.08072 23.3443 16.8353 23.4234 16.8353 23.4234C16.8353 23.4234 23.9094 23.4135 28.6211 23.0758C29.2784 22.9984 30.7133 22.9918 31.9951 21.6639C33.0033 20.654 33.3328 18.3591 33.3328 18.3591C33.3328 18.3591 33.6689 15.6656 33.6689 12.9687V10.4415C33.6689 7.74794 33.3328 5.05272 33.3328 5.05272Z" fill="#fff"/>
</svg>
